G75*
%MOIN*%
%OFA0B0*%
%FSLAX24Y24*%
%IPPOS*%
%LPD*%
%AMOC8*
5,1,8,0,0,1.08239X$1,22.5*
%
%ADD10C,0.0000*%
%ADD11C,0.0060*%
%ADD12C,0.0160*%
%ADD13C,0.0100*%
%ADD14R,0.0079X0.0079*%
%ADD15C,0.0118*%
%ADD16C,0.0050*%
D10*
X003228Y003056D02*
X003230Y003017D01*
X003236Y002979D01*
X003245Y002942D01*
X003258Y002905D01*
X003275Y002870D01*
X003294Y002837D01*
X003317Y002806D01*
X003343Y002777D01*
X003372Y002751D01*
X003403Y002728D01*
X003436Y002709D01*
X003471Y002692D01*
X003508Y002679D01*
X003545Y002670D01*
X003583Y002664D01*
X003622Y002662D01*
X022519Y002662D01*
X022558Y002664D01*
X022596Y002670D01*
X022633Y002679D01*
X022670Y002692D01*
X022705Y002709D01*
X022738Y002728D01*
X022769Y002751D01*
X022798Y002777D01*
X022824Y002806D01*
X022847Y002837D01*
X022866Y002870D01*
X022883Y002905D01*
X022896Y002942D01*
X022905Y002979D01*
X022911Y003017D01*
X022913Y003056D01*
X022913Y021954D01*
X022911Y021993D01*
X022905Y022031D01*
X022896Y022068D01*
X022883Y022105D01*
X022866Y022140D01*
X022847Y022173D01*
X022824Y022204D01*
X022798Y022233D01*
X022769Y022259D01*
X022738Y022282D01*
X022705Y022301D01*
X022670Y022318D01*
X022633Y022331D01*
X022596Y022340D01*
X022558Y022346D01*
X022519Y022348D01*
X022519Y022347D02*
X003622Y022347D01*
X003622Y022348D02*
X003583Y022346D01*
X003545Y022340D01*
X003508Y022331D01*
X003471Y022318D01*
X003436Y022301D01*
X003403Y022282D01*
X003372Y022259D01*
X003343Y022233D01*
X003317Y022204D01*
X003294Y022173D01*
X003275Y022140D01*
X003258Y022105D01*
X003245Y022068D01*
X003236Y022031D01*
X003230Y021993D01*
X003228Y021954D01*
X003228Y003056D01*
X020441Y011204D02*
X020443Y011238D01*
X020449Y011272D01*
X020459Y011305D01*
X020472Y011336D01*
X020490Y011366D01*
X020510Y011394D01*
X020534Y011419D01*
X020560Y011441D01*
X020588Y011459D01*
X020619Y011475D01*
X020651Y011487D01*
X020685Y011495D01*
X020719Y011499D01*
X020753Y011499D01*
X020787Y011495D01*
X020821Y011487D01*
X020853Y011475D01*
X020883Y011459D01*
X020912Y011441D01*
X020938Y011419D01*
X020962Y011394D01*
X020982Y011366D01*
X021000Y011336D01*
X021013Y011305D01*
X021023Y011272D01*
X021029Y011238D01*
X021031Y011204D01*
X021029Y011170D01*
X021023Y011136D01*
X021013Y011103D01*
X021000Y011072D01*
X020982Y011042D01*
X020962Y011014D01*
X020938Y010989D01*
X020912Y010967D01*
X020884Y010949D01*
X020853Y010933D01*
X020821Y010921D01*
X020787Y010913D01*
X020753Y010909D01*
X020719Y010909D01*
X020685Y010913D01*
X020651Y010921D01*
X020619Y010933D01*
X020588Y010949D01*
X020560Y010967D01*
X020534Y010989D01*
X020510Y011014D01*
X020490Y011042D01*
X020472Y011072D01*
X020459Y011103D01*
X020449Y011136D01*
X020443Y011170D01*
X020441Y011204D01*
D11*
X011894Y006559D02*
X011821Y006486D01*
X011821Y006339D01*
X011894Y006266D01*
X011967Y006266D01*
X012041Y006339D01*
X012041Y006486D01*
X012114Y006559D01*
X012188Y006559D01*
X012261Y006486D01*
X012261Y006339D01*
X012188Y006266D01*
X011821Y007020D02*
X011821Y006726D01*
X012261Y006726D01*
X012261Y007020D01*
X012041Y006873D02*
X012041Y006726D01*
X012261Y007186D02*
X011821Y007186D01*
X011821Y007407D01*
X011894Y007480D01*
X012041Y007480D01*
X012114Y007407D01*
X012114Y007186D01*
X012114Y007333D02*
X012261Y007480D01*
X011821Y007647D02*
X012114Y007647D01*
X012261Y007794D01*
X012114Y007940D01*
X011821Y007940D01*
X011821Y008327D02*
X011821Y008181D01*
X011894Y008107D01*
X012188Y008107D01*
X012261Y008181D01*
X012261Y008327D01*
X012188Y008401D01*
X011894Y008401D01*
X011821Y008327D01*
X018973Y015845D02*
X018899Y015771D01*
X018899Y015624D01*
X018973Y015551D01*
X019046Y015551D01*
X019120Y015624D01*
X019120Y015771D01*
X019193Y015845D01*
X019266Y015845D01*
X019340Y015771D01*
X019340Y015624D01*
X019266Y015551D01*
X019340Y016158D02*
X018899Y016158D01*
X018899Y016011D02*
X018899Y016305D01*
X019340Y016472D02*
X019046Y016472D01*
X018899Y016619D01*
X019046Y016765D01*
X019340Y016765D01*
X019120Y016765D02*
X019120Y016472D01*
X019340Y017079D02*
X018899Y017079D01*
X018899Y016932D02*
X018899Y017226D01*
X009971Y009482D02*
X009897Y009408D01*
X009897Y009262D01*
X009971Y009188D01*
X010044Y009188D01*
X010118Y009262D01*
X010118Y009408D01*
X010191Y009482D01*
X010264Y009482D01*
X010338Y009408D01*
X010338Y009262D01*
X010264Y009188D01*
X010044Y009649D02*
X009897Y009795D01*
X010338Y009795D01*
X010338Y009649D02*
X010338Y009942D01*
X010955Y009482D02*
X010882Y009408D01*
X010882Y009262D01*
X010955Y009188D01*
X011028Y009188D01*
X011102Y009262D01*
X011102Y009408D01*
X011175Y009482D01*
X011249Y009482D01*
X011322Y009408D01*
X011322Y009262D01*
X011249Y009188D01*
X011322Y009942D02*
X011322Y009649D01*
X011028Y009942D01*
X010955Y009942D01*
X010882Y009869D01*
X010882Y009722D01*
X010955Y009649D01*
X017371Y017980D02*
X016931Y017980D01*
X016931Y018200D01*
X017004Y018273D01*
X017151Y018273D01*
X017224Y018200D01*
X017224Y017980D01*
X017224Y018127D02*
X017371Y018273D01*
X017298Y018440D02*
X017371Y018514D01*
X017371Y018660D01*
X017298Y018734D01*
X017004Y018734D01*
X016931Y018660D01*
X016931Y018514D01*
X017004Y018440D01*
X017078Y018440D01*
X017151Y018514D01*
X017151Y018734D01*
X019340Y017980D02*
X018899Y017980D01*
X018899Y018200D01*
X018973Y018273D01*
X019120Y018273D01*
X019193Y018200D01*
X019193Y017980D01*
X019193Y018127D02*
X019340Y018273D01*
X018973Y018440D02*
X018899Y018514D01*
X018899Y018660D01*
X018973Y018734D01*
X019046Y018734D01*
X019120Y018660D01*
X019193Y018734D01*
X019266Y018734D01*
X019340Y018660D01*
X019340Y018514D01*
X019266Y018440D01*
X019193Y018440D01*
X019120Y018514D01*
X019046Y018440D01*
X018973Y018440D01*
X019120Y018514D02*
X019120Y018660D01*
X021308Y017980D02*
X020868Y017980D01*
X020868Y018200D01*
X020941Y018273D01*
X021088Y018273D01*
X021161Y018200D01*
X021161Y017980D01*
X021161Y018127D02*
X021308Y018273D01*
X020868Y018440D02*
X020868Y018734D01*
X020941Y018734D01*
X021235Y018440D01*
X021308Y018440D01*
X021308Y015781D02*
X020868Y015781D01*
X020868Y016001D01*
X020941Y016075D01*
X021088Y016075D01*
X021161Y016001D01*
X021161Y015781D01*
X021161Y015928D02*
X021308Y016075D01*
X021015Y016242D02*
X020868Y016388D01*
X021308Y016388D01*
X021308Y016242D02*
X021308Y016535D01*
X021235Y016702D02*
X020941Y016702D01*
X020868Y016775D01*
X020868Y016922D01*
X020941Y016996D01*
X021235Y016996D01*
X021308Y016922D01*
X021308Y016775D01*
X021235Y016702D01*
X020941Y016996D01*
X017371Y015781D02*
X016931Y015781D01*
X016931Y016001D01*
X017004Y016075D01*
X017151Y016075D01*
X017224Y016001D01*
X017224Y015781D01*
X017224Y015928D02*
X017371Y016075D01*
X017078Y016242D02*
X016931Y016388D01*
X017371Y016388D01*
X017371Y016242D02*
X017371Y016535D01*
X017078Y016702D02*
X016931Y016849D01*
X017371Y016849D01*
X017371Y016702D02*
X017371Y016996D01*
X004288Y011067D02*
X004728Y011067D01*
X004728Y010846D01*
X004655Y010773D01*
X004508Y010773D01*
X004434Y010846D01*
X004434Y011067D01*
X004728Y010386D02*
X004728Y010533D01*
X004655Y010606D01*
X004361Y010606D01*
X004288Y010533D01*
X004288Y010386D01*
X004361Y010313D01*
X004655Y010313D01*
X004728Y010386D01*
X004728Y010146D02*
X004288Y010146D01*
X004434Y009999D01*
X004288Y009852D01*
X004728Y009852D01*
X004728Y009392D02*
X004728Y009685D01*
X004288Y009685D01*
X004288Y009392D01*
X004508Y009539D02*
X004508Y009685D01*
X004288Y009225D02*
X004728Y009225D01*
X004728Y009005D01*
X004655Y008931D01*
X004508Y008931D01*
X004434Y009005D01*
X004434Y009225D01*
X004434Y009078D02*
X004288Y008931D01*
X007270Y011544D02*
X007270Y011250D01*
X007417Y011104D01*
X007563Y011250D01*
X007563Y011544D01*
X007730Y011104D02*
X007730Y011544D01*
X007950Y011544D01*
X008024Y011471D01*
X008024Y011397D01*
X007950Y011324D01*
X008024Y011250D01*
X008024Y011177D01*
X007950Y011104D01*
X007730Y011104D01*
X007730Y011324D02*
X007950Y011324D01*
X007563Y010166D02*
X007270Y010166D01*
X007270Y009946D01*
X007417Y010019D01*
X007490Y010019D01*
X007563Y009946D01*
X007563Y009799D01*
X007490Y009726D01*
X007343Y009726D01*
X007270Y009799D01*
X007730Y010166D02*
X007730Y009872D01*
X007877Y009726D01*
X008024Y009872D01*
X008024Y010166D01*
X007563Y008715D02*
X007490Y008788D01*
X007343Y008788D01*
X007270Y008715D01*
X007270Y008421D01*
X007343Y008348D01*
X007490Y008348D01*
X007563Y008421D01*
X007563Y008568D01*
X007417Y008568D01*
X007730Y008348D02*
X007730Y008788D01*
X008024Y008348D01*
X008024Y008788D01*
X008191Y008788D02*
X008191Y008348D01*
X008411Y008348D01*
X008484Y008421D01*
X008484Y008715D01*
X008411Y008788D01*
X008191Y008788D01*
X021017Y020421D02*
X020724Y020421D01*
X020650Y020494D01*
X020650Y020641D01*
X020724Y020714D01*
X021017Y020714D01*
X021091Y020641D01*
X021091Y020494D01*
X021017Y020421D01*
X020724Y020714D01*
X019797Y020421D02*
X019650Y020568D01*
X020091Y020568D01*
X020091Y020714D02*
X020091Y020421D01*
X019091Y020714D02*
X019091Y020421D01*
X018797Y020714D01*
X018724Y020714D01*
X018650Y020641D01*
X018650Y020494D01*
X018724Y020421D01*
X017724Y020421D02*
X017650Y020494D01*
X017650Y020641D01*
X017724Y020714D01*
X017797Y020714D01*
X017870Y020641D01*
X017870Y020568D01*
X017870Y020641D02*
X017944Y020714D01*
X018017Y020714D01*
X018091Y020641D01*
X018091Y020494D01*
X018017Y020421D01*
X017091Y020641D02*
X016650Y020641D01*
X016870Y020421D01*
X016870Y020714D01*
X015724Y019333D02*
X015650Y019260D01*
X015650Y019113D01*
X015724Y019040D01*
X015797Y019040D01*
X015870Y019113D01*
X015870Y019260D01*
X015944Y019333D01*
X016017Y019333D01*
X016091Y019260D01*
X016091Y019113D01*
X016017Y019040D01*
X016091Y019794D02*
X016091Y019500D01*
X015797Y019794D01*
X015724Y019794D01*
X015650Y019720D01*
X015650Y019573D01*
X015724Y019500D01*
X016091Y019960D02*
X015650Y020254D01*
X015650Y020714D02*
X015650Y020421D01*
X015870Y020421D01*
X015797Y020568D01*
X015797Y020641D01*
X015870Y020714D01*
X016017Y020714D01*
X016091Y020641D01*
X016091Y020494D01*
X016017Y020421D01*
X014724Y019333D02*
X014650Y019260D01*
X014650Y019113D01*
X014724Y019040D01*
X014797Y019040D01*
X014870Y019113D01*
X014870Y019260D01*
X014944Y019333D01*
X015017Y019333D01*
X015091Y019260D01*
X015091Y019113D01*
X015017Y019040D01*
X014797Y019500D02*
X014650Y019647D01*
X015091Y019647D01*
X015091Y019500D02*
X015091Y019794D01*
X015091Y019960D02*
X014650Y020254D01*
X014650Y020714D02*
X014724Y020568D01*
X014870Y020421D01*
X015017Y020421D01*
X015091Y020494D01*
X015091Y020641D01*
X015017Y020714D01*
X014944Y020714D01*
X014870Y020641D01*
X014870Y020421D01*
X014091Y018579D02*
X013650Y018579D01*
X013650Y018799D01*
X013724Y018873D01*
X013797Y018873D01*
X013870Y018799D01*
X013944Y018873D01*
X014017Y018873D01*
X014091Y018799D01*
X014091Y018579D01*
X013870Y018579D02*
X013870Y018799D01*
X014091Y019186D02*
X013650Y019186D01*
X013650Y019040D02*
X013650Y019333D01*
X014091Y019500D02*
X013650Y019500D01*
X014091Y019794D01*
X013650Y019794D01*
X013650Y020254D02*
X014091Y019960D01*
X013650Y020421D02*
X013650Y020714D01*
X013724Y020714D01*
X014017Y020421D01*
X014091Y020421D01*
X012491Y018579D02*
X012050Y018579D01*
X012050Y018799D01*
X012124Y018873D01*
X012197Y018873D01*
X012270Y018799D01*
X012344Y018873D01*
X012417Y018873D01*
X012491Y018799D01*
X012491Y018579D01*
X012270Y018579D02*
X012270Y018799D01*
X012050Y019040D02*
X012050Y019333D01*
X012124Y019333D01*
X012417Y019040D01*
X012491Y019040D01*
X012491Y019333D01*
X012491Y019500D02*
X012050Y019500D01*
X012050Y019720D01*
X012124Y019794D01*
X012270Y019794D01*
X012344Y019720D01*
X012344Y019500D01*
X012344Y019647D02*
X012491Y019794D01*
X012491Y019960D02*
X012050Y020254D01*
X012124Y020421D02*
X012050Y020494D01*
X012050Y020641D01*
X012124Y020714D01*
X012197Y020714D01*
X012270Y020641D01*
X012344Y020714D01*
X012417Y020714D01*
X012491Y020641D01*
X012491Y020494D01*
X012417Y020421D01*
X012344Y020421D01*
X012270Y020494D01*
X012197Y020421D01*
X012124Y020421D01*
X012270Y020494D02*
X012270Y020641D01*
X011417Y020421D02*
X011491Y020494D01*
X011491Y020641D01*
X011417Y020714D01*
X011124Y020714D01*
X011050Y020641D01*
X011050Y020494D01*
X011124Y020421D01*
X011197Y020421D01*
X011270Y020494D01*
X011270Y020714D01*
X010197Y019960D02*
X010050Y020107D01*
X010491Y020107D01*
X010491Y019960D02*
X010491Y020254D01*
X010417Y020421D02*
X010124Y020421D01*
X010050Y020494D01*
X010050Y020641D01*
X010124Y020714D01*
X010417Y020714D01*
X010491Y020641D01*
X010491Y020494D01*
X010417Y020421D01*
X010124Y020714D01*
X009197Y019960D02*
X009050Y020107D01*
X009491Y020107D01*
X009491Y019960D02*
X009491Y020254D01*
X009197Y020421D02*
X009050Y020568D01*
X009491Y020568D01*
X009491Y020714D02*
X009491Y020421D01*
X008197Y019960D02*
X008050Y020107D01*
X008491Y020107D01*
X008491Y019960D02*
X008491Y020254D01*
X008491Y020714D02*
X008491Y020421D01*
X008197Y020714D01*
X008124Y020714D01*
X008050Y020641D01*
X008050Y020494D01*
X008124Y020421D01*
X007197Y019960D02*
X007050Y020107D01*
X007491Y020107D01*
X007491Y019960D02*
X007491Y020254D01*
X007124Y020421D02*
X007050Y020494D01*
X007050Y020641D01*
X007124Y020714D01*
X007197Y020714D01*
X007270Y020641D01*
X007270Y020568D01*
X007270Y020641D02*
X007344Y020714D01*
X007417Y020714D01*
X007491Y020641D01*
X007491Y020494D01*
X007417Y020421D01*
X005491Y019040D02*
X005197Y019040D01*
X005050Y019186D01*
X005197Y019333D01*
X005491Y019333D01*
X005270Y019333D02*
X005270Y019040D01*
X005491Y019500D02*
X005050Y019500D01*
X005050Y019720D01*
X005124Y019794D01*
X005270Y019794D01*
X005344Y019720D01*
X005344Y019500D01*
X005344Y019647D02*
X005491Y019794D01*
X005050Y020254D02*
X005050Y019960D01*
X005491Y019960D01*
X005491Y020254D01*
X005270Y020107D02*
X005270Y019960D01*
X005491Y020421D02*
X005050Y020421D01*
X005050Y020714D01*
X005270Y020568D02*
X005270Y020421D01*
X006124Y019794D02*
X006050Y019720D01*
X006050Y019573D01*
X006124Y019500D01*
X006417Y019500D01*
X006491Y019573D01*
X006491Y019720D01*
X006417Y019794D01*
X006270Y019794D01*
X006270Y019647D01*
X006491Y019960D02*
X006050Y019960D01*
X006491Y020254D01*
X006050Y020254D01*
X006050Y020421D02*
X006491Y020421D01*
X006491Y020641D01*
X006417Y020714D01*
X006124Y020714D01*
X006050Y020641D01*
X006050Y020421D01*
X013650Y004188D02*
X013944Y004188D01*
X014091Y004335D01*
X013944Y004482D01*
X013650Y004482D01*
X014091Y004649D02*
X014091Y004795D01*
X014091Y004722D02*
X013650Y004722D01*
X013650Y004649D02*
X013650Y004795D01*
X014091Y004956D02*
X013650Y004956D01*
X014091Y005249D01*
X013650Y005249D01*
X012724Y004482D02*
X012650Y004408D01*
X012650Y004262D01*
X012724Y004188D01*
X013017Y004188D01*
X013091Y004262D01*
X013091Y004408D01*
X013017Y004482D01*
X012870Y004482D01*
X012870Y004335D01*
X013091Y004649D02*
X012650Y004649D01*
X013091Y004942D01*
X012650Y004942D01*
X012650Y005109D02*
X013091Y005109D01*
X013091Y005329D01*
X013017Y005403D01*
X012724Y005403D01*
X012650Y005329D01*
X012650Y005109D01*
X011724Y004482D02*
X011650Y004408D01*
X011650Y004262D01*
X011724Y004188D01*
X012017Y004188D01*
X012091Y004262D01*
X012091Y004408D01*
X012017Y004482D01*
X011870Y004482D01*
X011870Y004335D01*
X012091Y004649D02*
X011650Y004649D01*
X012091Y004942D01*
X011650Y004942D01*
X011650Y005109D02*
X012091Y005109D01*
X012091Y005329D01*
X012017Y005403D01*
X011724Y005403D01*
X011650Y005329D01*
X011650Y005109D01*
X010650Y004482D02*
X010650Y004188D01*
X010870Y004188D01*
X010797Y004335D01*
X010797Y004408D01*
X010870Y004482D01*
X011017Y004482D01*
X011091Y004408D01*
X011091Y004262D01*
X011017Y004188D01*
X010650Y004649D02*
X010944Y004649D01*
X011091Y004795D01*
X010944Y004942D01*
X010650Y004942D01*
X009091Y004188D02*
X008650Y004188D01*
X008650Y004408D01*
X008724Y004482D01*
X008870Y004482D01*
X008944Y004408D01*
X008944Y004188D01*
X008944Y004335D02*
X009091Y004482D01*
X008724Y004942D02*
X008650Y004869D01*
X008650Y004722D01*
X008724Y004649D01*
X008797Y004649D01*
X008870Y004722D01*
X008870Y004869D01*
X008944Y004942D01*
X009017Y004942D01*
X009091Y004869D01*
X009091Y004722D01*
X009017Y004649D01*
X009091Y005256D02*
X008650Y005256D01*
X008650Y005109D02*
X008650Y005403D01*
X009731Y004188D02*
X009658Y004262D01*
X009658Y004408D01*
X009731Y004482D01*
X009804Y004482D01*
X009878Y004408D01*
X009878Y004335D01*
X009878Y004408D02*
X009951Y004482D01*
X010025Y004482D01*
X010098Y004408D01*
X010098Y004262D01*
X010025Y004188D01*
X010098Y004649D02*
X010025Y004649D01*
X010025Y004722D01*
X010098Y004722D01*
X010098Y004649D01*
X009731Y004879D02*
X009658Y004952D01*
X009658Y005099D01*
X009731Y005172D01*
X009804Y005172D01*
X009878Y005099D01*
X009878Y005026D01*
X009878Y005099D02*
X009951Y005172D01*
X010025Y005172D01*
X010098Y005099D01*
X010098Y004952D01*
X010025Y004879D01*
X009658Y005339D02*
X009951Y005339D01*
X010098Y005486D01*
X009951Y005633D01*
X009658Y005633D01*
X005810Y004364D02*
X005370Y004364D01*
X005370Y004584D01*
X005443Y004657D01*
X005517Y004657D01*
X005590Y004584D01*
X005663Y004657D01*
X005737Y004657D01*
X005810Y004584D01*
X005810Y004364D01*
X005590Y004364D02*
X005590Y004584D01*
X005810Y004971D02*
X005370Y004971D01*
X005370Y004824D02*
X005370Y005118D01*
X005810Y005285D02*
X005370Y005285D01*
X005810Y005578D01*
X005370Y005578D01*
X013291Y011844D02*
X012850Y011844D01*
X012850Y012064D01*
X012924Y012138D01*
X012997Y012138D01*
X013070Y012064D01*
X013144Y012138D01*
X013217Y012138D01*
X013291Y012064D01*
X013291Y011844D01*
X013070Y011844D02*
X013070Y012064D01*
X012850Y012305D02*
X012850Y012598D01*
X012924Y012598D01*
X013217Y012305D01*
X013291Y012305D01*
X013291Y012598D01*
X013291Y012765D02*
X012850Y012765D01*
X012850Y012985D01*
X012924Y013059D01*
X013070Y013059D01*
X013144Y012985D01*
X013144Y012765D01*
X013144Y012912D02*
X013291Y013059D01*
X017802Y019417D02*
X017948Y019417D01*
X017875Y019417D02*
X017875Y019857D01*
X017802Y019857D02*
X017948Y019857D01*
X018863Y019784D02*
X018789Y019857D01*
X018642Y019857D01*
X018569Y019784D01*
X018569Y019490D01*
X018642Y019417D01*
X018789Y019417D01*
X018863Y019490D01*
X018360Y019615D02*
X018133Y019615D01*
X018360Y019842D01*
X018360Y019899D01*
X018303Y019955D01*
X018190Y019955D01*
X018133Y019899D01*
X020085Y019784D02*
X020012Y019857D01*
X019865Y019857D01*
X019792Y019784D01*
X019792Y019710D01*
X019865Y019637D01*
X020012Y019637D01*
X020085Y019563D01*
X020085Y019490D01*
X020012Y019417D01*
X019865Y019417D01*
X019792Y019490D01*
X020546Y019857D02*
X020252Y019857D01*
X020252Y019417D01*
X020546Y019417D01*
X020399Y019637D02*
X020252Y019637D01*
X020713Y019417D02*
X020713Y019857D01*
X020933Y019857D01*
X021006Y019784D01*
X021006Y019637D01*
X020933Y019563D01*
X020713Y019563D01*
X020859Y019563D02*
X021006Y019417D01*
X004728Y014927D02*
X004288Y014927D01*
X004288Y014633D01*
X004288Y014467D02*
X004288Y014320D01*
X004288Y014393D02*
X004728Y014393D01*
X004728Y014320D02*
X004728Y014467D01*
X004655Y013866D02*
X004728Y013939D01*
X004728Y014086D01*
X004655Y014160D01*
X004361Y014160D01*
X004288Y014086D01*
X004288Y013939D01*
X004361Y013866D01*
X004508Y013866D01*
X004508Y014013D01*
X004288Y013699D02*
X004728Y013699D01*
X004508Y013699D02*
X004508Y013406D01*
X004728Y013406D02*
X004288Y013406D01*
X004288Y013092D02*
X004728Y013092D01*
X004728Y013239D02*
X004728Y012945D01*
X008868Y013402D02*
X009308Y013402D01*
X008868Y013255D02*
X008868Y013549D01*
X009015Y013716D02*
X008868Y013863D01*
X009308Y013863D01*
X009308Y014009D02*
X009308Y013716D01*
X011602Y008637D02*
X011602Y008137D01*
X011352Y007887D01*
X010852Y007887D01*
X010602Y008137D01*
X011352Y007887D02*
X011602Y007637D01*
X011602Y007137D01*
X011352Y006887D01*
X010852Y006887D01*
X010602Y007137D01*
X010602Y007637D01*
X010852Y007887D01*
X010852Y008887D02*
X011352Y008887D01*
X011602Y008637D01*
X010852Y008887D02*
X010602Y008637D01*
X010602Y008137D01*
X011352Y006887D02*
X011602Y006637D01*
X011602Y006137D01*
X011352Y005887D01*
X010852Y005887D01*
X010602Y006137D01*
X010602Y006637D01*
X010852Y006887D01*
X010618Y008637D02*
X010618Y008137D01*
X010368Y007887D01*
X009868Y007887D01*
X009618Y008137D01*
X010368Y007887D02*
X010618Y007637D01*
X010618Y007137D01*
X010368Y006887D01*
X009868Y006887D01*
X009618Y007137D01*
X009618Y007637D01*
X009868Y007887D01*
X009868Y008887D02*
X010368Y008887D01*
X010618Y008637D01*
X009868Y008887D02*
X009618Y008637D01*
X009618Y008137D01*
X010368Y006887D02*
X010618Y006637D01*
X010618Y006137D01*
X010368Y005887D01*
X009868Y005887D01*
X009618Y006137D01*
X009618Y006637D01*
X009868Y006887D01*
X016901Y011255D02*
X016901Y011755D01*
X017151Y012005D01*
X017651Y012005D01*
X017901Y011755D01*
X017151Y012005D02*
X016901Y012255D01*
X016901Y012755D01*
X017151Y013005D01*
X017651Y013005D01*
X017901Y012755D01*
X017901Y012255D01*
X017651Y012005D01*
X017651Y011005D02*
X017151Y011005D01*
X016901Y011255D01*
X017651Y011005D02*
X017901Y011255D01*
X017901Y011755D01*
X017151Y013005D02*
X016901Y013255D01*
X016901Y013755D01*
X017151Y014005D01*
X017651Y014005D01*
X017901Y013755D01*
X017901Y013255D01*
X017651Y013005D01*
X007728Y017912D02*
X007978Y018162D01*
X008478Y018162D01*
X008728Y017912D01*
X008728Y017412D01*
X008478Y017162D01*
X007978Y017162D01*
X007728Y017412D01*
X005978Y018162D02*
X006478Y018162D01*
X006728Y017912D01*
X006728Y017412D01*
X006478Y017162D01*
X006728Y017912D02*
X006978Y018162D01*
X007478Y018162D01*
X007728Y017912D01*
X007728Y017412D01*
X007478Y017162D01*
X006978Y017162D01*
X006728Y017412D01*
X005728Y017412D02*
X005728Y017912D01*
X005978Y018162D01*
X005728Y017412D02*
X005978Y017162D01*
X006478Y017162D01*
X008978Y018162D02*
X009478Y018162D01*
X009728Y017912D01*
X009728Y017412D01*
X009478Y017162D01*
X008728Y017912D02*
X008978Y018162D01*
X008728Y017412D02*
X008978Y017162D01*
X009478Y017162D01*
D12*
X019567Y015457D02*
X020354Y015457D01*
X004409Y019985D02*
X003622Y019985D01*
X020059Y013686D02*
X021830Y013686D01*
X021830Y011324D01*
X020059Y011324D01*
X020059Y013686D01*
D13*
X017371Y020379D02*
X017371Y020083D01*
X019371Y020083D01*
X019371Y020379D01*
X019371Y020083D02*
X021371Y020083D01*
X021371Y020379D01*
D14*
X019960Y016402D03*
X004015Y020930D03*
D15*
X010669Y012505D02*
X010671Y012603D01*
X010677Y012701D01*
X010687Y012798D01*
X010701Y012895D01*
X010719Y012992D01*
X010741Y013087D01*
X010766Y013182D01*
X010796Y013275D01*
X010829Y013367D01*
X010866Y013458D01*
X010907Y013547D01*
X010951Y013635D01*
X010999Y013720D01*
X011050Y013804D01*
X011105Y013885D01*
X011163Y013964D01*
X011224Y014041D01*
X011288Y014115D01*
X011355Y014186D01*
X011425Y014255D01*
X011498Y014320D01*
X011573Y014383D01*
X011651Y014442D01*
X011731Y014499D01*
X011814Y014552D01*
X011898Y014601D01*
X011985Y014647D01*
X012073Y014690D01*
X012163Y014729D01*
X012255Y014764D01*
X012347Y014795D01*
X012441Y014823D01*
X012537Y014847D01*
X012632Y014867D01*
X012729Y014883D01*
X012826Y014895D01*
X012924Y014903D01*
X013022Y014907D01*
X013120Y014907D01*
X013218Y014903D01*
X013316Y014895D01*
X013413Y014883D01*
X013510Y014867D01*
X013605Y014847D01*
X013701Y014823D01*
X013795Y014795D01*
X013887Y014764D01*
X013979Y014729D01*
X014069Y014690D01*
X014157Y014647D01*
X014244Y014601D01*
X014328Y014552D01*
X014411Y014499D01*
X014491Y014442D01*
X014569Y014383D01*
X014644Y014320D01*
X014717Y014255D01*
X014787Y014186D01*
X014854Y014115D01*
X014918Y014041D01*
X014979Y013964D01*
X015037Y013885D01*
X015092Y013804D01*
X015143Y013720D01*
X015191Y013635D01*
X015235Y013547D01*
X015276Y013458D01*
X015313Y013367D01*
X015346Y013275D01*
X015376Y013182D01*
X015401Y013087D01*
X015423Y012992D01*
X015441Y012895D01*
X015455Y012798D01*
X015465Y012701D01*
X015471Y012603D01*
X015473Y012505D01*
X015471Y012407D01*
X015465Y012309D01*
X015455Y012212D01*
X015441Y012115D01*
X015423Y012018D01*
X015401Y011923D01*
X015376Y011828D01*
X015346Y011735D01*
X015313Y011643D01*
X015276Y011552D01*
X015235Y011463D01*
X015191Y011375D01*
X015143Y011290D01*
X015092Y011206D01*
X015037Y011125D01*
X014979Y011046D01*
X014918Y010969D01*
X014854Y010895D01*
X014787Y010824D01*
X014717Y010755D01*
X014644Y010690D01*
X014569Y010627D01*
X014491Y010568D01*
X014411Y010511D01*
X014328Y010458D01*
X014244Y010409D01*
X014157Y010363D01*
X014069Y010320D01*
X013979Y010281D01*
X013887Y010246D01*
X013795Y010215D01*
X013701Y010187D01*
X013605Y010163D01*
X013510Y010143D01*
X013413Y010127D01*
X013316Y010115D01*
X013218Y010107D01*
X013120Y010103D01*
X013022Y010103D01*
X012924Y010107D01*
X012826Y010115D01*
X012729Y010127D01*
X012632Y010143D01*
X012537Y010163D01*
X012441Y010187D01*
X012347Y010215D01*
X012255Y010246D01*
X012163Y010281D01*
X012073Y010320D01*
X011985Y010363D01*
X011898Y010409D01*
X011814Y010458D01*
X011731Y010511D01*
X011651Y010568D01*
X011573Y010627D01*
X011498Y010690D01*
X011425Y010755D01*
X011355Y010824D01*
X011288Y010895D01*
X011224Y010969D01*
X011163Y011046D01*
X011105Y011125D01*
X011050Y011206D01*
X010999Y011290D01*
X010951Y011375D01*
X010907Y011463D01*
X010866Y011552D01*
X010829Y011643D01*
X010796Y011735D01*
X010766Y011828D01*
X010741Y011923D01*
X010719Y012018D01*
X010701Y012115D01*
X010687Y012212D01*
X010677Y012309D01*
X010671Y012407D01*
X010669Y012505D01*
D16*
X017076Y007282D02*
X017076Y004341D01*
X014576Y004341D01*
X014576Y004631D01*
X014576Y006993D01*
X014576Y007282D01*
X017076Y007282D01*
X014576Y004631D02*
X015039Y004631D01*
X015039Y006993D01*
X014576Y006993D01*
X017076Y010432D02*
X017076Y007491D01*
X014576Y007491D01*
X014576Y007780D01*
X014576Y010143D01*
X014576Y010432D01*
X017076Y010432D01*
X014576Y007780D02*
X015039Y007780D01*
X015039Y010143D01*
X014576Y010143D01*
X019832Y007282D02*
X019832Y004341D01*
X017332Y004341D01*
X017332Y004631D01*
X017332Y006993D01*
X017332Y007282D01*
X019832Y007282D01*
X017332Y004631D02*
X017795Y004631D01*
X017795Y006993D01*
X017332Y006993D01*
X019832Y010432D02*
X019832Y007491D01*
X017332Y007491D01*
X017332Y007780D01*
X017332Y010143D01*
X017332Y010432D01*
X019832Y010432D01*
X017332Y007780D02*
X017795Y007780D01*
X017795Y010143D01*
X017332Y010143D01*
X022588Y007282D02*
X022588Y004341D01*
X020088Y004341D01*
X020088Y004631D01*
X020088Y006993D01*
X020088Y007282D01*
X022588Y007282D01*
X020088Y004631D02*
X020551Y004631D01*
X020551Y006993D01*
X020088Y006993D01*
X022588Y010432D02*
X022588Y007491D01*
X020088Y007491D01*
X020088Y007780D01*
X020088Y010143D01*
X020088Y010432D01*
X022588Y010432D01*
X020088Y007780D02*
X020551Y007780D01*
X020551Y010143D01*
X020088Y010143D01*
X006850Y015713D02*
X006850Y012446D01*
X003228Y012446D01*
X003228Y015713D01*
X006850Y015713D01*
M02*
