G75*
%MOIN*%
%OFA0B0*%
%FSLAX24Y24*%
%IPPOS*%
%LPD*%
%AMOC8*
5,1,8,0,0,1.08239X$1,22.5*
%
%ADD10C,0.0000*%
%ADD11C,0.0060*%
%ADD12C,0.0600*%
%ADD13R,0.0591X0.0512*%
%ADD14R,0.0472X0.0472*%
%ADD15C,0.0520*%
%ADD16OC8,0.0630*%
%ADD17R,0.0512X0.0591*%
%ADD18R,0.0600X0.0600*%
%ADD19C,0.0600*%
%ADD20R,0.0551X0.0827*%
%ADD21OC8,0.0827*%
%ADD22OC8,0.0602*%
%ADD23R,0.0551X0.0394*%
%ADD24R,0.1278X0.0013*%
%ADD25R,0.0142X0.0013*%
%ADD26R,0.0142X0.0013*%
%ADD27R,0.0155X0.0013*%
%ADD28R,0.1149X0.0013*%
%ADD29R,0.1265X0.0013*%
%ADD30R,0.0142X0.0013*%
%ADD31R,0.0142X0.0013*%
%ADD32R,0.0129X0.0013*%
%ADD33R,0.1162X0.0013*%
%ADD34R,0.1252X0.0013*%
%ADD35R,0.0155X0.0013*%
%ADD36R,0.0142X0.0013*%
%ADD37R,0.0142X0.0013*%
%ADD38R,0.0168X0.0013*%
%ADD39R,0.1175X0.0013*%
%ADD40R,0.1239X0.0013*%
%ADD41R,0.0129X0.0013*%
%ADD42R,0.0155X0.0013*%
%ADD43R,0.1162X0.0013*%
%ADD44R,0.1239X0.0013*%
%ADD45R,0.0155X0.0013*%
%ADD46R,0.1175X0.0013*%
%ADD47R,0.1188X0.0013*%
%ADD48R,0.1226X0.0013*%
%ADD49R,0.0142X0.0013*%
%ADD50R,0.0142X0.0013*%
%ADD51R,0.0155X0.0013*%
%ADD52R,0.1200X0.0013*%
%ADD53R,0.1213X0.0013*%
%ADD54R,0.1226X0.0013*%
%ADD55R,0.1200X0.0013*%
%ADD56R,0.0168X0.0013*%
%ADD57R,0.0155X0.0013*%
%ADD58R,0.1188X0.0013*%
%ADD59R,0.0129X0.0013*%
%ADD60R,0.0129X0.0013*%
%ADD61R,0.0155X0.0013*%
%ADD62R,0.1213X0.0013*%
%ADD63R,0.1226X0.0013*%
%ADD64R,0.1175X0.0013*%
%ADD65R,0.1226X0.0013*%
%ADD66R,0.0129X0.0013*%
%ADD67R,0.1239X0.0013*%
%ADD68R,0.1252X0.0013*%
%ADD69R,0.1162X0.0013*%
%ADD70R,0.1252X0.0013*%
%ADD71R,0.1149X0.0013*%
%ADD72R,0.0129X0.0013*%
%ADD73R,0.1149X0.0013*%
%ADD74R,0.0129X0.0013*%
%ADD75R,0.1265X0.0013*%
%ADD76R,0.0129X0.0013*%
%ADD77R,0.1136X0.0013*%
%ADD78R,0.1278X0.0013*%
%ADD79R,0.1136X0.0013*%
%ADD80R,0.0116X0.0013*%
%ADD81R,0.1278X0.0013*%
%ADD82R,0.1291X0.0013*%
%ADD83R,0.1123X0.0013*%
%ADD84R,0.1136X0.0013*%
%ADD85R,0.1291X0.0013*%
%ADD86R,0.1123X0.0013*%
%ADD87R,0.0116X0.0013*%
%ADD88R,0.1291X0.0013*%
%ADD89R,0.0116X0.0013*%
%ADD90R,0.1123X0.0013*%
%ADD91R,0.0013X0.0013*%
%ADD92R,0.0271X0.0013*%
%ADD93R,0.0271X0.0013*%
%ADD94R,0.0284X0.0013*%
%ADD95R,0.0284X0.0013*%
%ADD96R,0.0271X0.0013*%
%ADD97R,0.0271X0.0013*%
%ADD98R,0.0284X0.0013*%
%ADD99R,0.0284X0.0013*%
%ADD100R,0.1123X0.0013*%
%ADD101R,0.0284X0.0013*%
%ADD102R,0.0284X0.0013*%
%ADD103R,0.1291X0.0013*%
%ADD104R,0.0271X0.0013*%
%ADD105R,0.0271X0.0013*%
%ADD106R,0.0013X0.0013*%
%ADD107R,0.0013X0.0013*%
%ADD108R,0.0116X0.0013*%
%ADD109R,0.1136X0.0013*%
%ADD110R,0.0116X0.0013*%
%ADD111R,0.1149X0.0013*%
%ADD112R,0.0116X0.0013*%
%ADD113R,0.1162X0.0013*%
%ADD114R,0.1175X0.0013*%
%ADD115R,0.1188X0.0013*%
%ADD116R,0.1200X0.0013*%
%ADD117R,0.0155X0.0013*%
%ADD118R,0.1304X0.0013*%
%ADD119R,0.1200X0.0013*%
%ADD120R,0.1304X0.0013*%
%ADD121R,0.1213X0.0013*%
%ADD122R,0.0168X0.0013*%
%ADD123R,0.1304X0.0013*%
%ADD124R,0.1226X0.0013*%
%ADD125R,0.1226X0.0013*%
%ADD126R,0.1252X0.0013*%
%ADD127R,0.1304X0.0013*%
%ADD128R,0.1265X0.0013*%
%ADD129R,0.0168X0.0013*%
%ADD130OC8,0.0356*%
%ADD131C,0.0160*%
%ADD132C,0.0400*%
%ADD133C,0.0320*%
%ADD134C,0.0240*%
D10*
X003228Y003056D02*
X003228Y021954D01*
X003230Y021993D01*
X003236Y022031D01*
X003245Y022068D01*
X003258Y022105D01*
X003275Y022140D01*
X003294Y022173D01*
X003317Y022204D01*
X003343Y022233D01*
X003372Y022259D01*
X003403Y022282D01*
X003436Y022301D01*
X003471Y022318D01*
X003508Y022331D01*
X003545Y022340D01*
X003583Y022346D01*
X003622Y022348D01*
X003622Y022347D02*
X022519Y022347D01*
X022519Y022348D02*
X022558Y022346D01*
X022596Y022340D01*
X022633Y022331D01*
X022670Y022318D01*
X022705Y022301D01*
X022738Y022282D01*
X022769Y022259D01*
X022798Y022233D01*
X022824Y022204D01*
X022847Y022173D01*
X022866Y022140D01*
X022883Y022105D01*
X022896Y022068D01*
X022905Y022031D01*
X022911Y021993D01*
X022913Y021954D01*
X022913Y003056D01*
X022911Y003017D01*
X022905Y002979D01*
X022896Y002942D01*
X022883Y002905D01*
X022866Y002870D01*
X022847Y002837D01*
X022824Y002806D01*
X022798Y002777D01*
X022769Y002751D01*
X022738Y002728D01*
X022705Y002709D01*
X022670Y002692D01*
X022633Y002679D01*
X022596Y002670D01*
X022558Y002664D01*
X022519Y002662D01*
X003622Y002662D01*
X003583Y002664D01*
X003545Y002670D01*
X003508Y002679D01*
X003471Y002692D01*
X003436Y002709D01*
X003403Y002728D01*
X003372Y002751D01*
X003343Y002777D01*
X003317Y002806D01*
X003294Y002837D01*
X003275Y002870D01*
X003258Y002905D01*
X003245Y002942D01*
X003236Y002979D01*
X003230Y003017D01*
X003228Y003056D01*
X020441Y011204D02*
X020443Y011238D01*
X020449Y011272D01*
X020459Y011305D01*
X020472Y011336D01*
X020490Y011366D01*
X020510Y011394D01*
X020534Y011419D01*
X020560Y011441D01*
X020588Y011459D01*
X020619Y011475D01*
X020651Y011487D01*
X020685Y011495D01*
X020719Y011499D01*
X020753Y011499D01*
X020787Y011495D01*
X020821Y011487D01*
X020853Y011475D01*
X020883Y011459D01*
X020912Y011441D01*
X020938Y011419D01*
X020962Y011394D01*
X020982Y011366D01*
X021000Y011336D01*
X021013Y011305D01*
X021023Y011272D01*
X021029Y011238D01*
X021031Y011204D01*
X021029Y011170D01*
X021023Y011136D01*
X021013Y011103D01*
X021000Y011072D01*
X020982Y011042D01*
X020962Y011014D01*
X020938Y010989D01*
X020912Y010967D01*
X020884Y010949D01*
X020853Y010933D01*
X020821Y010921D01*
X020787Y010913D01*
X020753Y010909D01*
X020719Y010909D01*
X020685Y010913D01*
X020651Y010921D01*
X020619Y010933D01*
X020588Y010949D01*
X020560Y010967D01*
X020534Y010989D01*
X020510Y011014D01*
X020490Y011042D01*
X020472Y011072D01*
X020459Y011103D01*
X020449Y011136D01*
X020443Y011170D01*
X020441Y011204D01*
D11*
X020251Y011203D02*
X019130Y011203D01*
X019139Y011212D02*
X019139Y011212D01*
X019267Y011340D01*
X019267Y011816D01*
X019139Y011945D01*
X018956Y011945D01*
X018901Y011889D01*
X018845Y011945D01*
X018663Y011945D01*
X018385Y011945D01*
X018202Y011945D01*
X018078Y011821D01*
X017979Y011920D01*
X017799Y011995D01*
X017004Y011995D01*
X016824Y011920D01*
X016686Y011782D01*
X016611Y011602D01*
X016611Y011407D01*
X016686Y011227D01*
X016824Y011089D01*
X017004Y011015D01*
X017799Y011015D01*
X017979Y011089D01*
X018115Y011225D01*
X018276Y011065D01*
X018515Y011065D01*
X018605Y011065D01*
X018678Y011138D01*
X018678Y011138D01*
X018707Y011167D01*
X018808Y011067D01*
X018810Y011065D01*
X018992Y011065D01*
X019121Y011194D01*
X019139Y011212D01*
X019189Y011262D02*
X020251Y011262D01*
X020251Y011300D02*
X020251Y011107D01*
X020324Y010929D01*
X020461Y010792D01*
X020639Y010718D01*
X020832Y010718D01*
X021011Y010792D01*
X021147Y010929D01*
X021221Y011107D01*
X021221Y011300D01*
X021191Y011373D01*
X021355Y011305D01*
X021534Y011305D01*
X021699Y011373D01*
X021826Y011500D01*
X021895Y011665D01*
X021895Y011844D01*
X021826Y012010D01*
X021699Y012136D01*
X021534Y012205D01*
X021355Y012205D01*
X021190Y012136D01*
X021063Y012010D01*
X020995Y011844D01*
X020995Y011665D01*
X021019Y011607D01*
X021011Y011615D01*
X020832Y011689D01*
X020639Y011689D01*
X020461Y011615D01*
X020324Y011478D01*
X020251Y011300D01*
X020259Y011320D02*
X019247Y011320D01*
X019267Y011379D02*
X020283Y011379D01*
X020307Y011437D02*
X019267Y011437D01*
X019267Y011496D02*
X020342Y011496D01*
X020400Y011554D02*
X019267Y011554D01*
X019267Y011613D02*
X020459Y011613D01*
X020597Y011671D02*
X019267Y011671D01*
X019267Y011730D02*
X020995Y011730D01*
X020995Y011788D02*
X019267Y011788D01*
X019237Y011847D02*
X020254Y011847D01*
X020190Y011873D02*
X020355Y011805D01*
X020534Y011805D01*
X020699Y011873D01*
X020826Y012000D01*
X020895Y012165D01*
X020895Y012323D01*
X021116Y012544D01*
X021142Y012506D01*
X021196Y012452D01*
X021260Y012409D01*
X021331Y012380D01*
X021406Y012365D01*
X021415Y012365D01*
X021415Y012725D01*
X021475Y012725D01*
X021475Y012785D01*
X021835Y012785D01*
X021835Y012793D01*
X021820Y012868D01*
X021790Y012939D01*
X021747Y013003D01*
X021693Y013058D01*
X021629Y013100D01*
X021558Y013130D01*
X021483Y013145D01*
X021475Y013145D01*
X021475Y012785D01*
X021415Y012785D01*
X021415Y013145D01*
X021406Y013145D01*
X021331Y013130D01*
X021260Y013100D01*
X021215Y013070D01*
X021215Y019727D01*
X021659Y019283D01*
X021659Y019230D01*
X021555Y019230D01*
X021444Y019119D01*
X021444Y018450D01*
X021483Y018410D01*
X021444Y018371D01*
X021444Y017702D01*
X021555Y017590D01*
X021659Y017590D01*
X021659Y017262D01*
X021555Y017262D01*
X021444Y017150D01*
X021444Y016481D01*
X021526Y016398D01*
X021512Y016374D01*
X021504Y016341D01*
X021504Y016098D01*
X021899Y016098D01*
X021899Y016038D01*
X021504Y016038D01*
X021504Y015795D01*
X021512Y015762D01*
X021530Y015732D01*
X021554Y015708D01*
X021215Y015708D01*
X021215Y015766D02*
X021511Y015766D01*
X021504Y015825D02*
X021215Y015825D01*
X021215Y015883D02*
X021504Y015883D01*
X021504Y015942D02*
X021215Y015942D01*
X021215Y016000D02*
X021504Y016000D01*
X021504Y016117D02*
X021215Y016117D01*
X021215Y016059D02*
X021899Y016059D01*
X021899Y016038D02*
X021959Y016038D01*
X021959Y016098D01*
X022354Y016098D01*
X022354Y016341D01*
X022345Y016374D01*
X022331Y016398D01*
X022414Y016481D01*
X022414Y017150D01*
X022303Y017262D01*
X022199Y017262D01*
X022199Y017590D01*
X022303Y017590D01*
X022414Y017702D01*
X022414Y018371D01*
X022375Y018410D01*
X022414Y018450D01*
X022414Y019119D01*
X022303Y019230D01*
X022199Y019230D01*
X022199Y019448D01*
X022158Y019547D01*
X022082Y019623D01*
X020790Y020915D01*
X020968Y020915D01*
X021148Y020989D01*
X021286Y021127D01*
X021361Y021307D01*
X021361Y022102D01*
X021338Y022157D01*
X022519Y022157D01*
X022559Y022153D01*
X022633Y022123D01*
X022689Y022067D01*
X022719Y021993D01*
X022723Y021954D01*
X022723Y013191D01*
X022712Y013202D01*
X022530Y013202D01*
X022474Y013146D01*
X022418Y013202D01*
X022236Y013202D01*
X022136Y013102D01*
X022034Y013000D01*
X022034Y013000D01*
X022034Y012999D01*
X022034Y012909D01*
X022034Y012670D01*
X022063Y012641D01*
X021935Y012513D01*
X021935Y012218D01*
X022034Y012119D01*
X022034Y011830D01*
X022163Y011701D01*
X022345Y011701D01*
X022418Y011774D01*
X022530Y011774D01*
X022603Y011701D01*
X022723Y011701D01*
X022723Y003056D01*
X022719Y003016D01*
X022689Y002943D01*
X022633Y002887D01*
X022559Y002856D01*
X022519Y002852D01*
X021338Y002852D01*
X021361Y002907D01*
X021361Y003113D01*
X022279Y004031D01*
X022355Y004107D01*
X022396Y004206D01*
X022396Y007228D01*
X022355Y007327D01*
X021829Y007852D01*
X021829Y008165D01*
X021542Y008453D01*
X021135Y008453D01*
X020847Y008165D01*
X020847Y007758D01*
X021135Y007470D01*
X021448Y007470D01*
X021856Y007062D01*
X021856Y004372D01*
X021309Y003825D01*
X021286Y003882D01*
X021148Y004020D01*
X020968Y004095D01*
X020773Y004095D01*
X020593Y004020D01*
X020455Y003882D01*
X020381Y003702D01*
X020381Y002907D01*
X020403Y002852D01*
X020338Y002852D01*
X020361Y002907D01*
X020361Y003702D01*
X020286Y003882D01*
X020235Y003933D01*
X020844Y004542D01*
X020914Y004542D01*
X021135Y004321D01*
X021542Y004321D01*
X021829Y004608D01*
X021829Y005015D01*
X021542Y005303D01*
X021135Y005303D01*
X020914Y005082D01*
X020678Y005082D01*
X020579Y005041D01*
X020503Y004965D01*
X019642Y004103D01*
X019610Y004027D01*
X019593Y004020D01*
X019455Y003882D01*
X019381Y003702D01*
X019381Y002907D01*
X019403Y002852D01*
X019338Y002852D01*
X019361Y002907D01*
X019361Y003702D01*
X019286Y003882D01*
X019148Y004020D01*
X019143Y004022D01*
X019523Y004402D01*
X019599Y004478D01*
X019640Y004577D01*
X019640Y007228D01*
X019599Y007327D01*
X019074Y007852D01*
X019074Y008165D01*
X018786Y008453D01*
X018379Y008453D01*
X018091Y008165D01*
X018091Y007758D01*
X018379Y007470D01*
X018692Y007470D01*
X019100Y007062D01*
X019100Y004743D01*
X019074Y004716D01*
X019074Y005015D01*
X018786Y005303D01*
X018379Y005303D01*
X018091Y005015D01*
X018091Y004702D01*
X017718Y004329D01*
X017642Y004253D01*
X017601Y004154D01*
X017601Y004023D01*
X017593Y004020D01*
X017455Y003882D01*
X017381Y003702D01*
X017381Y002907D01*
X017403Y002852D01*
X017338Y002852D01*
X017361Y002907D01*
X017361Y003702D01*
X017286Y003882D01*
X017148Y004020D01*
X017141Y004023D01*
X017141Y006971D01*
X017099Y007070D01*
X017023Y007146D01*
X016318Y007852D01*
X016318Y008165D01*
X016030Y008453D01*
X015623Y008453D01*
X015335Y008165D01*
X015335Y007758D01*
X015623Y007470D01*
X015936Y007470D01*
X016601Y006805D01*
X016601Y004023D01*
X016593Y004020D01*
X016455Y003882D01*
X016381Y003702D01*
X016381Y002907D01*
X016403Y002852D01*
X016338Y002852D01*
X016361Y002907D01*
X016361Y003702D01*
X016286Y003882D01*
X016148Y004020D01*
X016141Y004023D01*
X016141Y004431D01*
X016318Y004608D01*
X016318Y005015D01*
X016030Y005303D01*
X015623Y005303D01*
X015335Y005015D01*
X015335Y004608D01*
X015601Y004343D01*
X015601Y004023D01*
X015593Y004020D01*
X015455Y003882D01*
X015381Y003702D01*
X015381Y002907D01*
X015403Y002852D01*
X014338Y002852D01*
X014361Y002907D01*
X014361Y003702D01*
X014286Y003882D01*
X014148Y004020D01*
X013968Y004095D01*
X013773Y004095D01*
X013593Y004020D01*
X013455Y003882D01*
X013381Y003702D01*
X013381Y002907D01*
X013403Y002852D01*
X013273Y002852D01*
X013290Y002904D01*
X013301Y002971D01*
X013301Y002975D01*
X012901Y002975D01*
X012901Y003035D01*
X013301Y003035D01*
X013301Y003639D01*
X013290Y003705D01*
X013269Y003770D01*
X013238Y003830D01*
X013199Y003885D01*
X013151Y003933D01*
X013096Y003972D01*
X013036Y004003D01*
X012971Y004024D01*
X012904Y004035D01*
X012901Y004035D01*
X012901Y003035D01*
X012841Y003035D01*
X012841Y004035D01*
X012837Y004035D01*
X012770Y004024D01*
X012705Y004003D01*
X012645Y003972D01*
X012590Y003933D01*
X012543Y003885D01*
X012503Y003830D01*
X012472Y003770D01*
X012451Y003705D01*
X012441Y003639D01*
X012441Y003035D01*
X012841Y003035D01*
X012841Y002975D01*
X012901Y002975D01*
X012901Y002852D01*
X012841Y002852D01*
X012841Y002975D01*
X012441Y002975D01*
X012441Y002971D01*
X012451Y002904D01*
X012468Y002852D01*
X012273Y002852D01*
X012290Y002904D01*
X012301Y002971D01*
X012301Y002975D01*
X011901Y002975D01*
X011901Y003035D01*
X012301Y003035D01*
X012301Y003639D01*
X012290Y003705D01*
X012269Y003770D01*
X012238Y003830D01*
X012199Y003885D01*
X012151Y003933D01*
X012096Y003972D01*
X012036Y004003D01*
X011971Y004024D01*
X011904Y004035D01*
X011901Y004035D01*
X011901Y003035D01*
X011841Y003035D01*
X011841Y004035D01*
X011837Y004035D01*
X011770Y004024D01*
X011705Y004003D01*
X011645Y003972D01*
X011590Y003933D01*
X011543Y003885D01*
X011503Y003830D01*
X011472Y003770D01*
X011451Y003705D01*
X011441Y003639D01*
X011441Y003035D01*
X011841Y003035D01*
X011841Y002975D01*
X011901Y002975D01*
X011901Y002852D01*
X011841Y002852D01*
X011841Y002975D01*
X011441Y002975D01*
X011441Y002971D01*
X011451Y002904D01*
X011468Y002852D01*
X011338Y002852D01*
X011361Y002907D01*
X011361Y003702D01*
X011286Y003882D01*
X011261Y003908D01*
X011261Y004893D01*
X012220Y005853D01*
X012279Y005996D01*
X012279Y007070D01*
X012220Y007214D01*
X012047Y007387D01*
X012051Y007390D01*
X012853Y007390D01*
X012996Y007450D01*
X013106Y007559D01*
X014118Y008571D01*
X015522Y008571D01*
X015623Y008470D01*
X016030Y008470D01*
X016318Y008758D01*
X016318Y009165D01*
X016030Y009453D01*
X015623Y009453D01*
X015522Y009351D01*
X014039Y009351D01*
X016449Y011761D01*
X016490Y011860D01*
X016490Y020610D01*
X016449Y020709D01*
X016158Y021000D01*
X016286Y021127D01*
X016361Y021307D01*
X016361Y022102D01*
X016338Y022157D01*
X016403Y022157D01*
X016381Y022102D01*
X016381Y021307D01*
X016455Y021127D01*
X016593Y020989D01*
X016601Y020986D01*
X016601Y020966D01*
X016642Y020867D01*
X017722Y019787D01*
X017722Y019230D01*
X017618Y019230D01*
X017507Y019119D01*
X017507Y018450D01*
X017546Y018410D01*
X017507Y018371D01*
X017507Y017702D01*
X017618Y017590D01*
X017722Y017590D01*
X017722Y017262D01*
X017618Y017262D01*
X017507Y017150D01*
X017507Y016481D01*
X017589Y016398D01*
X017575Y016374D01*
X017567Y016341D01*
X017567Y016098D01*
X017962Y016098D01*
X017962Y016038D01*
X017567Y016038D01*
X017567Y015795D01*
X017575Y015762D01*
X017592Y015732D01*
X017617Y015708D01*
X016490Y015708D01*
X016490Y015766D02*
X017574Y015766D01*
X017567Y015825D02*
X016490Y015825D01*
X016490Y015883D02*
X017567Y015883D01*
X017567Y015942D02*
X016490Y015942D01*
X016490Y016000D02*
X017567Y016000D01*
X017567Y016117D02*
X016490Y016117D01*
X016490Y016059D02*
X017962Y016059D01*
X017962Y016038D02*
X018022Y016038D01*
X018022Y016098D01*
X018417Y016098D01*
X018417Y016341D01*
X018408Y016374D01*
X018394Y016398D01*
X018477Y016481D01*
X018477Y017150D01*
X018366Y017262D01*
X018262Y017262D01*
X018262Y017590D01*
X018366Y017590D01*
X018477Y017702D01*
X018477Y018371D01*
X018438Y018410D01*
X018477Y018450D01*
X018477Y019119D01*
X018366Y019230D01*
X018262Y019230D01*
X018262Y019952D01*
X018221Y020051D01*
X018145Y020127D01*
X017215Y021057D01*
X017286Y021127D01*
X017361Y021307D01*
X017361Y022102D01*
X017338Y022157D01*
X017403Y022157D01*
X017381Y022102D01*
X017381Y021307D01*
X017455Y021127D01*
X017593Y020989D01*
X017773Y020915D01*
X017968Y020915D01*
X018057Y020952D01*
X018889Y020119D01*
X018965Y020044D01*
X019050Y020008D01*
X018982Y019941D01*
X018982Y019636D01*
X019198Y019420D01*
X019336Y019420D01*
X019556Y019200D01*
X019475Y019119D01*
X019475Y018450D01*
X019514Y018410D01*
X019475Y018371D01*
X019475Y017702D01*
X019586Y017590D01*
X019690Y017590D01*
X019690Y017281D01*
X019645Y017281D01*
X019534Y017170D01*
X019534Y016540D01*
X019645Y016429D01*
X020275Y016429D01*
X020281Y016435D01*
X020281Y016364D01*
X020276Y016369D01*
X020247Y016386D01*
X020214Y016395D01*
X019990Y016395D01*
X019990Y016058D01*
X019930Y016058D01*
X019930Y015998D01*
X019990Y015998D01*
X019990Y015662D01*
X020214Y015662D01*
X020247Y015671D01*
X020276Y015688D01*
X020281Y015693D01*
X020281Y013674D01*
X020190Y013636D01*
X020063Y013510D01*
X019995Y013344D01*
X019995Y013165D01*
X020063Y013000D01*
X020190Y012873D01*
X020355Y012805D01*
X020534Y012805D01*
X020668Y012860D01*
X020513Y012705D01*
X020355Y012705D01*
X020190Y012636D01*
X020063Y012510D01*
X019995Y012344D01*
X019995Y012165D01*
X020063Y012000D01*
X020190Y011873D01*
X020158Y011905D02*
X019178Y011905D01*
X019270Y012065D02*
X019452Y012065D01*
X019581Y012194D01*
X019581Y012505D01*
X019599Y012505D01*
X019728Y012634D01*
X019728Y012816D01*
X019599Y012945D01*
X018956Y012945D01*
X018901Y012889D01*
X018845Y012945D01*
X018663Y012945D01*
X018634Y012916D01*
X018605Y012945D01*
X018605Y012945D01*
X018605Y012945D01*
X018507Y012945D01*
X018276Y012945D01*
X018202Y012872D01*
X018115Y012784D01*
X017979Y012920D01*
X017799Y012995D01*
X017004Y012995D01*
X016824Y012920D01*
X016686Y012782D01*
X016611Y012602D01*
X016611Y012407D01*
X016686Y012227D01*
X016824Y012089D01*
X017004Y012015D01*
X017799Y012015D01*
X017979Y012089D01*
X018115Y012225D01*
X018147Y012194D01*
X018276Y012065D01*
X018513Y012065D01*
X018605Y012065D01*
X018670Y012130D01*
X018736Y012065D01*
X018973Y012065D01*
X019065Y012065D01*
X019139Y012138D01*
X019168Y012167D01*
X019270Y012065D01*
X019254Y012081D02*
X019081Y012081D01*
X019065Y012065D02*
X019065Y012065D01*
X019065Y012065D01*
X019139Y012138D02*
X019139Y012138D01*
X019140Y012139D02*
X019195Y012139D01*
X019361Y012285D02*
X019361Y012725D01*
X019214Y012725D02*
X019508Y012725D01*
X019728Y012724D02*
X020532Y012724D01*
X020591Y012783D02*
X019728Y012783D01*
X019703Y012841D02*
X020267Y012841D01*
X020163Y012900D02*
X019644Y012900D01*
X019682Y013065D02*
X019500Y013065D01*
X019498Y013067D01*
X019398Y013167D01*
X019369Y013138D01*
X019369Y013138D01*
X019295Y013065D01*
X019295Y013065D01*
X019295Y013065D01*
X019205Y013065D01*
X018966Y013065D01*
X018942Y013089D01*
X018918Y013065D01*
X018663Y013065D01*
X018634Y013094D01*
X018605Y013065D01*
X018605Y013065D01*
X018605Y013065D01*
X018515Y013065D01*
X018276Y013065D01*
X018147Y013194D01*
X018115Y013225D01*
X017979Y013089D01*
X017799Y013015D01*
X017004Y013015D01*
X016824Y013089D01*
X016686Y013227D01*
X016611Y013407D01*
X016611Y013602D01*
X016686Y013782D01*
X016824Y013920D01*
X017004Y013995D01*
X017799Y013995D01*
X017979Y013920D01*
X018115Y013784D01*
X018147Y013816D01*
X018276Y013945D01*
X018513Y013945D01*
X018605Y013945D01*
X018605Y013945D01*
X018678Y013872D01*
X018678Y013872D01*
X018786Y013764D01*
X018837Y013816D01*
X018966Y013945D01*
X019203Y013945D01*
X019295Y013945D01*
X019295Y013945D01*
X019295Y013945D01*
X019324Y013916D01*
X019353Y013945D01*
X019536Y013945D01*
X019591Y013889D01*
X019647Y013945D01*
X019829Y013945D01*
X019958Y013816D01*
X019958Y013340D01*
X019829Y013212D01*
X019829Y013212D01*
X019811Y013194D01*
X019682Y013065D01*
X019693Y013075D02*
X020032Y013075D01*
X020056Y013017D02*
X017804Y013017D01*
X017887Y012958D02*
X020105Y012958D01*
X020008Y013134D02*
X019751Y013134D01*
X019810Y013192D02*
X019995Y013192D01*
X019995Y013251D02*
X019868Y013251D01*
X019927Y013309D02*
X019995Y013309D01*
X020004Y013368D02*
X019958Y013368D01*
X019958Y013426D02*
X020029Y013426D01*
X020053Y013485D02*
X019958Y013485D01*
X019958Y013543D02*
X020097Y013543D01*
X020155Y013602D02*
X019958Y013602D01*
X019958Y013660D02*
X020248Y013660D01*
X020281Y013719D02*
X019958Y013719D01*
X019958Y013777D02*
X020281Y013777D01*
X020281Y013836D02*
X019938Y013836D01*
X019880Y013894D02*
X020281Y013894D01*
X020281Y013953D02*
X017900Y013953D01*
X018005Y013894D02*
X018225Y013894D01*
X018166Y013836D02*
X018063Y013836D01*
X018293Y013652D02*
X018367Y013725D01*
X018514Y013725D01*
X018587Y013652D01*
X018587Y013578D01*
X018514Y013505D01*
X018587Y013432D01*
X018587Y013358D01*
X018514Y013285D01*
X018367Y013285D01*
X018293Y013358D01*
X018440Y013505D02*
X018514Y013505D01*
X018754Y013358D02*
X018754Y013285D01*
X018827Y013285D01*
X018827Y013358D01*
X018754Y013358D01*
X018984Y013358D02*
X019057Y013285D01*
X019204Y013285D01*
X019278Y013358D01*
X019278Y013432D01*
X019204Y013505D01*
X019131Y013505D01*
X019204Y013505D02*
X019278Y013578D01*
X019278Y013652D01*
X019204Y013725D01*
X019057Y013725D01*
X018984Y013652D01*
X018857Y013836D02*
X018714Y013836D01*
X018656Y013894D02*
X018915Y013894D01*
X018798Y013777D02*
X018773Y013777D01*
X018605Y013945D02*
X018605Y013945D01*
X019444Y013725D02*
X019444Y013432D01*
X019591Y013285D01*
X019738Y013432D01*
X019738Y013725D01*
X019596Y013894D02*
X019586Y013894D01*
X020281Y014011D02*
X016490Y014011D01*
X016490Y013953D02*
X016902Y013953D01*
X016798Y013894D02*
X016490Y013894D01*
X016490Y013836D02*
X016739Y013836D01*
X016684Y013777D02*
X016490Y013777D01*
X016490Y013719D02*
X016660Y013719D01*
X016635Y013660D02*
X016490Y013660D01*
X016490Y013602D02*
X016611Y013602D01*
X016611Y013543D02*
X016490Y013543D01*
X016490Y013485D02*
X016611Y013485D01*
X016611Y013426D02*
X016490Y013426D01*
X016490Y013368D02*
X016628Y013368D01*
X016652Y013309D02*
X016490Y013309D01*
X016490Y013251D02*
X016676Y013251D01*
X016721Y013192D02*
X016490Y013192D01*
X016490Y013134D02*
X016779Y013134D01*
X016858Y013075D02*
X016490Y013075D01*
X016490Y013017D02*
X016999Y013017D01*
X016916Y012958D02*
X016490Y012958D01*
X016490Y012900D02*
X016803Y012900D01*
X016745Y012841D02*
X016490Y012841D01*
X016490Y012783D02*
X016686Y012783D01*
X016662Y012724D02*
X016490Y012724D01*
X016490Y012666D02*
X016638Y012666D01*
X016613Y012607D02*
X016490Y012607D01*
X016490Y012549D02*
X016611Y012549D01*
X016611Y012490D02*
X016490Y012490D01*
X016490Y012432D02*
X016611Y012432D01*
X016625Y012373D02*
X016490Y012373D01*
X016490Y012315D02*
X016650Y012315D01*
X016674Y012256D02*
X016490Y012256D01*
X016490Y012198D02*
X016715Y012198D01*
X016774Y012139D02*
X016490Y012139D01*
X016490Y012081D02*
X016844Y012081D01*
X016929Y011964D02*
X016490Y011964D01*
X016490Y012022D02*
X016986Y012022D01*
X016809Y011905D02*
X016490Y011905D01*
X016484Y011847D02*
X016750Y011847D01*
X016692Y011788D02*
X016460Y011788D01*
X016418Y011730D02*
X016664Y011730D01*
X016640Y011671D02*
X016359Y011671D01*
X016301Y011613D02*
X016616Y011613D01*
X016611Y011554D02*
X016242Y011554D01*
X016184Y011496D02*
X016611Y011496D01*
X016611Y011437D02*
X016125Y011437D01*
X016067Y011379D02*
X016623Y011379D01*
X016647Y011320D02*
X016008Y011320D01*
X015950Y011262D02*
X016672Y011262D01*
X016710Y011203D02*
X015891Y011203D01*
X015833Y011145D02*
X016768Y011145D01*
X016831Y011086D02*
X015774Y011086D01*
X015716Y011028D02*
X016972Y011028D01*
X017830Y011028D02*
X020283Y011028D01*
X020259Y011086D02*
X019013Y011086D01*
X019072Y011145D02*
X020251Y011145D01*
X020308Y010969D02*
X015657Y010969D01*
X015599Y010911D02*
X020342Y010911D01*
X020401Y010852D02*
X015540Y010852D01*
X015482Y010794D02*
X020459Y010794D01*
X020598Y010735D02*
X015423Y010735D01*
X015365Y010677D02*
X022723Y010677D01*
X022723Y010735D02*
X020873Y010735D01*
X021012Y010794D02*
X022723Y010794D01*
X022723Y010852D02*
X021071Y010852D01*
X021129Y010911D02*
X022723Y010911D01*
X022723Y010969D02*
X021164Y010969D01*
X021188Y011028D02*
X022723Y011028D01*
X022723Y011086D02*
X021213Y011086D01*
X021221Y011145D02*
X022723Y011145D01*
X022723Y011203D02*
X021221Y011203D01*
X021221Y011262D02*
X022723Y011262D01*
X022723Y011320D02*
X021572Y011320D01*
X021705Y011379D02*
X022723Y011379D01*
X022723Y011437D02*
X021763Y011437D01*
X021822Y011496D02*
X022723Y011496D01*
X022723Y011554D02*
X021849Y011554D01*
X021873Y011613D02*
X022723Y011613D01*
X022723Y011671D02*
X021895Y011671D01*
X021895Y011730D02*
X022134Y011730D01*
X022075Y011788D02*
X021895Y011788D01*
X021894Y011847D02*
X022034Y011847D01*
X022034Y011905D02*
X021869Y011905D01*
X021845Y011964D02*
X022034Y011964D01*
X022034Y012022D02*
X021813Y012022D01*
X021755Y012081D02*
X022034Y012081D01*
X022014Y012139D02*
X021692Y012139D01*
X021551Y012198D02*
X021955Y012198D01*
X021935Y012256D02*
X020895Y012256D01*
X020895Y012198D02*
X021338Y012198D01*
X021197Y012139D02*
X020884Y012139D01*
X020860Y012081D02*
X021134Y012081D01*
X021076Y012022D02*
X020835Y012022D01*
X020790Y011964D02*
X021044Y011964D01*
X021020Y011905D02*
X020731Y011905D01*
X020636Y011847D02*
X020996Y011847D01*
X020995Y011671D02*
X020875Y011671D01*
X021013Y011613D02*
X021016Y011613D01*
X021213Y011320D02*
X021318Y011320D01*
X021308Y010393D02*
X021160Y010393D01*
X020907Y010140D01*
X020907Y009991D01*
X021308Y009991D01*
X021308Y009931D01*
X021368Y009931D01*
X021368Y009530D01*
X021517Y009530D01*
X021769Y009783D01*
X021769Y009931D01*
X021368Y009931D01*
X021368Y009991D01*
X021769Y009991D01*
X021769Y010140D01*
X021517Y010393D01*
X021368Y010393D01*
X021368Y009991D01*
X021308Y009991D01*
X021308Y010393D01*
X021308Y010384D02*
X021368Y010384D01*
X021368Y010326D02*
X021308Y010326D01*
X021308Y010267D02*
X021368Y010267D01*
X021368Y010209D02*
X021308Y010209D01*
X021308Y010150D02*
X021368Y010150D01*
X021368Y010092D02*
X021308Y010092D01*
X021308Y010033D02*
X021368Y010033D01*
X021368Y009975D02*
X022723Y009975D01*
X022723Y010033D02*
X021769Y010033D01*
X021769Y010092D02*
X022723Y010092D01*
X022723Y010150D02*
X021759Y010150D01*
X021701Y010209D02*
X022723Y010209D01*
X022723Y010267D02*
X021642Y010267D01*
X021584Y010326D02*
X022723Y010326D01*
X022723Y010384D02*
X021525Y010384D01*
X021308Y009975D02*
X018612Y009975D01*
X018612Y009991D02*
X019014Y009991D01*
X019014Y010140D01*
X018761Y010393D01*
X018612Y010393D01*
X018612Y009991D01*
X018612Y009931D01*
X018612Y009530D01*
X018761Y009530D01*
X019014Y009783D01*
X019014Y009931D01*
X018612Y009931D01*
X018552Y009931D01*
X018552Y009530D01*
X018404Y009530D01*
X018151Y009783D01*
X018151Y009931D01*
X018552Y009931D01*
X018552Y009991D01*
X018151Y009991D01*
X018151Y010140D01*
X018404Y010393D01*
X018552Y010393D01*
X018552Y009991D01*
X018612Y009991D01*
X018612Y010033D02*
X018552Y010033D01*
X018552Y009975D02*
X015856Y009975D01*
X015856Y009991D02*
X016258Y009991D01*
X016258Y010140D01*
X016005Y010393D01*
X015856Y010393D01*
X015856Y009991D01*
X015796Y009991D01*
X015796Y009931D01*
X015395Y009931D01*
X015395Y009783D01*
X015648Y009530D01*
X015796Y009530D01*
X015796Y009931D01*
X015856Y009931D01*
X015856Y009530D01*
X016005Y009530D01*
X016258Y009783D01*
X016258Y009931D01*
X015856Y009931D01*
X015856Y009991D01*
X015856Y010033D02*
X015796Y010033D01*
X015796Y009991D02*
X015796Y010393D01*
X015648Y010393D01*
X015395Y010140D01*
X015395Y009991D01*
X015796Y009991D01*
X015796Y009975D02*
X014663Y009975D01*
X014721Y010033D02*
X015395Y010033D01*
X015395Y010092D02*
X014780Y010092D01*
X014838Y010150D02*
X015405Y010150D01*
X015464Y010209D02*
X014897Y010209D01*
X014955Y010267D02*
X015522Y010267D01*
X015581Y010326D02*
X015014Y010326D01*
X015072Y010384D02*
X015639Y010384D01*
X015796Y010384D02*
X015856Y010384D01*
X015856Y010326D02*
X015796Y010326D01*
X015796Y010267D02*
X015856Y010267D01*
X015856Y010209D02*
X015796Y010209D01*
X015796Y010150D02*
X015856Y010150D01*
X015856Y010092D02*
X015796Y010092D01*
X015796Y009916D02*
X015856Y009916D01*
X015856Y009858D02*
X015796Y009858D01*
X015796Y009799D02*
X015856Y009799D01*
X015856Y009741D02*
X015796Y009741D01*
X015796Y009682D02*
X015856Y009682D01*
X015856Y009624D02*
X015796Y009624D01*
X015796Y009565D02*
X015856Y009565D01*
X016040Y009565D02*
X018369Y009565D01*
X018310Y009624D02*
X016099Y009624D01*
X016157Y009682D02*
X018252Y009682D01*
X018193Y009741D02*
X016216Y009741D01*
X016258Y009799D02*
X018151Y009799D01*
X018151Y009858D02*
X016258Y009858D01*
X016258Y009916D02*
X018151Y009916D01*
X018151Y010033D02*
X016258Y010033D01*
X016258Y010092D02*
X018151Y010092D01*
X018161Y010150D02*
X016247Y010150D01*
X016189Y010209D02*
X018220Y010209D01*
X018278Y010267D02*
X016130Y010267D01*
X016072Y010326D02*
X018337Y010326D01*
X018395Y010384D02*
X016013Y010384D01*
X015395Y009916D02*
X014604Y009916D01*
X014546Y009858D02*
X015395Y009858D01*
X015395Y009799D02*
X014487Y009799D01*
X014429Y009741D02*
X015437Y009741D01*
X015496Y009682D02*
X014370Y009682D01*
X014312Y009624D02*
X015554Y009624D01*
X015613Y009565D02*
X014253Y009565D01*
X014195Y009507D02*
X022723Y009507D01*
X022723Y009565D02*
X021552Y009565D01*
X021610Y009624D02*
X022723Y009624D01*
X022723Y009682D02*
X021669Y009682D01*
X021727Y009741D02*
X022723Y009741D01*
X022723Y009799D02*
X021769Y009799D01*
X021769Y009858D02*
X022723Y009858D01*
X022723Y009916D02*
X021769Y009916D01*
X021368Y009916D02*
X021308Y009916D01*
X021308Y009931D02*
X021308Y009530D01*
X021160Y009530D01*
X020907Y009783D01*
X020907Y009931D01*
X021308Y009931D01*
X021308Y009858D02*
X021368Y009858D01*
X021368Y009799D02*
X021308Y009799D01*
X021308Y009741D02*
X021368Y009741D01*
X021368Y009682D02*
X021308Y009682D01*
X021308Y009624D02*
X021368Y009624D01*
X021368Y009565D02*
X021308Y009565D01*
X021125Y009565D02*
X018796Y009565D01*
X018854Y009624D02*
X021066Y009624D01*
X021008Y009682D02*
X018913Y009682D01*
X018971Y009741D02*
X020949Y009741D01*
X020907Y009799D02*
X019014Y009799D01*
X019014Y009858D02*
X020907Y009858D01*
X020907Y009916D02*
X019014Y009916D01*
X019014Y010033D02*
X020907Y010033D01*
X020907Y010092D02*
X019014Y010092D01*
X019003Y010150D02*
X020917Y010150D01*
X020976Y010209D02*
X018945Y010209D01*
X018886Y010267D02*
X021034Y010267D01*
X021093Y010326D02*
X018828Y010326D01*
X018769Y010384D02*
X021151Y010384D01*
X021135Y009453D02*
X020847Y009165D01*
X020847Y008758D01*
X021135Y008470D01*
X021542Y008470D01*
X021829Y008758D01*
X021829Y009165D01*
X021542Y009453D01*
X021135Y009453D01*
X021130Y009448D02*
X018790Y009448D01*
X018786Y009453D02*
X018379Y009453D01*
X018091Y009165D01*
X018091Y008758D01*
X018379Y008470D01*
X018786Y008470D01*
X019074Y008758D01*
X019074Y009165D01*
X018786Y009453D01*
X018849Y009390D02*
X021072Y009390D01*
X021013Y009331D02*
X018907Y009331D01*
X018966Y009273D02*
X020955Y009273D01*
X020896Y009214D02*
X019024Y009214D01*
X019074Y009156D02*
X020847Y009156D01*
X020847Y009097D02*
X019074Y009097D01*
X019074Y009039D02*
X020847Y009039D01*
X020847Y008980D02*
X019074Y008980D01*
X019074Y008922D02*
X020847Y008922D01*
X020847Y008863D02*
X019074Y008863D01*
X019074Y008805D02*
X020847Y008805D01*
X020859Y008746D02*
X019062Y008746D01*
X019003Y008688D02*
X020917Y008688D01*
X020976Y008629D02*
X018945Y008629D01*
X018886Y008571D02*
X021034Y008571D01*
X021093Y008512D02*
X018828Y008512D01*
X018843Y008395D02*
X021077Y008395D01*
X021019Y008337D02*
X018902Y008337D01*
X018960Y008278D02*
X020960Y008278D01*
X020902Y008220D02*
X019019Y008220D01*
X019074Y008161D02*
X020847Y008161D01*
X020847Y008103D02*
X019074Y008103D01*
X019074Y008044D02*
X020847Y008044D01*
X020847Y007986D02*
X019074Y007986D01*
X019074Y007927D02*
X020847Y007927D01*
X020847Y007869D02*
X019074Y007869D01*
X019115Y007810D02*
X020847Y007810D01*
X020853Y007752D02*
X019174Y007752D01*
X019232Y007693D02*
X020912Y007693D01*
X020970Y007635D02*
X019291Y007635D01*
X019349Y007576D02*
X021029Y007576D01*
X021087Y007518D02*
X019408Y007518D01*
X019466Y007459D02*
X021459Y007459D01*
X021517Y007401D02*
X019525Y007401D01*
X019583Y007342D02*
X021576Y007342D01*
X021634Y007284D02*
X019617Y007284D01*
X019640Y007225D02*
X021142Y007225D01*
X021160Y007243D02*
X020907Y006990D01*
X020907Y006842D01*
X021308Y006842D01*
X021308Y006782D01*
X020907Y006782D01*
X020907Y006633D01*
X021160Y006381D01*
X021308Y006381D01*
X021308Y006782D01*
X021368Y006782D01*
X021368Y006381D01*
X021517Y006381D01*
X021769Y006633D01*
X021769Y006782D01*
X021368Y006782D01*
X021368Y006842D01*
X021308Y006842D01*
X021308Y007243D01*
X021160Y007243D01*
X021083Y007167D02*
X019640Y007167D01*
X019640Y007108D02*
X021025Y007108D01*
X020966Y007050D02*
X019640Y007050D01*
X019640Y006991D02*
X020908Y006991D01*
X020907Y006933D02*
X019640Y006933D01*
X019640Y006874D02*
X020907Y006874D01*
X020907Y006757D02*
X019640Y006757D01*
X019640Y006699D02*
X020907Y006699D01*
X020907Y006640D02*
X019640Y006640D01*
X019640Y006582D02*
X020959Y006582D01*
X021017Y006523D02*
X019640Y006523D01*
X019640Y006465D02*
X021076Y006465D01*
X021134Y006406D02*
X019640Y006406D01*
X019640Y006348D02*
X021856Y006348D01*
X021856Y006406D02*
X021542Y006406D01*
X021601Y006465D02*
X021856Y006465D01*
X021856Y006523D02*
X021659Y006523D01*
X021718Y006582D02*
X021856Y006582D01*
X021856Y006640D02*
X021769Y006640D01*
X021769Y006699D02*
X021856Y006699D01*
X021856Y006757D02*
X021769Y006757D01*
X021769Y006842D02*
X021769Y006990D01*
X021517Y007243D01*
X021368Y007243D01*
X021368Y006842D01*
X021769Y006842D01*
X021769Y006874D02*
X021856Y006874D01*
X021856Y006816D02*
X021368Y006816D01*
X021368Y006874D02*
X021308Y006874D01*
X021308Y006816D02*
X019640Y006816D01*
X019640Y006289D02*
X021121Y006289D01*
X021135Y006303D02*
X020847Y006015D01*
X020847Y005608D01*
X021135Y005321D01*
X021542Y005321D01*
X021829Y005608D01*
X021829Y006015D01*
X021542Y006303D01*
X021135Y006303D01*
X021063Y006231D02*
X019640Y006231D01*
X019640Y006172D02*
X021004Y006172D01*
X020946Y006114D02*
X019640Y006114D01*
X019640Y006055D02*
X020887Y006055D01*
X020847Y005997D02*
X019640Y005997D01*
X019640Y005938D02*
X020847Y005938D01*
X020847Y005880D02*
X019640Y005880D01*
X019640Y005821D02*
X020847Y005821D01*
X020847Y005763D02*
X019640Y005763D01*
X019640Y005704D02*
X020847Y005704D01*
X020847Y005646D02*
X019640Y005646D01*
X019640Y005587D02*
X020868Y005587D01*
X020927Y005529D02*
X019640Y005529D01*
X019640Y005470D02*
X020985Y005470D01*
X021044Y005412D02*
X019640Y005412D01*
X019640Y005353D02*
X021102Y005353D01*
X021127Y005295D02*
X019640Y005295D01*
X019640Y005236D02*
X021068Y005236D01*
X021010Y005178D02*
X019640Y005178D01*
X019640Y005119D02*
X020951Y005119D01*
X020627Y005061D02*
X019640Y005061D01*
X019640Y005002D02*
X020541Y005002D01*
X020482Y004944D02*
X019640Y004944D01*
X019640Y004885D02*
X020424Y004885D01*
X020365Y004827D02*
X019640Y004827D01*
X019640Y004768D02*
X020307Y004768D01*
X020248Y004710D02*
X019640Y004710D01*
X019640Y004651D02*
X020190Y004651D01*
X020131Y004593D02*
X019640Y004593D01*
X019622Y004534D02*
X020073Y004534D01*
X020014Y004476D02*
X019597Y004476D01*
X019538Y004417D02*
X019956Y004417D01*
X019897Y004359D02*
X019480Y004359D01*
X019421Y004300D02*
X019839Y004300D01*
X019780Y004242D02*
X019363Y004242D01*
X019304Y004183D02*
X019722Y004183D01*
X019663Y004125D02*
X019246Y004125D01*
X019187Y004066D02*
X019626Y004066D01*
X019581Y004008D02*
X019161Y004008D01*
X019219Y003949D02*
X019522Y003949D01*
X019464Y003891D02*
X019278Y003891D01*
X019307Y003832D02*
X019434Y003832D01*
X019410Y003774D02*
X019331Y003774D01*
X019355Y003715D02*
X019386Y003715D01*
X019381Y003657D02*
X019361Y003657D01*
X019361Y003598D02*
X019381Y003598D01*
X019381Y003540D02*
X019361Y003540D01*
X019361Y003481D02*
X019381Y003481D01*
X019381Y003423D02*
X019361Y003423D01*
X019361Y003364D02*
X019381Y003364D01*
X019381Y003306D02*
X019361Y003306D01*
X019361Y003247D02*
X019381Y003247D01*
X019381Y003189D02*
X019361Y003189D01*
X019361Y003130D02*
X019381Y003130D01*
X019381Y003072D02*
X019361Y003072D01*
X019361Y003013D02*
X019381Y003013D01*
X019381Y002955D02*
X019361Y002955D01*
X019356Y002896D02*
X019385Y002896D01*
X020356Y002896D02*
X020385Y002896D01*
X020381Y002955D02*
X020361Y002955D01*
X020361Y003013D02*
X020381Y003013D01*
X020381Y003072D02*
X020361Y003072D01*
X020361Y003130D02*
X020381Y003130D01*
X020381Y003189D02*
X020361Y003189D01*
X020361Y003247D02*
X020381Y003247D01*
X020381Y003306D02*
X020361Y003306D01*
X020361Y003364D02*
X020381Y003364D01*
X020381Y003423D02*
X020361Y003423D01*
X020361Y003481D02*
X020381Y003481D01*
X020381Y003540D02*
X020361Y003540D01*
X020361Y003598D02*
X020381Y003598D01*
X020381Y003657D02*
X020361Y003657D01*
X020355Y003715D02*
X020386Y003715D01*
X020410Y003774D02*
X020331Y003774D01*
X020307Y003832D02*
X020434Y003832D01*
X020464Y003891D02*
X020278Y003891D01*
X020251Y003949D02*
X020522Y003949D01*
X020581Y004008D02*
X020310Y004008D01*
X020368Y004066D02*
X020704Y004066D01*
X020544Y004242D02*
X021726Y004242D01*
X021784Y004300D02*
X020602Y004300D01*
X020661Y004359D02*
X021097Y004359D01*
X021038Y004417D02*
X020719Y004417D01*
X020778Y004476D02*
X020980Y004476D01*
X020921Y004534D02*
X020836Y004534D01*
X020485Y004183D02*
X021667Y004183D01*
X021609Y004125D02*
X020427Y004125D01*
X021037Y004066D02*
X021550Y004066D01*
X021492Y004008D02*
X021161Y004008D01*
X021219Y003949D02*
X021433Y003949D01*
X021375Y003891D02*
X021278Y003891D01*
X021307Y003832D02*
X021316Y003832D01*
X021612Y003364D02*
X022723Y003364D01*
X022723Y003306D02*
X021553Y003306D01*
X021495Y003247D02*
X022723Y003247D01*
X022723Y003189D02*
X021436Y003189D01*
X021378Y003130D02*
X022723Y003130D01*
X022723Y003072D02*
X021361Y003072D01*
X021361Y003013D02*
X022718Y003013D01*
X022694Y002955D02*
X021361Y002955D01*
X021356Y002896D02*
X022642Y002896D01*
X022723Y003423D02*
X021670Y003423D01*
X021729Y003481D02*
X022723Y003481D01*
X022723Y003540D02*
X021787Y003540D01*
X021846Y003598D02*
X022723Y003598D01*
X022723Y003657D02*
X021904Y003657D01*
X021963Y003715D02*
X022723Y003715D01*
X022723Y003774D02*
X022021Y003774D01*
X022080Y003832D02*
X022723Y003832D01*
X022723Y003891D02*
X022138Y003891D01*
X022197Y003949D02*
X022723Y003949D01*
X022723Y004008D02*
X022255Y004008D01*
X022314Y004066D02*
X022723Y004066D01*
X022723Y004125D02*
X022362Y004125D01*
X022386Y004183D02*
X022723Y004183D01*
X022723Y004242D02*
X022396Y004242D01*
X022396Y004300D02*
X022723Y004300D01*
X022723Y004359D02*
X022396Y004359D01*
X022396Y004417D02*
X022723Y004417D01*
X022723Y004476D02*
X022396Y004476D01*
X022396Y004534D02*
X022723Y004534D01*
X022723Y004593D02*
X022396Y004593D01*
X022396Y004651D02*
X022723Y004651D01*
X022723Y004710D02*
X022396Y004710D01*
X022396Y004768D02*
X022723Y004768D01*
X022723Y004827D02*
X022396Y004827D01*
X022396Y004885D02*
X022723Y004885D01*
X022723Y004944D02*
X022396Y004944D01*
X022396Y005002D02*
X022723Y005002D01*
X022723Y005061D02*
X022396Y005061D01*
X022396Y005119D02*
X022723Y005119D01*
X022723Y005178D02*
X022396Y005178D01*
X022396Y005236D02*
X022723Y005236D01*
X022723Y005295D02*
X022396Y005295D01*
X022396Y005353D02*
X022723Y005353D01*
X022723Y005412D02*
X022396Y005412D01*
X022396Y005470D02*
X022723Y005470D01*
X022723Y005529D02*
X022396Y005529D01*
X022396Y005587D02*
X022723Y005587D01*
X022723Y005646D02*
X022396Y005646D01*
X022396Y005704D02*
X022723Y005704D01*
X022723Y005763D02*
X022396Y005763D01*
X022396Y005821D02*
X022723Y005821D01*
X022723Y005880D02*
X022396Y005880D01*
X022396Y005938D02*
X022723Y005938D01*
X022723Y005997D02*
X022396Y005997D01*
X022396Y006055D02*
X022723Y006055D01*
X022723Y006114D02*
X022396Y006114D01*
X022396Y006172D02*
X022723Y006172D01*
X022723Y006231D02*
X022396Y006231D01*
X022396Y006289D02*
X022723Y006289D01*
X022723Y006348D02*
X022396Y006348D01*
X022396Y006406D02*
X022723Y006406D01*
X022723Y006465D02*
X022396Y006465D01*
X022396Y006523D02*
X022723Y006523D01*
X022723Y006582D02*
X022396Y006582D01*
X022396Y006640D02*
X022723Y006640D01*
X022723Y006699D02*
X022396Y006699D01*
X022396Y006757D02*
X022723Y006757D01*
X022723Y006816D02*
X022396Y006816D01*
X022396Y006874D02*
X022723Y006874D01*
X022723Y006933D02*
X022396Y006933D01*
X022396Y006991D02*
X022723Y006991D01*
X022723Y007050D02*
X022396Y007050D01*
X022396Y007108D02*
X022723Y007108D01*
X022723Y007167D02*
X022396Y007167D01*
X022396Y007225D02*
X022723Y007225D01*
X022723Y007284D02*
X022372Y007284D01*
X022339Y007342D02*
X022723Y007342D01*
X022723Y007401D02*
X022281Y007401D01*
X022222Y007459D02*
X022723Y007459D01*
X022723Y007518D02*
X022164Y007518D01*
X022105Y007576D02*
X022723Y007576D01*
X022723Y007635D02*
X022047Y007635D01*
X021988Y007693D02*
X022723Y007693D01*
X022723Y007752D02*
X021930Y007752D01*
X021871Y007810D02*
X022723Y007810D01*
X022723Y007869D02*
X021829Y007869D01*
X021829Y007927D02*
X022723Y007927D01*
X022723Y007986D02*
X021829Y007986D01*
X021829Y008044D02*
X022723Y008044D01*
X022723Y008103D02*
X021829Y008103D01*
X021829Y008161D02*
X022723Y008161D01*
X022723Y008220D02*
X021775Y008220D01*
X021716Y008278D02*
X022723Y008278D01*
X022723Y008337D02*
X021658Y008337D01*
X021599Y008395D02*
X022723Y008395D01*
X022723Y008454D02*
X014000Y008454D01*
X014059Y008512D02*
X015581Y008512D01*
X015522Y008571D02*
X014117Y008571D01*
X013942Y008395D02*
X015566Y008395D01*
X015507Y008337D02*
X013883Y008337D01*
X013825Y008278D02*
X015449Y008278D01*
X015390Y008220D02*
X013766Y008220D01*
X013708Y008161D02*
X015335Y008161D01*
X015335Y008103D02*
X013649Y008103D01*
X013591Y008044D02*
X015335Y008044D01*
X015335Y007986D02*
X013532Y007986D01*
X013474Y007927D02*
X015335Y007927D01*
X015335Y007869D02*
X013415Y007869D01*
X013357Y007810D02*
X015335Y007810D01*
X015341Y007752D02*
X013298Y007752D01*
X013240Y007693D02*
X015400Y007693D01*
X015459Y007635D02*
X013181Y007635D01*
X013123Y007576D02*
X015517Y007576D01*
X015576Y007518D02*
X013064Y007518D01*
X013006Y007459D02*
X015947Y007459D01*
X016005Y007401D02*
X012878Y007401D01*
X012240Y007167D02*
X015572Y007167D01*
X015630Y007225D02*
X012209Y007225D01*
X012150Y007284D02*
X016122Y007284D01*
X016064Y007342D02*
X012092Y007342D01*
X012264Y007108D02*
X015513Y007108D01*
X015455Y007050D02*
X012279Y007050D01*
X012279Y006991D02*
X015396Y006991D01*
X015395Y006990D02*
X015395Y006842D01*
X015796Y006842D01*
X015796Y006782D01*
X015395Y006782D01*
X015395Y006633D01*
X015648Y006381D01*
X015796Y006381D01*
X015796Y006782D01*
X015856Y006782D01*
X015856Y006381D01*
X016005Y006381D01*
X016258Y006633D01*
X016258Y006782D01*
X015856Y006782D01*
X015856Y006842D01*
X015796Y006842D01*
X015796Y007243D01*
X015648Y007243D01*
X015395Y006990D01*
X015395Y006933D02*
X012279Y006933D01*
X012279Y006874D02*
X015395Y006874D01*
X015395Y006757D02*
X012279Y006757D01*
X012279Y006699D02*
X015395Y006699D01*
X015395Y006640D02*
X012279Y006640D01*
X012279Y006582D02*
X015447Y006582D01*
X015505Y006523D02*
X012279Y006523D01*
X012279Y006465D02*
X015564Y006465D01*
X015622Y006406D02*
X012279Y006406D01*
X012279Y006348D02*
X016601Y006348D01*
X016601Y006406D02*
X016031Y006406D01*
X016089Y006465D02*
X016601Y006465D01*
X016601Y006523D02*
X016148Y006523D01*
X016206Y006582D02*
X016601Y006582D01*
X016601Y006640D02*
X016258Y006640D01*
X016258Y006699D02*
X016601Y006699D01*
X016601Y006757D02*
X016258Y006757D01*
X016258Y006842D02*
X016258Y006990D01*
X016005Y007243D01*
X015856Y007243D01*
X015856Y006842D01*
X016258Y006842D01*
X016258Y006874D02*
X016532Y006874D01*
X016590Y006816D02*
X015856Y006816D01*
X015856Y006874D02*
X015796Y006874D01*
X015796Y006816D02*
X012279Y006816D01*
X012279Y006289D02*
X015609Y006289D01*
X015623Y006303D02*
X015335Y006015D01*
X015335Y005608D01*
X015623Y005321D01*
X016030Y005321D01*
X016318Y005608D01*
X016318Y006015D01*
X016030Y006303D01*
X015623Y006303D01*
X015551Y006231D02*
X012279Y006231D01*
X012279Y006172D02*
X015492Y006172D01*
X015434Y006114D02*
X012279Y006114D01*
X012279Y006055D02*
X015375Y006055D01*
X015335Y005997D02*
X012279Y005997D01*
X012255Y005938D02*
X015335Y005938D01*
X015335Y005880D02*
X012231Y005880D01*
X012189Y005821D02*
X015335Y005821D01*
X015335Y005763D02*
X012130Y005763D01*
X012072Y005704D02*
X015335Y005704D01*
X015335Y005646D02*
X012013Y005646D01*
X011955Y005587D02*
X015356Y005587D01*
X015415Y005529D02*
X011896Y005529D01*
X011838Y005470D02*
X015473Y005470D01*
X015532Y005412D02*
X011779Y005412D01*
X011721Y005353D02*
X015590Y005353D01*
X015615Y005295D02*
X011662Y005295D01*
X011604Y005236D02*
X015556Y005236D01*
X015498Y005178D02*
X011545Y005178D01*
X011487Y005119D02*
X015439Y005119D01*
X015381Y005061D02*
X011428Y005061D01*
X011370Y005002D02*
X015335Y005002D01*
X015335Y004944D02*
X011311Y004944D01*
X011261Y004885D02*
X015335Y004885D01*
X015335Y004827D02*
X011261Y004827D01*
X011261Y004768D02*
X015335Y004768D01*
X015335Y004710D02*
X011261Y004710D01*
X011261Y004651D02*
X015335Y004651D01*
X015351Y004593D02*
X011261Y004593D01*
X011261Y004534D02*
X015409Y004534D01*
X015468Y004476D02*
X011261Y004476D01*
X011261Y004417D02*
X015526Y004417D01*
X015585Y004359D02*
X011261Y004359D01*
X011261Y004300D02*
X015601Y004300D01*
X015601Y004242D02*
X011261Y004242D01*
X011261Y004183D02*
X015601Y004183D01*
X015601Y004125D02*
X011261Y004125D01*
X011261Y004066D02*
X013704Y004066D01*
X013581Y004008D02*
X013022Y004008D01*
X013128Y003949D02*
X013522Y003949D01*
X013464Y003891D02*
X013193Y003891D01*
X013237Y003832D02*
X013434Y003832D01*
X013410Y003774D02*
X013267Y003774D01*
X013287Y003715D02*
X013386Y003715D01*
X013381Y003657D02*
X013298Y003657D01*
X013301Y003598D02*
X013381Y003598D01*
X013381Y003540D02*
X013301Y003540D01*
X013301Y003481D02*
X013381Y003481D01*
X013381Y003423D02*
X013301Y003423D01*
X013301Y003364D02*
X013381Y003364D01*
X013381Y003306D02*
X013301Y003306D01*
X013301Y003247D02*
X013381Y003247D01*
X013381Y003189D02*
X013301Y003189D01*
X013301Y003130D02*
X013381Y003130D01*
X013381Y003072D02*
X013301Y003072D01*
X013381Y003013D02*
X012901Y003013D01*
X012901Y002955D02*
X012841Y002955D01*
X012841Y003013D02*
X011901Y003013D01*
X011901Y002955D02*
X011841Y002955D01*
X011841Y003013D02*
X011361Y003013D01*
X011361Y002955D02*
X011443Y002955D01*
X011454Y002896D02*
X011356Y002896D01*
X011361Y003072D02*
X011441Y003072D01*
X011441Y003130D02*
X011361Y003130D01*
X011361Y003189D02*
X011441Y003189D01*
X011441Y003247D02*
X011361Y003247D01*
X011361Y003306D02*
X011441Y003306D01*
X011441Y003364D02*
X011361Y003364D01*
X011361Y003423D02*
X011441Y003423D01*
X011441Y003481D02*
X011361Y003481D01*
X011361Y003540D02*
X011441Y003540D01*
X011441Y003598D02*
X011361Y003598D01*
X011361Y003657D02*
X011443Y003657D01*
X011454Y003715D02*
X011355Y003715D01*
X011331Y003774D02*
X011474Y003774D01*
X011504Y003832D02*
X011307Y003832D01*
X011278Y003891D02*
X011548Y003891D01*
X011613Y003949D02*
X011261Y003949D01*
X011261Y004008D02*
X011719Y004008D01*
X011841Y004008D02*
X011901Y004008D01*
X011901Y003949D02*
X011841Y003949D01*
X011841Y003891D02*
X011901Y003891D01*
X011901Y003832D02*
X011841Y003832D01*
X011841Y003774D02*
X011901Y003774D01*
X011901Y003715D02*
X011841Y003715D01*
X011841Y003657D02*
X011901Y003657D01*
X011901Y003598D02*
X011841Y003598D01*
X011841Y003540D02*
X011901Y003540D01*
X011901Y003481D02*
X011841Y003481D01*
X011841Y003423D02*
X011901Y003423D01*
X011901Y003364D02*
X011841Y003364D01*
X011841Y003306D02*
X011901Y003306D01*
X011901Y003247D02*
X011841Y003247D01*
X011841Y003189D02*
X011901Y003189D01*
X011901Y003130D02*
X011841Y003130D01*
X011841Y003072D02*
X011901Y003072D01*
X011901Y002896D02*
X011841Y002896D01*
X012287Y002896D02*
X012454Y002896D01*
X012443Y002955D02*
X012298Y002955D01*
X012301Y003072D02*
X012441Y003072D01*
X012441Y003130D02*
X012301Y003130D01*
X012301Y003189D02*
X012441Y003189D01*
X012441Y003247D02*
X012301Y003247D01*
X012301Y003306D02*
X012441Y003306D01*
X012441Y003364D02*
X012301Y003364D01*
X012301Y003423D02*
X012441Y003423D01*
X012441Y003481D02*
X012301Y003481D01*
X012301Y003540D02*
X012441Y003540D01*
X012441Y003598D02*
X012301Y003598D01*
X012298Y003657D02*
X012443Y003657D01*
X012454Y003715D02*
X012287Y003715D01*
X012267Y003774D02*
X012474Y003774D01*
X012504Y003832D02*
X012237Y003832D01*
X012193Y003891D02*
X012548Y003891D01*
X012613Y003949D02*
X012128Y003949D01*
X012022Y004008D02*
X012719Y004008D01*
X012841Y004008D02*
X012901Y004008D01*
X012901Y003949D02*
X012841Y003949D01*
X012841Y003891D02*
X012901Y003891D01*
X012901Y003832D02*
X012841Y003832D01*
X012841Y003774D02*
X012901Y003774D01*
X012901Y003715D02*
X012841Y003715D01*
X012841Y003657D02*
X012901Y003657D01*
X012901Y003598D02*
X012841Y003598D01*
X012841Y003540D02*
X012901Y003540D01*
X012901Y003481D02*
X012841Y003481D01*
X012841Y003423D02*
X012901Y003423D01*
X012901Y003364D02*
X012841Y003364D01*
X012841Y003306D02*
X012901Y003306D01*
X012901Y003247D02*
X012841Y003247D01*
X012841Y003189D02*
X012901Y003189D01*
X012901Y003130D02*
X012841Y003130D01*
X012841Y003072D02*
X012901Y003072D01*
X012901Y002896D02*
X012841Y002896D01*
X013287Y002896D02*
X013385Y002896D01*
X013381Y002955D02*
X013298Y002955D01*
X014356Y002896D02*
X015385Y002896D01*
X015381Y002955D02*
X014361Y002955D01*
X014361Y003013D02*
X015381Y003013D01*
X015381Y003072D02*
X014361Y003072D01*
X014361Y003130D02*
X015381Y003130D01*
X015381Y003189D02*
X014361Y003189D01*
X014361Y003247D02*
X015381Y003247D01*
X015381Y003306D02*
X014361Y003306D01*
X014361Y003364D02*
X015381Y003364D01*
X015381Y003423D02*
X014361Y003423D01*
X014361Y003481D02*
X015381Y003481D01*
X015381Y003540D02*
X014361Y003540D01*
X014361Y003598D02*
X015381Y003598D01*
X015381Y003657D02*
X014361Y003657D01*
X014355Y003715D02*
X015386Y003715D01*
X015410Y003774D02*
X014331Y003774D01*
X014307Y003832D02*
X015434Y003832D01*
X015464Y003891D02*
X014278Y003891D01*
X014219Y003949D02*
X015522Y003949D01*
X015581Y004008D02*
X014161Y004008D01*
X014037Y004066D02*
X015601Y004066D01*
X016141Y004066D02*
X016601Y004066D01*
X016601Y004125D02*
X016141Y004125D01*
X016141Y004183D02*
X016601Y004183D01*
X016601Y004242D02*
X016141Y004242D01*
X016141Y004300D02*
X016601Y004300D01*
X016601Y004359D02*
X016141Y004359D01*
X016141Y004417D02*
X016601Y004417D01*
X016601Y004476D02*
X016185Y004476D01*
X016243Y004534D02*
X016601Y004534D01*
X016601Y004593D02*
X016302Y004593D01*
X016318Y004651D02*
X016601Y004651D01*
X016601Y004710D02*
X016318Y004710D01*
X016318Y004768D02*
X016601Y004768D01*
X016601Y004827D02*
X016318Y004827D01*
X016318Y004885D02*
X016601Y004885D01*
X016601Y004944D02*
X016318Y004944D01*
X016318Y005002D02*
X016601Y005002D01*
X016601Y005061D02*
X016272Y005061D01*
X016214Y005119D02*
X016601Y005119D01*
X016601Y005178D02*
X016155Y005178D01*
X016097Y005236D02*
X016601Y005236D01*
X016601Y005295D02*
X016038Y005295D01*
X016062Y005353D02*
X016601Y005353D01*
X016601Y005412D02*
X016121Y005412D01*
X016179Y005470D02*
X016601Y005470D01*
X016601Y005529D02*
X016238Y005529D01*
X016296Y005587D02*
X016601Y005587D01*
X016601Y005646D02*
X016318Y005646D01*
X016318Y005704D02*
X016601Y005704D01*
X016601Y005763D02*
X016318Y005763D01*
X016318Y005821D02*
X016601Y005821D01*
X016601Y005880D02*
X016318Y005880D01*
X016318Y005938D02*
X016601Y005938D01*
X016601Y005997D02*
X016318Y005997D01*
X016278Y006055D02*
X016601Y006055D01*
X016601Y006114D02*
X016219Y006114D01*
X016161Y006172D02*
X016601Y006172D01*
X016601Y006231D02*
X016102Y006231D01*
X016044Y006289D02*
X016601Y006289D01*
X017141Y006289D02*
X018365Y006289D01*
X018379Y006303D02*
X018091Y006015D01*
X018091Y005608D01*
X018379Y005321D01*
X018786Y005321D01*
X019074Y005608D01*
X019074Y006015D01*
X018786Y006303D01*
X018379Y006303D01*
X018404Y006381D02*
X018151Y006633D01*
X018151Y006782D01*
X018552Y006782D01*
X018552Y006842D01*
X018151Y006842D01*
X018151Y006990D01*
X018404Y007243D01*
X018552Y007243D01*
X018552Y006842D01*
X018612Y006842D01*
X018612Y007243D01*
X018761Y007243D01*
X019014Y006990D01*
X019014Y006842D01*
X018612Y006842D01*
X018612Y006782D01*
X018612Y006381D01*
X018761Y006381D01*
X019014Y006633D01*
X019014Y006782D01*
X018612Y006782D01*
X018552Y006782D01*
X018552Y006381D01*
X018404Y006381D01*
X018378Y006406D02*
X017141Y006406D01*
X017141Y006348D02*
X019100Y006348D01*
X019100Y006406D02*
X018787Y006406D01*
X018845Y006465D02*
X019100Y006465D01*
X019100Y006523D02*
X018904Y006523D01*
X018962Y006582D02*
X019100Y006582D01*
X019100Y006640D02*
X019014Y006640D01*
X019014Y006699D02*
X019100Y006699D01*
X019100Y006757D02*
X019014Y006757D01*
X019100Y006816D02*
X018612Y006816D01*
X018612Y006874D02*
X018552Y006874D01*
X018552Y006816D02*
X017141Y006816D01*
X017141Y006874D02*
X018151Y006874D01*
X018151Y006933D02*
X017141Y006933D01*
X017132Y006991D02*
X018152Y006991D01*
X018210Y007050D02*
X017108Y007050D01*
X017061Y007108D02*
X018269Y007108D01*
X018327Y007167D02*
X017003Y007167D01*
X016944Y007225D02*
X018386Y007225D01*
X018552Y007225D02*
X018612Y007225D01*
X018612Y007167D02*
X018552Y007167D01*
X018552Y007108D02*
X018612Y007108D01*
X018612Y007050D02*
X018552Y007050D01*
X018552Y006991D02*
X018612Y006991D01*
X018612Y006933D02*
X018552Y006933D01*
X018552Y006757D02*
X018612Y006757D01*
X018612Y006699D02*
X018552Y006699D01*
X018552Y006640D02*
X018612Y006640D01*
X018612Y006582D02*
X018552Y006582D01*
X018552Y006523D02*
X018612Y006523D01*
X018612Y006465D02*
X018552Y006465D01*
X018552Y006406D02*
X018612Y006406D01*
X018800Y006289D02*
X019100Y006289D01*
X019100Y006231D02*
X018858Y006231D01*
X018917Y006172D02*
X019100Y006172D01*
X019100Y006114D02*
X018975Y006114D01*
X019034Y006055D02*
X019100Y006055D01*
X019100Y005997D02*
X019074Y005997D01*
X019074Y005938D02*
X019100Y005938D01*
X019100Y005880D02*
X019074Y005880D01*
X019074Y005821D02*
X019100Y005821D01*
X019100Y005763D02*
X019074Y005763D01*
X019074Y005704D02*
X019100Y005704D01*
X019100Y005646D02*
X019074Y005646D01*
X019052Y005587D02*
X019100Y005587D01*
X019100Y005529D02*
X018994Y005529D01*
X018935Y005470D02*
X019100Y005470D01*
X019100Y005412D02*
X018877Y005412D01*
X018818Y005353D02*
X019100Y005353D01*
X019100Y005295D02*
X018794Y005295D01*
X018853Y005236D02*
X019100Y005236D01*
X019100Y005178D02*
X018911Y005178D01*
X018970Y005119D02*
X019100Y005119D01*
X019100Y005061D02*
X019028Y005061D01*
X019074Y005002D02*
X019100Y005002D01*
X019100Y004944D02*
X019074Y004944D01*
X019074Y004885D02*
X019100Y004885D01*
X019100Y004827D02*
X019074Y004827D01*
X019074Y004768D02*
X019100Y004768D01*
X018371Y005295D02*
X017141Y005295D01*
X017141Y005353D02*
X018346Y005353D01*
X018288Y005412D02*
X017141Y005412D01*
X017141Y005470D02*
X018229Y005470D01*
X018171Y005529D02*
X017141Y005529D01*
X017141Y005587D02*
X018112Y005587D01*
X018091Y005646D02*
X017141Y005646D01*
X017141Y005704D02*
X018091Y005704D01*
X018091Y005763D02*
X017141Y005763D01*
X017141Y005821D02*
X018091Y005821D01*
X018091Y005880D02*
X017141Y005880D01*
X017141Y005938D02*
X018091Y005938D01*
X018091Y005997D02*
X017141Y005997D01*
X017141Y006055D02*
X018131Y006055D01*
X018190Y006114D02*
X017141Y006114D01*
X017141Y006172D02*
X018248Y006172D01*
X018307Y006231D02*
X017141Y006231D01*
X017141Y006465D02*
X018320Y006465D01*
X018261Y006523D02*
X017141Y006523D01*
X017141Y006582D02*
X018203Y006582D01*
X018151Y006640D02*
X017141Y006640D01*
X017141Y006699D02*
X018151Y006699D01*
X018151Y006757D02*
X017141Y006757D01*
X016886Y007284D02*
X018878Y007284D01*
X018820Y007342D02*
X016827Y007342D01*
X016769Y007401D02*
X018761Y007401D01*
X018703Y007459D02*
X016710Y007459D01*
X016652Y007518D02*
X018331Y007518D01*
X018273Y007576D02*
X016593Y007576D01*
X016535Y007635D02*
X018214Y007635D01*
X018156Y007693D02*
X016476Y007693D01*
X016418Y007752D02*
X018097Y007752D01*
X018091Y007810D02*
X016359Y007810D01*
X016318Y007869D02*
X018091Y007869D01*
X018091Y007927D02*
X016318Y007927D01*
X016318Y007986D02*
X018091Y007986D01*
X018091Y008044D02*
X016318Y008044D01*
X016318Y008103D02*
X018091Y008103D01*
X018091Y008161D02*
X016318Y008161D01*
X016263Y008220D02*
X018146Y008220D01*
X018205Y008278D02*
X016204Y008278D01*
X016146Y008337D02*
X018263Y008337D01*
X018322Y008395D02*
X016087Y008395D01*
X016072Y008512D02*
X018337Y008512D01*
X018278Y008571D02*
X016130Y008571D01*
X016189Y008629D02*
X018220Y008629D01*
X018161Y008688D02*
X016247Y008688D01*
X016306Y008746D02*
X018103Y008746D01*
X018091Y008805D02*
X016318Y008805D01*
X016318Y008863D02*
X018091Y008863D01*
X018091Y008922D02*
X016318Y008922D01*
X016318Y008980D02*
X018091Y008980D01*
X018091Y009039D02*
X016318Y009039D01*
X016318Y009097D02*
X018091Y009097D01*
X018091Y009156D02*
X016318Y009156D01*
X016268Y009214D02*
X018141Y009214D01*
X018199Y009273D02*
X016210Y009273D01*
X016151Y009331D02*
X018258Y009331D01*
X018316Y009390D02*
X016093Y009390D01*
X016034Y009448D02*
X018375Y009448D01*
X018552Y009565D02*
X018612Y009565D01*
X018612Y009624D02*
X018552Y009624D01*
X018552Y009682D02*
X018612Y009682D01*
X018612Y009741D02*
X018552Y009741D01*
X018552Y009799D02*
X018612Y009799D01*
X018612Y009858D02*
X018552Y009858D01*
X018552Y009916D02*
X018612Y009916D01*
X018612Y010092D02*
X018552Y010092D01*
X018552Y010150D02*
X018612Y010150D01*
X018612Y010209D02*
X018552Y010209D01*
X018552Y010267D02*
X018612Y010267D01*
X018612Y010326D02*
X018552Y010326D01*
X018552Y010384D02*
X018612Y010384D01*
X018605Y011065D02*
X018605Y011065D01*
X018605Y011065D01*
X018626Y011086D02*
X018788Y011086D01*
X018729Y011145D02*
X018685Y011145D01*
X018514Y011285D02*
X018367Y011285D01*
X018293Y011358D01*
X018293Y011505D02*
X018440Y011578D01*
X018514Y011578D01*
X018587Y011505D01*
X018587Y011358D01*
X018514Y011285D01*
X018754Y011432D02*
X018754Y011725D01*
X018587Y011725D02*
X018293Y011725D01*
X018293Y011505D01*
X018137Y011203D02*
X018093Y011203D01*
X018034Y011145D02*
X018196Y011145D01*
X018254Y011086D02*
X017971Y011086D01*
X018052Y011847D02*
X018104Y011847D01*
X018162Y011905D02*
X017994Y011905D01*
X017874Y011964D02*
X020099Y011964D01*
X020054Y012022D02*
X017817Y012022D01*
X017958Y012081D02*
X018260Y012081D01*
X018201Y012139D02*
X018029Y012139D01*
X018087Y012198D02*
X018143Y012198D01*
X018293Y012358D02*
X018367Y012285D01*
X018514Y012285D01*
X018587Y012358D01*
X018587Y012652D01*
X018514Y012725D01*
X018367Y012725D01*
X018293Y012652D01*
X018293Y012358D01*
X018605Y012065D02*
X018605Y012065D01*
X018605Y012065D01*
X018621Y012081D02*
X018720Y012081D01*
X018827Y012285D02*
X018974Y012285D01*
X019047Y012358D01*
X019047Y012725D01*
X018911Y012900D02*
X018890Y012900D01*
X018929Y013075D02*
X018956Y013075D01*
X018652Y013075D02*
X018615Y013075D01*
X018265Y013075D02*
X017945Y013075D01*
X018023Y013134D02*
X018207Y013134D01*
X018148Y013192D02*
X018082Y013192D01*
X018147Y013194D02*
X018147Y013194D01*
X018230Y012900D02*
X017999Y012900D01*
X018058Y012841D02*
X018172Y012841D01*
X018754Y012725D02*
X018754Y012358D01*
X018827Y012285D01*
X018885Y011905D02*
X018916Y011905D01*
X019047Y011725D02*
X019047Y011432D01*
X018901Y011285D01*
X018754Y011432D01*
X019468Y012081D02*
X020030Y012081D01*
X020005Y012139D02*
X019527Y012139D01*
X019581Y012198D02*
X019995Y012198D01*
X019995Y012256D02*
X019581Y012256D01*
X019581Y012315D02*
X019995Y012315D01*
X020007Y012373D02*
X019581Y012373D01*
X019581Y012432D02*
X020031Y012432D01*
X020055Y012490D02*
X019581Y012490D01*
X019643Y012549D02*
X020102Y012549D01*
X020161Y012607D02*
X019701Y012607D01*
X019728Y012666D02*
X020261Y012666D01*
X020622Y012841D02*
X020649Y012841D01*
X021003Y012432D02*
X021226Y012432D01*
X021157Y012490D02*
X021062Y012490D01*
X020945Y012373D02*
X021363Y012373D01*
X021415Y012373D02*
X021475Y012373D01*
X021475Y012365D02*
X021483Y012365D01*
X021558Y012380D01*
X021629Y012409D01*
X021693Y012452D01*
X021747Y012506D01*
X021790Y012570D01*
X021820Y012641D01*
X021835Y012716D01*
X021835Y012725D01*
X021475Y012725D01*
X021475Y012365D01*
X021526Y012373D02*
X021935Y012373D01*
X021935Y012315D02*
X020895Y012315D01*
X021415Y012432D02*
X021475Y012432D01*
X021475Y012490D02*
X021415Y012490D01*
X021415Y012549D02*
X021475Y012549D01*
X021475Y012607D02*
X021415Y012607D01*
X021415Y012666D02*
X021475Y012666D01*
X021475Y012724D02*
X021415Y012724D01*
X021475Y012783D02*
X022034Y012783D01*
X022034Y012841D02*
X021825Y012841D01*
X021807Y012900D02*
X022034Y012900D01*
X022034Y012958D02*
X021778Y012958D01*
X021734Y013017D02*
X022051Y013017D01*
X022109Y013075D02*
X021667Y013075D01*
X021538Y013134D02*
X022168Y013134D01*
X022226Y013192D02*
X021215Y013192D01*
X021215Y013134D02*
X021351Y013134D01*
X021415Y013134D02*
X021475Y013134D01*
X021475Y013075D02*
X021415Y013075D01*
X021415Y013017D02*
X021475Y013017D01*
X021475Y012958D02*
X021415Y012958D01*
X021415Y012900D02*
X021475Y012900D01*
X021475Y012841D02*
X021415Y012841D01*
X021222Y013075D02*
X021215Y013075D01*
X021215Y013251D02*
X022723Y013251D01*
X022723Y013309D02*
X021215Y013309D01*
X021215Y013368D02*
X022723Y013368D01*
X022723Y013426D02*
X021215Y013426D01*
X021215Y013485D02*
X022723Y013485D01*
X022723Y013543D02*
X021215Y013543D01*
X021215Y013602D02*
X022723Y013602D01*
X022723Y013660D02*
X021215Y013660D01*
X021215Y013719D02*
X022723Y013719D01*
X022723Y013777D02*
X021215Y013777D01*
X021215Y013836D02*
X022723Y013836D01*
X022723Y013894D02*
X021215Y013894D01*
X021215Y013953D02*
X022723Y013953D01*
X022723Y014011D02*
X021215Y014011D01*
X021215Y014070D02*
X022723Y014070D01*
X022723Y014128D02*
X021215Y014128D01*
X021215Y014187D02*
X022723Y014187D01*
X022723Y014245D02*
X021215Y014245D01*
X021215Y014304D02*
X022723Y014304D01*
X022723Y014362D02*
X021215Y014362D01*
X021215Y014421D02*
X022723Y014421D01*
X022723Y014479D02*
X021215Y014479D01*
X021215Y014538D02*
X022723Y014538D01*
X022723Y014596D02*
X021215Y014596D01*
X021215Y014655D02*
X022723Y014655D01*
X022723Y014713D02*
X021215Y014713D01*
X021215Y014772D02*
X022723Y014772D01*
X022723Y014830D02*
X021215Y014830D01*
X021215Y014889D02*
X022723Y014889D01*
X022723Y014947D02*
X021215Y014947D01*
X021215Y015006D02*
X022723Y015006D01*
X022723Y015064D02*
X021215Y015064D01*
X021215Y015123D02*
X022723Y015123D01*
X022723Y015181D02*
X021215Y015181D01*
X021215Y015240D02*
X022723Y015240D01*
X022723Y015298D02*
X021215Y015298D01*
X021215Y015357D02*
X022723Y015357D01*
X022723Y015415D02*
X021215Y015415D01*
X021215Y015474D02*
X022723Y015474D01*
X022723Y015532D02*
X021215Y015532D01*
X021215Y015591D02*
X022723Y015591D01*
X022723Y015649D02*
X021215Y015649D01*
X021554Y015708D02*
X021583Y015691D01*
X021616Y015682D01*
X021899Y015682D01*
X021899Y016038D01*
X021899Y016000D02*
X021959Y016000D01*
X021959Y016038D02*
X021959Y015682D01*
X022241Y015682D01*
X022274Y015691D01*
X022304Y015708D01*
X022328Y015732D01*
X022345Y015762D01*
X022354Y015795D01*
X022354Y016038D01*
X021959Y016038D01*
X021959Y016059D02*
X022723Y016059D01*
X022723Y016117D02*
X022354Y016117D01*
X022354Y016176D02*
X022723Y016176D01*
X022723Y016234D02*
X022354Y016234D01*
X022354Y016293D02*
X022723Y016293D01*
X022723Y016351D02*
X022351Y016351D01*
X022343Y016410D02*
X022723Y016410D01*
X022723Y016468D02*
X022401Y016468D01*
X022414Y016527D02*
X022723Y016527D01*
X022723Y016585D02*
X022414Y016585D01*
X022414Y016644D02*
X022723Y016644D01*
X022723Y016702D02*
X022414Y016702D01*
X022414Y016761D02*
X022723Y016761D01*
X022723Y016819D02*
X022414Y016819D01*
X022414Y016878D02*
X022723Y016878D01*
X022723Y016936D02*
X022414Y016936D01*
X022414Y016995D02*
X022723Y016995D01*
X022723Y017053D02*
X022414Y017053D01*
X022414Y017112D02*
X022723Y017112D01*
X022723Y017170D02*
X022394Y017170D01*
X022336Y017229D02*
X022723Y017229D01*
X022723Y017287D02*
X022199Y017287D01*
X022199Y017346D02*
X022723Y017346D01*
X022723Y017404D02*
X022199Y017404D01*
X022199Y017463D02*
X022723Y017463D01*
X022723Y017521D02*
X022199Y017521D01*
X022199Y017580D02*
X022723Y017580D01*
X022723Y017638D02*
X022351Y017638D01*
X022409Y017697D02*
X022723Y017697D01*
X022723Y017755D02*
X022414Y017755D01*
X022414Y017814D02*
X022723Y017814D01*
X022723Y017872D02*
X022414Y017872D01*
X022414Y017931D02*
X022723Y017931D01*
X022723Y017989D02*
X022414Y017989D01*
X022414Y018048D02*
X022723Y018048D01*
X022723Y018106D02*
X022414Y018106D01*
X022414Y018165D02*
X022723Y018165D01*
X022723Y018223D02*
X022414Y018223D01*
X022414Y018282D02*
X022723Y018282D01*
X022723Y018340D02*
X022414Y018340D01*
X022386Y018399D02*
X022723Y018399D01*
X022723Y018457D02*
X022414Y018457D01*
X022414Y018516D02*
X022723Y018516D01*
X022723Y018574D02*
X022414Y018574D01*
X022414Y018633D02*
X022723Y018633D01*
X022723Y018691D02*
X022414Y018691D01*
X022414Y018750D02*
X022723Y018750D01*
X022723Y018808D02*
X022414Y018808D01*
X022414Y018867D02*
X022723Y018867D01*
X022723Y018925D02*
X022414Y018925D01*
X022414Y018984D02*
X022723Y018984D01*
X022723Y019042D02*
X022414Y019042D01*
X022414Y019101D02*
X022723Y019101D01*
X022723Y019159D02*
X022374Y019159D01*
X022315Y019218D02*
X022723Y019218D01*
X022723Y019276D02*
X022199Y019276D01*
X022199Y019335D02*
X022723Y019335D01*
X022723Y019393D02*
X022199Y019393D01*
X022197Y019452D02*
X022723Y019452D01*
X022723Y019510D02*
X022173Y019510D01*
X022136Y019569D02*
X022723Y019569D01*
X022723Y019627D02*
X022078Y019627D01*
X022019Y019686D02*
X022723Y019686D01*
X022723Y019744D02*
X021961Y019744D01*
X021902Y019803D02*
X022723Y019803D01*
X022723Y019861D02*
X021844Y019861D01*
X021785Y019920D02*
X022723Y019920D01*
X022723Y019978D02*
X021727Y019978D01*
X021668Y020037D02*
X022723Y020037D01*
X022723Y020095D02*
X021610Y020095D01*
X021551Y020154D02*
X022723Y020154D01*
X022723Y020212D02*
X021493Y020212D01*
X021434Y020271D02*
X022723Y020271D01*
X022723Y020329D02*
X021376Y020329D01*
X021317Y020388D02*
X022723Y020388D01*
X022723Y020446D02*
X021259Y020446D01*
X021200Y020505D02*
X022723Y020505D01*
X022723Y020563D02*
X021142Y020563D01*
X021083Y020622D02*
X022723Y020622D01*
X022723Y020680D02*
X021025Y020680D01*
X020966Y020739D02*
X022723Y020739D01*
X022723Y020797D02*
X020908Y020797D01*
X020849Y020856D02*
X022723Y020856D01*
X022723Y020914D02*
X020791Y020914D01*
X021108Y020973D02*
X022723Y020973D01*
X022723Y021031D02*
X021190Y021031D01*
X021249Y021090D02*
X022723Y021090D01*
X022723Y021148D02*
X021295Y021148D01*
X021319Y021207D02*
X022723Y021207D01*
X022723Y021265D02*
X021343Y021265D01*
X021361Y021324D02*
X022723Y021324D01*
X022723Y021382D02*
X021361Y021382D01*
X021361Y021441D02*
X022723Y021441D01*
X022723Y021499D02*
X021361Y021499D01*
X021361Y021558D02*
X022723Y021558D01*
X022723Y021616D02*
X021361Y021616D01*
X021361Y021675D02*
X022723Y021675D01*
X022723Y021733D02*
X021361Y021733D01*
X021361Y021792D02*
X022723Y021792D01*
X022723Y021850D02*
X021361Y021850D01*
X021361Y021909D02*
X022723Y021909D01*
X022722Y021967D02*
X021361Y021967D01*
X021361Y022026D02*
X022706Y022026D01*
X022671Y022084D02*
X021361Y022084D01*
X021344Y022143D02*
X022585Y022143D01*
X021256Y019686D02*
X021215Y019686D01*
X021215Y019627D02*
X021314Y019627D01*
X021373Y019569D02*
X021215Y019569D01*
X021215Y019510D02*
X021431Y019510D01*
X021490Y019452D02*
X021215Y019452D01*
X021215Y019393D02*
X021548Y019393D01*
X021607Y019335D02*
X021215Y019335D01*
X021215Y019276D02*
X021659Y019276D01*
X021542Y019218D02*
X021215Y019218D01*
X021215Y019159D02*
X021484Y019159D01*
X021444Y019101D02*
X021215Y019101D01*
X021215Y019042D02*
X021444Y019042D01*
X021444Y018984D02*
X021215Y018984D01*
X021215Y018925D02*
X021444Y018925D01*
X021444Y018867D02*
X021215Y018867D01*
X021215Y018808D02*
X021444Y018808D01*
X021444Y018750D02*
X021215Y018750D01*
X021215Y018691D02*
X021444Y018691D01*
X021444Y018633D02*
X021215Y018633D01*
X021215Y018574D02*
X021444Y018574D01*
X021444Y018516D02*
X021215Y018516D01*
X021215Y018457D02*
X021444Y018457D01*
X021471Y018399D02*
X021215Y018399D01*
X021215Y018340D02*
X021444Y018340D01*
X021444Y018282D02*
X021215Y018282D01*
X021215Y018223D02*
X021444Y018223D01*
X021444Y018165D02*
X021215Y018165D01*
X021215Y018106D02*
X021444Y018106D01*
X021444Y018048D02*
X021215Y018048D01*
X021215Y017989D02*
X021444Y017989D01*
X021444Y017931D02*
X021215Y017931D01*
X021215Y017872D02*
X021444Y017872D01*
X021444Y017814D02*
X021215Y017814D01*
X021215Y017755D02*
X021444Y017755D01*
X021448Y017697D02*
X021215Y017697D01*
X021215Y017638D02*
X021507Y017638D01*
X021659Y017580D02*
X021215Y017580D01*
X021215Y017521D02*
X021659Y017521D01*
X021659Y017463D02*
X021215Y017463D01*
X021215Y017404D02*
X021659Y017404D01*
X021659Y017346D02*
X021215Y017346D01*
X021215Y017287D02*
X021659Y017287D01*
X021522Y017229D02*
X021215Y017229D01*
X021215Y017170D02*
X021463Y017170D01*
X021444Y017112D02*
X021215Y017112D01*
X021215Y017053D02*
X021444Y017053D01*
X021444Y016995D02*
X021215Y016995D01*
X021215Y016936D02*
X021444Y016936D01*
X021444Y016878D02*
X021215Y016878D01*
X021215Y016819D02*
X021444Y016819D01*
X021444Y016761D02*
X021215Y016761D01*
X021215Y016702D02*
X021444Y016702D01*
X021444Y016644D02*
X021215Y016644D01*
X021215Y016585D02*
X021444Y016585D01*
X021444Y016527D02*
X021215Y016527D01*
X021215Y016468D02*
X021456Y016468D01*
X021515Y016410D02*
X021215Y016410D01*
X021215Y016351D02*
X021506Y016351D01*
X021504Y016293D02*
X021215Y016293D01*
X021215Y016234D02*
X021504Y016234D01*
X021504Y016176D02*
X021215Y016176D01*
X021899Y015942D02*
X021959Y015942D01*
X021959Y015883D02*
X021899Y015883D01*
X021899Y015825D02*
X021959Y015825D01*
X021959Y015766D02*
X021899Y015766D01*
X021899Y015708D02*
X021959Y015708D01*
X022304Y015708D02*
X022723Y015708D01*
X022723Y015766D02*
X022346Y015766D01*
X022354Y015825D02*
X022723Y015825D01*
X022723Y015883D02*
X022354Y015883D01*
X022354Y015942D02*
X022723Y015942D01*
X022723Y016000D02*
X022354Y016000D01*
X020281Y015649D02*
X016490Y015649D01*
X016490Y015591D02*
X020281Y015591D01*
X020281Y015532D02*
X016490Y015532D01*
X016490Y015474D02*
X020281Y015474D01*
X020281Y015415D02*
X016490Y015415D01*
X016490Y015357D02*
X020281Y015357D01*
X020281Y015298D02*
X016490Y015298D01*
X016490Y015240D02*
X020281Y015240D01*
X020281Y015181D02*
X016490Y015181D01*
X016490Y015123D02*
X020281Y015123D01*
X020281Y015064D02*
X016490Y015064D01*
X016490Y015006D02*
X020281Y015006D01*
X020281Y014947D02*
X016490Y014947D01*
X016490Y014889D02*
X020281Y014889D01*
X020281Y014830D02*
X016490Y014830D01*
X016490Y014772D02*
X020281Y014772D01*
X020281Y014713D02*
X016490Y014713D01*
X016490Y014655D02*
X020281Y014655D01*
X020281Y014596D02*
X016490Y014596D01*
X016490Y014538D02*
X020281Y014538D01*
X020281Y014479D02*
X016490Y014479D01*
X016490Y014421D02*
X020281Y014421D01*
X020281Y014362D02*
X016490Y014362D01*
X016490Y014304D02*
X020281Y014304D01*
X020281Y014245D02*
X016490Y014245D01*
X016490Y014187D02*
X020281Y014187D01*
X020281Y014128D02*
X016490Y014128D01*
X016490Y014070D02*
X020281Y014070D01*
X019431Y013134D02*
X019364Y013134D01*
X019306Y013075D02*
X019490Y013075D01*
X021663Y012432D02*
X021935Y012432D01*
X021935Y012490D02*
X021732Y012490D01*
X021776Y012549D02*
X021971Y012549D01*
X022029Y012607D02*
X021806Y012607D01*
X021824Y012666D02*
X022038Y012666D01*
X022034Y012724D02*
X021835Y012724D01*
X022254Y012762D02*
X022327Y012688D01*
X022621Y012688D01*
X022694Y012762D01*
X022694Y012908D01*
X022621Y012982D01*
X022721Y013192D02*
X022723Y013192D01*
X022520Y013192D02*
X022428Y013192D01*
X022327Y012982D02*
X022254Y012908D01*
X022254Y012762D01*
X022269Y012479D02*
X022212Y012479D01*
X022155Y012422D01*
X022155Y012309D01*
X022212Y012252D01*
X022254Y012068D02*
X022254Y011921D01*
X022254Y011994D02*
X022694Y011994D01*
X022694Y011921D02*
X022694Y012068D01*
X022496Y012252D02*
X022496Y012479D01*
X022496Y012252D02*
X022269Y012479D01*
X022374Y011730D02*
X022574Y011730D01*
X022723Y010618D02*
X015306Y010618D01*
X015248Y010560D02*
X022723Y010560D01*
X022723Y010501D02*
X015189Y010501D01*
X015131Y010443D02*
X022723Y010443D01*
X022723Y009448D02*
X021546Y009448D01*
X021605Y009390D02*
X022723Y009390D01*
X022723Y009331D02*
X021663Y009331D01*
X021722Y009273D02*
X022723Y009273D01*
X022723Y009214D02*
X021780Y009214D01*
X021829Y009156D02*
X022723Y009156D01*
X022723Y009097D02*
X021829Y009097D01*
X021829Y009039D02*
X022723Y009039D01*
X022723Y008980D02*
X021829Y008980D01*
X021829Y008922D02*
X022723Y008922D01*
X022723Y008863D02*
X021829Y008863D01*
X021829Y008805D02*
X022723Y008805D01*
X022723Y008746D02*
X021818Y008746D01*
X021759Y008688D02*
X022723Y008688D01*
X022723Y008629D02*
X021701Y008629D01*
X021642Y008571D02*
X022723Y008571D01*
X022723Y008512D02*
X021584Y008512D01*
X021535Y007225D02*
X021693Y007225D01*
X021751Y007167D02*
X021593Y007167D01*
X021652Y007108D02*
X021810Y007108D01*
X021856Y007050D02*
X021710Y007050D01*
X021769Y006991D02*
X021856Y006991D01*
X021856Y006933D02*
X021769Y006933D01*
X021368Y006933D02*
X021308Y006933D01*
X021308Y006991D02*
X021368Y006991D01*
X021368Y007050D02*
X021308Y007050D01*
X021308Y007108D02*
X021368Y007108D01*
X021368Y007167D02*
X021308Y007167D01*
X021308Y007225D02*
X021368Y007225D01*
X021368Y006757D02*
X021308Y006757D01*
X021308Y006699D02*
X021368Y006699D01*
X021368Y006640D02*
X021308Y006640D01*
X021308Y006582D02*
X021368Y006582D01*
X021368Y006523D02*
X021308Y006523D01*
X021308Y006465D02*
X021368Y006465D01*
X021368Y006406D02*
X021308Y006406D01*
X021555Y006289D02*
X021856Y006289D01*
X021856Y006231D02*
X021614Y006231D01*
X021672Y006172D02*
X021856Y006172D01*
X021856Y006114D02*
X021731Y006114D01*
X021789Y006055D02*
X021856Y006055D01*
X021856Y005997D02*
X021829Y005997D01*
X021829Y005938D02*
X021856Y005938D01*
X021856Y005880D02*
X021829Y005880D01*
X021829Y005821D02*
X021856Y005821D01*
X021856Y005763D02*
X021829Y005763D01*
X021829Y005704D02*
X021856Y005704D01*
X021856Y005646D02*
X021829Y005646D01*
X021808Y005587D02*
X021856Y005587D01*
X021856Y005529D02*
X021750Y005529D01*
X021691Y005470D02*
X021856Y005470D01*
X021856Y005412D02*
X021633Y005412D01*
X021574Y005353D02*
X021856Y005353D01*
X021856Y005295D02*
X021550Y005295D01*
X021608Y005236D02*
X021856Y005236D01*
X021856Y005178D02*
X021667Y005178D01*
X021725Y005119D02*
X021856Y005119D01*
X021856Y005061D02*
X021784Y005061D01*
X021829Y005002D02*
X021856Y005002D01*
X021856Y004944D02*
X021829Y004944D01*
X021829Y004885D02*
X021856Y004885D01*
X021856Y004827D02*
X021829Y004827D01*
X021829Y004768D02*
X021856Y004768D01*
X021856Y004710D02*
X021829Y004710D01*
X021829Y004651D02*
X021856Y004651D01*
X021856Y004593D02*
X021814Y004593D01*
X021856Y004534D02*
X021755Y004534D01*
X021697Y004476D02*
X021856Y004476D01*
X021856Y004417D02*
X021638Y004417D01*
X021580Y004359D02*
X021843Y004359D01*
X019100Y006874D02*
X019014Y006874D01*
X019014Y006933D02*
X019100Y006933D01*
X019100Y006991D02*
X019013Y006991D01*
X018954Y007050D02*
X019100Y007050D01*
X019054Y007108D02*
X018896Y007108D01*
X018837Y007167D02*
X018995Y007167D01*
X018937Y007225D02*
X018779Y007225D01*
X018312Y005236D02*
X017141Y005236D01*
X017141Y005178D02*
X018254Y005178D01*
X018195Y005119D02*
X017141Y005119D01*
X017141Y005061D02*
X018137Y005061D01*
X018091Y005002D02*
X017141Y005002D01*
X017141Y004944D02*
X018091Y004944D01*
X018091Y004885D02*
X017141Y004885D01*
X017141Y004827D02*
X018091Y004827D01*
X018091Y004768D02*
X017141Y004768D01*
X017141Y004710D02*
X018091Y004710D01*
X018040Y004651D02*
X017141Y004651D01*
X017141Y004593D02*
X017981Y004593D01*
X017923Y004534D02*
X017141Y004534D01*
X017141Y004476D02*
X017864Y004476D01*
X017806Y004417D02*
X017141Y004417D01*
X017141Y004359D02*
X017747Y004359D01*
X017689Y004300D02*
X017141Y004300D01*
X017141Y004242D02*
X017637Y004242D01*
X017613Y004183D02*
X017141Y004183D01*
X017141Y004125D02*
X017601Y004125D01*
X017601Y004066D02*
X017141Y004066D01*
X017161Y004008D02*
X017581Y004008D01*
X017522Y003949D02*
X017219Y003949D01*
X017278Y003891D02*
X017464Y003891D01*
X017434Y003832D02*
X017307Y003832D01*
X017331Y003774D02*
X017410Y003774D01*
X017386Y003715D02*
X017355Y003715D01*
X017361Y003657D02*
X017381Y003657D01*
X017381Y003598D02*
X017361Y003598D01*
X017361Y003540D02*
X017381Y003540D01*
X017381Y003481D02*
X017361Y003481D01*
X017361Y003423D02*
X017381Y003423D01*
X017381Y003364D02*
X017361Y003364D01*
X017361Y003306D02*
X017381Y003306D01*
X017381Y003247D02*
X017361Y003247D01*
X017361Y003189D02*
X017381Y003189D01*
X017381Y003130D02*
X017361Y003130D01*
X017361Y003072D02*
X017381Y003072D01*
X017381Y003013D02*
X017361Y003013D01*
X017361Y002955D02*
X017381Y002955D01*
X017385Y002896D02*
X017356Y002896D01*
X016385Y002896D02*
X016356Y002896D01*
X016361Y002955D02*
X016381Y002955D01*
X016381Y003013D02*
X016361Y003013D01*
X016361Y003072D02*
X016381Y003072D01*
X016381Y003130D02*
X016361Y003130D01*
X016361Y003189D02*
X016381Y003189D01*
X016381Y003247D02*
X016361Y003247D01*
X016361Y003306D02*
X016381Y003306D01*
X016381Y003364D02*
X016361Y003364D01*
X016361Y003423D02*
X016381Y003423D01*
X016381Y003481D02*
X016361Y003481D01*
X016361Y003540D02*
X016381Y003540D01*
X016381Y003598D02*
X016361Y003598D01*
X016361Y003657D02*
X016381Y003657D01*
X016386Y003715D02*
X016355Y003715D01*
X016331Y003774D02*
X016410Y003774D01*
X016434Y003832D02*
X016307Y003832D01*
X016278Y003891D02*
X016464Y003891D01*
X016522Y003949D02*
X016219Y003949D01*
X016161Y004008D02*
X016581Y004008D01*
X015856Y006406D02*
X015796Y006406D01*
X015796Y006465D02*
X015856Y006465D01*
X015856Y006523D02*
X015796Y006523D01*
X015796Y006582D02*
X015856Y006582D01*
X015856Y006640D02*
X015796Y006640D01*
X015796Y006699D02*
X015856Y006699D01*
X015856Y006757D02*
X015796Y006757D01*
X015796Y006933D02*
X015856Y006933D01*
X015856Y006991D02*
X015796Y006991D01*
X015796Y007050D02*
X015856Y007050D01*
X015856Y007108D02*
X015796Y007108D01*
X015796Y007167D02*
X015856Y007167D01*
X015856Y007225D02*
X015796Y007225D01*
X016023Y007225D02*
X016181Y007225D01*
X016239Y007167D02*
X016081Y007167D01*
X016140Y007108D02*
X016298Y007108D01*
X016356Y007050D02*
X016198Y007050D01*
X016257Y006991D02*
X016415Y006991D01*
X016473Y006933D02*
X016258Y006933D01*
X015560Y009390D02*
X014078Y009390D01*
X014136Y009448D02*
X015619Y009448D01*
X013592Y011496D02*
X012238Y011496D01*
X012258Y011476D02*
X012042Y011692D01*
X011737Y011692D01*
X011719Y011674D01*
X006802Y011674D01*
X006549Y011927D01*
X006049Y011927D01*
X005695Y011574D01*
X005695Y011074D01*
X006049Y010720D01*
X006549Y010720D01*
X006802Y010974D01*
X011719Y010974D01*
X011737Y010956D01*
X012042Y010956D01*
X012258Y011171D01*
X012258Y011476D01*
X012258Y011437D02*
X013533Y011437D01*
X013475Y011379D02*
X012258Y011379D01*
X012258Y011320D02*
X013416Y011320D01*
X013358Y011262D02*
X012258Y011262D01*
X012258Y011203D02*
X013299Y011203D01*
X013241Y011145D02*
X012231Y011145D01*
X012173Y011086D02*
X013182Y011086D01*
X013124Y011028D02*
X012114Y011028D01*
X012056Y010969D02*
X013065Y010969D01*
X013007Y010911D02*
X006739Y010911D01*
X006681Y010852D02*
X012948Y010852D01*
X012890Y010794D02*
X006622Y010794D01*
X006564Y010735D02*
X012831Y010735D01*
X012773Y010677D02*
X006063Y010677D01*
X006034Y010735D02*
X006004Y010735D01*
X005975Y010794D02*
X005946Y010794D01*
X005917Y010852D02*
X005887Y010852D01*
X005858Y010911D02*
X005829Y010911D01*
X005800Y010969D02*
X005770Y010969D01*
X005741Y011028D02*
X005712Y011028D01*
X005695Y011086D02*
X005653Y011086D01*
X005695Y011145D02*
X005595Y011145D01*
X005547Y011193D02*
X005547Y013521D01*
X006190Y014165D01*
X006549Y014165D01*
X006902Y014519D01*
X006902Y014597D01*
X007133Y014597D01*
X007133Y014493D01*
X007244Y014382D01*
X007913Y014382D01*
X007952Y014421D01*
X007953Y014421D01*
X007952Y014421D02*
X007992Y014382D01*
X008074Y014382D01*
X008060Y014378D01*
X008030Y014361D01*
X008006Y014337D01*
X007989Y014307D01*
X007980Y014274D01*
X007980Y014090D01*
X008355Y014090D01*
X008355Y014030D01*
X007980Y014030D01*
X007980Y013966D01*
X007874Y014073D01*
X007165Y014073D01*
X007128Y014036D01*
X006525Y014036D01*
X006423Y013994D01*
X006049Y013994D01*
X005695Y013640D01*
X005695Y013141D01*
X006049Y012787D01*
X006549Y012787D01*
X006902Y013141D01*
X006902Y013336D01*
X007128Y013336D01*
X007165Y013299D01*
X007874Y013299D01*
X007920Y013345D01*
X007920Y013036D01*
X008031Y012925D01*
X008740Y012925D01*
X008851Y013036D01*
X008851Y013042D01*
X009207Y013042D01*
X009306Y013083D01*
X009382Y013159D01*
X011423Y015200D01*
X011423Y015200D01*
X011499Y015276D01*
X011541Y015375D01*
X011541Y016428D01*
X012251Y015718D01*
X012251Y015280D01*
X012362Y015169D01*
X013031Y015169D01*
X013071Y015208D01*
X013110Y015169D01*
X013548Y015169D01*
X014375Y014342D01*
X014375Y013207D01*
X014178Y013010D01*
X013846Y013010D01*
X013550Y012714D01*
X013550Y012296D01*
X013846Y012000D01*
X014096Y012000D01*
X012410Y010314D01*
X012328Y010314D01*
X012112Y010098D01*
X012112Y009793D01*
X012280Y009625D01*
X011943Y009625D01*
X011845Y009723D01*
X011540Y009723D01*
X011324Y009508D01*
X011324Y009231D01*
X010639Y009231D01*
X010540Y009190D01*
X010464Y009114D01*
X010226Y008877D01*
X009739Y008877D01*
X009628Y008765D01*
X009628Y008008D01*
X009739Y007897D01*
X010496Y007897D01*
X010608Y008008D01*
X010608Y008495D01*
X010612Y008499D01*
X010612Y008008D01*
X010723Y007897D01*
X011454Y007897D01*
X011365Y007808D01*
X011200Y007877D01*
X011005Y007877D01*
X010824Y007802D01*
X010799Y007777D01*
X010421Y007777D01*
X010395Y007802D01*
X010215Y007877D01*
X010020Y007877D01*
X009840Y007802D01*
X009815Y007777D01*
X009019Y007777D01*
X008626Y008170D01*
X006902Y009894D01*
X006902Y010196D01*
X006549Y010549D01*
X006190Y010549D01*
X005547Y011193D01*
X005547Y011203D02*
X005695Y011203D01*
X005695Y011262D02*
X005547Y011262D01*
X005547Y011320D02*
X005695Y011320D01*
X005695Y011379D02*
X005547Y011379D01*
X005547Y011437D02*
X005695Y011437D01*
X005695Y011496D02*
X005547Y011496D01*
X005547Y011554D02*
X005695Y011554D01*
X005735Y011613D02*
X005547Y011613D01*
X005547Y011671D02*
X005793Y011671D01*
X005852Y011730D02*
X005547Y011730D01*
X005547Y011788D02*
X005910Y011788D01*
X005969Y011847D02*
X005547Y011847D01*
X005547Y011905D02*
X006027Y011905D01*
X005547Y011964D02*
X014060Y011964D01*
X014001Y011905D02*
X006571Y011905D01*
X006629Y011847D02*
X013943Y011847D01*
X013884Y011788D02*
X006688Y011788D01*
X006746Y011730D02*
X013826Y011730D01*
X013767Y011671D02*
X012062Y011671D01*
X012121Y011613D02*
X013709Y011613D01*
X013650Y011554D02*
X012179Y011554D01*
X012116Y012060D02*
X012271Y012060D01*
X012531Y012320D01*
X012531Y012475D01*
X012116Y012475D01*
X012116Y012060D01*
X012116Y012081D02*
X012056Y012081D01*
X012056Y012060D02*
X012056Y012475D01*
X011641Y012475D01*
X011641Y012320D01*
X011902Y012060D01*
X012056Y012060D01*
X012056Y012139D02*
X012116Y012139D01*
X012116Y012198D02*
X012056Y012198D01*
X012056Y012256D02*
X012116Y012256D01*
X012116Y012315D02*
X012056Y012315D01*
X012056Y012373D02*
X012116Y012373D01*
X012116Y012432D02*
X012056Y012432D01*
X012056Y012475D02*
X012116Y012475D01*
X012116Y012535D01*
X012056Y012535D01*
X012056Y012950D01*
X011902Y012950D01*
X011641Y012689D01*
X011641Y012535D01*
X012056Y012535D01*
X012056Y012475D01*
X012056Y012490D02*
X005547Y012490D01*
X005547Y012432D02*
X011641Y012432D01*
X011641Y012373D02*
X005547Y012373D01*
X005547Y012315D02*
X011647Y012315D01*
X011705Y012256D02*
X005547Y012256D01*
X005547Y012198D02*
X011764Y012198D01*
X011822Y012139D02*
X005547Y012139D01*
X005547Y012081D02*
X011881Y012081D01*
X012292Y012081D02*
X013765Y012081D01*
X013823Y012022D02*
X005547Y012022D01*
X005547Y012549D02*
X011641Y012549D01*
X011641Y012607D02*
X005547Y012607D01*
X005547Y012666D02*
X011641Y012666D01*
X011677Y012724D02*
X005547Y012724D01*
X005547Y012783D02*
X011735Y012783D01*
X011794Y012841D02*
X006603Y012841D01*
X006661Y012900D02*
X011852Y012900D01*
X012056Y012900D02*
X012116Y012900D01*
X012116Y012950D02*
X012271Y012950D01*
X012531Y012689D01*
X012531Y012535D01*
X012116Y012535D01*
X012116Y012950D01*
X012116Y012841D02*
X012056Y012841D01*
X012056Y012783D02*
X012116Y012783D01*
X012116Y012724D02*
X012056Y012724D01*
X012056Y012666D02*
X012116Y012666D01*
X012116Y012607D02*
X012056Y012607D01*
X012056Y012549D02*
X012116Y012549D01*
X012116Y012490D02*
X013550Y012490D01*
X013550Y012432D02*
X012531Y012432D01*
X012531Y012373D02*
X013550Y012373D01*
X013550Y012315D02*
X012526Y012315D01*
X012467Y012256D02*
X013589Y012256D01*
X013648Y012198D02*
X012409Y012198D01*
X012350Y012139D02*
X013706Y012139D01*
X013550Y012549D02*
X012531Y012549D01*
X012531Y012607D02*
X013550Y012607D01*
X013550Y012666D02*
X012531Y012666D01*
X012496Y012724D02*
X013560Y012724D01*
X013619Y012783D02*
X012438Y012783D01*
X012379Y012841D02*
X013677Y012841D01*
X013736Y012900D02*
X012321Y012900D01*
X012319Y012996D02*
X012190Y013125D01*
X012190Y013747D01*
X012319Y013876D01*
X012629Y013876D01*
X012721Y013876D01*
X012721Y013876D01*
X012721Y013876D01*
X012750Y013847D01*
X012779Y013876D01*
X013550Y013876D01*
X013642Y013876D01*
X013642Y013876D01*
X013642Y013876D01*
X013715Y013803D01*
X013715Y013803D01*
X013844Y013674D01*
X013844Y013527D01*
X013844Y013527D01*
X013844Y013492D01*
X013844Y013492D01*
X013844Y013345D01*
X013844Y013345D01*
X013843Y013343D01*
X013825Y013326D01*
X013844Y013307D01*
X013844Y013125D01*
X013715Y012996D01*
X013533Y012996D01*
X013478Y013051D01*
X013422Y012996D01*
X012779Y012996D01*
X012750Y013025D01*
X012721Y012996D01*
X012631Y012996D01*
X012319Y012996D01*
X012298Y013017D02*
X008832Y013017D01*
X008773Y012958D02*
X013794Y012958D01*
X013736Y013017D02*
X014185Y013017D01*
X014243Y013075D02*
X013795Y013075D01*
X013844Y013134D02*
X014302Y013134D01*
X014360Y013192D02*
X013844Y013192D01*
X013844Y013251D02*
X014375Y013251D01*
X014375Y013309D02*
X013842Y013309D01*
X013844Y013368D02*
X014375Y013368D01*
X014375Y013426D02*
X013844Y013426D01*
X013844Y013485D02*
X014375Y013485D01*
X014375Y013543D02*
X013844Y013543D01*
X013844Y013602D02*
X014375Y013602D01*
X014375Y013660D02*
X013844Y013660D01*
X013799Y013719D02*
X014375Y013719D01*
X014375Y013777D02*
X013741Y013777D01*
X013682Y013836D02*
X014375Y013836D01*
X014375Y013894D02*
X010117Y013894D01*
X010059Y013836D02*
X012278Y013836D01*
X012220Y013777D02*
X010000Y013777D01*
X009942Y013719D02*
X012190Y013719D01*
X012190Y013660D02*
X009883Y013660D01*
X009825Y013602D02*
X012190Y013602D01*
X012190Y013543D02*
X009766Y013543D01*
X009708Y013485D02*
X012190Y013485D01*
X012190Y013426D02*
X009649Y013426D01*
X009591Y013368D02*
X012190Y013368D01*
X012190Y013309D02*
X009532Y013309D01*
X009474Y013251D02*
X012190Y013251D01*
X012190Y013192D02*
X009415Y013192D01*
X009382Y013159D02*
X009382Y013159D01*
X009357Y013134D02*
X012190Y013134D01*
X012239Y013075D02*
X009288Y013075D01*
X009041Y013582D02*
X008851Y013582D01*
X008851Y013587D01*
X008740Y013699D01*
X008031Y013699D01*
X007985Y013652D01*
X007985Y013827D01*
X007989Y013813D01*
X008006Y013783D01*
X008030Y013759D01*
X008060Y013742D01*
X008093Y013733D01*
X008355Y013733D01*
X008355Y014030D01*
X008415Y014030D01*
X008415Y013733D01*
X008678Y013733D01*
X008711Y013742D01*
X008741Y013759D01*
X008765Y013783D01*
X008782Y013813D01*
X008791Y013846D01*
X008791Y014030D01*
X008416Y014030D01*
X008416Y014090D01*
X008791Y014090D01*
X008791Y014274D01*
X008782Y014307D01*
X008765Y014337D01*
X008741Y014361D01*
X008711Y014378D01*
X008678Y014387D01*
X008666Y014387D01*
X008772Y014493D01*
X008772Y015241D01*
X008661Y015352D01*
X007992Y015352D01*
X007952Y015313D01*
X007913Y015352D01*
X007244Y015352D01*
X007133Y015241D01*
X007133Y015137D01*
X006784Y015137D01*
X006549Y015372D01*
X006049Y015372D01*
X005695Y015018D01*
X005695Y014660D01*
X004998Y013963D01*
X004900Y013864D01*
X004847Y013736D01*
X004847Y010978D01*
X004900Y010850D01*
X005695Y010054D01*
X005695Y009696D01*
X006049Y009342D01*
X006351Y009342D01*
X008075Y007618D01*
X008527Y007166D01*
X008637Y007056D01*
X008780Y006997D01*
X009815Y006997D01*
X009840Y006971D01*
X010020Y006897D01*
X010215Y006897D01*
X010395Y006971D01*
X010421Y006997D01*
X010799Y006997D01*
X010824Y006971D01*
X011005Y006897D01*
X011200Y006897D01*
X011365Y006965D01*
X011499Y006831D01*
X011499Y006554D01*
X011470Y006612D01*
X011430Y006667D01*
X011382Y006715D01*
X011327Y006754D01*
X011267Y006785D01*
X011203Y006806D01*
X011136Y006817D01*
X011132Y006817D01*
X011132Y006417D01*
X011072Y006417D01*
X011072Y006817D01*
X011068Y006817D01*
X011001Y006806D01*
X010937Y006785D01*
X010877Y006754D01*
X010822Y006715D01*
X010774Y006667D01*
X010734Y006612D01*
X010704Y006552D01*
X010683Y006487D01*
X010672Y006420D01*
X010672Y006417D01*
X011072Y006417D01*
X011072Y006357D01*
X010672Y006357D01*
X010672Y006353D01*
X010683Y006286D01*
X010704Y006222D01*
X010734Y006161D01*
X010774Y006106D01*
X010822Y006059D01*
X010877Y006019D01*
X010937Y005988D01*
X011001Y005967D01*
X011068Y005957D01*
X011072Y005957D01*
X011072Y006357D01*
X011132Y006357D01*
X011132Y005957D01*
X011136Y005957D01*
X011203Y005967D01*
X011245Y005981D01*
X010650Y005385D01*
X010540Y005276D01*
X010481Y005132D01*
X010481Y003908D01*
X010455Y003882D01*
X010381Y003702D01*
X010381Y002907D01*
X010403Y002852D01*
X010338Y002852D01*
X010361Y002907D01*
X010361Y003702D01*
X010286Y003882D01*
X010148Y004020D01*
X009968Y004095D01*
X009773Y004095D01*
X009593Y004020D01*
X009455Y003882D01*
X009381Y003702D01*
X009381Y002907D01*
X009403Y002852D01*
X009338Y002852D01*
X009361Y002907D01*
X009361Y003702D01*
X009286Y003882D01*
X009148Y004020D01*
X008968Y004095D01*
X008773Y004095D01*
X008593Y004020D01*
X008455Y003882D01*
X008381Y003702D01*
X008381Y002907D01*
X008403Y002852D01*
X006094Y002852D01*
X006094Y003203D01*
X005719Y003203D01*
X005719Y003263D01*
X006094Y003263D01*
X006094Y003664D01*
X006085Y003697D01*
X006068Y003726D01*
X006044Y003750D01*
X006014Y003768D01*
X005981Y003776D01*
X005719Y003776D01*
X005719Y003263D01*
X005659Y003263D01*
X005659Y003776D01*
X005396Y003776D01*
X005363Y003768D01*
X005333Y003750D01*
X005309Y003726D01*
X005292Y003697D01*
X005283Y003664D01*
X005283Y003263D01*
X005659Y003263D01*
X005659Y003203D01*
X005283Y003203D01*
X005283Y002852D01*
X004383Y002852D01*
X004383Y003725D01*
X004271Y003836D01*
X004187Y003836D01*
X004187Y004774D01*
X004285Y004872D01*
X004285Y005177D01*
X004187Y005275D01*
X004187Y006212D01*
X004271Y006212D01*
X004383Y006324D01*
X004383Y007308D01*
X004271Y007419D01*
X003563Y007419D01*
X003451Y007308D01*
X003451Y006324D01*
X003563Y006212D01*
X003647Y006212D01*
X003647Y005275D01*
X003549Y005177D01*
X003549Y004872D01*
X003647Y004774D01*
X003647Y003836D01*
X003563Y003836D01*
X003451Y003725D01*
X003451Y002945D01*
X003422Y003016D01*
X003418Y003056D01*
X003418Y021954D01*
X003422Y021993D01*
X003452Y022067D01*
X003509Y022123D01*
X003582Y022153D01*
X003622Y022157D01*
X004803Y022157D01*
X004781Y022102D01*
X004781Y021307D01*
X004855Y021127D01*
X004993Y020989D01*
X005173Y020915D01*
X005368Y020915D01*
X005548Y020989D01*
X005686Y021127D01*
X005761Y021307D01*
X005761Y022102D01*
X005738Y022157D01*
X005868Y022157D01*
X005851Y022105D01*
X005841Y022039D01*
X005841Y022035D01*
X006241Y022035D01*
X006241Y021975D01*
X006301Y021975D01*
X006301Y022035D01*
X006701Y022035D01*
X006701Y022039D01*
X006690Y022105D01*
X006673Y022157D01*
X006803Y022157D01*
X006781Y022102D01*
X006781Y021307D01*
X006855Y021127D01*
X006993Y020989D01*
X007173Y020915D01*
X007368Y020915D01*
X007548Y020989D01*
X007686Y021127D01*
X007761Y021307D01*
X007761Y022102D01*
X007738Y022157D01*
X007803Y022157D01*
X007781Y022102D01*
X007781Y021307D01*
X007855Y021127D01*
X007993Y020989D01*
X008173Y020915D01*
X008368Y020915D01*
X008548Y020989D01*
X008686Y021127D01*
X008761Y021307D01*
X008761Y022102D01*
X008738Y022157D01*
X008803Y022157D01*
X008781Y022102D01*
X008781Y021307D01*
X008855Y021127D01*
X008993Y020989D01*
X009173Y020915D01*
X009368Y020915D01*
X009548Y020989D01*
X009686Y021127D01*
X009761Y021307D01*
X009761Y022102D01*
X009738Y022157D01*
X009803Y022157D01*
X009781Y022102D01*
X009781Y021307D01*
X009855Y021127D01*
X009993Y020989D01*
X010173Y020915D01*
X010368Y020915D01*
X010548Y020989D01*
X010686Y021127D01*
X010761Y021307D01*
X010761Y022102D01*
X010738Y022157D01*
X010803Y022157D01*
X010781Y022102D01*
X010781Y021307D01*
X010855Y021127D01*
X010993Y020989D01*
X011001Y020986D01*
X011001Y015541D01*
X009041Y013582D01*
X009061Y013602D02*
X008837Y013602D01*
X008778Y013660D02*
X009120Y013660D01*
X009178Y013719D02*
X007985Y013719D01*
X007985Y013777D02*
X008012Y013777D01*
X007993Y013660D02*
X007985Y013660D01*
X007980Y014011D02*
X007935Y014011D01*
X007877Y014070D02*
X008355Y014070D01*
X008355Y014011D02*
X008415Y014011D01*
X008415Y013953D02*
X008355Y013953D01*
X008355Y013894D02*
X008415Y013894D01*
X008415Y013836D02*
X008355Y013836D01*
X008355Y013777D02*
X008415Y013777D01*
X008759Y013777D02*
X009237Y013777D01*
X009295Y013836D02*
X008788Y013836D01*
X008791Y013894D02*
X009354Y013894D01*
X009412Y013953D02*
X008791Y013953D01*
X008791Y014011D02*
X009471Y014011D01*
X009529Y014070D02*
X008416Y014070D01*
X008791Y014128D02*
X009588Y014128D01*
X009646Y014187D02*
X008791Y014187D01*
X008791Y014245D02*
X009705Y014245D01*
X009763Y014304D02*
X008783Y014304D01*
X008738Y014362D02*
X009822Y014362D01*
X009880Y014421D02*
X008700Y014421D01*
X008759Y014479D02*
X009939Y014479D01*
X009997Y014538D02*
X008772Y014538D01*
X008772Y014596D02*
X010056Y014596D01*
X010114Y014655D02*
X008772Y014655D01*
X008772Y014713D02*
X010173Y014713D01*
X010231Y014772D02*
X008772Y014772D01*
X008772Y014830D02*
X010290Y014830D01*
X010348Y014889D02*
X008772Y014889D01*
X008772Y014947D02*
X010407Y014947D01*
X010465Y015006D02*
X008772Y015006D01*
X008772Y015064D02*
X010524Y015064D01*
X010582Y015123D02*
X008772Y015123D01*
X008772Y015181D02*
X010641Y015181D01*
X010699Y015240D02*
X008772Y015240D01*
X008715Y015298D02*
X010758Y015298D01*
X010816Y015357D02*
X006564Y015357D01*
X006622Y015298D02*
X007190Y015298D01*
X007133Y015240D02*
X006681Y015240D01*
X006739Y015181D02*
X007133Y015181D01*
X007133Y014596D02*
X006902Y014596D01*
X006902Y014538D02*
X007133Y014538D01*
X007146Y014479D02*
X006863Y014479D01*
X006804Y014421D02*
X007205Y014421D01*
X007162Y014070D02*
X006095Y014070D01*
X006154Y014128D02*
X007980Y014128D01*
X007980Y014187D02*
X006570Y014187D01*
X006629Y014245D02*
X007980Y014245D01*
X007988Y014304D02*
X006687Y014304D01*
X006746Y014362D02*
X008033Y014362D01*
X007920Y013309D02*
X007884Y013309D01*
X007920Y013251D02*
X006902Y013251D01*
X006902Y013309D02*
X007155Y013309D01*
X006902Y013192D02*
X007920Y013192D01*
X007920Y013134D02*
X006895Y013134D01*
X006837Y013075D02*
X007920Y013075D01*
X007939Y013017D02*
X006778Y013017D01*
X006720Y012958D02*
X007998Y012958D01*
X006465Y014011D02*
X006037Y014011D01*
X006008Y013953D02*
X005978Y013953D01*
X005949Y013894D02*
X005920Y013894D01*
X005891Y013836D02*
X005861Y013836D01*
X005832Y013777D02*
X005803Y013777D01*
X005774Y013719D02*
X005744Y013719D01*
X005715Y013660D02*
X005686Y013660D01*
X005695Y013602D02*
X005627Y013602D01*
X005569Y013543D02*
X005695Y013543D01*
X005695Y013485D02*
X005547Y013485D01*
X005547Y013426D02*
X005695Y013426D01*
X005695Y013368D02*
X005547Y013368D01*
X005547Y013309D02*
X005695Y013309D01*
X005695Y013251D02*
X005547Y013251D01*
X005547Y013192D02*
X005695Y013192D01*
X005702Y013134D02*
X005547Y013134D01*
X005547Y013075D02*
X005761Y013075D01*
X005819Y013017D02*
X005547Y013017D01*
X005547Y012958D02*
X005878Y012958D01*
X005936Y012900D02*
X005547Y012900D01*
X005547Y012841D02*
X005995Y012841D01*
X004888Y013836D02*
X003418Y013836D01*
X003418Y013894D02*
X004930Y013894D01*
X004988Y013953D02*
X003418Y013953D01*
X003418Y014011D02*
X005047Y014011D01*
X005105Y014070D02*
X003418Y014070D01*
X003418Y014128D02*
X005164Y014128D01*
X005222Y014187D02*
X003418Y014187D01*
X003418Y014245D02*
X005281Y014245D01*
X005339Y014304D02*
X003418Y014304D01*
X003418Y014362D02*
X005398Y014362D01*
X005456Y014421D02*
X003418Y014421D01*
X003418Y014479D02*
X005515Y014479D01*
X005573Y014538D02*
X003418Y014538D01*
X003418Y014596D02*
X005632Y014596D01*
X005690Y014655D02*
X003418Y014655D01*
X003418Y014713D02*
X005695Y014713D01*
X005695Y014772D02*
X003418Y014772D01*
X003418Y014830D02*
X005695Y014830D01*
X005695Y014889D02*
X003418Y014889D01*
X003418Y014947D02*
X005695Y014947D01*
X005695Y015006D02*
X003418Y015006D01*
X003418Y015064D02*
X005741Y015064D01*
X005800Y015123D02*
X003418Y015123D01*
X003418Y015181D02*
X005858Y015181D01*
X005917Y015240D02*
X003418Y015240D01*
X003418Y015298D02*
X005975Y015298D01*
X006034Y015357D02*
X003418Y015357D01*
X003418Y015415D02*
X010875Y015415D01*
X010933Y015474D02*
X003418Y015474D01*
X003418Y015532D02*
X010992Y015532D01*
X011001Y015591D02*
X003418Y015591D01*
X003418Y015649D02*
X011001Y015649D01*
X011001Y015708D02*
X003418Y015708D01*
X003418Y015766D02*
X011001Y015766D01*
X011001Y015825D02*
X003418Y015825D01*
X003418Y015883D02*
X011001Y015883D01*
X011001Y015942D02*
X003418Y015942D01*
X003418Y016000D02*
X007121Y016000D01*
X007146Y015976D02*
X007475Y015976D01*
X007603Y016105D01*
X007603Y016175D01*
X007788Y016175D01*
X007857Y016105D01*
X007986Y015976D01*
X008223Y015976D01*
X008315Y015976D01*
X008315Y015976D01*
X008315Y015976D01*
X008415Y016076D01*
X008518Y016178D01*
X008518Y016361D01*
X008462Y016416D01*
X008518Y016472D01*
X008518Y016654D01*
X008418Y016754D01*
X008315Y016857D01*
X008225Y016857D01*
X007986Y016857D01*
X007957Y016827D01*
X007829Y016955D01*
X007534Y016955D01*
X007435Y016857D01*
X007146Y016857D01*
X007017Y016728D01*
X007017Y016545D01*
X007090Y016472D01*
X007090Y016361D01*
X007017Y016287D01*
X007017Y016105D01*
X007146Y015976D01*
X007063Y016059D02*
X003418Y016059D01*
X003418Y016117D02*
X007017Y016117D01*
X007017Y016176D02*
X003418Y016176D01*
X003418Y016234D02*
X007017Y016234D01*
X007022Y016293D02*
X003418Y016293D01*
X003418Y016351D02*
X007081Y016351D01*
X007090Y016410D02*
X003418Y016410D01*
X003418Y016468D02*
X007090Y016468D01*
X007035Y016527D02*
X003418Y016527D01*
X003418Y016585D02*
X007017Y016585D01*
X007017Y016644D02*
X003418Y016644D01*
X003418Y016702D02*
X007017Y016702D01*
X007050Y016761D02*
X003418Y016761D01*
X003418Y016819D02*
X007108Y016819D01*
X007131Y016872D02*
X007325Y016872D01*
X007506Y016947D01*
X007643Y017085D01*
X007718Y017265D01*
X007718Y018060D01*
X007643Y018240D01*
X007506Y018378D01*
X007325Y018452D01*
X007131Y018452D01*
X006950Y018378D01*
X006813Y018240D01*
X006738Y018060D01*
X006738Y017265D01*
X006813Y017085D01*
X006950Y016947D01*
X007131Y016872D01*
X007117Y016878D02*
X003418Y016878D01*
X003418Y016936D02*
X006169Y016936D01*
X006194Y016932D02*
X006198Y016932D01*
X006198Y017632D01*
X006258Y017632D01*
X006258Y016932D01*
X006262Y016932D01*
X006329Y016943D01*
X006393Y016964D01*
X006453Y016994D01*
X006508Y017034D01*
X006556Y017082D01*
X006596Y017137D01*
X006627Y017197D01*
X006647Y017262D01*
X006658Y017328D01*
X006658Y017632D01*
X006258Y017632D01*
X006258Y017692D01*
X006658Y017692D01*
X006658Y017996D01*
X006647Y018063D01*
X006627Y018127D01*
X006596Y018188D01*
X006556Y018242D01*
X006508Y018290D01*
X006453Y018330D01*
X006393Y018361D01*
X006329Y018382D01*
X006262Y018392D01*
X006258Y018392D01*
X006258Y017692D01*
X006198Y017692D01*
X006198Y017632D01*
X005798Y017632D01*
X005798Y017328D01*
X005809Y017262D01*
X005830Y017197D01*
X005860Y017137D01*
X005900Y017082D01*
X005948Y017034D01*
X006003Y016994D01*
X006063Y016964D01*
X006127Y016943D01*
X006194Y016932D01*
X006198Y016936D02*
X006258Y016936D01*
X006287Y016936D02*
X006976Y016936D01*
X006902Y016995D02*
X006454Y016995D01*
X006527Y017053D02*
X006844Y017053D01*
X006801Y017112D02*
X006578Y017112D01*
X006613Y017170D02*
X006777Y017170D01*
X006753Y017229D02*
X006637Y017229D01*
X006652Y017287D02*
X006738Y017287D01*
X006738Y017346D02*
X006658Y017346D01*
X006658Y017404D02*
X006738Y017404D01*
X006738Y017463D02*
X006658Y017463D01*
X006658Y017521D02*
X006738Y017521D01*
X006738Y017580D02*
X006658Y017580D01*
X006738Y017638D02*
X006258Y017638D01*
X006258Y017580D02*
X006198Y017580D01*
X006198Y017638D02*
X003418Y017638D01*
X003418Y017580D02*
X005798Y017580D01*
X005798Y017521D02*
X003418Y017521D01*
X003418Y017463D02*
X005798Y017463D01*
X005798Y017404D02*
X003418Y017404D01*
X003418Y017346D02*
X005798Y017346D01*
X005805Y017287D02*
X003418Y017287D01*
X003418Y017229D02*
X005819Y017229D01*
X005843Y017170D02*
X003418Y017170D01*
X003418Y017112D02*
X005878Y017112D01*
X005929Y017053D02*
X003418Y017053D01*
X003418Y016995D02*
X006002Y016995D01*
X006198Y016995D02*
X006258Y016995D01*
X006258Y017053D02*
X006198Y017053D01*
X006198Y017112D02*
X006258Y017112D01*
X006258Y017170D02*
X006198Y017170D01*
X006198Y017229D02*
X006258Y017229D01*
X006258Y017287D02*
X006198Y017287D01*
X006198Y017346D02*
X006258Y017346D01*
X006258Y017404D02*
X006198Y017404D01*
X006198Y017463D02*
X006258Y017463D01*
X006258Y017521D02*
X006198Y017521D01*
X006198Y017692D02*
X005798Y017692D01*
X005798Y017996D01*
X005809Y018063D01*
X005830Y018127D01*
X005860Y018188D01*
X005900Y018242D01*
X005948Y018290D01*
X006003Y018330D01*
X006063Y018361D01*
X006127Y018382D01*
X006194Y018392D01*
X006198Y018392D01*
X006198Y017692D01*
X006198Y017697D02*
X006258Y017697D01*
X006258Y017755D02*
X006198Y017755D01*
X006198Y017814D02*
X006258Y017814D01*
X006258Y017872D02*
X006198Y017872D01*
X006198Y017931D02*
X006258Y017931D01*
X006258Y017989D02*
X006198Y017989D01*
X006198Y018048D02*
X006258Y018048D01*
X006258Y018106D02*
X006198Y018106D01*
X006198Y018165D02*
X006258Y018165D01*
X006258Y018223D02*
X006198Y018223D01*
X006198Y018282D02*
X006258Y018282D01*
X006258Y018340D02*
X006198Y018340D01*
X006023Y018340D02*
X003418Y018340D01*
X003418Y018282D02*
X005939Y018282D01*
X005886Y018223D02*
X003418Y018223D01*
X003418Y018165D02*
X005849Y018165D01*
X005823Y018106D02*
X003418Y018106D01*
X003418Y018048D02*
X005806Y018048D01*
X005798Y017989D02*
X003418Y017989D01*
X003418Y017931D02*
X005798Y017931D01*
X005798Y017872D02*
X003418Y017872D01*
X003418Y017814D02*
X005798Y017814D01*
X005798Y017755D02*
X003418Y017755D01*
X003418Y017697D02*
X005798Y017697D01*
X006433Y018340D02*
X006913Y018340D01*
X006855Y018282D02*
X006517Y018282D01*
X006570Y018223D02*
X006806Y018223D01*
X006782Y018165D02*
X006607Y018165D01*
X006633Y018106D02*
X006757Y018106D01*
X006738Y018048D02*
X006650Y018048D01*
X006658Y017989D02*
X006738Y017989D01*
X006738Y017931D02*
X006658Y017931D01*
X006658Y017872D02*
X006738Y017872D01*
X006738Y017814D02*
X006658Y017814D01*
X006658Y017755D02*
X006738Y017755D01*
X006738Y017697D02*
X006658Y017697D01*
X007002Y018399D02*
X003418Y018399D01*
X003418Y018457D02*
X011001Y018457D01*
X011001Y018399D02*
X009454Y018399D01*
X009506Y018378D02*
X009325Y018452D01*
X009131Y018452D01*
X008950Y018378D01*
X008813Y018240D01*
X008738Y018060D01*
X008738Y017265D01*
X008813Y017085D01*
X008950Y016947D01*
X009131Y016872D01*
X009325Y016872D01*
X009506Y016947D01*
X009643Y017085D01*
X009718Y017265D01*
X009718Y018060D01*
X009643Y018240D01*
X009506Y018378D01*
X009543Y018340D02*
X011001Y018340D01*
X011001Y018282D02*
X009601Y018282D01*
X009650Y018223D02*
X011001Y018223D01*
X011001Y018165D02*
X009674Y018165D01*
X009699Y018106D02*
X011001Y018106D01*
X011001Y018048D02*
X009718Y018048D01*
X009718Y017989D02*
X011001Y017989D01*
X011001Y017931D02*
X009718Y017931D01*
X009718Y017872D02*
X011001Y017872D01*
X011001Y017814D02*
X009718Y017814D01*
X009718Y017755D02*
X011001Y017755D01*
X011001Y017697D02*
X009718Y017697D01*
X009718Y017638D02*
X011001Y017638D01*
X011001Y017580D02*
X009718Y017580D01*
X009718Y017521D02*
X011001Y017521D01*
X011001Y017463D02*
X009718Y017463D01*
X009718Y017404D02*
X011001Y017404D01*
X011001Y017346D02*
X009718Y017346D01*
X009718Y017287D02*
X011001Y017287D01*
X011001Y017229D02*
X009703Y017229D01*
X009679Y017170D02*
X011001Y017170D01*
X011001Y017112D02*
X009655Y017112D01*
X009612Y017053D02*
X011001Y017053D01*
X011001Y016995D02*
X009554Y016995D01*
X009480Y016936D02*
X011001Y016936D01*
X011001Y016878D02*
X009339Y016878D01*
X009117Y016878D02*
X008339Y016878D01*
X008325Y016872D02*
X008506Y016947D01*
X008643Y017085D01*
X008718Y017265D01*
X008718Y018060D01*
X008643Y018240D01*
X008506Y018378D01*
X008325Y018452D01*
X008131Y018452D01*
X007950Y018378D01*
X007813Y018240D01*
X007738Y018060D01*
X007738Y017265D01*
X007813Y017085D01*
X007950Y016947D01*
X008131Y016872D01*
X008325Y016872D01*
X008315Y016857D02*
X008315Y016857D01*
X008315Y016857D01*
X008353Y016819D02*
X011001Y016819D01*
X011001Y016761D02*
X008411Y016761D01*
X008470Y016702D02*
X011001Y016702D01*
X011001Y016644D02*
X008518Y016644D01*
X008518Y016585D02*
X011001Y016585D01*
X011001Y016527D02*
X008518Y016527D01*
X008514Y016468D02*
X011001Y016468D01*
X011001Y016410D02*
X008468Y016410D01*
X008518Y016351D02*
X011001Y016351D01*
X011001Y016293D02*
X008518Y016293D01*
X008518Y016234D02*
X011001Y016234D01*
X011001Y016176D02*
X008515Y016176D01*
X008456Y016117D02*
X011001Y016117D01*
X011001Y016059D02*
X008398Y016059D01*
X008339Y016000D02*
X011001Y016000D01*
X011541Y016000D02*
X011969Y016000D01*
X012027Y015942D02*
X011541Y015942D01*
X011541Y015883D02*
X012086Y015883D01*
X012144Y015825D02*
X011541Y015825D01*
X011541Y015766D02*
X012203Y015766D01*
X012251Y015708D02*
X011541Y015708D01*
X011541Y015649D02*
X012251Y015649D01*
X012251Y015591D02*
X011541Y015591D01*
X011541Y015532D02*
X012251Y015532D01*
X012251Y015474D02*
X011541Y015474D01*
X011541Y015415D02*
X012251Y015415D01*
X012251Y015357D02*
X011533Y015357D01*
X011509Y015298D02*
X012251Y015298D01*
X012291Y015240D02*
X011463Y015240D01*
X011404Y015181D02*
X012350Y015181D01*
X013043Y015181D02*
X013098Y015181D01*
X013594Y015123D02*
X011346Y015123D01*
X011287Y015064D02*
X013653Y015064D01*
X013711Y015006D02*
X011229Y015006D01*
X011170Y014947D02*
X013770Y014947D01*
X013828Y014889D02*
X011112Y014889D01*
X011053Y014830D02*
X013887Y014830D01*
X013945Y014772D02*
X010995Y014772D01*
X010936Y014713D02*
X014004Y014713D01*
X014062Y014655D02*
X010878Y014655D01*
X010819Y014596D02*
X014121Y014596D01*
X014179Y014538D02*
X010761Y014538D01*
X010702Y014479D02*
X014238Y014479D01*
X014296Y014421D02*
X010644Y014421D01*
X010585Y014362D02*
X014355Y014362D01*
X014375Y014304D02*
X010527Y014304D01*
X010468Y014245D02*
X014375Y014245D01*
X014375Y014187D02*
X010410Y014187D01*
X010351Y014128D02*
X014375Y014128D01*
X014375Y014070D02*
X010293Y014070D01*
X010234Y014011D02*
X014375Y014011D01*
X014375Y013953D02*
X010176Y013953D01*
X011541Y016059D02*
X011910Y016059D01*
X011852Y016117D02*
X011541Y016117D01*
X011541Y016176D02*
X011793Y016176D01*
X011735Y016234D02*
X011541Y016234D01*
X011541Y016293D02*
X011676Y016293D01*
X011618Y016351D02*
X011541Y016351D01*
X011541Y016410D02*
X011559Y016410D01*
X011963Y016770D02*
X011963Y020857D01*
X012065Y020960D01*
X012173Y020915D01*
X012368Y020915D01*
X012548Y020989D01*
X012686Y021127D01*
X012761Y021307D01*
X012761Y022102D01*
X012738Y022157D01*
X013403Y022157D01*
X013381Y022102D01*
X013381Y021307D01*
X013455Y021127D01*
X013593Y020989D01*
X013773Y020915D01*
X013968Y020915D01*
X014057Y020952D01*
X015163Y019846D01*
X015163Y016219D01*
X014887Y016219D01*
X014671Y016004D01*
X014671Y015699D01*
X014729Y015641D01*
X014729Y014752D01*
X013890Y015590D01*
X013890Y016028D01*
X013779Y016140D01*
X013110Y016140D01*
X013071Y016100D01*
X013031Y016140D01*
X012593Y016140D01*
X011963Y016770D01*
X011972Y016761D02*
X015163Y016761D01*
X015163Y016819D02*
X011963Y016819D01*
X011963Y016878D02*
X015163Y016878D01*
X015163Y016936D02*
X011963Y016936D01*
X011963Y016995D02*
X015163Y016995D01*
X015163Y017053D02*
X011963Y017053D01*
X011963Y017112D02*
X015163Y017112D01*
X015163Y017170D02*
X011963Y017170D01*
X011963Y017229D02*
X015163Y017229D01*
X015163Y017287D02*
X011963Y017287D01*
X011963Y017346D02*
X015163Y017346D01*
X015163Y017404D02*
X011963Y017404D01*
X011963Y017463D02*
X015163Y017463D01*
X015163Y017521D02*
X011963Y017521D01*
X011963Y017580D02*
X015163Y017580D01*
X015163Y017638D02*
X011963Y017638D01*
X011963Y017697D02*
X015163Y017697D01*
X015163Y017755D02*
X011963Y017755D01*
X011963Y017814D02*
X015163Y017814D01*
X015163Y017872D02*
X011963Y017872D01*
X011963Y017931D02*
X015163Y017931D01*
X015163Y017989D02*
X011963Y017989D01*
X011963Y018048D02*
X015163Y018048D01*
X015163Y018106D02*
X011963Y018106D01*
X011963Y018165D02*
X015163Y018165D01*
X015163Y018223D02*
X011963Y018223D01*
X011963Y018282D02*
X015163Y018282D01*
X015163Y018340D02*
X011963Y018340D01*
X011963Y018399D02*
X015163Y018399D01*
X015163Y018457D02*
X011963Y018457D01*
X011963Y018516D02*
X015163Y018516D01*
X015163Y018574D02*
X011963Y018574D01*
X011963Y018633D02*
X015163Y018633D01*
X015163Y018691D02*
X011963Y018691D01*
X011963Y018750D02*
X015163Y018750D01*
X015163Y018808D02*
X011963Y018808D01*
X011963Y018867D02*
X015163Y018867D01*
X015163Y018925D02*
X011963Y018925D01*
X011963Y018984D02*
X015163Y018984D01*
X015163Y019042D02*
X011963Y019042D01*
X011963Y019101D02*
X015163Y019101D01*
X015163Y019159D02*
X011963Y019159D01*
X011963Y019218D02*
X015163Y019218D01*
X015163Y019276D02*
X011963Y019276D01*
X011963Y019335D02*
X015163Y019335D01*
X015163Y019393D02*
X011963Y019393D01*
X011963Y019452D02*
X015163Y019452D01*
X015163Y019510D02*
X011963Y019510D01*
X011963Y019569D02*
X015163Y019569D01*
X015163Y019627D02*
X011963Y019627D01*
X011963Y019686D02*
X015163Y019686D01*
X015163Y019744D02*
X011963Y019744D01*
X011963Y019803D02*
X015163Y019803D01*
X015147Y019861D02*
X011963Y019861D01*
X011963Y019920D02*
X015089Y019920D01*
X015030Y019978D02*
X011963Y019978D01*
X011963Y020037D02*
X014972Y020037D01*
X014913Y020095D02*
X011963Y020095D01*
X011963Y020154D02*
X014855Y020154D01*
X014796Y020212D02*
X011963Y020212D01*
X011963Y020271D02*
X014738Y020271D01*
X014679Y020329D02*
X011963Y020329D01*
X011963Y020388D02*
X014621Y020388D01*
X014562Y020446D02*
X011963Y020446D01*
X011963Y020505D02*
X014504Y020505D01*
X014445Y020563D02*
X011963Y020563D01*
X011963Y020622D02*
X014387Y020622D01*
X014328Y020680D02*
X011963Y020680D01*
X011963Y020739D02*
X014270Y020739D01*
X014211Y020797D02*
X011963Y020797D01*
X011963Y020856D02*
X014153Y020856D01*
X014094Y020914D02*
X012019Y020914D01*
X012508Y020973D02*
X013633Y020973D01*
X013551Y021031D02*
X012590Y021031D01*
X012649Y021090D02*
X013493Y021090D01*
X013446Y021148D02*
X012695Y021148D01*
X012719Y021207D02*
X013422Y021207D01*
X013398Y021265D02*
X012743Y021265D01*
X012761Y021324D02*
X013381Y021324D01*
X013381Y021382D02*
X012761Y021382D01*
X012761Y021441D02*
X013381Y021441D01*
X013381Y021499D02*
X012761Y021499D01*
X012761Y021558D02*
X013381Y021558D01*
X013381Y021616D02*
X012761Y021616D01*
X012761Y021675D02*
X013381Y021675D01*
X013381Y021733D02*
X012761Y021733D01*
X012761Y021792D02*
X013381Y021792D01*
X013381Y021850D02*
X012761Y021850D01*
X012761Y021909D02*
X013381Y021909D01*
X013381Y021967D02*
X012761Y021967D01*
X012761Y022026D02*
X013381Y022026D01*
X013381Y022084D02*
X012761Y022084D01*
X012744Y022143D02*
X013397Y022143D01*
X011001Y020973D02*
X010508Y020973D01*
X010590Y021031D02*
X010951Y021031D01*
X010893Y021090D02*
X010649Y021090D01*
X010695Y021148D02*
X010846Y021148D01*
X010822Y021207D02*
X010719Y021207D01*
X010743Y021265D02*
X010798Y021265D01*
X010781Y021324D02*
X010761Y021324D01*
X010761Y021382D02*
X010781Y021382D01*
X010781Y021441D02*
X010761Y021441D01*
X010761Y021499D02*
X010781Y021499D01*
X010781Y021558D02*
X010761Y021558D01*
X010761Y021616D02*
X010781Y021616D01*
X010781Y021675D02*
X010761Y021675D01*
X010761Y021733D02*
X010781Y021733D01*
X010781Y021792D02*
X010761Y021792D01*
X010761Y021850D02*
X010781Y021850D01*
X010781Y021909D02*
X010761Y021909D01*
X010761Y021967D02*
X010781Y021967D01*
X010781Y022026D02*
X010761Y022026D01*
X010761Y022084D02*
X010781Y022084D01*
X010797Y022143D02*
X010744Y022143D01*
X009797Y022143D02*
X009744Y022143D01*
X009761Y022084D02*
X009781Y022084D01*
X009781Y022026D02*
X009761Y022026D01*
X009761Y021967D02*
X009781Y021967D01*
X009781Y021909D02*
X009761Y021909D01*
X009761Y021850D02*
X009781Y021850D01*
X009781Y021792D02*
X009761Y021792D01*
X009761Y021733D02*
X009781Y021733D01*
X009781Y021675D02*
X009761Y021675D01*
X009761Y021616D02*
X009781Y021616D01*
X009781Y021558D02*
X009761Y021558D01*
X009761Y021499D02*
X009781Y021499D01*
X009781Y021441D02*
X009761Y021441D01*
X009761Y021382D02*
X009781Y021382D01*
X009781Y021324D02*
X009761Y021324D01*
X009743Y021265D02*
X009798Y021265D01*
X009822Y021207D02*
X009719Y021207D01*
X009695Y021148D02*
X009846Y021148D01*
X009893Y021090D02*
X009649Y021090D01*
X009590Y021031D02*
X009951Y021031D01*
X010033Y020973D02*
X009508Y020973D01*
X009818Y020620D02*
X007905Y020620D01*
X007892Y020607D01*
X007855Y020570D01*
X007804Y020620D01*
X005724Y020620D01*
X005612Y020509D01*
X005612Y019125D01*
X005612Y019112D01*
X005724Y019001D01*
X007636Y019001D01*
X007700Y019064D01*
X007763Y019001D01*
X008062Y019001D01*
X008151Y019090D01*
X008241Y019001D01*
X009818Y019001D01*
X009929Y019112D01*
X009929Y020509D01*
X009818Y020620D01*
X009875Y020563D02*
X011001Y020563D01*
X011001Y020505D02*
X009929Y020505D01*
X009929Y020446D02*
X011001Y020446D01*
X011001Y020388D02*
X009929Y020388D01*
X009929Y020329D02*
X011001Y020329D01*
X011001Y020271D02*
X009929Y020271D01*
X009929Y020212D02*
X011001Y020212D01*
X011001Y020154D02*
X009929Y020154D01*
X009929Y020095D02*
X011001Y020095D01*
X011001Y020037D02*
X009929Y020037D01*
X009929Y019978D02*
X011001Y019978D01*
X011001Y019920D02*
X009929Y019920D01*
X009929Y019861D02*
X011001Y019861D01*
X011001Y019803D02*
X009929Y019803D01*
X009929Y019744D02*
X011001Y019744D01*
X011001Y019686D02*
X009929Y019686D01*
X009929Y019627D02*
X011001Y019627D01*
X011001Y019569D02*
X009929Y019569D01*
X009929Y019510D02*
X011001Y019510D01*
X011001Y019452D02*
X009929Y019452D01*
X009929Y019393D02*
X011001Y019393D01*
X011001Y019335D02*
X009929Y019335D01*
X009929Y019276D02*
X011001Y019276D01*
X011001Y019218D02*
X009929Y019218D01*
X009929Y019159D02*
X011001Y019159D01*
X011001Y019101D02*
X009918Y019101D01*
X009859Y019042D02*
X011001Y019042D01*
X011001Y018984D02*
X003418Y018984D01*
X003418Y019042D02*
X005682Y019042D01*
X005624Y019101D02*
X003418Y019101D01*
X003418Y019159D02*
X005612Y019159D01*
X005612Y019218D02*
X003418Y019218D01*
X003418Y019276D02*
X005612Y019276D01*
X005612Y019335D02*
X003418Y019335D01*
X003418Y019393D02*
X005612Y019393D01*
X005612Y019452D02*
X003418Y019452D01*
X003418Y019510D02*
X005612Y019510D01*
X005612Y019569D02*
X003418Y019569D01*
X003418Y019627D02*
X005612Y019627D01*
X005612Y019686D02*
X003418Y019686D01*
X003418Y019744D02*
X005612Y019744D01*
X005612Y019803D02*
X003418Y019803D01*
X003418Y019861D02*
X005612Y019861D01*
X005612Y019920D02*
X003418Y019920D01*
X003418Y019978D02*
X005612Y019978D01*
X005612Y020037D02*
X003418Y020037D01*
X003418Y020095D02*
X005612Y020095D01*
X005612Y020154D02*
X003418Y020154D01*
X003418Y020212D02*
X003705Y020212D01*
X003699Y020216D02*
X003729Y020199D01*
X003762Y020190D01*
X003985Y020190D01*
X003985Y020526D01*
X003649Y020526D01*
X003649Y020303D01*
X003658Y020270D01*
X003675Y020240D01*
X003699Y020216D01*
X003658Y020271D02*
X003418Y020271D01*
X003418Y020329D02*
X003649Y020329D01*
X003649Y020388D02*
X003418Y020388D01*
X003418Y020446D02*
X003649Y020446D01*
X003649Y020505D02*
X003418Y020505D01*
X003418Y020563D02*
X003985Y020563D01*
X003985Y020586D02*
X003985Y020526D01*
X004045Y020526D01*
X004045Y020190D01*
X004269Y020190D01*
X004302Y020199D01*
X004331Y020216D01*
X004356Y020240D01*
X004373Y020270D01*
X004382Y020303D01*
X004382Y020526D01*
X004045Y020526D01*
X004045Y020586D01*
X003985Y020586D01*
X003649Y020586D01*
X003649Y020809D01*
X003658Y020842D01*
X003675Y020872D01*
X003699Y020896D01*
X003729Y020913D01*
X003762Y020922D01*
X003985Y020922D01*
X003985Y020586D01*
X003985Y020622D02*
X004045Y020622D01*
X004045Y020586D02*
X004045Y020922D01*
X004269Y020922D01*
X004302Y020913D01*
X004331Y020896D01*
X004356Y020872D01*
X004373Y020842D01*
X004382Y020809D01*
X004382Y020586D01*
X004045Y020586D01*
X004045Y020563D02*
X005666Y020563D01*
X005612Y020505D02*
X004382Y020505D01*
X004382Y020446D02*
X005612Y020446D01*
X005612Y020388D02*
X004382Y020388D01*
X004382Y020329D02*
X005612Y020329D01*
X005612Y020271D02*
X004373Y020271D01*
X004326Y020212D02*
X005612Y020212D01*
X005508Y020973D02*
X007033Y020973D01*
X006951Y021031D02*
X006485Y021031D01*
X006496Y021037D02*
X006551Y021077D01*
X006599Y021125D01*
X006638Y021179D01*
X006669Y021240D01*
X006690Y021304D01*
X006701Y021371D01*
X006701Y021975D01*
X006301Y021975D01*
X006301Y020975D01*
X006304Y020975D01*
X006371Y020985D01*
X006436Y021006D01*
X006496Y021037D01*
X006564Y021090D02*
X006893Y021090D01*
X006846Y021148D02*
X006616Y021148D01*
X006652Y021207D02*
X006822Y021207D01*
X006798Y021265D02*
X006677Y021265D01*
X006693Y021324D02*
X006781Y021324D01*
X006781Y021382D02*
X006701Y021382D01*
X006701Y021441D02*
X006781Y021441D01*
X006781Y021499D02*
X006701Y021499D01*
X006701Y021558D02*
X006781Y021558D01*
X006781Y021616D02*
X006701Y021616D01*
X006701Y021675D02*
X006781Y021675D01*
X006781Y021733D02*
X006701Y021733D01*
X006701Y021792D02*
X006781Y021792D01*
X006781Y021850D02*
X006701Y021850D01*
X006701Y021909D02*
X006781Y021909D01*
X006781Y021967D02*
X006701Y021967D01*
X006781Y022026D02*
X006301Y022026D01*
X006301Y021967D02*
X006241Y021967D01*
X006241Y021975D02*
X006241Y020975D01*
X006237Y020975D01*
X006170Y020985D01*
X006105Y021006D01*
X006045Y021037D01*
X005990Y021077D01*
X005943Y021125D01*
X005903Y021179D01*
X005872Y021240D01*
X005851Y021304D01*
X005841Y021371D01*
X005841Y021975D01*
X006241Y021975D01*
X006241Y022026D02*
X005761Y022026D01*
X005761Y022084D02*
X005848Y022084D01*
X005863Y022143D02*
X005744Y022143D01*
X005761Y021967D02*
X005841Y021967D01*
X005841Y021909D02*
X005761Y021909D01*
X005761Y021850D02*
X005841Y021850D01*
X005841Y021792D02*
X005761Y021792D01*
X005761Y021733D02*
X005841Y021733D01*
X005841Y021675D02*
X005761Y021675D01*
X005761Y021616D02*
X005841Y021616D01*
X005841Y021558D02*
X005761Y021558D01*
X005761Y021499D02*
X005841Y021499D01*
X005841Y021441D02*
X005761Y021441D01*
X005761Y021382D02*
X005841Y021382D01*
X005848Y021324D02*
X005761Y021324D01*
X005743Y021265D02*
X005864Y021265D01*
X005889Y021207D02*
X005719Y021207D01*
X005695Y021148D02*
X005925Y021148D01*
X005977Y021090D02*
X005649Y021090D01*
X005590Y021031D02*
X006056Y021031D01*
X006241Y021031D02*
X006301Y021031D01*
X006301Y021090D02*
X006241Y021090D01*
X006241Y021148D02*
X006301Y021148D01*
X006301Y021207D02*
X006241Y021207D01*
X006241Y021265D02*
X006301Y021265D01*
X006301Y021324D02*
X006241Y021324D01*
X006241Y021382D02*
X006301Y021382D01*
X006301Y021441D02*
X006241Y021441D01*
X006241Y021499D02*
X006301Y021499D01*
X006301Y021558D02*
X006241Y021558D01*
X006241Y021616D02*
X006301Y021616D01*
X006301Y021675D02*
X006241Y021675D01*
X006241Y021733D02*
X006301Y021733D01*
X006301Y021792D02*
X006241Y021792D01*
X006241Y021850D02*
X006301Y021850D01*
X006301Y021909D02*
X006241Y021909D01*
X006693Y022084D02*
X006781Y022084D01*
X006797Y022143D02*
X006678Y022143D01*
X007649Y021090D02*
X007893Y021090D01*
X007846Y021148D02*
X007695Y021148D01*
X007719Y021207D02*
X007822Y021207D01*
X007798Y021265D02*
X007743Y021265D01*
X007761Y021324D02*
X007781Y021324D01*
X007781Y021382D02*
X007761Y021382D01*
X007761Y021441D02*
X007781Y021441D01*
X007781Y021499D02*
X007761Y021499D01*
X007761Y021558D02*
X007781Y021558D01*
X007781Y021616D02*
X007761Y021616D01*
X007761Y021675D02*
X007781Y021675D01*
X007781Y021733D02*
X007761Y021733D01*
X007761Y021792D02*
X007781Y021792D01*
X007781Y021850D02*
X007761Y021850D01*
X007761Y021909D02*
X007781Y021909D01*
X007781Y021967D02*
X007761Y021967D01*
X007761Y022026D02*
X007781Y022026D01*
X007781Y022084D02*
X007761Y022084D01*
X007744Y022143D02*
X007797Y022143D01*
X008744Y022143D02*
X008797Y022143D01*
X008781Y022084D02*
X008761Y022084D01*
X008761Y022026D02*
X008781Y022026D01*
X008781Y021967D02*
X008761Y021967D01*
X008761Y021909D02*
X008781Y021909D01*
X008781Y021850D02*
X008761Y021850D01*
X008761Y021792D02*
X008781Y021792D01*
X008781Y021733D02*
X008761Y021733D01*
X008761Y021675D02*
X008781Y021675D01*
X008781Y021616D02*
X008761Y021616D01*
X008761Y021558D02*
X008781Y021558D01*
X008781Y021499D02*
X008761Y021499D01*
X008761Y021441D02*
X008781Y021441D01*
X008781Y021382D02*
X008761Y021382D01*
X008761Y021324D02*
X008781Y021324D01*
X008798Y021265D02*
X008743Y021265D01*
X008719Y021207D02*
X008822Y021207D01*
X008846Y021148D02*
X008695Y021148D01*
X008649Y021090D02*
X008893Y021090D01*
X008951Y021031D02*
X008590Y021031D01*
X008508Y020973D02*
X009033Y020973D01*
X008033Y020973D02*
X007508Y020973D01*
X007590Y021031D02*
X007951Y021031D01*
X007892Y020607D02*
X007892Y020607D01*
X007722Y019042D02*
X007678Y019042D01*
X008103Y019042D02*
X008200Y019042D01*
X008002Y018399D02*
X007454Y018399D01*
X007543Y018340D02*
X007913Y018340D01*
X007855Y018282D02*
X007601Y018282D01*
X007650Y018223D02*
X007806Y018223D01*
X007782Y018165D02*
X007674Y018165D01*
X007699Y018106D02*
X007757Y018106D01*
X007738Y018048D02*
X007718Y018048D01*
X007718Y017989D02*
X007738Y017989D01*
X007738Y017931D02*
X007718Y017931D01*
X007718Y017872D02*
X007738Y017872D01*
X007738Y017814D02*
X007718Y017814D01*
X007718Y017755D02*
X007738Y017755D01*
X007738Y017697D02*
X007718Y017697D01*
X007718Y017638D02*
X007738Y017638D01*
X007738Y017580D02*
X007718Y017580D01*
X007718Y017521D02*
X007738Y017521D01*
X007738Y017463D02*
X007718Y017463D01*
X007718Y017404D02*
X007738Y017404D01*
X007738Y017346D02*
X007718Y017346D01*
X007718Y017287D02*
X007738Y017287D01*
X007753Y017229D02*
X007703Y017229D01*
X007679Y017170D02*
X007777Y017170D01*
X007801Y017112D02*
X007655Y017112D01*
X007612Y017053D02*
X007844Y017053D01*
X007902Y016995D02*
X007554Y016995D01*
X007515Y016936D02*
X007480Y016936D01*
X007456Y016878D02*
X007339Y016878D01*
X007310Y016637D02*
X007310Y016196D01*
X007237Y016196D02*
X007383Y016196D01*
X007557Y016059D02*
X007904Y016059D01*
X007962Y016000D02*
X007499Y016000D01*
X007603Y016117D02*
X007845Y016117D01*
X008004Y016270D02*
X008004Y016563D01*
X008077Y016637D01*
X008224Y016637D01*
X008298Y016563D01*
X008298Y016270D02*
X008224Y016196D01*
X008077Y016196D01*
X008004Y016270D01*
X007795Y016395D02*
X007568Y016395D01*
X007795Y016621D01*
X007795Y016678D01*
X007738Y016735D01*
X007625Y016735D01*
X007568Y016678D01*
X007383Y016637D02*
X007237Y016637D01*
X007848Y016936D02*
X007976Y016936D01*
X007906Y016878D02*
X008117Y016878D01*
X008480Y016936D02*
X008976Y016936D01*
X008902Y016995D02*
X008554Y016995D01*
X008612Y017053D02*
X008844Y017053D01*
X008801Y017112D02*
X008655Y017112D01*
X008679Y017170D02*
X008777Y017170D01*
X008753Y017229D02*
X008703Y017229D01*
X008718Y017287D02*
X008738Y017287D01*
X008738Y017346D02*
X008718Y017346D01*
X008718Y017404D02*
X008738Y017404D01*
X008738Y017463D02*
X008718Y017463D01*
X008718Y017521D02*
X008738Y017521D01*
X008738Y017580D02*
X008718Y017580D01*
X008718Y017638D02*
X008738Y017638D01*
X008738Y017697D02*
X008718Y017697D01*
X008718Y017755D02*
X008738Y017755D01*
X008738Y017814D02*
X008718Y017814D01*
X008718Y017872D02*
X008738Y017872D01*
X008738Y017931D02*
X008718Y017931D01*
X008718Y017989D02*
X008738Y017989D01*
X008738Y018048D02*
X008718Y018048D01*
X008699Y018106D02*
X008757Y018106D01*
X008782Y018165D02*
X008674Y018165D01*
X008650Y018223D02*
X008806Y018223D01*
X008855Y018282D02*
X008601Y018282D01*
X008543Y018340D02*
X008913Y018340D01*
X009002Y018399D02*
X008454Y018399D01*
X011001Y018516D02*
X003418Y018516D01*
X003418Y018574D02*
X011001Y018574D01*
X011001Y018633D02*
X003418Y018633D01*
X003418Y018691D02*
X011001Y018691D01*
X011001Y018750D02*
X003418Y018750D01*
X003418Y018808D02*
X011001Y018808D01*
X011001Y018867D02*
X003418Y018867D01*
X003418Y018925D02*
X011001Y018925D01*
X011001Y020622D02*
X004382Y020622D01*
X004382Y020680D02*
X011001Y020680D01*
X011001Y020739D02*
X004382Y020739D01*
X004382Y020797D02*
X011001Y020797D01*
X011001Y020856D02*
X004365Y020856D01*
X004298Y020914D02*
X011001Y020914D01*
X012030Y016702D02*
X015163Y016702D01*
X015163Y016644D02*
X012089Y016644D01*
X012147Y016585D02*
X015163Y016585D01*
X015163Y016527D02*
X012206Y016527D01*
X012264Y016468D02*
X015163Y016468D01*
X015163Y016410D02*
X012323Y016410D01*
X012381Y016351D02*
X015163Y016351D01*
X015163Y016293D02*
X012440Y016293D01*
X012498Y016234D02*
X015163Y016234D01*
X014843Y016176D02*
X012557Y016176D01*
X013053Y016117D02*
X013088Y016117D01*
X013802Y016117D02*
X014785Y016117D01*
X014726Y016059D02*
X013860Y016059D01*
X013890Y016000D02*
X014671Y016000D01*
X014671Y015942D02*
X013890Y015942D01*
X013890Y015883D02*
X014671Y015883D01*
X014671Y015825D02*
X013890Y015825D01*
X013890Y015766D02*
X014671Y015766D01*
X014671Y015708D02*
X013890Y015708D01*
X013890Y015649D02*
X014720Y015649D01*
X014729Y015591D02*
X013890Y015591D01*
X013948Y015532D02*
X014729Y015532D01*
X014729Y015474D02*
X014007Y015474D01*
X014065Y015415D02*
X014729Y015415D01*
X014729Y015357D02*
X014124Y015357D01*
X014182Y015298D02*
X014729Y015298D01*
X014729Y015240D02*
X014241Y015240D01*
X014299Y015181D02*
X014729Y015181D01*
X014729Y015123D02*
X014358Y015123D01*
X014416Y015064D02*
X014729Y015064D01*
X014729Y015006D02*
X014475Y015006D01*
X014533Y014947D02*
X014729Y014947D01*
X014729Y014889D02*
X014592Y014889D01*
X014650Y014830D02*
X014729Y014830D01*
X014729Y014772D02*
X014709Y014772D01*
X013551Y013656D02*
X013624Y013583D01*
X013624Y013436D01*
X013551Y013363D01*
X013331Y013363D01*
X013478Y013363D02*
X013624Y013216D01*
X013512Y013017D02*
X013443Y013017D01*
X013331Y013216D02*
X013331Y013656D01*
X013551Y013656D01*
X013164Y013656D02*
X013164Y013583D01*
X012870Y013289D01*
X012870Y013216D01*
X013164Y013216D01*
X013164Y013656D02*
X012870Y013656D01*
X012704Y013583D02*
X012704Y013509D01*
X012630Y013436D01*
X012410Y013436D01*
X012630Y013436D02*
X012704Y013363D01*
X012704Y013289D01*
X012630Y013216D01*
X012410Y013216D01*
X012410Y013656D01*
X012630Y013656D01*
X012704Y013583D01*
X012742Y013017D02*
X012758Y013017D01*
X012721Y012996D02*
X012721Y012996D01*
X012721Y012996D01*
X011723Y010969D02*
X006798Y010969D01*
X006597Y010501D02*
X012597Y010501D01*
X012539Y010443D02*
X006655Y010443D01*
X006714Y010384D02*
X012480Y010384D01*
X012422Y010326D02*
X006772Y010326D01*
X006831Y010267D02*
X012281Y010267D01*
X012222Y010209D02*
X006889Y010209D01*
X006902Y010150D02*
X012164Y010150D01*
X012112Y010092D02*
X006902Y010092D01*
X006902Y010033D02*
X012112Y010033D01*
X012112Y009975D02*
X006902Y009975D01*
X006902Y009916D02*
X012112Y009916D01*
X012112Y009858D02*
X006938Y009858D01*
X006997Y009799D02*
X012112Y009799D01*
X012164Y009741D02*
X007055Y009741D01*
X007114Y009682D02*
X011499Y009682D01*
X011441Y009624D02*
X007172Y009624D01*
X007231Y009565D02*
X011382Y009565D01*
X011324Y009507D02*
X007289Y009507D01*
X007348Y009448D02*
X011324Y009448D01*
X011324Y009390D02*
X007406Y009390D01*
X007465Y009331D02*
X011324Y009331D01*
X011324Y009273D02*
X007523Y009273D01*
X007582Y009214D02*
X010597Y009214D01*
X010505Y009156D02*
X007640Y009156D01*
X007699Y009097D02*
X010447Y009097D01*
X010388Y009039D02*
X007757Y009039D01*
X007816Y008980D02*
X010330Y008980D01*
X010271Y008922D02*
X007874Y008922D01*
X007933Y008863D02*
X009726Y008863D01*
X009667Y008805D02*
X007991Y008805D01*
X008050Y008746D02*
X009628Y008746D01*
X009628Y008688D02*
X008108Y008688D01*
X008167Y008629D02*
X009628Y008629D01*
X009628Y008571D02*
X008225Y008571D01*
X008284Y008512D02*
X009628Y008512D01*
X009628Y008454D02*
X008342Y008454D01*
X008401Y008395D02*
X009628Y008395D01*
X009628Y008337D02*
X008459Y008337D01*
X008518Y008278D02*
X009628Y008278D01*
X009628Y008220D02*
X008576Y008220D01*
X008635Y008161D02*
X009628Y008161D01*
X009628Y008103D02*
X008693Y008103D01*
X008752Y008044D02*
X009628Y008044D01*
X009650Y007986D02*
X008810Y007986D01*
X008869Y007927D02*
X009708Y007927D01*
X009860Y007810D02*
X008986Y007810D01*
X008927Y007869D02*
X010001Y007869D01*
X010234Y007869D02*
X010986Y007869D01*
X010844Y007810D02*
X010376Y007810D01*
X010527Y007927D02*
X010693Y007927D01*
X010634Y007986D02*
X010586Y007986D01*
X010608Y008044D02*
X010612Y008044D01*
X010608Y008103D02*
X010612Y008103D01*
X010608Y008161D02*
X010612Y008161D01*
X010608Y008220D02*
X010612Y008220D01*
X010608Y008278D02*
X010612Y008278D01*
X010608Y008337D02*
X010612Y008337D01*
X010608Y008395D02*
X010612Y008395D01*
X010608Y008454D02*
X010612Y008454D01*
X011219Y007869D02*
X011426Y007869D01*
X011368Y007810D02*
X011360Y007810D01*
X011398Y006933D02*
X011287Y006933D01*
X011322Y006757D02*
X011499Y006757D01*
X011499Y006699D02*
X011398Y006699D01*
X011449Y006640D02*
X011499Y006640D01*
X011499Y006582D02*
X011485Y006582D01*
X011499Y006816D02*
X011141Y006816D01*
X011132Y006816D02*
X011072Y006816D01*
X011063Y006816D02*
X010157Y006816D01*
X010152Y006817D02*
X010148Y006817D01*
X010148Y006417D01*
X010088Y006417D01*
X010088Y006817D01*
X010084Y006817D01*
X010017Y006806D01*
X009953Y006785D01*
X009892Y006754D01*
X009838Y006715D01*
X009790Y006667D01*
X009750Y006612D01*
X009719Y006552D01*
X009698Y006487D01*
X009688Y006420D01*
X009688Y006417D01*
X010088Y006417D01*
X010088Y006357D01*
X009688Y006357D01*
X009688Y006353D01*
X009698Y006286D01*
X009719Y006222D01*
X009750Y006161D01*
X009790Y006106D01*
X009838Y006059D01*
X009892Y006019D01*
X009953Y005988D01*
X010017Y005967D01*
X010084Y005957D01*
X010088Y005957D01*
X010088Y006357D01*
X010148Y006357D01*
X010148Y006417D01*
X010548Y006417D01*
X010548Y006420D01*
X010537Y006487D01*
X010516Y006552D01*
X010486Y006612D01*
X010446Y006667D01*
X010398Y006715D01*
X010343Y006754D01*
X010283Y006785D01*
X010218Y006806D01*
X010152Y006817D01*
X010148Y006816D02*
X010088Y006816D01*
X010078Y006816D02*
X005719Y006816D01*
X005719Y006846D02*
X006094Y006846D01*
X006094Y007246D01*
X006085Y007279D01*
X006068Y007309D01*
X006044Y007333D01*
X006014Y007350D01*
X005981Y007359D01*
X005719Y007359D01*
X005719Y006846D01*
X005719Y006786D01*
X006094Y006786D01*
X006094Y006385D01*
X006085Y006352D01*
X006068Y006323D01*
X006044Y006298D01*
X006014Y006281D01*
X005981Y006272D01*
X005719Y006272D01*
X005719Y006786D01*
X005659Y006786D01*
X005659Y006272D01*
X005396Y006272D01*
X005363Y006281D01*
X005333Y006298D01*
X005309Y006323D01*
X005292Y006352D01*
X005283Y006385D01*
X005283Y006786D01*
X005659Y006786D01*
X005659Y006846D01*
X005659Y007359D01*
X005396Y007359D01*
X005363Y007350D01*
X005333Y007333D01*
X005309Y007309D01*
X005292Y007279D01*
X005283Y007246D01*
X005283Y006846D01*
X005659Y006846D01*
X005719Y006846D01*
X005719Y006874D02*
X005659Y006874D01*
X005659Y006816D02*
X004383Y006816D01*
X004383Y006874D02*
X005283Y006874D01*
X005283Y006933D02*
X004383Y006933D01*
X004383Y006991D02*
X005283Y006991D01*
X005283Y007050D02*
X004383Y007050D01*
X004383Y007108D02*
X005283Y007108D01*
X005283Y007167D02*
X004383Y007167D01*
X004383Y007225D02*
X005283Y007225D01*
X005294Y007284D02*
X004383Y007284D01*
X004348Y007342D02*
X005349Y007342D01*
X005659Y007342D02*
X005719Y007342D01*
X005719Y007284D02*
X005659Y007284D01*
X005659Y007225D02*
X005719Y007225D01*
X005719Y007167D02*
X005659Y007167D01*
X005659Y007108D02*
X005719Y007108D01*
X005719Y007050D02*
X005659Y007050D01*
X005659Y006991D02*
X005719Y006991D01*
X005719Y006933D02*
X005659Y006933D01*
X005659Y006757D02*
X005719Y006757D01*
X005719Y006699D02*
X005659Y006699D01*
X005659Y006640D02*
X005719Y006640D01*
X005719Y006582D02*
X005659Y006582D01*
X005659Y006523D02*
X005719Y006523D01*
X005719Y006465D02*
X005659Y006465D01*
X005659Y006406D02*
X005719Y006406D01*
X005719Y006348D02*
X005659Y006348D01*
X005659Y006289D02*
X005719Y006289D01*
X006028Y006289D02*
X009698Y006289D01*
X009689Y006348D02*
X006083Y006348D01*
X006094Y006406D02*
X010088Y006406D01*
X010088Y006348D02*
X010148Y006348D01*
X010148Y006357D02*
X010148Y005957D01*
X010152Y005957D01*
X010218Y005967D01*
X010283Y005988D01*
X010343Y006019D01*
X010398Y006059D01*
X010446Y006106D01*
X010486Y006161D01*
X010516Y006222D01*
X010537Y006286D01*
X010548Y006353D01*
X010548Y006357D01*
X010148Y006357D01*
X010148Y006406D02*
X011072Y006406D01*
X011072Y006348D02*
X011132Y006348D01*
X011132Y006289D02*
X011072Y006289D01*
X011072Y006231D02*
X011132Y006231D01*
X011132Y006172D02*
X011072Y006172D01*
X011072Y006114D02*
X011132Y006114D01*
X011132Y006055D02*
X011072Y006055D01*
X011072Y005997D02*
X011132Y005997D01*
X011202Y005938D02*
X004187Y005938D01*
X004187Y005880D02*
X011144Y005880D01*
X011085Y005821D02*
X004187Y005821D01*
X004187Y005763D02*
X011027Y005763D01*
X010968Y005704D02*
X004187Y005704D01*
X004187Y005646D02*
X010910Y005646D01*
X010851Y005587D02*
X004187Y005587D01*
X004187Y005529D02*
X010793Y005529D01*
X010734Y005470D02*
X007323Y005470D01*
X007350Y005465D02*
X007282Y005478D01*
X007262Y005465D01*
X006777Y005465D01*
X006748Y005436D01*
X006719Y005465D01*
X006627Y005465D01*
X006316Y005465D01*
X006188Y005336D01*
X006188Y004713D01*
X006316Y004584D01*
X006629Y004584D01*
X006719Y004584D01*
X006792Y004658D01*
X006792Y004658D01*
X006821Y004687D01*
X006924Y004584D01*
X007106Y004584D01*
X007172Y004650D01*
X007237Y004584D01*
X007420Y004584D01*
X007470Y004635D01*
X007489Y004607D01*
X007514Y004602D01*
X007531Y004584D01*
X007600Y004584D01*
X007668Y004571D01*
X007689Y004584D01*
X007713Y004584D01*
X007762Y004633D01*
X007820Y004672D01*
X007825Y004696D01*
X007842Y004713D01*
X007842Y004783D01*
X007856Y004851D01*
X007842Y004871D01*
X007842Y005336D01*
X007713Y005465D01*
X007531Y005465D01*
X007480Y005414D01*
X007461Y005443D01*
X007437Y005447D01*
X007420Y005465D01*
X007350Y005465D01*
X007270Y005470D02*
X004187Y005470D01*
X004187Y005412D02*
X006263Y005412D01*
X006205Y005353D02*
X004187Y005353D01*
X004187Y005295D02*
X006188Y005295D01*
X006188Y005236D02*
X004226Y005236D01*
X004284Y005178D02*
X006188Y005178D01*
X006188Y005119D02*
X004285Y005119D01*
X004285Y005061D02*
X006188Y005061D01*
X006188Y005002D02*
X004285Y005002D01*
X004285Y004944D02*
X006188Y004944D01*
X006188Y004885D02*
X004285Y004885D01*
X004240Y004827D02*
X006188Y004827D01*
X006188Y004768D02*
X004187Y004768D01*
X004187Y004710D02*
X006191Y004710D01*
X006250Y004651D02*
X004187Y004651D01*
X004187Y004593D02*
X006308Y004593D01*
X006408Y004804D02*
X006628Y004804D01*
X006701Y004878D01*
X006701Y004951D01*
X006628Y005025D01*
X006408Y005025D01*
X006408Y005245D02*
X006408Y004804D01*
X006628Y005025D02*
X006701Y005098D01*
X006701Y005171D01*
X006628Y005245D01*
X006408Y005245D01*
X006719Y005465D02*
X006719Y005465D01*
X006719Y005465D01*
X006868Y005245D02*
X007162Y005245D01*
X007015Y005245D02*
X007015Y004804D01*
X006857Y004651D02*
X006786Y004651D01*
X006727Y004593D02*
X006915Y004593D01*
X006719Y004584D02*
X006719Y004584D01*
X006719Y004584D01*
X007114Y004593D02*
X007229Y004593D01*
X007428Y004593D02*
X007523Y004593D01*
X007721Y004593D02*
X010481Y004593D01*
X010481Y004651D02*
X007789Y004651D01*
X007838Y004710D02*
X010481Y004710D01*
X010481Y004768D02*
X007842Y004768D01*
X007851Y004827D02*
X010481Y004827D01*
X010481Y004885D02*
X007842Y004885D01*
X007842Y004944D02*
X010481Y004944D01*
X010481Y005002D02*
X007842Y005002D01*
X007842Y005061D02*
X010481Y005061D01*
X010481Y005119D02*
X007842Y005119D01*
X007842Y005178D02*
X010499Y005178D01*
X010524Y005236D02*
X007842Y005236D01*
X007842Y005295D02*
X010559Y005295D01*
X010617Y005353D02*
X007825Y005353D01*
X007766Y005412D02*
X010676Y005412D01*
X010920Y005997D02*
X010300Y005997D01*
X010393Y006055D02*
X010827Y006055D01*
X010769Y006114D02*
X010451Y006114D01*
X010491Y006172D02*
X010729Y006172D01*
X010701Y006231D02*
X010519Y006231D01*
X010538Y006289D02*
X010682Y006289D01*
X010673Y006348D02*
X010547Y006348D01*
X010541Y006465D02*
X010679Y006465D01*
X010694Y006523D02*
X010526Y006523D01*
X010501Y006582D02*
X010719Y006582D01*
X010755Y006640D02*
X010465Y006640D01*
X010414Y006699D02*
X010806Y006699D01*
X010882Y006757D02*
X010338Y006757D01*
X010302Y006933D02*
X010917Y006933D01*
X010804Y006991D02*
X010415Y006991D01*
X010148Y006757D02*
X010088Y006757D01*
X010088Y006699D02*
X010148Y006699D01*
X010148Y006640D02*
X010088Y006640D01*
X010088Y006582D02*
X010148Y006582D01*
X010148Y006523D02*
X010088Y006523D01*
X010088Y006465D02*
X010148Y006465D01*
X010148Y006289D02*
X010088Y006289D01*
X010088Y006231D02*
X010148Y006231D01*
X010148Y006172D02*
X010088Y006172D01*
X010088Y006114D02*
X010148Y006114D01*
X010148Y006055D02*
X010088Y006055D01*
X010088Y005997D02*
X010148Y005997D01*
X009936Y005997D02*
X004187Y005997D01*
X004187Y006055D02*
X009842Y006055D01*
X009785Y006114D02*
X004187Y006114D01*
X004187Y006172D02*
X009744Y006172D01*
X009716Y006231D02*
X004290Y006231D01*
X004348Y006289D02*
X005349Y006289D01*
X005294Y006348D02*
X004383Y006348D01*
X004383Y006406D02*
X005283Y006406D01*
X005283Y006465D02*
X004383Y006465D01*
X004383Y006523D02*
X005283Y006523D01*
X005283Y006582D02*
X004383Y006582D01*
X004383Y006640D02*
X005283Y006640D01*
X005283Y006699D02*
X004383Y006699D01*
X004383Y006757D02*
X005283Y006757D01*
X006028Y007342D02*
X008351Y007342D01*
X008409Y007284D02*
X006083Y007284D01*
X006094Y007225D02*
X008468Y007225D01*
X008526Y007167D02*
X006094Y007167D01*
X006094Y007108D02*
X008585Y007108D01*
X008652Y007050D02*
X006094Y007050D01*
X006094Y006991D02*
X009820Y006991D01*
X009933Y006933D02*
X006094Y006933D01*
X006094Y006874D02*
X011457Y006874D01*
X011132Y006757D02*
X011072Y006757D01*
X011072Y006699D02*
X011132Y006699D01*
X011132Y006640D02*
X011072Y006640D01*
X011072Y006582D02*
X011132Y006582D01*
X011132Y006523D02*
X011072Y006523D01*
X011072Y006465D02*
X011132Y006465D01*
X009898Y006757D02*
X006094Y006757D01*
X006094Y006699D02*
X009822Y006699D01*
X009771Y006640D02*
X006094Y006640D01*
X006094Y006582D02*
X009735Y006582D01*
X009710Y006523D02*
X006094Y006523D01*
X006094Y006465D02*
X009695Y006465D01*
X008292Y007401D02*
X004290Y007401D01*
X003544Y007401D02*
X003418Y007401D01*
X003418Y007459D02*
X008234Y007459D01*
X008175Y007518D02*
X003418Y007518D01*
X003418Y007576D02*
X008117Y007576D01*
X008058Y007635D02*
X003418Y007635D01*
X003418Y007693D02*
X008000Y007693D01*
X007941Y007752D02*
X003418Y007752D01*
X003418Y007810D02*
X007883Y007810D01*
X007824Y007869D02*
X003418Y007869D01*
X003418Y007927D02*
X007766Y007927D01*
X007707Y007986D02*
X003418Y007986D01*
X003418Y008044D02*
X006054Y008044D01*
X006074Y008024D02*
X005755Y008343D01*
X005755Y008538D01*
X006269Y008538D01*
X006269Y008598D01*
X006269Y009111D01*
X006074Y009111D01*
X005755Y008793D01*
X005755Y008598D01*
X006269Y008598D01*
X006329Y008598D01*
X006329Y009111D01*
X006524Y009111D01*
X006842Y008793D01*
X006842Y008598D01*
X006329Y008598D01*
X006329Y008538D01*
X006842Y008538D01*
X006842Y008343D01*
X006524Y008024D01*
X006329Y008024D01*
X006329Y008538D01*
X006269Y008538D01*
X006269Y008024D01*
X006074Y008024D01*
X005995Y008103D02*
X003418Y008103D01*
X003418Y008161D02*
X005937Y008161D01*
X005878Y008220D02*
X003418Y008220D01*
X003418Y008278D02*
X005820Y008278D01*
X005761Y008337D02*
X003418Y008337D01*
X003418Y008395D02*
X005755Y008395D01*
X005755Y008454D02*
X003418Y008454D01*
X003418Y008512D02*
X005755Y008512D01*
X005755Y008629D02*
X003418Y008629D01*
X003418Y008571D02*
X006269Y008571D01*
X006269Y008629D02*
X006329Y008629D01*
X006329Y008571D02*
X007122Y008571D01*
X007064Y008629D02*
X006842Y008629D01*
X006842Y008688D02*
X007005Y008688D01*
X006947Y008746D02*
X006842Y008746D01*
X006830Y008805D02*
X006888Y008805D01*
X006830Y008863D02*
X006772Y008863D01*
X006771Y008922D02*
X006713Y008922D01*
X006713Y008980D02*
X006655Y008980D01*
X006654Y009039D02*
X006596Y009039D01*
X006596Y009097D02*
X006538Y009097D01*
X006537Y009156D02*
X003418Y009156D01*
X003418Y009214D02*
X006479Y009214D01*
X006420Y009273D02*
X003418Y009273D01*
X003418Y009331D02*
X006362Y009331D01*
X006329Y009097D02*
X006269Y009097D01*
X006269Y009039D02*
X006329Y009039D01*
X006329Y008980D02*
X006269Y008980D01*
X006269Y008922D02*
X006329Y008922D01*
X006329Y008863D02*
X006269Y008863D01*
X006269Y008805D02*
X006329Y008805D01*
X006329Y008746D02*
X006269Y008746D01*
X006269Y008688D02*
X006329Y008688D01*
X006329Y008512D02*
X006269Y008512D01*
X006269Y008454D02*
X006329Y008454D01*
X006329Y008395D02*
X006269Y008395D01*
X006269Y008337D02*
X006329Y008337D01*
X006329Y008278D02*
X006269Y008278D01*
X006269Y008220D02*
X006329Y008220D01*
X006329Y008161D02*
X006269Y008161D01*
X006269Y008103D02*
X006329Y008103D01*
X006329Y008044D02*
X006269Y008044D01*
X006544Y008044D02*
X007649Y008044D01*
X007590Y008103D02*
X006602Y008103D01*
X006661Y008161D02*
X007532Y008161D01*
X007473Y008220D02*
X006719Y008220D01*
X006778Y008278D02*
X007415Y008278D01*
X007356Y008337D02*
X006836Y008337D01*
X006842Y008395D02*
X007298Y008395D01*
X007239Y008454D02*
X006842Y008454D01*
X006842Y008512D02*
X007181Y008512D01*
X006060Y009097D02*
X003418Y009097D01*
X003418Y009039D02*
X006001Y009039D01*
X005943Y008980D02*
X003418Y008980D01*
X003418Y008922D02*
X005884Y008922D01*
X005826Y008863D02*
X003418Y008863D01*
X003418Y008805D02*
X005767Y008805D01*
X005755Y008746D02*
X003418Y008746D01*
X003418Y008688D02*
X005755Y008688D01*
X006002Y009390D02*
X003418Y009390D01*
X003418Y009448D02*
X005943Y009448D01*
X005885Y009507D02*
X003418Y009507D01*
X003418Y009565D02*
X005826Y009565D01*
X005768Y009624D02*
X003418Y009624D01*
X003418Y009682D02*
X005709Y009682D01*
X005695Y009741D02*
X003418Y009741D01*
X003418Y009799D02*
X005695Y009799D01*
X005695Y009858D02*
X003418Y009858D01*
X003418Y009916D02*
X005695Y009916D01*
X005695Y009975D02*
X003418Y009975D01*
X003418Y010033D02*
X005695Y010033D01*
X005658Y010092D02*
X003418Y010092D01*
X003418Y010150D02*
X005599Y010150D01*
X005541Y010209D02*
X003418Y010209D01*
X003418Y010267D02*
X005482Y010267D01*
X005424Y010326D02*
X003418Y010326D01*
X003418Y010384D02*
X005365Y010384D01*
X005307Y010443D02*
X003418Y010443D01*
X003418Y010501D02*
X005248Y010501D01*
X005190Y010560D02*
X003418Y010560D01*
X003418Y010618D02*
X005131Y010618D01*
X005073Y010677D02*
X003418Y010677D01*
X003418Y010735D02*
X005014Y010735D01*
X004956Y010794D02*
X003418Y010794D01*
X003418Y010852D02*
X004899Y010852D01*
X004875Y010911D02*
X003418Y010911D01*
X003418Y010969D02*
X004850Y010969D01*
X004847Y011028D02*
X003418Y011028D01*
X003418Y011086D02*
X004847Y011086D01*
X004847Y011145D02*
X003418Y011145D01*
X003418Y011203D02*
X004847Y011203D01*
X004847Y011262D02*
X003418Y011262D01*
X003418Y011320D02*
X004847Y011320D01*
X004847Y011379D02*
X003418Y011379D01*
X003418Y011437D02*
X004847Y011437D01*
X004847Y011496D02*
X003418Y011496D01*
X003418Y011554D02*
X004847Y011554D01*
X004847Y011613D02*
X003418Y011613D01*
X003418Y011671D02*
X004847Y011671D01*
X004847Y011730D02*
X003418Y011730D01*
X003418Y011788D02*
X004847Y011788D01*
X004847Y011847D02*
X003418Y011847D01*
X003418Y011905D02*
X004847Y011905D01*
X004847Y011964D02*
X003418Y011964D01*
X003418Y012022D02*
X004847Y012022D01*
X004847Y012081D02*
X003418Y012081D01*
X003418Y012139D02*
X004847Y012139D01*
X004847Y012198D02*
X003418Y012198D01*
X003418Y012256D02*
X004847Y012256D01*
X004847Y012315D02*
X003418Y012315D01*
X003418Y012373D02*
X004847Y012373D01*
X004847Y012432D02*
X003418Y012432D01*
X003418Y012490D02*
X004847Y012490D01*
X004847Y012549D02*
X003418Y012549D01*
X003418Y012607D02*
X004847Y012607D01*
X004847Y012666D02*
X003418Y012666D01*
X003418Y012724D02*
X004847Y012724D01*
X004847Y012783D02*
X003418Y012783D01*
X003418Y012841D02*
X004847Y012841D01*
X004847Y012900D02*
X003418Y012900D01*
X003418Y012958D02*
X004847Y012958D01*
X004847Y013017D02*
X003418Y013017D01*
X003418Y013075D02*
X004847Y013075D01*
X004847Y013134D02*
X003418Y013134D01*
X003418Y013192D02*
X004847Y013192D01*
X004847Y013251D02*
X003418Y013251D01*
X003418Y013309D02*
X004847Y013309D01*
X004847Y013368D02*
X003418Y013368D01*
X003418Y013426D02*
X004847Y013426D01*
X004847Y013485D02*
X003418Y013485D01*
X003418Y013543D02*
X004847Y013543D01*
X004847Y013602D02*
X003418Y013602D01*
X003418Y013660D02*
X004847Y013660D01*
X004847Y013719D02*
X003418Y013719D01*
X003418Y013777D02*
X004864Y013777D01*
X006121Y010618D02*
X012714Y010618D01*
X012656Y010560D02*
X006180Y010560D01*
X003486Y007342D02*
X003418Y007342D01*
X003418Y007284D02*
X003451Y007284D01*
X003451Y007225D02*
X003418Y007225D01*
X003418Y007167D02*
X003451Y007167D01*
X003451Y007108D02*
X003418Y007108D01*
X003418Y007050D02*
X003451Y007050D01*
X003451Y006991D02*
X003418Y006991D01*
X003418Y006933D02*
X003451Y006933D01*
X003451Y006874D02*
X003418Y006874D01*
X003418Y006816D02*
X003451Y006816D01*
X003451Y006757D02*
X003418Y006757D01*
X003418Y006699D02*
X003451Y006699D01*
X003451Y006640D02*
X003418Y006640D01*
X003418Y006582D02*
X003451Y006582D01*
X003451Y006523D02*
X003418Y006523D01*
X003418Y006465D02*
X003451Y006465D01*
X003451Y006406D02*
X003418Y006406D01*
X003418Y006348D02*
X003451Y006348D01*
X003418Y006289D02*
X003486Y006289D01*
X003544Y006231D02*
X003418Y006231D01*
X003418Y006172D02*
X003647Y006172D01*
X003647Y006114D02*
X003418Y006114D01*
X003418Y006055D02*
X003647Y006055D01*
X003647Y005997D02*
X003418Y005997D01*
X003418Y005938D02*
X003647Y005938D01*
X003647Y005880D02*
X003418Y005880D01*
X003418Y005821D02*
X003647Y005821D01*
X003647Y005763D02*
X003418Y005763D01*
X003418Y005704D02*
X003647Y005704D01*
X003647Y005646D02*
X003418Y005646D01*
X003418Y005587D02*
X003647Y005587D01*
X003647Y005529D02*
X003418Y005529D01*
X003418Y005470D02*
X003647Y005470D01*
X003647Y005412D02*
X003418Y005412D01*
X003418Y005353D02*
X003647Y005353D01*
X003647Y005295D02*
X003418Y005295D01*
X003418Y005236D02*
X003608Y005236D01*
X003550Y005178D02*
X003418Y005178D01*
X003418Y005119D02*
X003549Y005119D01*
X003549Y005061D02*
X003418Y005061D01*
X003418Y005002D02*
X003549Y005002D01*
X003549Y004944D02*
X003418Y004944D01*
X003418Y004885D02*
X003549Y004885D01*
X003594Y004827D02*
X003418Y004827D01*
X003418Y004768D02*
X003647Y004768D01*
X003647Y004710D02*
X003418Y004710D01*
X003418Y004651D02*
X003647Y004651D01*
X003647Y004593D02*
X003418Y004593D01*
X003418Y004534D02*
X003647Y004534D01*
X003647Y004476D02*
X003418Y004476D01*
X003418Y004417D02*
X003647Y004417D01*
X003647Y004359D02*
X003418Y004359D01*
X003418Y004300D02*
X003647Y004300D01*
X003647Y004242D02*
X003418Y004242D01*
X003418Y004183D02*
X003647Y004183D01*
X003647Y004125D02*
X003418Y004125D01*
X003418Y004066D02*
X003647Y004066D01*
X003647Y004008D02*
X003418Y004008D01*
X003418Y003949D02*
X003647Y003949D01*
X003647Y003891D02*
X003418Y003891D01*
X003418Y003832D02*
X003558Y003832D01*
X003500Y003774D02*
X003418Y003774D01*
X003418Y003715D02*
X003451Y003715D01*
X003451Y003657D02*
X003418Y003657D01*
X003418Y003598D02*
X003451Y003598D01*
X003451Y003540D02*
X003418Y003540D01*
X003418Y003481D02*
X003451Y003481D01*
X003451Y003423D02*
X003418Y003423D01*
X003418Y003364D02*
X003451Y003364D01*
X003451Y003306D02*
X003418Y003306D01*
X003418Y003247D02*
X003451Y003247D01*
X003451Y003189D02*
X003418Y003189D01*
X003418Y003130D02*
X003451Y003130D01*
X003451Y003072D02*
X003418Y003072D01*
X003423Y003013D02*
X003451Y003013D01*
X003447Y002955D02*
X003451Y002955D01*
X004383Y002955D02*
X005283Y002955D01*
X005283Y003013D02*
X004383Y003013D01*
X004383Y003072D02*
X005283Y003072D01*
X005283Y003130D02*
X004383Y003130D01*
X004383Y003189D02*
X005283Y003189D01*
X005283Y003306D02*
X004383Y003306D01*
X004383Y003364D02*
X005283Y003364D01*
X005283Y003423D02*
X004383Y003423D01*
X004383Y003481D02*
X005283Y003481D01*
X005283Y003540D02*
X004383Y003540D01*
X004383Y003598D02*
X005283Y003598D01*
X005283Y003657D02*
X004383Y003657D01*
X004383Y003715D02*
X005303Y003715D01*
X005386Y003774D02*
X004334Y003774D01*
X004276Y003832D02*
X008434Y003832D01*
X008410Y003774D02*
X005992Y003774D01*
X006075Y003715D02*
X008386Y003715D01*
X008381Y003657D02*
X006094Y003657D01*
X006094Y003598D02*
X008381Y003598D01*
X008381Y003540D02*
X006094Y003540D01*
X006094Y003481D02*
X008381Y003481D01*
X008381Y003423D02*
X006094Y003423D01*
X006094Y003364D02*
X008381Y003364D01*
X008381Y003306D02*
X006094Y003306D01*
X006094Y003189D02*
X008381Y003189D01*
X008381Y003247D02*
X005719Y003247D01*
X005719Y003306D02*
X005659Y003306D01*
X005659Y003364D02*
X005719Y003364D01*
X005719Y003423D02*
X005659Y003423D01*
X005659Y003481D02*
X005719Y003481D01*
X005719Y003540D02*
X005659Y003540D01*
X005659Y003598D02*
X005719Y003598D01*
X005719Y003657D02*
X005659Y003657D01*
X005659Y003715D02*
X005719Y003715D01*
X005719Y003774D02*
X005659Y003774D01*
X005659Y003247D02*
X004383Y003247D01*
X004383Y002896D02*
X005283Y002896D01*
X006094Y002896D02*
X008385Y002896D01*
X008381Y002955D02*
X006094Y002955D01*
X006094Y003013D02*
X008381Y003013D01*
X008381Y003072D02*
X006094Y003072D01*
X006094Y003130D02*
X008381Y003130D01*
X008464Y003891D02*
X004187Y003891D01*
X004187Y003949D02*
X008522Y003949D01*
X008581Y004008D02*
X004187Y004008D01*
X004187Y004066D02*
X008704Y004066D01*
X009037Y004066D02*
X009704Y004066D01*
X009581Y004008D02*
X009161Y004008D01*
X009219Y003949D02*
X009522Y003949D01*
X009464Y003891D02*
X009278Y003891D01*
X009307Y003832D02*
X009434Y003832D01*
X009410Y003774D02*
X009331Y003774D01*
X009355Y003715D02*
X009386Y003715D01*
X009381Y003657D02*
X009361Y003657D01*
X009361Y003598D02*
X009381Y003598D01*
X009381Y003540D02*
X009361Y003540D01*
X009361Y003481D02*
X009381Y003481D01*
X009381Y003423D02*
X009361Y003423D01*
X009361Y003364D02*
X009381Y003364D01*
X009381Y003306D02*
X009361Y003306D01*
X009361Y003247D02*
X009381Y003247D01*
X009381Y003189D02*
X009361Y003189D01*
X009361Y003130D02*
X009381Y003130D01*
X009381Y003072D02*
X009361Y003072D01*
X009361Y003013D02*
X009381Y003013D01*
X009381Y002955D02*
X009361Y002955D01*
X009356Y002896D02*
X009385Y002896D01*
X010356Y002896D02*
X010385Y002896D01*
X010381Y002955D02*
X010361Y002955D01*
X010361Y003013D02*
X010381Y003013D01*
X010381Y003072D02*
X010361Y003072D01*
X010361Y003130D02*
X010381Y003130D01*
X010381Y003189D02*
X010361Y003189D01*
X010361Y003247D02*
X010381Y003247D01*
X010381Y003306D02*
X010361Y003306D01*
X010361Y003364D02*
X010381Y003364D01*
X010381Y003423D02*
X010361Y003423D01*
X010361Y003481D02*
X010381Y003481D01*
X010381Y003540D02*
X010361Y003540D01*
X010361Y003598D02*
X010381Y003598D01*
X010381Y003657D02*
X010361Y003657D01*
X010355Y003715D02*
X010386Y003715D01*
X010410Y003774D02*
X010331Y003774D01*
X010307Y003832D02*
X010434Y003832D01*
X010464Y003891D02*
X010278Y003891D01*
X010219Y003949D02*
X010481Y003949D01*
X010481Y004008D02*
X010161Y004008D01*
X010037Y004066D02*
X010481Y004066D01*
X010481Y004125D02*
X004187Y004125D01*
X004187Y004183D02*
X010481Y004183D01*
X010481Y004242D02*
X004187Y004242D01*
X004187Y004300D02*
X010481Y004300D01*
X010481Y004359D02*
X004187Y004359D01*
X004187Y004417D02*
X010481Y004417D01*
X010481Y004476D02*
X004187Y004476D01*
X004187Y004534D02*
X010481Y004534D01*
X007622Y004804D02*
X007622Y005245D01*
X007328Y005245D02*
X007622Y004804D01*
X007328Y004804D02*
X007328Y005245D01*
X011886Y009682D02*
X012223Y009682D01*
X017617Y015708D02*
X017646Y015691D01*
X017679Y015682D01*
X017962Y015682D01*
X017962Y016038D01*
X017962Y016000D02*
X018022Y016000D01*
X018022Y016038D02*
X018022Y015682D01*
X018304Y015682D01*
X018337Y015691D01*
X018367Y015708D01*
X018391Y015732D01*
X018408Y015762D01*
X018417Y015795D01*
X018417Y016038D01*
X018022Y016038D01*
X018022Y016059D02*
X019594Y016059D01*
X019594Y016058D02*
X019930Y016058D01*
X019930Y016395D01*
X019707Y016395D01*
X019674Y016386D01*
X019644Y016369D01*
X019620Y016344D01*
X019603Y016315D01*
X019594Y016282D01*
X019594Y016058D01*
X019594Y016117D02*
X018417Y016117D01*
X018417Y016176D02*
X019594Y016176D01*
X019594Y016234D02*
X018417Y016234D01*
X018417Y016293D02*
X019597Y016293D01*
X019627Y016351D02*
X018414Y016351D01*
X018406Y016410D02*
X020281Y016410D01*
X019990Y016351D02*
X019930Y016351D01*
X019930Y016293D02*
X019990Y016293D01*
X019990Y016234D02*
X019930Y016234D01*
X019930Y016176D02*
X019990Y016176D01*
X019990Y016117D02*
X019930Y016117D01*
X019930Y016059D02*
X019990Y016059D01*
X019930Y016000D02*
X018417Y016000D01*
X018417Y015942D02*
X019594Y015942D01*
X019594Y015998D02*
X019594Y015775D01*
X019603Y015742D01*
X019620Y015712D01*
X019644Y015688D01*
X019674Y015671D01*
X019707Y015662D01*
X019930Y015662D01*
X019930Y015998D01*
X019594Y015998D01*
X019594Y015883D02*
X018417Y015883D01*
X018417Y015825D02*
X019594Y015825D01*
X019596Y015766D02*
X018409Y015766D01*
X018367Y015708D02*
X019625Y015708D01*
X019930Y015708D02*
X019990Y015708D01*
X019990Y015766D02*
X019930Y015766D01*
X019930Y015825D02*
X019990Y015825D01*
X019990Y015883D02*
X019930Y015883D01*
X019930Y015942D02*
X019990Y015942D01*
X019606Y016468D02*
X018464Y016468D01*
X018477Y016527D02*
X019548Y016527D01*
X019534Y016585D02*
X018477Y016585D01*
X018477Y016644D02*
X019534Y016644D01*
X019534Y016702D02*
X018477Y016702D01*
X018477Y016761D02*
X019534Y016761D01*
X019534Y016819D02*
X018477Y016819D01*
X018477Y016878D02*
X019534Y016878D01*
X019534Y016936D02*
X018477Y016936D01*
X018477Y016995D02*
X019534Y016995D01*
X019534Y017053D02*
X018477Y017053D01*
X018477Y017112D02*
X019534Y017112D01*
X019534Y017170D02*
X018457Y017170D01*
X018399Y017229D02*
X019593Y017229D01*
X019690Y017287D02*
X018262Y017287D01*
X018262Y017346D02*
X019690Y017346D01*
X019690Y017404D02*
X018262Y017404D01*
X018262Y017463D02*
X019690Y017463D01*
X019690Y017521D02*
X018262Y017521D01*
X018262Y017580D02*
X019690Y017580D01*
X019538Y017638D02*
X018414Y017638D01*
X018472Y017697D02*
X019480Y017697D01*
X019475Y017755D02*
X018477Y017755D01*
X018477Y017814D02*
X019475Y017814D01*
X019475Y017872D02*
X018477Y017872D01*
X018477Y017931D02*
X019475Y017931D01*
X019475Y017989D02*
X018477Y017989D01*
X018477Y018048D02*
X019475Y018048D01*
X019475Y018106D02*
X018477Y018106D01*
X018477Y018165D02*
X019475Y018165D01*
X019475Y018223D02*
X018477Y018223D01*
X018477Y018282D02*
X019475Y018282D01*
X019475Y018340D02*
X018477Y018340D01*
X018449Y018399D02*
X019503Y018399D01*
X019475Y018457D02*
X018477Y018457D01*
X018477Y018516D02*
X019475Y018516D01*
X019475Y018574D02*
X018477Y018574D01*
X018477Y018633D02*
X019475Y018633D01*
X019475Y018691D02*
X018477Y018691D01*
X018477Y018750D02*
X019475Y018750D01*
X019475Y018808D02*
X018477Y018808D01*
X018477Y018867D02*
X019475Y018867D01*
X019475Y018925D02*
X018477Y018925D01*
X018477Y018984D02*
X019475Y018984D01*
X019475Y019042D02*
X018477Y019042D01*
X018477Y019101D02*
X019475Y019101D01*
X019515Y019159D02*
X018437Y019159D01*
X018378Y019218D02*
X019539Y019218D01*
X019480Y019276D02*
X018262Y019276D01*
X018262Y019335D02*
X019422Y019335D01*
X019363Y019393D02*
X018262Y019393D01*
X018262Y019452D02*
X019166Y019452D01*
X019107Y019510D02*
X018262Y019510D01*
X018262Y019569D02*
X019049Y019569D01*
X018990Y019627D02*
X018262Y019627D01*
X018262Y019686D02*
X018982Y019686D01*
X018982Y019744D02*
X018262Y019744D01*
X018262Y019803D02*
X018982Y019803D01*
X018982Y019861D02*
X018262Y019861D01*
X018262Y019920D02*
X018982Y019920D01*
X019020Y019978D02*
X018251Y019978D01*
X018227Y020037D02*
X018981Y020037D01*
X018913Y020095D02*
X018177Y020095D01*
X018118Y020154D02*
X018855Y020154D01*
X018889Y020119D02*
X018889Y020119D01*
X018796Y020212D02*
X018060Y020212D01*
X018001Y020271D02*
X018738Y020271D01*
X018679Y020329D02*
X017943Y020329D01*
X017884Y020388D02*
X018621Y020388D01*
X018562Y020446D02*
X017826Y020446D01*
X017767Y020505D02*
X018504Y020505D01*
X018445Y020563D02*
X017709Y020563D01*
X017650Y020622D02*
X018387Y020622D01*
X018328Y020680D02*
X017592Y020680D01*
X017533Y020739D02*
X018270Y020739D01*
X018211Y020797D02*
X017475Y020797D01*
X017416Y020856D02*
X018153Y020856D01*
X018094Y020914D02*
X017358Y020914D01*
X017299Y020973D02*
X017633Y020973D01*
X017551Y021031D02*
X017241Y021031D01*
X017249Y021090D02*
X017493Y021090D01*
X017446Y021148D02*
X017295Y021148D01*
X017319Y021207D02*
X017422Y021207D01*
X017398Y021265D02*
X017343Y021265D01*
X017361Y021324D02*
X017381Y021324D01*
X017381Y021382D02*
X017361Y021382D01*
X017361Y021441D02*
X017381Y021441D01*
X017381Y021499D02*
X017361Y021499D01*
X017361Y021558D02*
X017381Y021558D01*
X017381Y021616D02*
X017361Y021616D01*
X017361Y021675D02*
X017381Y021675D01*
X017381Y021733D02*
X017361Y021733D01*
X017361Y021792D02*
X017381Y021792D01*
X017381Y021850D02*
X017361Y021850D01*
X017361Y021909D02*
X017381Y021909D01*
X017381Y021967D02*
X017361Y021967D01*
X017361Y022026D02*
X017381Y022026D01*
X017381Y022084D02*
X017361Y022084D01*
X017344Y022143D02*
X017397Y022143D01*
X016397Y022143D02*
X016344Y022143D01*
X016361Y022084D02*
X016381Y022084D01*
X016381Y022026D02*
X016361Y022026D01*
X016361Y021967D02*
X016381Y021967D01*
X016381Y021909D02*
X016361Y021909D01*
X016361Y021850D02*
X016381Y021850D01*
X016381Y021792D02*
X016361Y021792D01*
X016361Y021733D02*
X016381Y021733D01*
X016381Y021675D02*
X016361Y021675D01*
X016361Y021616D02*
X016381Y021616D01*
X016381Y021558D02*
X016361Y021558D01*
X016361Y021499D02*
X016381Y021499D01*
X016381Y021441D02*
X016361Y021441D01*
X016361Y021382D02*
X016381Y021382D01*
X016381Y021324D02*
X016361Y021324D01*
X016343Y021265D02*
X016398Y021265D01*
X016422Y021207D02*
X016319Y021207D01*
X016295Y021148D02*
X016446Y021148D01*
X016493Y021090D02*
X016249Y021090D01*
X016190Y021031D02*
X016551Y021031D01*
X016601Y020973D02*
X016185Y020973D01*
X016244Y020914D02*
X016622Y020914D01*
X016653Y020856D02*
X016302Y020856D01*
X016361Y020797D02*
X016711Y020797D01*
X016770Y020739D02*
X016419Y020739D01*
X016461Y020680D02*
X016828Y020680D01*
X016887Y020622D02*
X016485Y020622D01*
X016490Y020563D02*
X016945Y020563D01*
X017004Y020505D02*
X016490Y020505D01*
X016490Y020446D02*
X017062Y020446D01*
X017121Y020388D02*
X016490Y020388D01*
X016490Y020329D02*
X017179Y020329D01*
X017238Y020271D02*
X016490Y020271D01*
X016490Y020212D02*
X017296Y020212D01*
X017355Y020154D02*
X016490Y020154D01*
X016490Y020095D02*
X017413Y020095D01*
X017472Y020037D02*
X016490Y020037D01*
X016490Y019978D02*
X017530Y019978D01*
X017589Y019920D02*
X016490Y019920D01*
X016490Y019861D02*
X017647Y019861D01*
X017706Y019803D02*
X016490Y019803D01*
X016490Y019744D02*
X017722Y019744D01*
X017722Y019686D02*
X016490Y019686D01*
X016490Y019627D02*
X017722Y019627D01*
X017722Y019569D02*
X016490Y019569D01*
X016490Y019510D02*
X017722Y019510D01*
X017722Y019452D02*
X016490Y019452D01*
X016490Y019393D02*
X017722Y019393D01*
X017722Y019335D02*
X016490Y019335D01*
X016490Y019276D02*
X017722Y019276D01*
X017605Y019218D02*
X016490Y019218D01*
X016490Y019159D02*
X017547Y019159D01*
X017507Y019101D02*
X016490Y019101D01*
X016490Y019042D02*
X017507Y019042D01*
X017507Y018984D02*
X016490Y018984D01*
X016490Y018925D02*
X017507Y018925D01*
X017507Y018867D02*
X016490Y018867D01*
X016490Y018808D02*
X017507Y018808D01*
X017507Y018750D02*
X016490Y018750D01*
X016490Y018691D02*
X017507Y018691D01*
X017507Y018633D02*
X016490Y018633D01*
X016490Y018574D02*
X017507Y018574D01*
X017507Y018516D02*
X016490Y018516D01*
X016490Y018457D02*
X017507Y018457D01*
X017534Y018399D02*
X016490Y018399D01*
X016490Y018340D02*
X017507Y018340D01*
X017507Y018282D02*
X016490Y018282D01*
X016490Y018223D02*
X017507Y018223D01*
X017507Y018165D02*
X016490Y018165D01*
X016490Y018106D02*
X017507Y018106D01*
X017507Y018048D02*
X016490Y018048D01*
X016490Y017989D02*
X017507Y017989D01*
X017507Y017931D02*
X016490Y017931D01*
X016490Y017872D02*
X017507Y017872D01*
X017507Y017814D02*
X016490Y017814D01*
X016490Y017755D02*
X017507Y017755D01*
X017511Y017697D02*
X016490Y017697D01*
X016490Y017638D02*
X017570Y017638D01*
X017722Y017580D02*
X016490Y017580D01*
X016490Y017521D02*
X017722Y017521D01*
X017722Y017463D02*
X016490Y017463D01*
X016490Y017404D02*
X017722Y017404D01*
X017722Y017346D02*
X016490Y017346D01*
X016490Y017287D02*
X017722Y017287D01*
X017585Y017229D02*
X016490Y017229D01*
X016490Y017170D02*
X017526Y017170D01*
X017507Y017112D02*
X016490Y017112D01*
X016490Y017053D02*
X017507Y017053D01*
X017507Y016995D02*
X016490Y016995D01*
X016490Y016936D02*
X017507Y016936D01*
X017507Y016878D02*
X016490Y016878D01*
X016490Y016819D02*
X017507Y016819D01*
X017507Y016761D02*
X016490Y016761D01*
X016490Y016702D02*
X017507Y016702D01*
X017507Y016644D02*
X016490Y016644D01*
X016490Y016585D02*
X017507Y016585D01*
X017507Y016527D02*
X016490Y016527D01*
X016490Y016468D02*
X017519Y016468D01*
X017578Y016410D02*
X016490Y016410D01*
X016490Y016351D02*
X017569Y016351D01*
X017567Y016293D02*
X016490Y016293D01*
X016490Y016234D02*
X017567Y016234D01*
X017567Y016176D02*
X016490Y016176D01*
X017962Y015942D02*
X018022Y015942D01*
X018022Y015883D02*
X017962Y015883D01*
X017962Y015825D02*
X018022Y015825D01*
X018022Y015766D02*
X017962Y015766D01*
X017962Y015708D02*
X018022Y015708D01*
X005033Y020973D02*
X004347Y020973D01*
X004330Y020956D02*
X004442Y021068D01*
X004442Y021698D01*
X004330Y021809D01*
X003700Y021809D01*
X003589Y021698D01*
X003589Y021068D01*
X003700Y020956D01*
X004330Y020956D01*
X004405Y021031D02*
X004951Y021031D01*
X004893Y021090D02*
X004442Y021090D01*
X004442Y021148D02*
X004846Y021148D01*
X004822Y021207D02*
X004442Y021207D01*
X004442Y021265D02*
X004798Y021265D01*
X004781Y021324D02*
X004442Y021324D01*
X004442Y021382D02*
X004781Y021382D01*
X004781Y021441D02*
X004442Y021441D01*
X004442Y021499D02*
X004781Y021499D01*
X004781Y021558D02*
X004442Y021558D01*
X004442Y021616D02*
X004781Y021616D01*
X004781Y021675D02*
X004442Y021675D01*
X004406Y021733D02*
X004781Y021733D01*
X004781Y021792D02*
X004347Y021792D01*
X004781Y021850D02*
X003418Y021850D01*
X003418Y021792D02*
X003683Y021792D01*
X003625Y021733D02*
X003418Y021733D01*
X003418Y021675D02*
X003589Y021675D01*
X003589Y021616D02*
X003418Y021616D01*
X003418Y021558D02*
X003589Y021558D01*
X003589Y021499D02*
X003418Y021499D01*
X003418Y021441D02*
X003589Y021441D01*
X003589Y021382D02*
X003418Y021382D01*
X003418Y021324D02*
X003589Y021324D01*
X003589Y021265D02*
X003418Y021265D01*
X003418Y021207D02*
X003589Y021207D01*
X003589Y021148D02*
X003418Y021148D01*
X003418Y021090D02*
X003589Y021090D01*
X003626Y021031D02*
X003418Y021031D01*
X003418Y020973D02*
X003684Y020973D01*
X003733Y020914D02*
X003418Y020914D01*
X003418Y020856D02*
X003666Y020856D01*
X003649Y020797D02*
X003418Y020797D01*
X003418Y020739D02*
X003649Y020739D01*
X003649Y020680D02*
X003418Y020680D01*
X003418Y020622D02*
X003649Y020622D01*
X003985Y020680D02*
X004045Y020680D01*
X004045Y020739D02*
X003985Y020739D01*
X003985Y020797D02*
X004045Y020797D01*
X004045Y020856D02*
X003985Y020856D01*
X003985Y020914D02*
X004045Y020914D01*
X004045Y020505D02*
X003985Y020505D01*
X003985Y020446D02*
X004045Y020446D01*
X004045Y020388D02*
X003985Y020388D01*
X003985Y020329D02*
X004045Y020329D01*
X004045Y020271D02*
X003985Y020271D01*
X003985Y020212D02*
X004045Y020212D01*
X003418Y021909D02*
X004781Y021909D01*
X004781Y021967D02*
X003419Y021967D01*
X003435Y022026D02*
X004781Y022026D01*
X004781Y022084D02*
X003470Y022084D01*
X003557Y022143D02*
X004797Y022143D01*
D12*
X005271Y022005D02*
X005271Y021405D01*
X006271Y021405D02*
X006271Y022005D01*
X007271Y022005D02*
X007271Y021405D01*
X008271Y021405D02*
X008271Y022005D01*
X009271Y022005D02*
X009271Y021405D01*
X010271Y021405D02*
X010271Y022005D01*
X011271Y022005D02*
X011271Y021405D01*
X012271Y021405D02*
X012271Y022005D01*
X013871Y022005D02*
X013871Y021405D01*
X014871Y021405D02*
X014871Y022005D01*
X015871Y022005D02*
X015871Y021405D01*
X016871Y021405D02*
X016871Y022005D01*
X017871Y022005D02*
X017871Y021405D01*
X018871Y021405D02*
X018871Y022005D01*
X019871Y022005D02*
X019871Y021405D01*
X020871Y021405D02*
X020871Y022005D01*
X017701Y013505D02*
X017101Y013505D01*
X017101Y012505D02*
X017701Y012505D01*
X017701Y011505D02*
X017101Y011505D01*
X016871Y003605D02*
X016871Y003005D01*
X017871Y003005D02*
X017871Y003605D01*
X018871Y003605D02*
X018871Y003005D01*
X019871Y003005D02*
X019871Y003605D01*
X020871Y003605D02*
X020871Y003005D01*
X015871Y003005D02*
X015871Y003605D01*
X013871Y003605D02*
X013871Y003005D01*
X012871Y003005D02*
X012871Y003605D01*
X011871Y003605D02*
X011871Y003005D01*
X010871Y003005D02*
X010871Y003605D01*
X009871Y003605D02*
X009871Y003005D01*
X008871Y003005D02*
X008871Y003605D01*
X009228Y017362D02*
X009228Y017962D01*
X008228Y017962D02*
X008228Y017362D01*
X007228Y017362D02*
X007228Y017962D01*
X006228Y017962D02*
X006228Y017362D01*
D13*
X017992Y016816D03*
X017992Y016068D03*
X017992Y018036D03*
X017992Y018784D03*
X019960Y018784D03*
X019960Y018036D03*
X021929Y018036D03*
X021929Y018784D03*
X021929Y016816D03*
X021929Y016068D03*
D14*
X019960Y016028D03*
X019960Y016855D03*
X004015Y020556D03*
X004015Y021383D03*
D15*
X020445Y013255D03*
X020445Y012255D03*
X021445Y012755D03*
X021445Y011755D03*
D16*
X014055Y012505D03*
X012086Y012505D03*
D17*
X012697Y015654D03*
X013445Y015654D03*
X008326Y014867D03*
X007578Y014867D03*
D18*
X010118Y008387D03*
X011102Y008387D03*
D19*
X011102Y007387D03*
X010118Y007387D03*
X010118Y006387D03*
X011102Y006387D03*
D20*
X005689Y006816D03*
X003917Y006816D03*
X003917Y003233D03*
X005689Y003233D03*
D21*
X006299Y008568D03*
X006299Y009946D03*
X006299Y011324D03*
X006299Y013391D03*
X006299Y014769D03*
D22*
X015826Y009961D03*
X015826Y008961D03*
X015826Y007961D03*
X015826Y006812D03*
X015826Y005812D03*
X015826Y004812D03*
X018582Y004812D03*
X018582Y005812D03*
X018582Y006812D03*
X018582Y007961D03*
X018582Y008961D03*
X018582Y009961D03*
X021338Y009961D03*
X021338Y008961D03*
X021338Y007961D03*
X021338Y006812D03*
X021338Y005812D03*
X021338Y004812D03*
D23*
X008385Y013312D03*
X008385Y014060D03*
X007519Y013686D03*
D24*
X006441Y019198D03*
X009100Y019533D03*
D25*
X008287Y019482D03*
X008261Y019649D03*
X008261Y019701D03*
X007977Y020192D03*
X007487Y020192D03*
X007487Y020230D03*
X007487Y020269D03*
X007487Y020321D03*
X007487Y020024D03*
X007487Y019985D03*
X007487Y019946D03*
X007487Y019779D03*
X007487Y019740D03*
X007487Y019701D03*
X007487Y019649D03*
X007487Y019533D03*
X007487Y019482D03*
X007487Y019443D03*
X007487Y019404D03*
X007487Y019236D03*
X007487Y019198D03*
X007267Y019198D03*
X007177Y019404D03*
X007177Y020192D03*
X007190Y020230D03*
X007203Y020269D03*
D26*
X007229Y020321D03*
X007138Y020024D03*
X007138Y019985D03*
X007138Y019946D03*
X007112Y019740D03*
X007125Y019701D03*
X007125Y019649D03*
X007138Y019533D03*
X007732Y020024D03*
X007745Y020192D03*
X007732Y020230D03*
X007719Y020269D03*
X008003Y020269D03*
X008016Y020321D03*
X007926Y019985D03*
X007913Y019740D03*
X007913Y019533D03*
X007913Y019482D03*
X007913Y019404D03*
X007913Y019198D03*
D27*
X008306Y019404D03*
X008397Y019198D03*
X007713Y019946D03*
X007726Y019985D03*
X007158Y019482D03*
D28*
X006377Y019482D03*
X006377Y019533D03*
X006377Y020024D03*
X009165Y019198D03*
D29*
X009107Y019495D03*
X009107Y019507D03*
X009107Y019546D03*
X006435Y019211D03*
X006435Y020424D03*
D30*
X007164Y020127D03*
X007164Y020101D03*
X007151Y020088D03*
X007151Y020075D03*
X007138Y020050D03*
X007151Y020037D03*
X007138Y019998D03*
X007138Y019972D03*
X007125Y019933D03*
X007125Y019895D03*
X007125Y019882D03*
X007125Y019727D03*
X007125Y019688D03*
X007125Y019675D03*
X007125Y019637D03*
X007125Y019624D03*
X007125Y019598D03*
X007138Y019585D03*
X007138Y019559D03*
X007138Y019546D03*
X007151Y019507D03*
X007151Y019495D03*
X007164Y019456D03*
X007216Y019301D03*
X007229Y019262D03*
X007241Y019249D03*
X007254Y019211D03*
X007706Y019920D03*
X007719Y019933D03*
X007732Y019972D03*
X007732Y019998D03*
X007745Y020037D03*
X007745Y020075D03*
X007745Y020088D03*
X007745Y020101D03*
X007745Y020127D03*
X007745Y020140D03*
X007745Y020166D03*
X007719Y020295D03*
X008003Y020295D03*
X008029Y020346D03*
X008042Y020385D03*
X007939Y020050D03*
X007926Y019882D03*
X007913Y019688D03*
X007913Y019637D03*
X007913Y019585D03*
X007913Y019559D03*
X007913Y019507D03*
X007913Y019456D03*
X007913Y019430D03*
X007913Y019378D03*
X007913Y019353D03*
X007913Y019301D03*
X007913Y019249D03*
X008313Y019391D03*
X008326Y019353D03*
X008339Y019314D03*
X008390Y019211D03*
X008300Y019430D03*
X008300Y019456D03*
X007216Y020282D03*
X007229Y020334D03*
X007254Y020385D03*
D31*
X007267Y020411D03*
X007487Y020411D03*
X007487Y020424D03*
X007487Y020385D03*
X007487Y020372D03*
X007487Y020346D03*
X007487Y020334D03*
X007487Y020295D03*
X007487Y020282D03*
X007487Y020243D03*
X007487Y020217D03*
X007487Y020179D03*
X007487Y020166D03*
X007487Y020140D03*
X007487Y020127D03*
X007487Y020101D03*
X007487Y020088D03*
X007487Y020075D03*
X007487Y020050D03*
X007487Y020037D03*
X007487Y019998D03*
X007487Y019972D03*
X007487Y019933D03*
X007487Y019920D03*
X007487Y019895D03*
X007487Y019882D03*
X007487Y019869D03*
X007487Y019843D03*
X007487Y019830D03*
X007487Y019804D03*
X007487Y019791D03*
X007487Y019753D03*
X007487Y019727D03*
X007487Y019688D03*
X007487Y019675D03*
X007487Y019637D03*
X007487Y019624D03*
X007487Y019598D03*
X007487Y019585D03*
X007487Y019559D03*
X007487Y019546D03*
X007487Y019507D03*
X007487Y019495D03*
X007487Y019456D03*
X007487Y019430D03*
X007487Y019391D03*
X007487Y019378D03*
X007487Y019353D03*
X007487Y019340D03*
X007487Y019314D03*
X007487Y019301D03*
X007487Y019288D03*
X007487Y019262D03*
X007487Y019249D03*
X007487Y019211D03*
X007203Y019314D03*
X007203Y019340D03*
X007190Y019353D03*
X007190Y019378D03*
X007177Y019391D03*
X007667Y019830D03*
X007693Y019882D03*
X007964Y020166D03*
X007964Y020179D03*
X007977Y020217D03*
X007693Y020346D03*
X007177Y020179D03*
X007177Y020166D03*
X007177Y020140D03*
X008261Y019675D03*
X008274Y019585D03*
X008274Y019559D03*
X008287Y019495D03*
X008364Y019262D03*
D32*
X007919Y019262D03*
X007919Y019288D03*
X007919Y019314D03*
X007919Y019340D03*
X007919Y019391D03*
X007919Y019495D03*
X007919Y019546D03*
X007919Y019598D03*
X007919Y019624D03*
X007919Y019675D03*
X007919Y019727D03*
X007919Y019895D03*
X007919Y019920D03*
X007919Y019933D03*
X007932Y019998D03*
X007945Y020075D03*
X007945Y020088D03*
X007958Y020127D03*
X007958Y020140D03*
X007648Y019804D03*
X007919Y019211D03*
X007222Y019288D03*
X007209Y020295D03*
X007235Y020346D03*
X007248Y020372D03*
D33*
X006383Y020140D03*
X006383Y020101D03*
X006383Y020088D03*
X006383Y019495D03*
X006383Y019456D03*
X009158Y019211D03*
D34*
X009113Y019469D03*
X006428Y019223D03*
D35*
X007158Y019469D03*
X007248Y019223D03*
X007738Y020011D03*
X007726Y020256D03*
D36*
X007487Y020256D03*
X007487Y020204D03*
X007487Y020308D03*
X007487Y020011D03*
X007487Y019959D03*
X007487Y019766D03*
X007487Y019714D03*
X007487Y019662D03*
X007487Y019520D03*
X007487Y019469D03*
X007487Y019417D03*
X007487Y019223D03*
X007177Y019417D03*
X007990Y020256D03*
X008287Y019469D03*
D37*
X008313Y019417D03*
X007913Y019223D03*
X007913Y019662D03*
X007913Y019714D03*
X007926Y019959D03*
X007719Y019959D03*
X007732Y020204D03*
X007706Y020308D03*
X008016Y020308D03*
X007216Y020308D03*
X007138Y020011D03*
X007125Y019959D03*
X007112Y019714D03*
X007125Y019662D03*
X007151Y019520D03*
D38*
X008390Y019223D03*
D39*
X009152Y019223D03*
X006390Y019417D03*
D40*
X006422Y019236D03*
X009120Y019443D03*
D41*
X007919Y019443D03*
X007919Y019649D03*
X007919Y019701D03*
X007932Y020024D03*
X007919Y019236D03*
X007248Y019236D03*
D42*
X007170Y019443D03*
X007700Y020321D03*
X007984Y020230D03*
X008294Y019443D03*
X008384Y019236D03*
D43*
X009158Y019236D03*
X006383Y019443D03*
D44*
X006422Y019262D03*
X006422Y019249D03*
X006422Y020334D03*
X006422Y020346D03*
X009120Y019430D03*
D45*
X008371Y019249D03*
X008358Y019288D03*
X008345Y019301D03*
X007674Y019843D03*
X007687Y019869D03*
X007700Y019895D03*
X007700Y020334D03*
X007687Y020372D03*
X007674Y020385D03*
X007661Y020411D03*
X007997Y020282D03*
X007984Y020243D03*
X008061Y020424D03*
X007170Y019430D03*
D46*
X006390Y019430D03*
X006390Y020127D03*
X006390Y020166D03*
X006390Y020179D03*
X009152Y019249D03*
D47*
X009145Y019262D03*
X009145Y019288D03*
X006396Y019378D03*
X006396Y019391D03*
X006396Y020217D03*
D48*
X006415Y019275D03*
D49*
X007138Y019572D03*
X007138Y019611D03*
X007125Y019908D03*
X007151Y020062D03*
X007164Y020114D03*
X007241Y020359D03*
X007254Y020398D03*
X007745Y020114D03*
X007745Y020062D03*
X007706Y019908D03*
X007655Y019817D03*
X007913Y019611D03*
X007913Y019327D03*
X007913Y019275D03*
X007216Y019275D03*
D50*
X007203Y019327D03*
X007487Y019327D03*
X007487Y019365D03*
X007487Y019275D03*
X007487Y019572D03*
X007487Y019611D03*
X007487Y019817D03*
X007487Y019856D03*
X007487Y019908D03*
X007487Y020062D03*
X007487Y020114D03*
X007487Y020153D03*
X007487Y020359D03*
X007487Y020398D03*
X007667Y020398D03*
X007964Y020153D03*
X008055Y020398D03*
X007680Y019856D03*
D51*
X007687Y020359D03*
X007170Y020153D03*
X008358Y019275D03*
D52*
X009139Y019275D03*
X009139Y019327D03*
X006402Y019327D03*
D53*
X006409Y019314D03*
X006409Y019288D03*
X006409Y020295D03*
X009133Y019353D03*
X009133Y019340D03*
D54*
X006415Y019301D03*
X006415Y020282D03*
D55*
X006402Y020243D03*
X006402Y019353D03*
X006402Y019340D03*
X009139Y019314D03*
X009139Y019301D03*
D56*
X008339Y019327D03*
D57*
X008332Y019340D03*
X008319Y019378D03*
X007738Y020050D03*
X007738Y020179D03*
X007738Y020217D03*
X007726Y020243D03*
X007648Y020424D03*
X008022Y020334D03*
X008035Y020372D03*
X007132Y019920D03*
D58*
X006396Y019365D03*
D59*
X007183Y019365D03*
X008268Y019611D03*
X008255Y019817D03*
X008255Y019856D03*
X008255Y019908D03*
X008255Y020062D03*
X008255Y020114D03*
X008255Y020153D03*
X008255Y020359D03*
X008255Y020398D03*
D60*
X007958Y020114D03*
X007919Y019908D03*
X007919Y019572D03*
X007919Y019365D03*
D61*
X008319Y019365D03*
X007738Y020153D03*
X008035Y020359D03*
D62*
X009133Y019365D03*
D63*
X009126Y019378D03*
X009126Y019391D03*
D64*
X006390Y019404D03*
D65*
X009126Y019404D03*
D66*
X007919Y019417D03*
X007919Y019469D03*
X007919Y019520D03*
X007932Y020011D03*
D67*
X009120Y019417D03*
D68*
X009113Y019456D03*
X006428Y020372D03*
X006428Y020385D03*
D69*
X006383Y019469D03*
D70*
X009113Y019482D03*
D71*
X006377Y019507D03*
X006377Y019559D03*
X006377Y019998D03*
X006377Y020037D03*
X006377Y020050D03*
X006377Y020075D03*
D72*
X007183Y020217D03*
X007196Y020243D03*
X007274Y020424D03*
X008255Y020424D03*
X008255Y020411D03*
X008255Y020385D03*
X008255Y020372D03*
X008255Y020346D03*
X008255Y020334D03*
X008255Y020295D03*
X008255Y020282D03*
X008255Y020243D03*
X008255Y020217D03*
X008255Y020179D03*
X008255Y020166D03*
X008255Y020140D03*
X008255Y020127D03*
X008255Y020101D03*
X008255Y020088D03*
X008255Y020075D03*
X008255Y020050D03*
X008255Y020037D03*
X008255Y019998D03*
X008255Y019972D03*
X008255Y019933D03*
X008255Y019920D03*
X008255Y019895D03*
X008255Y019882D03*
X008255Y019869D03*
X008255Y019843D03*
X008255Y019830D03*
X008255Y019804D03*
X008255Y019791D03*
X008255Y019753D03*
X008255Y019727D03*
X008268Y019637D03*
X008268Y019624D03*
X008268Y019598D03*
X008281Y019546D03*
X008281Y019507D03*
D73*
X006377Y019520D03*
D74*
X007183Y020204D03*
X007196Y020256D03*
X008255Y020256D03*
X008255Y020204D03*
X008255Y020308D03*
X008255Y020011D03*
X008255Y019959D03*
X008255Y019766D03*
X008255Y019714D03*
X008281Y019520D03*
D75*
X009107Y019520D03*
D76*
X008281Y019533D03*
X008255Y019740D03*
X008255Y019779D03*
X008255Y019946D03*
X008255Y019985D03*
X008255Y020024D03*
X008255Y020192D03*
X008255Y020230D03*
X008255Y020269D03*
X008255Y020321D03*
D77*
X006370Y019972D03*
X006370Y019933D03*
X006370Y019882D03*
X006370Y019675D03*
X006370Y019624D03*
X006370Y019598D03*
X006370Y019585D03*
X006370Y019546D03*
D78*
X006441Y020411D03*
X009100Y019637D03*
X009100Y019598D03*
X009100Y019585D03*
X009100Y019559D03*
D79*
X006370Y019572D03*
X006370Y019611D03*
X006370Y019908D03*
D80*
X008274Y019572D03*
D81*
X009100Y019572D03*
X009100Y019611D03*
D82*
X009094Y019624D03*
X009094Y019675D03*
X009094Y019688D03*
X009094Y019727D03*
X009094Y019753D03*
X009094Y019791D03*
X009094Y019804D03*
X009094Y019830D03*
X009094Y019843D03*
X009094Y019869D03*
X009094Y019882D03*
X009094Y019895D03*
X009094Y019920D03*
X009094Y019933D03*
X009094Y019972D03*
X009094Y019998D03*
X009094Y020037D03*
X009094Y020050D03*
X009094Y020075D03*
X009094Y020088D03*
X009094Y020101D03*
X009094Y020127D03*
X009094Y020140D03*
X009094Y020166D03*
X009094Y020179D03*
X009094Y020217D03*
X009094Y020243D03*
X009094Y020295D03*
X009094Y020346D03*
X009094Y020372D03*
X009094Y020424D03*
D83*
X006364Y019920D03*
X006364Y019895D03*
X006364Y019869D03*
X006364Y019843D03*
X006364Y019830D03*
X006364Y019804D03*
X006364Y019791D03*
X006364Y019753D03*
X006364Y019727D03*
X006364Y019688D03*
X006364Y019637D03*
D84*
X006370Y019649D03*
X006370Y019946D03*
X006370Y019985D03*
D85*
X009094Y019985D03*
X009094Y019946D03*
X009094Y020024D03*
X009094Y020192D03*
X009094Y020269D03*
X009094Y020321D03*
X009094Y019779D03*
X009094Y019740D03*
X009094Y019701D03*
X009094Y019649D03*
D86*
X006364Y019662D03*
X006364Y019714D03*
X006364Y019766D03*
D87*
X008261Y019662D03*
D88*
X009094Y019662D03*
X009094Y019714D03*
X009094Y019766D03*
X009094Y019959D03*
X009094Y020011D03*
D89*
X008261Y019688D03*
D90*
X006364Y019701D03*
X006364Y019740D03*
X006364Y019779D03*
D91*
X008106Y019740D03*
D92*
X007190Y019753D03*
X007190Y019804D03*
X007190Y019830D03*
X007190Y019869D03*
D93*
X007990Y019830D03*
X007990Y019804D03*
X007990Y019753D03*
D94*
X007183Y019766D03*
D95*
X007984Y019766D03*
D96*
X007190Y019779D03*
D97*
X007990Y019779D03*
D98*
X007183Y019791D03*
X007183Y019843D03*
D99*
X007984Y019843D03*
X007984Y019869D03*
X007984Y019791D03*
D100*
X006364Y019817D03*
X006364Y019856D03*
D101*
X007183Y019817D03*
D102*
X007984Y019817D03*
D103*
X009094Y019817D03*
X009094Y019856D03*
X009094Y019908D03*
X009094Y020062D03*
X009094Y020114D03*
X009094Y020153D03*
X009094Y020398D03*
D104*
X007190Y019856D03*
D105*
X007990Y019856D03*
D106*
X008016Y019882D03*
X008042Y019882D03*
X008068Y019882D03*
X008093Y019882D03*
X007319Y019882D03*
X007293Y019882D03*
X007267Y019882D03*
X007216Y019882D03*
D107*
X007241Y019882D03*
D108*
X007926Y019946D03*
D109*
X006370Y019959D03*
X006370Y020011D03*
D110*
X007926Y019972D03*
X007939Y020037D03*
X007951Y020101D03*
D111*
X006377Y020062D03*
D112*
X007939Y020062D03*
D113*
X006383Y020114D03*
D114*
X006390Y020153D03*
D115*
X006396Y020192D03*
D116*
X006402Y020204D03*
X006402Y020256D03*
D117*
X007971Y020204D03*
D118*
X009087Y020204D03*
X009087Y020256D03*
X009087Y020308D03*
D119*
X006402Y020230D03*
D120*
X009087Y020230D03*
D121*
X006409Y020269D03*
D122*
X007719Y020282D03*
D123*
X009087Y020282D03*
X009087Y020334D03*
X009087Y020385D03*
X009087Y020411D03*
D124*
X006415Y020308D03*
D125*
X006415Y020321D03*
D126*
X006428Y020359D03*
D127*
X009087Y020359D03*
D128*
X006435Y020398D03*
D129*
X008055Y020411D03*
D130*
X004015Y021363D03*
X003622Y021954D03*
X008346Y014867D03*
X009272Y014473D03*
X011889Y011324D03*
X012028Y010339D03*
X012480Y009946D03*
X011693Y009355D03*
X013012Y011127D03*
X013760Y014670D03*
X014547Y015261D03*
X015039Y015851D03*
X014941Y016442D03*
X017992Y018017D03*
X017401Y019788D03*
X019350Y019788D03*
X021871Y021166D03*
X021929Y016816D03*
X013071Y021954D03*
X009035Y007977D03*
X009413Y004237D03*
X007952Y003056D03*
X005063Y005024D03*
X003917Y005024D03*
X014891Y003056D03*
X022519Y003056D03*
D131*
X022126Y004260D02*
X022126Y007174D01*
X021338Y007961D01*
X019370Y007174D02*
X018582Y007961D01*
X019370Y007174D02*
X019370Y004631D01*
X018871Y004131D01*
X018871Y003005D01*
X019871Y003005D02*
X019871Y003950D01*
X020732Y004812D01*
X021338Y004812D01*
X022126Y004260D02*
X020871Y003005D01*
X018582Y004812D02*
X017871Y004100D01*
X017871Y003005D01*
X016871Y003005D02*
X016871Y006917D01*
X015826Y007961D01*
X015826Y004812D02*
X015871Y004768D01*
X015871Y003005D01*
X012677Y008371D02*
X011102Y008387D01*
X010693Y008961D02*
X012677Y008961D01*
X015826Y012111D01*
X015826Y020261D01*
X014871Y021217D01*
X014871Y022005D01*
X013871Y022005D02*
X013871Y021520D01*
X015433Y019957D01*
X015433Y012308D01*
X012480Y009355D01*
X011693Y009355D01*
X012677Y008371D02*
X016220Y011914D01*
X016220Y020556D01*
X015871Y020906D01*
X015871Y022005D01*
X016871Y022005D02*
X016871Y021020D01*
X017992Y019898D01*
X017992Y018784D01*
X017992Y018036D02*
X017992Y018017D01*
X017992Y016816D01*
X019960Y016855D02*
X019960Y018036D01*
X019960Y018784D02*
X019960Y019178D01*
X019350Y019788D01*
X019118Y020272D02*
X020059Y020272D01*
X020551Y019780D01*
X020551Y013361D01*
X020445Y013255D01*
X020945Y012755D02*
X020445Y012255D01*
X020945Y012755D02*
X020945Y019912D01*
X020195Y020662D01*
X019728Y020662D01*
X018871Y021520D01*
X018871Y022005D01*
X019871Y022005D02*
X019871Y021453D01*
X021929Y019394D01*
X021929Y018784D01*
X021929Y018036D02*
X021929Y016816D01*
X019118Y020272D02*
X017871Y021520D01*
X017871Y022005D01*
X012283Y021992D02*
X012283Y021560D01*
X011693Y020969D01*
X011693Y016658D01*
X012697Y015654D01*
X013445Y015654D02*
X014645Y014454D01*
X014645Y013095D01*
X014055Y012505D01*
X011271Y015429D02*
X009153Y013312D01*
X008385Y013312D01*
X008346Y014867D02*
X008326Y014867D01*
X007578Y014867D02*
X006397Y014867D01*
X006299Y014769D01*
X011271Y015429D02*
X011271Y022005D01*
X012271Y022005D02*
X012283Y021992D01*
X004015Y021383D02*
X004015Y021363D01*
X010693Y008961D02*
X010118Y008387D01*
X008858Y007387D02*
X008740Y007387D01*
X008405Y007721D01*
X008405Y007839D01*
X003917Y006816D02*
X003917Y005024D01*
X003917Y003233D01*
D132*
X008405Y007839D02*
X008858Y007387D01*
X011102Y007387D01*
X011496Y007387D02*
X011889Y007780D01*
X012775Y007780D01*
X013956Y008961D01*
X015826Y008961D01*
X011889Y006993D02*
X011889Y006074D01*
X010871Y005055D01*
X010871Y003005D01*
X011889Y006993D02*
X011496Y007387D01*
X008405Y007839D02*
X006299Y009946D01*
D133*
X005197Y011048D01*
X005197Y013666D01*
X006299Y014769D01*
X006594Y013686D02*
X007519Y013686D01*
X006594Y013686D02*
X006299Y013391D01*
X006299Y011324D02*
X011889Y011324D01*
X011496Y007387D02*
X011102Y007387D01*
X010118Y007387D01*
D134*
X012480Y009946D02*
X015039Y012505D01*
X015039Y015851D01*
M02*
