G75*
%MOIN*%
%OFA0B0*%
%FSLAX24Y24*%
%IPPOS*%
%LPD*%
%AMOC8*
5,1,8,0,0,1.08239X$1,22.5*
%
%ADD10C,0.0000*%
%ADD11C,0.0060*%
%ADD12R,0.0354X0.0394*%
%ADD13R,0.0394X0.0354*%
%ADD14C,0.0600*%
%ADD15C,0.0520*%
%ADD16OC8,0.0630*%
%ADD17R,0.0600X0.0600*%
%ADD18C,0.0600*%
%ADD19R,0.0512X0.0591*%
%ADD20R,0.0480X0.0630*%
%ADD21OC8,0.0827*%
%ADD22R,0.0591X0.0512*%
%ADD23OC8,0.0602*%
%ADD24R,0.0472X0.0472*%
%ADD25OC8,0.0356*%
%ADD26C,0.0400*%
%ADD27C,0.0160*%
%ADD28C,0.0320*%
%ADD29C,0.0240*%
D10*
X003228Y003056D02*
X003228Y021954D01*
X003230Y021993D01*
X003236Y022031D01*
X003245Y022068D01*
X003258Y022105D01*
X003275Y022140D01*
X003294Y022173D01*
X003317Y022204D01*
X003343Y022233D01*
X003372Y022259D01*
X003403Y022282D01*
X003436Y022301D01*
X003471Y022318D01*
X003508Y022331D01*
X003545Y022340D01*
X003583Y022346D01*
X003622Y022348D01*
X003622Y022347D02*
X022519Y022347D01*
X022519Y022348D02*
X022558Y022346D01*
X022596Y022340D01*
X022633Y022331D01*
X022670Y022318D01*
X022705Y022301D01*
X022738Y022282D01*
X022769Y022259D01*
X022798Y022233D01*
X022824Y022204D01*
X022847Y022173D01*
X022866Y022140D01*
X022883Y022105D01*
X022896Y022068D01*
X022905Y022031D01*
X022911Y021993D01*
X022913Y021954D01*
X022913Y003056D01*
X022911Y003017D01*
X022905Y002979D01*
X022896Y002942D01*
X022883Y002905D01*
X022866Y002870D01*
X022847Y002837D01*
X022824Y002806D01*
X022798Y002777D01*
X022769Y002751D01*
X022738Y002728D01*
X022705Y002709D01*
X022670Y002692D01*
X022633Y002679D01*
X022596Y002670D01*
X022558Y002664D01*
X022519Y002662D01*
X003622Y002662D01*
X003583Y002664D01*
X003545Y002670D01*
X003508Y002679D01*
X003471Y002692D01*
X003436Y002709D01*
X003403Y002728D01*
X003372Y002751D01*
X003343Y002777D01*
X003317Y002806D01*
X003294Y002837D01*
X003275Y002870D01*
X003258Y002905D01*
X003245Y002942D01*
X003236Y002979D01*
X003230Y003017D01*
X003228Y003056D01*
X020441Y011204D02*
X020443Y011238D01*
X020449Y011272D01*
X020459Y011305D01*
X020472Y011336D01*
X020490Y011366D01*
X020510Y011394D01*
X020534Y011419D01*
X020560Y011441D01*
X020588Y011459D01*
X020619Y011475D01*
X020651Y011487D01*
X020685Y011495D01*
X020719Y011499D01*
X020753Y011499D01*
X020787Y011495D01*
X020821Y011487D01*
X020853Y011475D01*
X020883Y011459D01*
X020912Y011441D01*
X020938Y011419D01*
X020962Y011394D01*
X020982Y011366D01*
X021000Y011336D01*
X021013Y011305D01*
X021023Y011272D01*
X021029Y011238D01*
X021031Y011204D01*
X021029Y011170D01*
X021023Y011136D01*
X021013Y011103D01*
X021000Y011072D01*
X020982Y011042D01*
X020962Y011014D01*
X020938Y010989D01*
X020912Y010967D01*
X020884Y010949D01*
X020853Y010933D01*
X020821Y010921D01*
X020787Y010913D01*
X020753Y010909D01*
X020719Y010909D01*
X020685Y010913D01*
X020651Y010921D01*
X020619Y010933D01*
X020588Y010949D01*
X020560Y010967D01*
X020534Y010989D01*
X020510Y011014D01*
X020490Y011042D01*
X020472Y011072D01*
X020459Y011103D01*
X020449Y011136D01*
X020443Y011170D01*
X020441Y011204D01*
D11*
X020264Y011075D02*
X020324Y010929D01*
X020461Y010792D01*
X020639Y010718D01*
X020832Y010718D01*
X021011Y010792D01*
X021147Y010929D01*
X021221Y011107D01*
X021221Y011300D01*
X021191Y011373D01*
X021355Y011305D01*
X021534Y011305D01*
X021699Y011373D01*
X021826Y011500D01*
X021895Y011665D01*
X021895Y011844D01*
X021826Y012010D01*
X021699Y012136D01*
X021534Y012205D01*
X021355Y012205D01*
X021190Y012136D01*
X021078Y012025D01*
X020836Y012025D01*
X020895Y012165D01*
X020895Y012344D01*
X020826Y012510D01*
X020699Y012636D01*
X020534Y012705D01*
X020355Y012705D01*
X020190Y012636D01*
X020063Y012510D01*
X019995Y012344D01*
X019995Y012187D01*
X019992Y012184D01*
X019796Y012184D01*
X019796Y012288D01*
X019685Y012399D01*
X019015Y012399D01*
X018976Y012360D01*
X018937Y012399D01*
X018872Y012399D01*
X018872Y012610D01*
X018937Y012610D01*
X018976Y012649D01*
X019015Y012610D01*
X019685Y012610D01*
X019796Y012721D01*
X019796Y012825D01*
X020305Y012825D01*
X020355Y012805D01*
X020534Y012805D01*
X020699Y012873D01*
X020826Y013000D01*
X020895Y013165D01*
X020895Y013344D01*
X020826Y013510D01*
X020699Y013636D01*
X020534Y013705D01*
X020355Y013705D01*
X020190Y013636D01*
X020063Y013510D01*
X020003Y013365D01*
X019796Y013365D01*
X019796Y013469D01*
X019685Y013581D01*
X019015Y013581D01*
X018976Y013541D01*
X018937Y013581D01*
X018267Y013581D01*
X018191Y013504D01*
X018191Y013602D01*
X018117Y013782D01*
X017979Y013920D01*
X017799Y013995D01*
X017350Y013995D01*
X015407Y015937D01*
X015407Y016004D01*
X015192Y016219D01*
X014887Y016219D01*
X014828Y016161D01*
X013233Y016161D01*
X013119Y016114D01*
X013032Y016027D01*
X012985Y015913D01*
X012985Y015704D01*
X012956Y015675D01*
X012932Y015689D01*
X012899Y015698D01*
X012734Y015698D01*
X012734Y015401D01*
X012674Y015401D01*
X012674Y015341D01*
X012397Y015341D01*
X012397Y015157D01*
X012406Y015124D01*
X012423Y015094D01*
X012447Y015070D01*
X012477Y015053D01*
X012510Y015044D01*
X012674Y015044D01*
X012674Y015341D01*
X012734Y015341D01*
X012734Y015044D01*
X012899Y015044D01*
X012932Y015053D01*
X012956Y015067D01*
X013039Y014984D01*
X013551Y014984D01*
X013662Y015095D01*
X013662Y015541D01*
X014828Y015541D01*
X014887Y015483D01*
X014984Y015483D01*
X016035Y014432D01*
X010340Y014432D01*
X007656Y017116D01*
X007718Y017265D01*
X007718Y018060D01*
X007643Y018240D01*
X007506Y018378D01*
X007325Y018452D01*
X007131Y018452D01*
X006950Y018378D01*
X006813Y018240D01*
X006738Y018060D01*
X006738Y017265D01*
X006813Y017085D01*
X006950Y016947D01*
X007131Y016872D01*
X007136Y016872D01*
X010075Y013933D01*
X010174Y013892D01*
X016116Y013892D01*
X016208Y013800D01*
X016208Y013108D01*
X016249Y013009D01*
X016624Y012634D01*
X016611Y012602D01*
X016611Y012407D01*
X016686Y012227D01*
X016824Y012089D01*
X017004Y012015D01*
X017799Y012015D01*
X017979Y012089D01*
X018117Y012227D01*
X018120Y012235D01*
X018156Y012235D01*
X018156Y011687D01*
X018117Y011782D01*
X017979Y011920D01*
X017799Y011995D01*
X017004Y011995D01*
X016824Y011920D01*
X016686Y011782D01*
X016611Y011602D01*
X016611Y011407D01*
X016686Y011227D01*
X016824Y011089D01*
X017004Y011015D01*
X017131Y011015D01*
X017131Y009351D01*
X016131Y009351D01*
X016030Y009453D01*
X015623Y009453D01*
X015335Y009165D01*
X015335Y008758D01*
X015623Y008470D01*
X016030Y008470D01*
X016131Y008571D01*
X018278Y008571D01*
X016130Y008571D01*
X016072Y008512D02*
X018337Y008512D01*
X018379Y008470D02*
X018278Y008571D01*
X018379Y008470D02*
X018786Y008470D01*
X018887Y008571D01*
X021034Y008571D01*
X018886Y008571D01*
X018828Y008512D02*
X021093Y008512D01*
X021135Y008470D02*
X021278Y008470D01*
X021296Y008453D01*
X021135Y008453D01*
X020847Y008165D01*
X020847Y007758D01*
X021135Y007470D01*
X021542Y007470D01*
X021736Y007664D01*
X021736Y007024D01*
X021517Y007243D01*
X021368Y007243D01*
X021368Y006842D01*
X021308Y006842D01*
X021308Y006782D01*
X020907Y006782D01*
X020907Y006633D01*
X021160Y006381D01*
X021308Y006381D01*
X021308Y006782D01*
X021368Y006782D01*
X021368Y006381D01*
X021396Y006381D01*
X021307Y006303D01*
X021135Y006303D01*
X021034Y006202D01*
X018887Y006202D01*
X018786Y006303D01*
X018379Y006303D01*
X018278Y006202D01*
X016131Y006202D01*
X016030Y006303D01*
X015623Y006303D01*
X015335Y006015D01*
X015335Y005608D01*
X015623Y005321D01*
X016030Y005321D01*
X016131Y005422D01*
X018278Y005422D01*
X018379Y005321D01*
X018786Y005321D01*
X018887Y005422D01*
X021034Y005422D01*
X021135Y005321D01*
X021542Y005321D01*
X021829Y005608D01*
X021829Y005723D01*
X022334Y006165D01*
X022347Y006170D01*
X022392Y006216D01*
X022441Y006258D01*
X022447Y006270D01*
X022456Y006280D01*
X022481Y006340D01*
X022510Y006397D01*
X022511Y006411D01*
X022516Y006423D01*
X022516Y006488D01*
X022520Y006552D01*
X022516Y006565D01*
X022516Y008252D01*
X022456Y008395D01*
X022723Y008395D01*
X022723Y008337D02*
X022480Y008337D01*
X022456Y008395D02*
X022347Y008505D01*
X021829Y009022D01*
X021829Y009165D01*
X021542Y009453D01*
X021135Y009453D01*
X021034Y009351D01*
X018887Y009351D01*
X018786Y009453D01*
X018379Y009453D01*
X018278Y009351D01*
X017671Y009351D01*
X017671Y011015D01*
X017799Y011015D01*
X017979Y011089D01*
X018117Y011227D01*
X018191Y011407D01*
X018191Y011505D01*
X018267Y011429D01*
X018332Y011429D01*
X018332Y011270D01*
X018373Y011171D01*
X018449Y011095D01*
X018548Y011054D01*
X020211Y011054D01*
X020264Y011075D01*
X020283Y011028D02*
X017830Y011028D01*
X017971Y011086D02*
X018470Y011086D01*
X018399Y011145D02*
X018034Y011145D01*
X018093Y011203D02*
X018360Y011203D01*
X018335Y011262D02*
X018131Y011262D01*
X018155Y011320D02*
X018332Y011320D01*
X018332Y011379D02*
X018179Y011379D01*
X018191Y011437D02*
X018259Y011437D01*
X018201Y011496D02*
X018191Y011496D01*
X018156Y011730D02*
X018138Y011730D01*
X018156Y011788D02*
X018111Y011788D01*
X018156Y011847D02*
X018052Y011847D01*
X017994Y011905D02*
X018156Y011905D01*
X018156Y011964D02*
X017874Y011964D01*
X017817Y012022D02*
X018156Y012022D01*
X018156Y012081D02*
X017958Y012081D01*
X018029Y012139D02*
X018156Y012139D01*
X018156Y012198D02*
X018087Y012198D01*
X018872Y012432D02*
X020031Y012432D01*
X020055Y012490D02*
X018872Y012490D01*
X018872Y012549D02*
X020102Y012549D01*
X020161Y012607D02*
X018872Y012607D01*
X018963Y012373D02*
X018989Y012373D01*
X019711Y012373D02*
X020007Y012373D01*
X019995Y012315D02*
X019769Y012315D01*
X019796Y012256D02*
X019995Y012256D01*
X019995Y012198D02*
X019796Y012198D01*
X019740Y012666D02*
X020261Y012666D01*
X020628Y012666D02*
X021065Y012666D01*
X021070Y012641D02*
X021099Y012570D01*
X021142Y012506D01*
X021196Y012452D01*
X021260Y012409D01*
X021331Y012380D01*
X021406Y012365D01*
X021415Y012365D01*
X021415Y012725D01*
X021475Y012725D01*
X021475Y012785D01*
X021835Y012785D01*
X021835Y012793D01*
X021820Y012868D01*
X021790Y012939D01*
X021747Y013003D01*
X021693Y013058D01*
X021629Y013100D01*
X021558Y013130D01*
X021483Y013145D01*
X021475Y013145D01*
X021475Y012785D01*
X021415Y012785D01*
X021415Y013145D01*
X021406Y013145D01*
X021331Y013130D01*
X021260Y013100D01*
X021196Y013058D01*
X021142Y013003D01*
X021099Y012939D01*
X021070Y012868D01*
X021055Y012793D01*
X021055Y012785D01*
X021415Y012785D01*
X021415Y012725D01*
X021055Y012725D01*
X021055Y012716D01*
X021070Y012641D01*
X021084Y012607D02*
X020728Y012607D01*
X020787Y012549D02*
X021113Y012549D01*
X021157Y012490D02*
X020834Y012490D01*
X020858Y012432D02*
X021226Y012432D01*
X021363Y012373D02*
X020883Y012373D01*
X020895Y012315D02*
X022723Y012315D01*
X022723Y012373D02*
X021526Y012373D01*
X021558Y012380D02*
X021629Y012409D01*
X021693Y012452D01*
X021747Y012506D01*
X021790Y012570D01*
X021820Y012641D01*
X021835Y012716D01*
X021835Y012725D01*
X021475Y012725D01*
X021475Y012365D01*
X021483Y012365D01*
X021558Y012380D01*
X021475Y012373D02*
X021415Y012373D01*
X021415Y012432D02*
X021475Y012432D01*
X021475Y012490D02*
X021415Y012490D01*
X021415Y012549D02*
X021475Y012549D01*
X021475Y012607D02*
X021415Y012607D01*
X021415Y012666D02*
X021475Y012666D01*
X021475Y012724D02*
X021415Y012724D01*
X021415Y012783D02*
X019796Y012783D01*
X019796Y012724D02*
X021055Y012724D01*
X021064Y012841D02*
X020622Y012841D01*
X020726Y012900D02*
X021082Y012900D01*
X021111Y012958D02*
X020784Y012958D01*
X020833Y013017D02*
X021155Y013017D01*
X021222Y013075D02*
X020857Y013075D01*
X020882Y013134D02*
X021351Y013134D01*
X021415Y013134D02*
X021475Y013134D01*
X021475Y013075D02*
X021415Y013075D01*
X021415Y013017D02*
X021475Y013017D01*
X021475Y012958D02*
X021415Y012958D01*
X021415Y012900D02*
X021475Y012900D01*
X021475Y012841D02*
X021415Y012841D01*
X021475Y012783D02*
X022723Y012783D01*
X022723Y012841D02*
X021825Y012841D01*
X021807Y012900D02*
X022723Y012900D01*
X022723Y012958D02*
X021778Y012958D01*
X021734Y013017D02*
X022723Y013017D01*
X022723Y013075D02*
X021667Y013075D01*
X021538Y013134D02*
X022723Y013134D01*
X022723Y013192D02*
X020895Y013192D01*
X020895Y013251D02*
X022723Y013251D01*
X022723Y013309D02*
X020895Y013309D01*
X020885Y013368D02*
X022723Y013368D01*
X022723Y013426D02*
X020861Y013426D01*
X020836Y013485D02*
X022723Y013485D01*
X022723Y013543D02*
X020792Y013543D01*
X020734Y013602D02*
X022723Y013602D01*
X022723Y013660D02*
X020641Y013660D01*
X020248Y013660D02*
X018167Y013660D01*
X018191Y013602D02*
X020155Y013602D01*
X020097Y013543D02*
X019722Y013543D01*
X019780Y013485D02*
X020053Y013485D01*
X020029Y013426D02*
X019796Y013426D01*
X019796Y013368D02*
X020004Y013368D01*
X018978Y013543D02*
X018974Y013543D01*
X018230Y013543D02*
X018191Y013543D01*
X018143Y013719D02*
X022723Y013719D01*
X022723Y013777D02*
X018119Y013777D01*
X018063Y013836D02*
X022723Y013836D01*
X022723Y013894D02*
X018005Y013894D01*
X017900Y013953D02*
X022723Y013953D01*
X022723Y014011D02*
X017333Y014011D01*
X017275Y014070D02*
X022723Y014070D01*
X022723Y014128D02*
X017216Y014128D01*
X017158Y014187D02*
X022723Y014187D01*
X022723Y014245D02*
X017099Y014245D01*
X017041Y014304D02*
X022723Y014304D01*
X022723Y014362D02*
X016982Y014362D01*
X016924Y014421D02*
X022723Y014421D01*
X022723Y014479D02*
X016865Y014479D01*
X016807Y014538D02*
X022723Y014538D01*
X022723Y014596D02*
X016748Y014596D01*
X016690Y014655D02*
X022723Y014655D01*
X022723Y014713D02*
X016631Y014713D01*
X016573Y014772D02*
X022723Y014772D01*
X022723Y014830D02*
X016514Y014830D01*
X016456Y014889D02*
X022723Y014889D01*
X022723Y014947D02*
X016397Y014947D01*
X016339Y015006D02*
X018923Y015006D01*
X018945Y014984D02*
X019456Y014984D01*
X019496Y015023D01*
X019535Y014984D01*
X020047Y014984D01*
X020158Y015095D01*
X020158Y015101D01*
X021097Y015101D01*
X021196Y015142D01*
X022723Y016669D01*
X022723Y003056D01*
X022719Y003016D01*
X022689Y002943D01*
X022633Y002887D01*
X022559Y002856D01*
X022519Y002852D01*
X021338Y002852D01*
X021361Y002907D01*
X021361Y003702D01*
X021286Y003882D01*
X021148Y004020D01*
X020968Y004095D01*
X020773Y004095D01*
X020593Y004020D01*
X020455Y003882D01*
X020381Y003702D01*
X020381Y002907D01*
X020403Y002852D01*
X020338Y002852D01*
X020361Y002907D01*
X020361Y003702D01*
X020286Y003882D01*
X020148Y004020D01*
X019968Y004095D01*
X019773Y004095D01*
X019593Y004020D01*
X019455Y003882D01*
X019381Y003702D01*
X019381Y002907D01*
X019403Y002852D01*
X019338Y002852D01*
X019361Y002907D01*
X019361Y003702D01*
X019286Y003882D01*
X019148Y004020D01*
X018968Y004095D01*
X018773Y004095D01*
X018593Y004020D01*
X018455Y003882D01*
X018381Y003702D01*
X018381Y002907D01*
X018403Y002852D01*
X018338Y002852D01*
X018361Y002907D01*
X018361Y003702D01*
X018286Y003882D01*
X018148Y004020D01*
X017968Y004095D01*
X017773Y004095D01*
X017593Y004020D01*
X017455Y003882D01*
X017381Y003702D01*
X017381Y002907D01*
X017403Y002852D01*
X017338Y002852D01*
X017361Y002907D01*
X017361Y003702D01*
X017286Y003882D01*
X017148Y004020D01*
X016968Y004095D01*
X016773Y004095D01*
X016593Y004020D01*
X016455Y003882D01*
X016381Y003702D01*
X016381Y002907D01*
X016403Y002852D01*
X016338Y002852D01*
X016361Y002907D01*
X016361Y003702D01*
X016286Y003882D01*
X016148Y004020D01*
X015968Y004095D01*
X015773Y004095D01*
X015593Y004020D01*
X015455Y003882D01*
X015381Y003702D01*
X015381Y002907D01*
X015403Y002852D01*
X014338Y002852D01*
X014361Y002907D01*
X014361Y003702D01*
X014286Y003882D01*
X014221Y003948D01*
X014221Y005081D01*
X014167Y005210D01*
X014069Y005309D01*
X013617Y005760D01*
X013617Y010015D01*
X013564Y010144D01*
X012258Y011450D01*
X012258Y011476D01*
X012042Y011692D01*
X011737Y011692D01*
X011521Y011476D01*
X011521Y011171D01*
X011737Y010956D01*
X011763Y010956D01*
X012404Y010314D01*
X012328Y010314D01*
X012112Y010098D01*
X012112Y009793D01*
X012328Y009578D01*
X012410Y009578D01*
X012465Y009522D01*
X012465Y005842D01*
X011096Y004472D01*
X010416Y004472D01*
X010302Y004425D01*
X009971Y004094D01*
X009968Y004095D01*
X009773Y004095D01*
X009593Y004020D01*
X009455Y003882D01*
X009381Y003702D01*
X009381Y002907D01*
X009403Y002852D01*
X009338Y002852D01*
X009361Y002907D01*
X009361Y003702D01*
X009286Y003882D01*
X009148Y004020D01*
X008968Y004095D01*
X008773Y004095D01*
X008705Y004067D01*
X008503Y004269D01*
X008404Y004310D01*
X005513Y004310D01*
X005513Y004434D01*
X005402Y004545D01*
X004793Y004545D01*
X004793Y005553D01*
X004803Y005563D01*
X004842Y005523D01*
X005511Y005523D01*
X005623Y005635D01*
X005623Y005739D01*
X006431Y005739D01*
X006531Y005780D01*
X009836Y009085D01*
X011442Y009085D01*
X011540Y008987D01*
X011845Y008987D01*
X012061Y009203D01*
X012061Y009508D01*
X011845Y009723D01*
X011540Y009723D01*
X011442Y009625D01*
X009670Y009625D01*
X009571Y009584D01*
X009495Y009508D01*
X006266Y006279D01*
X005623Y006279D01*
X005623Y006383D01*
X005511Y006494D01*
X004842Y006494D01*
X004803Y006455D01*
X004763Y006494D01*
X004094Y006494D01*
X003983Y006383D01*
X003983Y005635D01*
X004094Y005523D01*
X004253Y005523D01*
X004253Y005294D01*
X004168Y005294D01*
X004069Y005393D01*
X003765Y005393D01*
X003549Y005177D01*
X003549Y004872D01*
X003765Y004656D01*
X004069Y004656D01*
X004168Y004754D01*
X004253Y004754D01*
X004253Y004545D01*
X004204Y004545D01*
X004093Y004434D01*
X004093Y003646D01*
X004204Y003535D01*
X005402Y003535D01*
X005513Y003646D01*
X005513Y003770D01*
X008238Y003770D01*
X008381Y003628D01*
X008381Y002907D01*
X008403Y002852D01*
X003622Y002852D01*
X003582Y002856D01*
X003509Y002887D01*
X003452Y002943D01*
X003422Y003016D01*
X003418Y003056D01*
X003418Y021954D01*
X003422Y021993D01*
X003452Y022067D01*
X003509Y022123D01*
X003582Y022153D01*
X003622Y022157D01*
X004803Y022157D01*
X004781Y022102D01*
X004781Y021307D01*
X004855Y021127D01*
X004993Y020989D01*
X005173Y020915D01*
X005368Y020915D01*
X005548Y020989D01*
X005686Y021127D01*
X005761Y021307D01*
X005761Y022102D01*
X005738Y022157D01*
X005868Y022157D01*
X005851Y022105D01*
X005841Y022039D01*
X005841Y022035D01*
X006241Y022035D01*
X006241Y021975D01*
X006301Y021975D01*
X006301Y022035D01*
X006701Y022035D01*
X006701Y022039D01*
X006690Y022105D01*
X006673Y022157D01*
X006803Y022157D01*
X006781Y022102D01*
X006781Y021307D01*
X006823Y021206D01*
X006482Y020865D01*
X004501Y020865D01*
X004501Y020930D01*
X004461Y020969D01*
X004501Y021009D01*
X004501Y021678D01*
X004389Y021789D01*
X003641Y021789D01*
X003530Y021678D01*
X003530Y021009D01*
X003570Y020969D01*
X003530Y020930D01*
X003530Y020261D01*
X003641Y020149D01*
X004389Y020149D01*
X004501Y020261D01*
X004501Y020325D01*
X006648Y020325D01*
X006747Y020366D01*
X007295Y020915D01*
X007368Y020915D01*
X007548Y020989D01*
X007686Y021127D01*
X007761Y021307D01*
X007761Y022102D01*
X007738Y022157D01*
X007803Y022157D01*
X007781Y022102D01*
X007781Y021307D01*
X007855Y021127D01*
X007993Y020989D01*
X008173Y020915D01*
X008368Y020915D01*
X008548Y020989D01*
X008686Y021127D01*
X008761Y021307D01*
X008761Y022102D01*
X008738Y022157D01*
X008803Y022157D01*
X008781Y022102D01*
X008781Y021307D01*
X008855Y021127D01*
X008993Y020989D01*
X009173Y020915D01*
X009368Y020915D01*
X009548Y020989D01*
X009686Y021127D01*
X009761Y021307D01*
X009761Y022102D01*
X009738Y022157D01*
X009803Y022157D01*
X009781Y022102D01*
X009781Y021307D01*
X009855Y021127D01*
X009993Y020989D01*
X010173Y020915D01*
X010368Y020915D01*
X010548Y020989D01*
X010686Y021127D01*
X010761Y021307D01*
X010761Y022102D01*
X010738Y022157D01*
X010803Y022157D01*
X010781Y022102D01*
X010781Y021307D01*
X010855Y021127D01*
X010993Y020989D01*
X011173Y020915D01*
X011368Y020915D01*
X011548Y020989D01*
X011686Y021127D01*
X011761Y021307D01*
X011761Y022102D01*
X011738Y022157D01*
X011803Y022157D01*
X011781Y022102D01*
X011781Y021307D01*
X011855Y021127D01*
X011993Y020989D01*
X012173Y020915D01*
X012368Y020915D01*
X012548Y020989D01*
X012686Y021127D01*
X012761Y021307D01*
X012761Y022102D01*
X012738Y022157D01*
X013403Y022157D01*
X013381Y022102D01*
X013381Y021307D01*
X013455Y021127D01*
X013593Y020989D01*
X013773Y020915D01*
X013968Y020915D01*
X014148Y020989D01*
X014286Y021127D01*
X014361Y021307D01*
X014361Y022102D01*
X014338Y022157D01*
X014403Y022157D01*
X014381Y022102D01*
X014381Y021307D01*
X014455Y021127D01*
X014593Y020989D01*
X014773Y020915D01*
X014968Y020915D01*
X015148Y020989D01*
X015286Y021127D01*
X015361Y021307D01*
X015361Y022102D01*
X015338Y022157D01*
X015403Y022157D01*
X015381Y022102D01*
X015381Y021307D01*
X015455Y021127D01*
X015593Y020989D01*
X015773Y020915D01*
X015968Y020915D01*
X016148Y020989D01*
X016286Y021127D01*
X016361Y021307D01*
X016361Y022102D01*
X016338Y022157D01*
X016403Y022157D01*
X016381Y022102D01*
X016381Y021307D01*
X016455Y021127D01*
X016593Y020989D01*
X016773Y020915D01*
X016884Y020915D01*
X013901Y017932D01*
X009718Y017932D01*
X009718Y018060D01*
X009643Y018240D01*
X009506Y018378D01*
X009325Y018452D01*
X009131Y018452D01*
X008950Y018378D01*
X008813Y018240D01*
X008738Y018060D01*
X008738Y017265D01*
X008813Y017085D01*
X008950Y016947D01*
X008986Y016932D01*
X008840Y016932D01*
X008656Y017116D01*
X008718Y017265D01*
X008718Y018060D01*
X008643Y018240D01*
X008506Y018378D01*
X008325Y018452D01*
X008131Y018452D01*
X007950Y018378D01*
X007813Y018240D01*
X007738Y018060D01*
X007738Y017265D01*
X007813Y017085D01*
X007950Y016947D01*
X008131Y016872D01*
X008136Y016872D01*
X008499Y016509D01*
X008575Y016433D01*
X008674Y016392D01*
X009532Y016392D01*
X009631Y016433D01*
X010090Y016892D01*
X014032Y016892D01*
X014131Y016933D01*
X017652Y020455D01*
X017652Y020095D01*
X017293Y020095D01*
X017234Y020037D02*
X017711Y020037D01*
X017749Y019998D02*
X017749Y019734D01*
X017790Y019635D01*
X017821Y019605D01*
X017763Y019547D01*
X017722Y019448D01*
X017722Y018267D01*
X017624Y018169D01*
X017624Y017864D01*
X017839Y017648D01*
X018144Y017648D01*
X018360Y017864D01*
X018360Y018169D01*
X018262Y018267D01*
X018262Y019124D01*
X019620Y019124D01*
X019720Y019166D01*
X019795Y019242D01*
X020020Y019466D01*
X020061Y019565D01*
X020061Y019998D01*
X020158Y020095D01*
X022249Y020095D01*
X022249Y020037D02*
X020100Y020037D01*
X020061Y019978D02*
X022249Y019978D01*
X022249Y019920D02*
X020061Y019920D01*
X020061Y019861D02*
X022249Y019861D01*
X022249Y019803D02*
X020061Y019803D01*
X020061Y019744D02*
X022249Y019744D01*
X022249Y019686D02*
X020061Y019686D01*
X020061Y019627D02*
X022249Y019627D01*
X022249Y019569D02*
X020061Y019569D01*
X020038Y019510D02*
X022249Y019510D01*
X022249Y019452D02*
X020006Y019452D01*
X019947Y019393D02*
X022249Y019393D01*
X022249Y019335D02*
X019889Y019335D01*
X019830Y019276D02*
X022249Y019276D01*
X022249Y019218D02*
X019772Y019218D01*
X019704Y019159D02*
X022249Y019159D01*
X022249Y019101D02*
X018262Y019101D01*
X018262Y019042D02*
X022249Y019042D01*
X022249Y018984D02*
X018262Y018984D01*
X018262Y018925D02*
X022249Y018925D01*
X022249Y018867D02*
X018262Y018867D01*
X018262Y018808D02*
X022249Y018808D01*
X022249Y018750D02*
X018262Y018750D01*
X018262Y018691D02*
X022249Y018691D01*
X022249Y018633D02*
X018262Y018633D01*
X018262Y018574D02*
X022249Y018574D01*
X022249Y018516D02*
X018262Y018516D01*
X018262Y018457D02*
X022249Y018457D01*
X022249Y018399D02*
X018262Y018399D01*
X018262Y018340D02*
X022249Y018340D01*
X022249Y018282D02*
X018262Y018282D01*
X018306Y018223D02*
X022249Y018223D01*
X022249Y018165D02*
X018360Y018165D01*
X018360Y018106D02*
X022249Y018106D01*
X022249Y018048D02*
X018360Y018048D01*
X018360Y017989D02*
X022249Y017989D01*
X022249Y017931D02*
X018360Y017931D01*
X018360Y017872D02*
X022249Y017872D01*
X022249Y017814D02*
X018310Y017814D01*
X018251Y017755D02*
X022249Y017755D01*
X022249Y017697D02*
X018193Y017697D01*
X017791Y017697D02*
X014894Y017697D01*
X014836Y017638D02*
X022249Y017638D01*
X022249Y017580D02*
X014777Y017580D01*
X014719Y017521D02*
X022249Y017521D01*
X022249Y017463D02*
X014660Y017463D01*
X014602Y017404D02*
X022249Y017404D01*
X022249Y017346D02*
X014543Y017346D01*
X014485Y017287D02*
X022249Y017287D01*
X022249Y017229D02*
X014426Y017229D01*
X014368Y017170D02*
X021763Y017170D01*
X021776Y017184D02*
X021561Y016968D01*
X021561Y016829D01*
X020880Y016149D01*
X019147Y016149D01*
X019048Y016108D01*
X018972Y016032D01*
X018930Y015932D01*
X018930Y015744D01*
X018833Y015646D01*
X018833Y015095D01*
X018945Y014984D01*
X018864Y015064D02*
X016280Y015064D01*
X016222Y015123D02*
X018833Y015123D01*
X018833Y015181D02*
X016163Y015181D01*
X016105Y015240D02*
X018833Y015240D01*
X018833Y015298D02*
X016046Y015298D01*
X015988Y015357D02*
X018833Y015357D01*
X018833Y015415D02*
X015929Y015415D01*
X015871Y015474D02*
X018833Y015474D01*
X018833Y015532D02*
X015812Y015532D01*
X015754Y015591D02*
X018833Y015591D01*
X018836Y015649D02*
X015695Y015649D01*
X015637Y015708D02*
X018895Y015708D01*
X018930Y015766D02*
X015578Y015766D01*
X015520Y015825D02*
X018930Y015825D01*
X018930Y015883D02*
X015461Y015883D01*
X015407Y015942D02*
X018934Y015942D01*
X018959Y016000D02*
X015407Y016000D01*
X015352Y016059D02*
X018999Y016059D01*
X019071Y016117D02*
X015294Y016117D01*
X015235Y016176D02*
X020907Y016176D01*
X020965Y016234D02*
X008538Y016234D01*
X008596Y016176D02*
X014843Y016176D01*
X014837Y015532D02*
X013662Y015532D01*
X013662Y015474D02*
X014994Y015474D01*
X015052Y015415D02*
X013662Y015415D01*
X013662Y015357D02*
X015111Y015357D01*
X015169Y015298D02*
X013662Y015298D01*
X013662Y015240D02*
X015228Y015240D01*
X015286Y015181D02*
X013662Y015181D01*
X013662Y015123D02*
X015345Y015123D01*
X015403Y015064D02*
X013631Y015064D01*
X013573Y015006D02*
X015462Y015006D01*
X015520Y014947D02*
X009825Y014947D01*
X009883Y014889D02*
X015579Y014889D01*
X015637Y014830D02*
X009942Y014830D01*
X010000Y014772D02*
X015696Y014772D01*
X015754Y014713D02*
X010059Y014713D01*
X010117Y014655D02*
X015813Y014655D01*
X015871Y014596D02*
X010176Y014596D01*
X010234Y014538D02*
X015930Y014538D01*
X015988Y014479D02*
X010293Y014479D01*
X009939Y014070D02*
X007360Y014070D01*
X007418Y014128D02*
X009880Y014128D01*
X009822Y014187D02*
X007477Y014187D01*
X007535Y014245D02*
X009763Y014245D01*
X009705Y014304D02*
X007594Y014304D01*
X007652Y014362D02*
X009646Y014362D01*
X009588Y014421D02*
X007711Y014421D01*
X007731Y014441D02*
X007854Y014441D01*
X007952Y014539D01*
X008051Y014441D01*
X008681Y014441D01*
X008792Y014552D01*
X008792Y015182D01*
X008681Y015293D01*
X008051Y015293D01*
X007952Y015195D01*
X007854Y015293D01*
X007224Y015293D01*
X007113Y015182D01*
X007113Y014586D01*
X006520Y013994D01*
X006049Y013994D01*
X005695Y013640D01*
X005695Y013141D01*
X006049Y012787D01*
X006549Y012787D01*
X006902Y013141D01*
X006902Y013612D01*
X007731Y014441D01*
X007893Y014479D02*
X008012Y014479D01*
X007954Y014538D02*
X007951Y014538D01*
X007907Y015240D02*
X007998Y015240D01*
X008359Y015649D02*
X004309Y015649D01*
X004309Y015591D02*
X008418Y015591D01*
X008476Y015532D02*
X004309Y015532D01*
X004309Y015474D02*
X008535Y015474D01*
X008593Y015415D02*
X004309Y015415D01*
X004309Y015357D02*
X006034Y015357D01*
X006049Y015372D02*
X005695Y015018D01*
X005695Y014519D01*
X006049Y014165D01*
X006549Y014165D01*
X006902Y014519D01*
X006902Y015018D01*
X006549Y015372D01*
X006049Y015372D01*
X005975Y015298D02*
X004309Y015298D01*
X004309Y015240D02*
X005917Y015240D01*
X005858Y015181D02*
X004309Y015181D01*
X004309Y015168D02*
X004309Y015737D01*
X004180Y015866D01*
X003998Y015866D01*
X003869Y015737D01*
X003869Y015664D01*
X003851Y015646D01*
X003704Y015646D01*
X003575Y015517D01*
X003575Y014963D01*
X003502Y014890D01*
X003502Y014890D01*
X003429Y014816D01*
X003429Y014724D01*
X003429Y014561D01*
X003558Y014432D01*
X003578Y014432D01*
X003575Y014429D01*
X003575Y014247D01*
X003631Y014191D01*
X003575Y014136D01*
X003575Y013567D01*
X003604Y013538D01*
X003575Y013509D01*
X003575Y013326D01*
X003631Y013271D01*
X003575Y013215D01*
X003575Y013033D01*
X003704Y012904D01*
X004327Y012904D01*
X004456Y013033D01*
X004456Y013215D01*
X004400Y013271D01*
X004456Y013326D01*
X004456Y013509D01*
X004327Y013637D01*
X004309Y013637D01*
X004309Y013896D01*
X004280Y013925D01*
X004309Y013953D01*
X004309Y014356D01*
X004243Y014422D01*
X004308Y014486D01*
X004309Y014487D01*
X004309Y014487D01*
X004309Y014577D01*
X004309Y014670D01*
X004309Y015057D01*
X004253Y015112D01*
X004309Y015168D01*
X004264Y015123D02*
X005800Y015123D01*
X005741Y015064D02*
X004301Y015064D01*
X004309Y015006D02*
X005695Y015006D01*
X005695Y014947D02*
X004309Y014947D01*
X004309Y014889D02*
X005695Y014889D01*
X005695Y014830D02*
X004309Y014830D01*
X004309Y014772D02*
X005695Y014772D01*
X005695Y014713D02*
X004309Y014713D01*
X004309Y014670D02*
X004309Y014670D01*
X004309Y014655D02*
X005695Y014655D01*
X005695Y014596D02*
X004309Y014596D01*
X004309Y014538D02*
X005695Y014538D01*
X005735Y014479D02*
X004301Y014479D01*
X004244Y014421D02*
X005793Y014421D01*
X005852Y014362D02*
X004303Y014362D01*
X004309Y014304D02*
X005910Y014304D01*
X005969Y014245D02*
X004309Y014245D01*
X004309Y014187D02*
X006027Y014187D01*
X006008Y013953D02*
X004308Y013953D01*
X004309Y014011D02*
X006538Y014011D01*
X006596Y014070D02*
X004309Y014070D01*
X004309Y014128D02*
X006655Y014128D01*
X006713Y014187D02*
X006570Y014187D01*
X006629Y014245D02*
X006772Y014245D01*
X006830Y014304D02*
X006687Y014304D01*
X006746Y014362D02*
X006889Y014362D01*
X006947Y014421D02*
X006804Y014421D01*
X006863Y014479D02*
X007006Y014479D01*
X007064Y014538D02*
X006902Y014538D01*
X006902Y014596D02*
X007113Y014596D01*
X007113Y014655D02*
X006902Y014655D01*
X006902Y014713D02*
X007113Y014713D01*
X007113Y014772D02*
X006902Y014772D01*
X006902Y014830D02*
X007113Y014830D01*
X007113Y014889D02*
X006902Y014889D01*
X006902Y014947D02*
X007113Y014947D01*
X007113Y015006D02*
X006902Y015006D01*
X006856Y015064D02*
X007113Y015064D01*
X007113Y015123D02*
X006798Y015123D01*
X006739Y015181D02*
X007113Y015181D01*
X007171Y015240D02*
X006681Y015240D01*
X006622Y015298D02*
X008710Y015298D01*
X008734Y015240D02*
X008769Y015240D01*
X008792Y015181D02*
X008827Y015181D01*
X008792Y015123D02*
X008886Y015123D01*
X008944Y015064D02*
X008792Y015064D01*
X008792Y015006D02*
X009003Y015006D01*
X009061Y014947D02*
X008792Y014947D01*
X008792Y014889D02*
X009120Y014889D01*
X009178Y014830D02*
X008792Y014830D01*
X008792Y014772D02*
X009237Y014772D01*
X009295Y014713D02*
X008792Y014713D01*
X008792Y014655D02*
X009354Y014655D01*
X009412Y014596D02*
X008792Y014596D01*
X008778Y014538D02*
X009471Y014538D01*
X009529Y014479D02*
X008719Y014479D01*
X009474Y015298D02*
X012397Y015298D01*
X012397Y015240D02*
X009532Y015240D01*
X009591Y015181D02*
X012397Y015181D01*
X012407Y015123D02*
X009649Y015123D01*
X009708Y015064D02*
X012457Y015064D01*
X012674Y015064D02*
X012734Y015064D01*
X012734Y015123D02*
X012674Y015123D01*
X012674Y015181D02*
X012734Y015181D01*
X012734Y015240D02*
X012674Y015240D01*
X012674Y015298D02*
X012734Y015298D01*
X012674Y015357D02*
X009415Y015357D01*
X009357Y015415D02*
X012397Y015415D01*
X012397Y015401D02*
X012397Y015585D01*
X012406Y015618D01*
X012423Y015648D01*
X012447Y015672D01*
X012477Y015689D01*
X012510Y015698D01*
X012674Y015698D01*
X012674Y015401D01*
X012397Y015401D01*
X012397Y015474D02*
X009298Y015474D01*
X009240Y015532D02*
X011788Y015532D01*
X011798Y015523D02*
X011827Y015506D01*
X011861Y015497D01*
X012044Y015497D01*
X012044Y015774D01*
X011748Y015774D01*
X011748Y015610D01*
X011756Y015577D01*
X011774Y015547D01*
X011798Y015523D01*
X011753Y015591D02*
X009181Y015591D01*
X009123Y015649D02*
X011748Y015649D01*
X011748Y015708D02*
X009064Y015708D01*
X009006Y015766D02*
X011748Y015766D01*
X011748Y015834D02*
X011748Y015998D01*
X011756Y016031D01*
X011774Y016061D01*
X011798Y016085D01*
X011827Y016102D01*
X011861Y016111D01*
X012044Y016111D01*
X012044Y015834D01*
X012044Y015774D01*
X012104Y015774D01*
X012104Y015497D01*
X012288Y015497D01*
X012322Y015506D01*
X012351Y015523D01*
X012375Y015547D01*
X012392Y015577D01*
X012401Y015610D01*
X012401Y015774D01*
X012104Y015774D01*
X012104Y015834D01*
X012044Y015834D01*
X011748Y015834D01*
X011748Y015883D02*
X008889Y015883D01*
X008947Y015825D02*
X012044Y015825D01*
X012044Y015883D02*
X012104Y015883D01*
X012104Y015834D02*
X012104Y016111D01*
X012288Y016111D01*
X012322Y016102D01*
X012351Y016085D01*
X012375Y016061D01*
X012392Y016031D01*
X012401Y015998D01*
X012401Y015834D01*
X012104Y015834D01*
X012104Y015825D02*
X012985Y015825D01*
X012985Y015883D02*
X012401Y015883D01*
X012401Y015942D02*
X012997Y015942D01*
X013021Y016000D02*
X012401Y016000D01*
X012377Y016059D02*
X013064Y016059D01*
X013127Y016117D02*
X008655Y016117D01*
X008713Y016059D02*
X011772Y016059D01*
X011748Y016000D02*
X008772Y016000D01*
X008830Y015942D02*
X011748Y015942D01*
X012044Y015942D02*
X012104Y015942D01*
X012104Y016000D02*
X012044Y016000D01*
X012044Y016059D02*
X012104Y016059D01*
X012104Y015766D02*
X012044Y015766D01*
X012044Y015708D02*
X012104Y015708D01*
X012104Y015649D02*
X012044Y015649D01*
X012044Y015591D02*
X012104Y015591D01*
X012104Y015532D02*
X012044Y015532D01*
X012361Y015532D02*
X012397Y015532D01*
X012396Y015591D02*
X012399Y015591D01*
X012401Y015649D02*
X012425Y015649D01*
X012401Y015708D02*
X012985Y015708D01*
X012985Y015766D02*
X012401Y015766D01*
X012674Y015649D02*
X012734Y015649D01*
X012734Y015591D02*
X012674Y015591D01*
X012674Y015532D02*
X012734Y015532D01*
X012734Y015474D02*
X012674Y015474D01*
X012674Y015415D02*
X012734Y015415D01*
X012951Y015064D02*
X012959Y015064D01*
X013017Y015006D02*
X009766Y015006D01*
X009997Y014011D02*
X007301Y014011D01*
X007243Y013953D02*
X010056Y013953D01*
X010169Y013894D02*
X007184Y013894D01*
X007126Y013836D02*
X016173Y013836D01*
X016208Y013777D02*
X007067Y013777D01*
X007009Y013719D02*
X016208Y013719D01*
X016208Y013660D02*
X006950Y013660D01*
X006902Y013602D02*
X016208Y013602D01*
X016208Y013543D02*
X006902Y013543D01*
X006902Y013485D02*
X016208Y013485D01*
X016208Y013426D02*
X006902Y013426D01*
X006902Y013368D02*
X016208Y013368D01*
X016208Y013309D02*
X006902Y013309D01*
X006902Y013251D02*
X016208Y013251D01*
X016208Y013192D02*
X006902Y013192D01*
X006895Y013134D02*
X016208Y013134D01*
X016222Y013075D02*
X006837Y013075D01*
X006778Y013017D02*
X016246Y013017D01*
X016300Y012958D02*
X014315Y012958D01*
X014264Y013010D02*
X013846Y013010D01*
X013550Y012714D01*
X013550Y012296D01*
X013846Y012000D01*
X014264Y012000D01*
X014560Y012296D01*
X014560Y012714D01*
X014264Y013010D01*
X014374Y012900D02*
X016359Y012900D01*
X016417Y012841D02*
X014432Y012841D01*
X014491Y012783D02*
X016476Y012783D01*
X016534Y012724D02*
X014549Y012724D01*
X014560Y012666D02*
X016593Y012666D01*
X016613Y012607D02*
X014560Y012607D01*
X014560Y012549D02*
X016611Y012549D01*
X016611Y012490D02*
X014560Y012490D01*
X014560Y012432D02*
X016611Y012432D01*
X016625Y012373D02*
X014560Y012373D01*
X014560Y012315D02*
X016650Y012315D01*
X016674Y012256D02*
X014520Y012256D01*
X014462Y012198D02*
X016715Y012198D01*
X016774Y012139D02*
X014403Y012139D01*
X014345Y012081D02*
X016844Y012081D01*
X016929Y011964D02*
X003418Y011964D01*
X003418Y012022D02*
X013823Y012022D01*
X013765Y012081D02*
X012292Y012081D01*
X012271Y012060D02*
X012531Y012320D01*
X012531Y012475D01*
X012116Y012475D01*
X012116Y012060D01*
X012271Y012060D01*
X012350Y012139D02*
X013706Y012139D01*
X013648Y012198D02*
X012409Y012198D01*
X012467Y012256D02*
X013589Y012256D01*
X013550Y012315D02*
X012526Y012315D01*
X012531Y012373D02*
X013550Y012373D01*
X013550Y012432D02*
X012531Y012432D01*
X012531Y012535D02*
X012116Y012535D01*
X012056Y012535D01*
X012056Y012950D01*
X011902Y012950D01*
X011641Y012689D01*
X011641Y012535D01*
X012056Y012535D01*
X012056Y012475D01*
X011641Y012475D01*
X011641Y012320D01*
X011902Y012060D01*
X012056Y012060D01*
X012056Y012475D01*
X012116Y012475D01*
X012116Y012535D01*
X012116Y012950D01*
X012271Y012950D01*
X012531Y012689D01*
X012531Y012535D01*
X012531Y012549D02*
X013550Y012549D01*
X013550Y012607D02*
X012531Y012607D01*
X012531Y012666D02*
X013550Y012666D01*
X013560Y012724D02*
X012496Y012724D01*
X012438Y012783D02*
X013619Y012783D01*
X013677Y012841D02*
X012379Y012841D01*
X012321Y012900D02*
X013736Y012900D01*
X013794Y012958D02*
X006720Y012958D01*
X006661Y012900D02*
X011852Y012900D01*
X011794Y012841D02*
X006603Y012841D01*
X005995Y012841D02*
X003418Y012841D01*
X003418Y012783D02*
X011735Y012783D01*
X011677Y012724D02*
X003418Y012724D01*
X003418Y012666D02*
X011641Y012666D01*
X011641Y012607D02*
X003418Y012607D01*
X003418Y012549D02*
X011641Y012549D01*
X011641Y012432D02*
X003418Y012432D01*
X003418Y012490D02*
X012056Y012490D01*
X012056Y012432D02*
X012116Y012432D01*
X012116Y012490D02*
X013550Y012490D01*
X014286Y012022D02*
X016986Y012022D01*
X016809Y011905D02*
X006571Y011905D01*
X006549Y011927D02*
X006049Y011927D01*
X005695Y011574D01*
X005695Y011074D01*
X006049Y010720D01*
X006549Y010720D01*
X006902Y011074D01*
X006902Y011574D01*
X006549Y011927D01*
X006629Y011847D02*
X016750Y011847D01*
X016692Y011788D02*
X006688Y011788D01*
X006746Y011730D02*
X016664Y011730D01*
X016640Y011671D02*
X012062Y011671D01*
X012121Y011613D02*
X016616Y011613D01*
X016611Y011554D02*
X012179Y011554D01*
X012238Y011496D02*
X016611Y011496D01*
X016611Y011437D02*
X012271Y011437D01*
X012329Y011379D02*
X016623Y011379D01*
X016647Y011320D02*
X012388Y011320D01*
X012446Y011262D02*
X016672Y011262D01*
X016710Y011203D02*
X012505Y011203D01*
X012563Y011145D02*
X016768Y011145D01*
X016831Y011086D02*
X012622Y011086D01*
X012680Y011028D02*
X016972Y011028D01*
X017131Y010969D02*
X012739Y010969D01*
X012797Y010911D02*
X017131Y010911D01*
X017131Y010852D02*
X012856Y010852D01*
X012914Y010794D02*
X017131Y010794D01*
X017131Y010735D02*
X012973Y010735D01*
X013031Y010677D02*
X017131Y010677D01*
X017131Y010618D02*
X013090Y010618D01*
X013148Y010560D02*
X017131Y010560D01*
X017131Y010501D02*
X013207Y010501D01*
X013265Y010443D02*
X017131Y010443D01*
X017131Y010384D02*
X016013Y010384D01*
X016005Y010393D02*
X015856Y010393D01*
X015856Y009991D01*
X015796Y009991D01*
X015796Y009931D01*
X015395Y009931D01*
X015395Y009783D01*
X015648Y009530D01*
X015796Y009530D01*
X015796Y009931D01*
X015856Y009931D01*
X015856Y009530D01*
X016005Y009530D01*
X016258Y009783D01*
X016258Y009931D01*
X015856Y009931D01*
X015856Y009991D01*
X016258Y009991D01*
X016258Y010140D01*
X016005Y010393D01*
X016072Y010326D02*
X017131Y010326D01*
X017131Y010267D02*
X016130Y010267D01*
X016189Y010209D02*
X017131Y010209D01*
X017131Y010150D02*
X016247Y010150D01*
X016258Y010092D02*
X017131Y010092D01*
X017131Y010033D02*
X016258Y010033D01*
X016258Y009916D02*
X017131Y009916D01*
X017131Y009858D02*
X016258Y009858D01*
X016258Y009799D02*
X017131Y009799D01*
X017131Y009741D02*
X016216Y009741D01*
X016157Y009682D02*
X017131Y009682D01*
X017131Y009624D02*
X016099Y009624D01*
X016040Y009565D02*
X017131Y009565D01*
X017131Y009507D02*
X013617Y009507D01*
X013617Y009565D02*
X015613Y009565D01*
X015554Y009624D02*
X013617Y009624D01*
X013617Y009682D02*
X015496Y009682D01*
X015437Y009741D02*
X013617Y009741D01*
X013617Y009799D02*
X015395Y009799D01*
X015395Y009858D02*
X013617Y009858D01*
X013617Y009916D02*
X015395Y009916D01*
X015395Y009991D02*
X015796Y009991D01*
X015796Y010393D01*
X015648Y010393D01*
X015395Y010140D01*
X015395Y009991D01*
X015395Y010033D02*
X013610Y010033D01*
X013617Y009975D02*
X015796Y009975D01*
X015796Y010033D02*
X015856Y010033D01*
X015856Y009975D02*
X017131Y009975D01*
X017131Y009448D02*
X016034Y009448D01*
X016093Y009390D02*
X017131Y009390D01*
X017671Y009390D02*
X018316Y009390D01*
X018375Y009448D02*
X017671Y009448D01*
X017671Y009507D02*
X022723Y009507D01*
X022723Y009565D02*
X021552Y009565D01*
X021517Y009530D02*
X021769Y009783D01*
X021769Y009931D01*
X021368Y009931D01*
X021368Y009530D01*
X021517Y009530D01*
X021546Y009448D02*
X022723Y009448D01*
X022723Y009390D02*
X021605Y009390D01*
X021663Y009331D02*
X022723Y009331D01*
X022723Y009273D02*
X021722Y009273D01*
X021780Y009214D02*
X022723Y009214D01*
X022723Y009156D02*
X021829Y009156D01*
X021829Y009097D02*
X022723Y009097D01*
X022723Y009039D02*
X021829Y009039D01*
X021871Y008980D02*
X022723Y008980D01*
X022723Y008922D02*
X021929Y008922D01*
X021988Y008863D02*
X022723Y008863D01*
X022723Y008805D02*
X022046Y008805D01*
X022105Y008746D02*
X022723Y008746D01*
X022723Y008688D02*
X022163Y008688D01*
X022222Y008629D02*
X022723Y008629D01*
X022723Y008571D02*
X022280Y008571D01*
X022339Y008512D02*
X022723Y008512D01*
X022723Y008454D02*
X022397Y008454D01*
X022505Y008278D02*
X022723Y008278D01*
X022723Y008220D02*
X022516Y008220D01*
X022516Y008161D02*
X022723Y008161D01*
X022723Y008103D02*
X022516Y008103D01*
X022516Y008044D02*
X022723Y008044D01*
X022723Y007986D02*
X022516Y007986D01*
X022516Y007927D02*
X022723Y007927D01*
X022723Y007869D02*
X022516Y007869D01*
X022516Y007810D02*
X022723Y007810D01*
X022723Y007752D02*
X022516Y007752D01*
X022516Y007693D02*
X022723Y007693D01*
X022723Y007635D02*
X022516Y007635D01*
X022516Y007576D02*
X022723Y007576D01*
X022723Y007518D02*
X022516Y007518D01*
X022516Y007459D02*
X022723Y007459D01*
X022723Y007401D02*
X022516Y007401D01*
X022516Y007342D02*
X022723Y007342D01*
X022723Y007284D02*
X022516Y007284D01*
X022516Y007225D02*
X022723Y007225D01*
X022723Y007167D02*
X022516Y007167D01*
X022516Y007108D02*
X022723Y007108D01*
X022723Y007050D02*
X022516Y007050D01*
X022516Y006991D02*
X022723Y006991D01*
X022723Y006933D02*
X022516Y006933D01*
X022516Y006874D02*
X022723Y006874D01*
X022723Y006816D02*
X022516Y006816D01*
X022516Y006757D02*
X022723Y006757D01*
X022723Y006699D02*
X022516Y006699D01*
X022516Y006640D02*
X022723Y006640D01*
X022723Y006582D02*
X022516Y006582D01*
X022518Y006523D02*
X022723Y006523D01*
X022723Y006465D02*
X022516Y006465D01*
X022510Y006406D02*
X022723Y006406D01*
X022723Y006348D02*
X022485Y006348D01*
X022460Y006289D02*
X022723Y006289D01*
X022723Y006231D02*
X022409Y006231D01*
X022349Y006172D02*
X022723Y006172D01*
X022723Y006114D02*
X022276Y006114D01*
X022209Y006055D02*
X022723Y006055D01*
X022723Y005997D02*
X022142Y005997D01*
X022075Y005938D02*
X022723Y005938D01*
X022723Y005880D02*
X022008Y005880D01*
X021941Y005821D02*
X022723Y005821D01*
X022723Y005763D02*
X021874Y005763D01*
X021829Y005704D02*
X022723Y005704D01*
X022723Y005646D02*
X021829Y005646D01*
X021808Y005587D02*
X022723Y005587D01*
X022723Y005529D02*
X021750Y005529D01*
X021691Y005470D02*
X022723Y005470D01*
X022723Y005412D02*
X021633Y005412D01*
X021574Y005353D02*
X022723Y005353D01*
X022723Y005295D02*
X021550Y005295D01*
X021542Y005303D02*
X021135Y005303D01*
X020847Y005015D01*
X020847Y004608D01*
X021135Y004321D01*
X021542Y004321D01*
X021829Y004608D01*
X021829Y005015D01*
X021542Y005303D01*
X021608Y005236D02*
X022723Y005236D01*
X022723Y005178D02*
X021667Y005178D01*
X021725Y005119D02*
X022723Y005119D01*
X022723Y005061D02*
X021784Y005061D01*
X021829Y005002D02*
X022723Y005002D01*
X022723Y004944D02*
X021829Y004944D01*
X021829Y004885D02*
X022723Y004885D01*
X022723Y004827D02*
X021829Y004827D01*
X021829Y004768D02*
X022723Y004768D01*
X022723Y004710D02*
X021829Y004710D01*
X021829Y004651D02*
X022723Y004651D01*
X022723Y004593D02*
X021814Y004593D01*
X021755Y004534D02*
X022723Y004534D01*
X022723Y004476D02*
X021697Y004476D01*
X021638Y004417D02*
X022723Y004417D01*
X022723Y004359D02*
X021580Y004359D01*
X021097Y004359D02*
X018824Y004359D01*
X018786Y004321D02*
X018379Y004321D01*
X018091Y004608D01*
X018091Y005015D01*
X018379Y005303D01*
X018786Y005303D01*
X019074Y005015D01*
X019074Y004608D01*
X018786Y004321D01*
X018882Y004417D02*
X021038Y004417D01*
X020980Y004476D02*
X018941Y004476D01*
X018999Y004534D02*
X020921Y004534D01*
X020863Y004593D02*
X019058Y004593D01*
X019074Y004651D02*
X020847Y004651D01*
X020847Y004710D02*
X019074Y004710D01*
X019074Y004768D02*
X020847Y004768D01*
X020847Y004827D02*
X019074Y004827D01*
X019074Y004885D02*
X020847Y004885D01*
X020847Y004944D02*
X019074Y004944D01*
X019074Y005002D02*
X020847Y005002D01*
X020893Y005061D02*
X019028Y005061D01*
X018970Y005119D02*
X020951Y005119D01*
X021010Y005178D02*
X018911Y005178D01*
X018853Y005236D02*
X021068Y005236D01*
X021127Y005295D02*
X018794Y005295D01*
X018818Y005353D02*
X021102Y005353D01*
X021044Y005412D02*
X018877Y005412D01*
X018371Y005295D02*
X016038Y005295D01*
X016030Y005303D02*
X015623Y005303D01*
X015335Y005015D01*
X015335Y004608D01*
X015623Y004321D01*
X016030Y004321D01*
X016318Y004608D01*
X016318Y005015D01*
X016030Y005303D01*
X016062Y005353D02*
X018346Y005353D01*
X018288Y005412D02*
X016121Y005412D01*
X016097Y005236D02*
X018312Y005236D01*
X018254Y005178D02*
X016155Y005178D01*
X016214Y005119D02*
X018195Y005119D01*
X018137Y005061D02*
X016272Y005061D01*
X016318Y005002D02*
X018091Y005002D01*
X018091Y004944D02*
X016318Y004944D01*
X016318Y004885D02*
X018091Y004885D01*
X018091Y004827D02*
X016318Y004827D01*
X016318Y004768D02*
X018091Y004768D01*
X018091Y004710D02*
X016318Y004710D01*
X016318Y004651D02*
X018091Y004651D01*
X018107Y004593D02*
X016302Y004593D01*
X016243Y004534D02*
X018165Y004534D01*
X018224Y004476D02*
X016185Y004476D01*
X016126Y004417D02*
X018282Y004417D01*
X018341Y004359D02*
X016068Y004359D01*
X016037Y004066D02*
X016704Y004066D01*
X016581Y004008D02*
X016161Y004008D01*
X016219Y003949D02*
X016522Y003949D01*
X016464Y003891D02*
X016278Y003891D01*
X016307Y003832D02*
X016434Y003832D01*
X016410Y003774D02*
X016331Y003774D01*
X016355Y003715D02*
X016386Y003715D01*
X016381Y003657D02*
X016361Y003657D01*
X016361Y003598D02*
X016381Y003598D01*
X016381Y003540D02*
X016361Y003540D01*
X016361Y003481D02*
X016381Y003481D01*
X016381Y003423D02*
X016361Y003423D01*
X016361Y003364D02*
X016381Y003364D01*
X016381Y003306D02*
X016361Y003306D01*
X016361Y003247D02*
X016381Y003247D01*
X016381Y003189D02*
X016361Y003189D01*
X016361Y003130D02*
X016381Y003130D01*
X016381Y003072D02*
X016361Y003072D01*
X016361Y003013D02*
X016381Y003013D01*
X016381Y002955D02*
X016361Y002955D01*
X016356Y002896D02*
X016385Y002896D01*
X017356Y002896D02*
X017385Y002896D01*
X017381Y002955D02*
X017361Y002955D01*
X017361Y003013D02*
X017381Y003013D01*
X017381Y003072D02*
X017361Y003072D01*
X017361Y003130D02*
X017381Y003130D01*
X017381Y003189D02*
X017361Y003189D01*
X017361Y003247D02*
X017381Y003247D01*
X017381Y003306D02*
X017361Y003306D01*
X017361Y003364D02*
X017381Y003364D01*
X017381Y003423D02*
X017361Y003423D01*
X017361Y003481D02*
X017381Y003481D01*
X017381Y003540D02*
X017361Y003540D01*
X017361Y003598D02*
X017381Y003598D01*
X017381Y003657D02*
X017361Y003657D01*
X017355Y003715D02*
X017386Y003715D01*
X017410Y003774D02*
X017331Y003774D01*
X017307Y003832D02*
X017434Y003832D01*
X017464Y003891D02*
X017278Y003891D01*
X017219Y003949D02*
X017522Y003949D01*
X017581Y004008D02*
X017161Y004008D01*
X017037Y004066D02*
X017704Y004066D01*
X018037Y004066D02*
X018704Y004066D01*
X018581Y004008D02*
X018161Y004008D01*
X018219Y003949D02*
X018522Y003949D01*
X018464Y003891D02*
X018278Y003891D01*
X018307Y003832D02*
X018434Y003832D01*
X018410Y003774D02*
X018331Y003774D01*
X018355Y003715D02*
X018386Y003715D01*
X018381Y003657D02*
X018361Y003657D01*
X018361Y003598D02*
X018381Y003598D01*
X018381Y003540D02*
X018361Y003540D01*
X018361Y003481D02*
X018381Y003481D01*
X018381Y003423D02*
X018361Y003423D01*
X018361Y003364D02*
X018381Y003364D01*
X018381Y003306D02*
X018361Y003306D01*
X018361Y003247D02*
X018381Y003247D01*
X018381Y003189D02*
X018361Y003189D01*
X018361Y003130D02*
X018381Y003130D01*
X018381Y003072D02*
X018361Y003072D01*
X018361Y003013D02*
X018381Y003013D01*
X018381Y002955D02*
X018361Y002955D01*
X018356Y002896D02*
X018385Y002896D01*
X019356Y002896D02*
X019385Y002896D01*
X019381Y002955D02*
X019361Y002955D01*
X019361Y003013D02*
X019381Y003013D01*
X019381Y003072D02*
X019361Y003072D01*
X019361Y003130D02*
X019381Y003130D01*
X019381Y003189D02*
X019361Y003189D01*
X019361Y003247D02*
X019381Y003247D01*
X019381Y003306D02*
X019361Y003306D01*
X019361Y003364D02*
X019381Y003364D01*
X019381Y003423D02*
X019361Y003423D01*
X019361Y003481D02*
X019381Y003481D01*
X019381Y003540D02*
X019361Y003540D01*
X019361Y003598D02*
X019381Y003598D01*
X019381Y003657D02*
X019361Y003657D01*
X019355Y003715D02*
X019386Y003715D01*
X019410Y003774D02*
X019331Y003774D01*
X019307Y003832D02*
X019434Y003832D01*
X019464Y003891D02*
X019278Y003891D01*
X019219Y003949D02*
X019522Y003949D01*
X019581Y004008D02*
X019161Y004008D01*
X019037Y004066D02*
X019704Y004066D01*
X020037Y004066D02*
X020704Y004066D01*
X020581Y004008D02*
X020161Y004008D01*
X020219Y003949D02*
X020522Y003949D01*
X020464Y003891D02*
X020278Y003891D01*
X020307Y003832D02*
X020434Y003832D01*
X020410Y003774D02*
X020331Y003774D01*
X020355Y003715D02*
X020386Y003715D01*
X020381Y003657D02*
X020361Y003657D01*
X020361Y003598D02*
X020381Y003598D01*
X020381Y003540D02*
X020361Y003540D01*
X020361Y003481D02*
X020381Y003481D01*
X020381Y003423D02*
X020361Y003423D01*
X020361Y003364D02*
X020381Y003364D01*
X020381Y003306D02*
X020361Y003306D01*
X020361Y003247D02*
X020381Y003247D01*
X020381Y003189D02*
X020361Y003189D01*
X020361Y003130D02*
X020381Y003130D01*
X020381Y003072D02*
X020361Y003072D01*
X020361Y003013D02*
X020381Y003013D01*
X020381Y002955D02*
X020361Y002955D01*
X020356Y002896D02*
X020385Y002896D01*
X021356Y002896D02*
X022642Y002896D01*
X022694Y002955D02*
X021361Y002955D01*
X021361Y003013D02*
X022718Y003013D01*
X022723Y003072D02*
X021361Y003072D01*
X021361Y003130D02*
X022723Y003130D01*
X022723Y003189D02*
X021361Y003189D01*
X021361Y003247D02*
X022723Y003247D01*
X022723Y003306D02*
X021361Y003306D01*
X021361Y003364D02*
X022723Y003364D01*
X022723Y003423D02*
X021361Y003423D01*
X021361Y003481D02*
X022723Y003481D01*
X022723Y003540D02*
X021361Y003540D01*
X021361Y003598D02*
X022723Y003598D01*
X022723Y003657D02*
X021361Y003657D01*
X021355Y003715D02*
X022723Y003715D01*
X022723Y003774D02*
X021331Y003774D01*
X021307Y003832D02*
X022723Y003832D01*
X022723Y003891D02*
X021278Y003891D01*
X021219Y003949D02*
X022723Y003949D01*
X022723Y004008D02*
X021161Y004008D01*
X021037Y004066D02*
X022723Y004066D01*
X022723Y004125D02*
X014221Y004125D01*
X014221Y004183D02*
X022723Y004183D01*
X022723Y004242D02*
X014221Y004242D01*
X014221Y004300D02*
X022723Y004300D01*
X021358Y006348D02*
X013617Y006348D01*
X013617Y006406D02*
X015622Y006406D01*
X015648Y006381D02*
X015395Y006633D01*
X015395Y006782D01*
X015796Y006782D01*
X015796Y006842D01*
X015395Y006842D01*
X015395Y006990D01*
X015648Y007243D01*
X015796Y007243D01*
X015796Y006842D01*
X015856Y006842D01*
X015856Y007243D01*
X016005Y007243D01*
X016258Y006990D01*
X016258Y006842D01*
X015856Y006842D01*
X015856Y006782D01*
X015856Y006381D01*
X016005Y006381D01*
X016258Y006633D01*
X016258Y006782D01*
X015856Y006782D01*
X015796Y006782D01*
X015796Y006381D01*
X015648Y006381D01*
X015609Y006289D02*
X013617Y006289D01*
X013617Y006231D02*
X015551Y006231D01*
X015492Y006172D02*
X013617Y006172D01*
X013617Y006114D02*
X015434Y006114D01*
X015375Y006055D02*
X013617Y006055D01*
X013617Y005997D02*
X015335Y005997D01*
X015335Y005938D02*
X013617Y005938D01*
X013617Y005880D02*
X015335Y005880D01*
X015335Y005821D02*
X013617Y005821D01*
X013617Y005763D02*
X015335Y005763D01*
X015335Y005704D02*
X013673Y005704D01*
X013732Y005646D02*
X015335Y005646D01*
X015356Y005587D02*
X013790Y005587D01*
X013849Y005529D02*
X015415Y005529D01*
X015473Y005470D02*
X013907Y005470D01*
X013966Y005412D02*
X015532Y005412D01*
X015590Y005353D02*
X014024Y005353D01*
X014083Y005295D02*
X015615Y005295D01*
X015556Y005236D02*
X014141Y005236D01*
X014181Y005178D02*
X015498Y005178D01*
X015439Y005119D02*
X014205Y005119D01*
X014221Y005061D02*
X015381Y005061D01*
X015335Y005002D02*
X014221Y005002D01*
X014221Y004944D02*
X015335Y004944D01*
X015335Y004885D02*
X014221Y004885D01*
X014221Y004827D02*
X015335Y004827D01*
X015335Y004768D02*
X014221Y004768D01*
X014221Y004710D02*
X015335Y004710D01*
X015335Y004651D02*
X014221Y004651D01*
X014221Y004593D02*
X015351Y004593D01*
X015409Y004534D02*
X014221Y004534D01*
X014221Y004476D02*
X015468Y004476D01*
X015526Y004417D02*
X014221Y004417D01*
X014221Y004359D02*
X015585Y004359D01*
X015704Y004066D02*
X014221Y004066D01*
X014221Y004008D02*
X015581Y004008D01*
X015522Y003949D02*
X014221Y003949D01*
X014278Y003891D02*
X015464Y003891D01*
X015434Y003832D02*
X014307Y003832D01*
X014331Y003774D02*
X015410Y003774D01*
X015386Y003715D02*
X014355Y003715D01*
X014361Y003657D02*
X015381Y003657D01*
X015381Y003598D02*
X014361Y003598D01*
X014361Y003540D02*
X015381Y003540D01*
X015381Y003481D02*
X014361Y003481D01*
X014361Y003423D02*
X015381Y003423D01*
X015381Y003364D02*
X014361Y003364D01*
X014361Y003306D02*
X015381Y003306D01*
X015381Y003247D02*
X014361Y003247D01*
X014361Y003189D02*
X015381Y003189D01*
X015381Y003130D02*
X014361Y003130D01*
X014361Y003072D02*
X015381Y003072D01*
X015381Y003013D02*
X014361Y003013D01*
X014361Y002955D02*
X015381Y002955D01*
X015385Y002896D02*
X014356Y002896D01*
X013403Y002852D02*
X013273Y002852D01*
X013290Y002904D01*
X013301Y002971D01*
X013301Y002975D01*
X012901Y002975D01*
X012901Y003035D01*
X013301Y003035D01*
X013301Y003639D01*
X013290Y003705D01*
X013269Y003770D01*
X013238Y003830D01*
X013199Y003885D01*
X013151Y003933D01*
X013096Y003972D01*
X013036Y004003D01*
X012971Y004024D01*
X012904Y004035D01*
X012901Y004035D01*
X012901Y003035D01*
X012841Y003035D01*
X012841Y004035D01*
X012837Y004035D01*
X012770Y004024D01*
X012705Y004003D01*
X012645Y003972D01*
X012590Y003933D01*
X012543Y003885D01*
X012503Y003830D01*
X012472Y003770D01*
X012451Y003705D01*
X012441Y003639D01*
X012441Y003035D01*
X012841Y003035D01*
X012841Y002975D01*
X012901Y002975D01*
X012901Y002852D01*
X012841Y002852D01*
X012841Y002975D01*
X012441Y002975D01*
X012441Y002971D01*
X012451Y002904D01*
X012468Y002852D01*
X012273Y002852D01*
X012290Y002904D01*
X012301Y002971D01*
X012301Y002975D01*
X011901Y002975D01*
X011901Y003035D01*
X012301Y003035D01*
X012301Y003639D01*
X012290Y003705D01*
X012269Y003770D01*
X012238Y003830D01*
X012199Y003885D01*
X012151Y003933D01*
X012096Y003972D01*
X012036Y004003D01*
X011971Y004024D01*
X011904Y004035D01*
X011901Y004035D01*
X011901Y003035D01*
X011841Y003035D01*
X011841Y004035D01*
X011837Y004035D01*
X011770Y004024D01*
X011705Y004003D01*
X011645Y003972D01*
X011590Y003933D01*
X011543Y003885D01*
X011503Y003830D01*
X011472Y003770D01*
X011451Y003705D01*
X011441Y003639D01*
X011441Y003035D01*
X011841Y003035D01*
X011841Y002975D01*
X011901Y002975D01*
X011901Y002852D01*
X011841Y002852D01*
X011841Y002975D01*
X011441Y002975D01*
X011441Y002971D01*
X011451Y002904D01*
X011468Y002852D01*
X011338Y002852D01*
X011361Y002907D01*
X011361Y003702D01*
X011297Y003857D01*
X011400Y003899D01*
X011487Y003987D01*
X012955Y005455D01*
X012971Y005417D01*
X013521Y004867D01*
X013521Y003948D01*
X013455Y003882D01*
X013381Y003702D01*
X013381Y002907D01*
X013403Y002852D01*
X013385Y002896D02*
X013287Y002896D01*
X013298Y002955D02*
X013381Y002955D01*
X013381Y003013D02*
X012901Y003013D01*
X012901Y002955D02*
X012841Y002955D01*
X012841Y003013D02*
X011901Y003013D01*
X011901Y002955D02*
X011841Y002955D01*
X011841Y003013D02*
X011361Y003013D01*
X011361Y002955D02*
X011443Y002955D01*
X011454Y002896D02*
X011356Y002896D01*
X011361Y003072D02*
X011441Y003072D01*
X011441Y003130D02*
X011361Y003130D01*
X011361Y003189D02*
X011441Y003189D01*
X011441Y003247D02*
X011361Y003247D01*
X011361Y003306D02*
X011441Y003306D01*
X011441Y003364D02*
X011361Y003364D01*
X011361Y003423D02*
X011441Y003423D01*
X011441Y003481D02*
X011361Y003481D01*
X011361Y003540D02*
X011441Y003540D01*
X011441Y003598D02*
X011361Y003598D01*
X011361Y003657D02*
X011443Y003657D01*
X011454Y003715D02*
X011355Y003715D01*
X011331Y003774D02*
X011474Y003774D01*
X011504Y003832D02*
X011307Y003832D01*
X011379Y003891D02*
X011548Y003891D01*
X011613Y003949D02*
X011449Y003949D01*
X011508Y004008D02*
X011719Y004008D01*
X011841Y004008D02*
X011901Y004008D01*
X011901Y003949D02*
X011841Y003949D01*
X011841Y003891D02*
X011901Y003891D01*
X011901Y003832D02*
X011841Y003832D01*
X011841Y003774D02*
X011901Y003774D01*
X011901Y003715D02*
X011841Y003715D01*
X011841Y003657D02*
X011901Y003657D01*
X011901Y003598D02*
X011841Y003598D01*
X011841Y003540D02*
X011901Y003540D01*
X011901Y003481D02*
X011841Y003481D01*
X011841Y003423D02*
X011901Y003423D01*
X011901Y003364D02*
X011841Y003364D01*
X011841Y003306D02*
X011901Y003306D01*
X011901Y003247D02*
X011841Y003247D01*
X011841Y003189D02*
X011901Y003189D01*
X011901Y003130D02*
X011841Y003130D01*
X011841Y003072D02*
X011901Y003072D01*
X011901Y002896D02*
X011841Y002896D01*
X012287Y002896D02*
X012454Y002896D01*
X012443Y002955D02*
X012298Y002955D01*
X012301Y003072D02*
X012441Y003072D01*
X012441Y003130D02*
X012301Y003130D01*
X012301Y003189D02*
X012441Y003189D01*
X012441Y003247D02*
X012301Y003247D01*
X012301Y003306D02*
X012441Y003306D01*
X012441Y003364D02*
X012301Y003364D01*
X012301Y003423D02*
X012441Y003423D01*
X012441Y003481D02*
X012301Y003481D01*
X012301Y003540D02*
X012441Y003540D01*
X012441Y003598D02*
X012301Y003598D01*
X012298Y003657D02*
X012443Y003657D01*
X012454Y003715D02*
X012287Y003715D01*
X012267Y003774D02*
X012474Y003774D01*
X012504Y003832D02*
X012237Y003832D01*
X012193Y003891D02*
X012548Y003891D01*
X012613Y003949D02*
X012128Y003949D01*
X012022Y004008D02*
X012719Y004008D01*
X012841Y004008D02*
X012901Y004008D01*
X012901Y003949D02*
X012841Y003949D01*
X012841Y003891D02*
X012901Y003891D01*
X012901Y003832D02*
X012841Y003832D01*
X012841Y003774D02*
X012901Y003774D01*
X012901Y003715D02*
X012841Y003715D01*
X012841Y003657D02*
X012901Y003657D01*
X012901Y003598D02*
X012841Y003598D01*
X012841Y003540D02*
X012901Y003540D01*
X012901Y003481D02*
X012841Y003481D01*
X012841Y003423D02*
X012901Y003423D01*
X012901Y003364D02*
X012841Y003364D01*
X012841Y003306D02*
X012901Y003306D01*
X012901Y003247D02*
X012841Y003247D01*
X012841Y003189D02*
X012901Y003189D01*
X012901Y003130D02*
X012841Y003130D01*
X012841Y003072D02*
X012901Y003072D01*
X012901Y002896D02*
X012841Y002896D01*
X013301Y003072D02*
X013381Y003072D01*
X013381Y003130D02*
X013301Y003130D01*
X013301Y003189D02*
X013381Y003189D01*
X013381Y003247D02*
X013301Y003247D01*
X013301Y003306D02*
X013381Y003306D01*
X013381Y003364D02*
X013301Y003364D01*
X013301Y003423D02*
X013381Y003423D01*
X013381Y003481D02*
X013301Y003481D01*
X013301Y003540D02*
X013381Y003540D01*
X013381Y003598D02*
X013301Y003598D01*
X013298Y003657D02*
X013381Y003657D01*
X013386Y003715D02*
X013287Y003715D01*
X013267Y003774D02*
X013410Y003774D01*
X013434Y003832D02*
X013237Y003832D01*
X013193Y003891D02*
X013464Y003891D01*
X013521Y003949D02*
X013128Y003949D01*
X013022Y004008D02*
X013521Y004008D01*
X013521Y004066D02*
X011566Y004066D01*
X011625Y004125D02*
X013521Y004125D01*
X013521Y004183D02*
X011683Y004183D01*
X011742Y004242D02*
X013521Y004242D01*
X013521Y004300D02*
X011800Y004300D01*
X011859Y004359D02*
X013521Y004359D01*
X013521Y004417D02*
X011917Y004417D01*
X011976Y004476D02*
X013521Y004476D01*
X013521Y004534D02*
X012034Y004534D01*
X012093Y004593D02*
X013521Y004593D01*
X013521Y004651D02*
X012151Y004651D01*
X012210Y004710D02*
X013521Y004710D01*
X013521Y004768D02*
X012268Y004768D01*
X012327Y004827D02*
X013521Y004827D01*
X013502Y004885D02*
X012385Y004885D01*
X012444Y004944D02*
X013444Y004944D01*
X013385Y005002D02*
X012502Y005002D01*
X012561Y005061D02*
X013327Y005061D01*
X013268Y005119D02*
X012619Y005119D01*
X012678Y005178D02*
X013210Y005178D01*
X013151Y005236D02*
X012736Y005236D01*
X012795Y005295D02*
X013093Y005295D01*
X013034Y005353D02*
X012853Y005353D01*
X012912Y005412D02*
X012976Y005412D01*
X012445Y005821D02*
X006572Y005821D01*
X006631Y005880D02*
X012465Y005880D01*
X012465Y005938D02*
X006689Y005938D01*
X006748Y005997D02*
X009936Y005997D01*
X009953Y005988D02*
X010017Y005967D01*
X010084Y005957D01*
X010088Y005957D01*
X010088Y006357D01*
X009688Y006357D01*
X009688Y006353D01*
X009698Y006286D01*
X009719Y006222D01*
X009750Y006161D01*
X009790Y006106D01*
X009838Y006059D01*
X009892Y006019D01*
X009953Y005988D01*
X009842Y006055D02*
X006806Y006055D01*
X006865Y006114D02*
X009785Y006114D01*
X009744Y006172D02*
X006923Y006172D01*
X006982Y006231D02*
X009716Y006231D01*
X009698Y006289D02*
X007040Y006289D01*
X007099Y006348D02*
X009689Y006348D01*
X009688Y006417D02*
X010088Y006417D01*
X010088Y006817D01*
X010084Y006817D01*
X010017Y006806D01*
X009953Y006785D01*
X009892Y006754D01*
X009838Y006715D01*
X009790Y006667D01*
X009750Y006612D01*
X009719Y006552D01*
X009698Y006487D01*
X009688Y006420D01*
X009688Y006417D01*
X009695Y006465D02*
X007216Y006465D01*
X007274Y006523D02*
X009710Y006523D01*
X009735Y006582D02*
X007333Y006582D01*
X007391Y006640D02*
X009771Y006640D01*
X009822Y006699D02*
X007450Y006699D01*
X007508Y006757D02*
X009898Y006757D01*
X009933Y006933D02*
X007684Y006933D01*
X007742Y006991D02*
X009820Y006991D01*
X009840Y006971D02*
X010020Y006897D01*
X010215Y006897D01*
X010395Y006971D01*
X010533Y007109D01*
X010608Y007289D01*
X010608Y007484D01*
X010533Y007664D01*
X010395Y007802D01*
X010215Y007877D01*
X010020Y007877D01*
X009840Y007802D01*
X009702Y007664D01*
X009628Y007484D01*
X009628Y007289D01*
X009702Y007109D01*
X009840Y006971D01*
X009762Y007050D02*
X007801Y007050D01*
X007859Y007108D02*
X009703Y007108D01*
X009678Y007167D02*
X007918Y007167D01*
X007976Y007225D02*
X009654Y007225D01*
X009630Y007284D02*
X008035Y007284D01*
X008093Y007342D02*
X009628Y007342D01*
X009628Y007401D02*
X008152Y007401D01*
X008210Y007459D02*
X009628Y007459D01*
X009642Y007518D02*
X008269Y007518D01*
X008327Y007576D02*
X009666Y007576D01*
X009690Y007635D02*
X008386Y007635D01*
X008444Y007693D02*
X009731Y007693D01*
X009790Y007752D02*
X008503Y007752D01*
X008561Y007810D02*
X009860Y007810D01*
X009739Y007897D02*
X009628Y008008D01*
X009628Y008765D01*
X009739Y008877D01*
X010496Y008877D01*
X010608Y008765D01*
X010608Y008008D01*
X010496Y007897D01*
X009739Y007897D01*
X009708Y007927D02*
X008678Y007927D01*
X008620Y007869D02*
X010001Y007869D01*
X010234Y007869D02*
X010986Y007869D01*
X011005Y007877D02*
X010824Y007802D01*
X010687Y007664D01*
X010612Y007484D01*
X010612Y007289D01*
X010687Y007109D01*
X010824Y006971D01*
X011005Y006897D01*
X011200Y006897D01*
X011380Y006971D01*
X011517Y007109D01*
X011592Y007289D01*
X011592Y007484D01*
X011517Y007664D01*
X011380Y007802D01*
X011200Y007877D01*
X011005Y007877D01*
X010844Y007810D02*
X010376Y007810D01*
X010446Y007752D02*
X010774Y007752D01*
X010716Y007693D02*
X010504Y007693D01*
X010545Y007635D02*
X010674Y007635D01*
X010650Y007576D02*
X010570Y007576D01*
X010594Y007518D02*
X010626Y007518D01*
X010612Y007459D02*
X010608Y007459D01*
X010608Y007401D02*
X010612Y007401D01*
X010608Y007342D02*
X010612Y007342D01*
X010606Y007284D02*
X010614Y007284D01*
X010639Y007225D02*
X010581Y007225D01*
X010557Y007167D02*
X010663Y007167D01*
X010687Y007108D02*
X010532Y007108D01*
X010474Y007050D02*
X010746Y007050D01*
X010804Y006991D02*
X010415Y006991D01*
X010302Y006933D02*
X010917Y006933D01*
X010937Y006785D02*
X010877Y006754D01*
X010822Y006715D01*
X010774Y006667D01*
X010734Y006612D01*
X010704Y006552D01*
X010683Y006487D01*
X010672Y006420D01*
X010672Y006417D01*
X011072Y006417D01*
X011072Y006817D01*
X011068Y006817D01*
X011001Y006806D01*
X010937Y006785D01*
X010882Y006757D02*
X010338Y006757D01*
X010343Y006754D02*
X010283Y006785D01*
X010218Y006806D01*
X010152Y006817D01*
X010148Y006817D01*
X010148Y006417D01*
X010088Y006417D01*
X010088Y006357D01*
X010148Y006357D01*
X010148Y006417D01*
X010548Y006417D01*
X010548Y006420D01*
X010537Y006487D01*
X010516Y006552D01*
X010486Y006612D01*
X010446Y006667D01*
X010398Y006715D01*
X010343Y006754D01*
X010414Y006699D02*
X010806Y006699D01*
X010755Y006640D02*
X010465Y006640D01*
X010501Y006582D02*
X010719Y006582D01*
X010694Y006523D02*
X010526Y006523D01*
X010541Y006465D02*
X010679Y006465D01*
X010672Y006357D02*
X010672Y006353D01*
X010683Y006286D01*
X010704Y006222D01*
X010734Y006161D01*
X010774Y006106D01*
X010822Y006059D01*
X010877Y006019D01*
X010937Y005988D01*
X011001Y005967D01*
X011068Y005957D01*
X011072Y005957D01*
X011072Y006357D01*
X010672Y006357D01*
X010673Y006348D02*
X010547Y006348D01*
X010548Y006353D02*
X010548Y006357D01*
X010148Y006357D01*
X010148Y005957D01*
X010152Y005957D01*
X010218Y005967D01*
X010283Y005988D01*
X010343Y006019D01*
X010398Y006059D01*
X010446Y006106D01*
X010486Y006161D01*
X010516Y006222D01*
X010537Y006286D01*
X010548Y006353D01*
X010538Y006289D02*
X010682Y006289D01*
X010701Y006231D02*
X010519Y006231D01*
X010491Y006172D02*
X010729Y006172D01*
X010769Y006114D02*
X010451Y006114D01*
X010393Y006055D02*
X010827Y006055D01*
X010920Y005997D02*
X010300Y005997D01*
X010148Y005997D02*
X010088Y005997D01*
X010088Y006055D02*
X010148Y006055D01*
X010148Y006114D02*
X010088Y006114D01*
X010088Y006172D02*
X010148Y006172D01*
X010148Y006231D02*
X010088Y006231D01*
X010088Y006289D02*
X010148Y006289D01*
X010148Y006348D02*
X010088Y006348D01*
X010088Y006406D02*
X007157Y006406D01*
X006803Y006816D02*
X003418Y006816D01*
X003418Y006874D02*
X006861Y006874D01*
X006920Y006933D02*
X003418Y006933D01*
X003418Y006991D02*
X006978Y006991D01*
X007037Y007050D02*
X003418Y007050D01*
X003418Y007108D02*
X007095Y007108D01*
X007154Y007167D02*
X003418Y007167D01*
X003418Y007225D02*
X007212Y007225D01*
X007271Y007284D02*
X003418Y007284D01*
X003418Y007342D02*
X007329Y007342D01*
X007388Y007401D02*
X003418Y007401D01*
X003418Y007459D02*
X007446Y007459D01*
X007505Y007518D02*
X003418Y007518D01*
X003418Y007576D02*
X007563Y007576D01*
X007622Y007635D02*
X003418Y007635D01*
X003418Y007693D02*
X007680Y007693D01*
X007739Y007752D02*
X003418Y007752D01*
X003418Y007810D02*
X007797Y007810D01*
X007856Y007869D02*
X003418Y007869D01*
X003418Y007927D02*
X007914Y007927D01*
X007973Y007986D02*
X003418Y007986D01*
X003418Y008044D02*
X006054Y008044D01*
X006074Y008024D02*
X005755Y008343D01*
X005755Y008538D01*
X006269Y008538D01*
X006269Y008598D01*
X006269Y009111D01*
X006074Y009111D01*
X005755Y008793D01*
X005755Y008598D01*
X006269Y008598D01*
X006329Y008598D01*
X006329Y009111D01*
X006524Y009111D01*
X006842Y008793D01*
X006842Y008598D01*
X006329Y008598D01*
X006329Y008538D01*
X006842Y008538D01*
X006842Y008343D01*
X006524Y008024D01*
X006329Y008024D01*
X006329Y008538D01*
X006269Y008538D01*
X006269Y008024D01*
X006074Y008024D01*
X005995Y008103D02*
X003418Y008103D01*
X003418Y008161D02*
X005937Y008161D01*
X005878Y008220D02*
X003418Y008220D01*
X003418Y008278D02*
X005820Y008278D01*
X005761Y008337D02*
X003418Y008337D01*
X003418Y008395D02*
X005755Y008395D01*
X005755Y008454D02*
X003418Y008454D01*
X003418Y008512D02*
X005755Y008512D01*
X005755Y008629D02*
X003418Y008629D01*
X003418Y008571D02*
X006269Y008571D01*
X006269Y008629D02*
X006329Y008629D01*
X006329Y008571D02*
X008558Y008571D01*
X008616Y008629D02*
X006842Y008629D01*
X006842Y008688D02*
X008675Y008688D01*
X008733Y008746D02*
X006842Y008746D01*
X006830Y008805D02*
X008792Y008805D01*
X008850Y008863D02*
X006772Y008863D01*
X006713Y008922D02*
X008909Y008922D01*
X008967Y008980D02*
X006655Y008980D01*
X006596Y009039D02*
X009026Y009039D01*
X009084Y009097D02*
X006538Y009097D01*
X006329Y009097D02*
X006269Y009097D01*
X006269Y009039D02*
X006329Y009039D01*
X006329Y008980D02*
X006269Y008980D01*
X006269Y008922D02*
X006329Y008922D01*
X006329Y008863D02*
X006269Y008863D01*
X006269Y008805D02*
X006329Y008805D01*
X006329Y008746D02*
X006269Y008746D01*
X006269Y008688D02*
X006329Y008688D01*
X006329Y008512D02*
X006269Y008512D01*
X006269Y008454D02*
X006329Y008454D01*
X006329Y008395D02*
X006269Y008395D01*
X006269Y008337D02*
X006329Y008337D01*
X006329Y008278D02*
X006269Y008278D01*
X006269Y008220D02*
X006329Y008220D01*
X006329Y008161D02*
X006269Y008161D01*
X006269Y008103D02*
X006329Y008103D01*
X006329Y008044D02*
X006269Y008044D01*
X006544Y008044D02*
X008031Y008044D01*
X008090Y008103D02*
X006602Y008103D01*
X006661Y008161D02*
X008148Y008161D01*
X008207Y008220D02*
X006719Y008220D01*
X006778Y008278D02*
X008265Y008278D01*
X008324Y008337D02*
X006836Y008337D01*
X006842Y008395D02*
X008382Y008395D01*
X008441Y008454D02*
X006842Y008454D01*
X006842Y008512D02*
X008499Y008512D01*
X008854Y008103D02*
X009628Y008103D01*
X009628Y008161D02*
X008912Y008161D01*
X008971Y008220D02*
X009628Y008220D01*
X009628Y008278D02*
X009029Y008278D01*
X009088Y008337D02*
X009628Y008337D01*
X009628Y008395D02*
X009146Y008395D01*
X009205Y008454D02*
X009628Y008454D01*
X009628Y008512D02*
X009263Y008512D01*
X009322Y008571D02*
X009628Y008571D01*
X009628Y008629D02*
X009380Y008629D01*
X009439Y008688D02*
X009628Y008688D01*
X009628Y008746D02*
X009497Y008746D01*
X009556Y008805D02*
X009667Y008805D01*
X009614Y008863D02*
X009726Y008863D01*
X009673Y008922D02*
X012465Y008922D01*
X012465Y008980D02*
X009731Y008980D01*
X009790Y009039D02*
X011488Y009039D01*
X011481Y008877D02*
X010723Y008877D01*
X010612Y008765D01*
X010612Y008008D01*
X010723Y007897D01*
X011481Y007897D01*
X011592Y008008D01*
X011592Y008765D01*
X011481Y008877D01*
X011494Y008863D02*
X012465Y008863D01*
X012465Y008805D02*
X011553Y008805D01*
X011592Y008746D02*
X012465Y008746D01*
X012465Y008688D02*
X011592Y008688D01*
X011592Y008629D02*
X012465Y008629D01*
X012465Y008571D02*
X011592Y008571D01*
X011592Y008512D02*
X012465Y008512D01*
X012465Y008454D02*
X011592Y008454D01*
X011592Y008395D02*
X012465Y008395D01*
X012465Y008337D02*
X011592Y008337D01*
X011592Y008278D02*
X012465Y008278D01*
X012465Y008220D02*
X011592Y008220D01*
X011592Y008161D02*
X012465Y008161D01*
X012465Y008103D02*
X011592Y008103D01*
X011592Y008044D02*
X012465Y008044D01*
X012465Y007986D02*
X011570Y007986D01*
X011511Y007927D02*
X012465Y007927D01*
X012465Y007869D02*
X011219Y007869D01*
X011360Y007810D02*
X012465Y007810D01*
X012465Y007752D02*
X011430Y007752D01*
X011488Y007693D02*
X012465Y007693D01*
X012465Y007635D02*
X011530Y007635D01*
X011554Y007576D02*
X012465Y007576D01*
X012465Y007518D02*
X011578Y007518D01*
X011592Y007459D02*
X012465Y007459D01*
X012465Y007401D02*
X011592Y007401D01*
X011592Y007342D02*
X012465Y007342D01*
X012465Y007284D02*
X011590Y007284D01*
X011566Y007225D02*
X012465Y007225D01*
X012465Y007167D02*
X011541Y007167D01*
X011517Y007108D02*
X012465Y007108D01*
X012465Y007050D02*
X011458Y007050D01*
X011400Y006991D02*
X012465Y006991D01*
X012465Y006933D02*
X011287Y006933D01*
X011267Y006785D02*
X011203Y006806D01*
X011136Y006817D01*
X011132Y006817D01*
X011132Y006417D01*
X011072Y006417D01*
X011072Y006357D01*
X011132Y006357D01*
X011132Y006417D01*
X011532Y006417D01*
X011532Y006420D01*
X011521Y006487D01*
X011501Y006552D01*
X011470Y006612D01*
X011430Y006667D01*
X011382Y006715D01*
X011327Y006754D01*
X011267Y006785D01*
X011322Y006757D02*
X012465Y006757D01*
X012465Y006699D02*
X011398Y006699D01*
X011449Y006640D02*
X012465Y006640D01*
X012465Y006582D02*
X011485Y006582D01*
X011510Y006523D02*
X012465Y006523D01*
X012465Y006465D02*
X011525Y006465D01*
X011532Y006357D02*
X011132Y006357D01*
X011132Y005957D01*
X011136Y005957D01*
X011203Y005967D01*
X011267Y005988D01*
X011327Y006019D01*
X011382Y006059D01*
X011430Y006106D01*
X011470Y006161D01*
X011501Y006222D01*
X011521Y006286D01*
X011532Y006353D01*
X011532Y006357D01*
X011531Y006348D02*
X012465Y006348D01*
X012465Y006406D02*
X011132Y006406D01*
X011132Y006348D02*
X011072Y006348D01*
X011072Y006406D02*
X010148Y006406D01*
X010148Y006465D02*
X010088Y006465D01*
X010088Y006523D02*
X010148Y006523D01*
X010148Y006582D02*
X010088Y006582D01*
X010088Y006640D02*
X010148Y006640D01*
X010148Y006699D02*
X010088Y006699D01*
X010088Y006757D02*
X010148Y006757D01*
X010148Y006816D02*
X010088Y006816D01*
X010078Y006816D02*
X007567Y006816D01*
X007625Y006874D02*
X012465Y006874D01*
X012465Y006816D02*
X011141Y006816D01*
X011132Y006816D02*
X011072Y006816D01*
X011063Y006816D02*
X010157Y006816D01*
X011072Y006757D02*
X011132Y006757D01*
X011132Y006699D02*
X011072Y006699D01*
X011072Y006640D02*
X011132Y006640D01*
X011132Y006582D02*
X011072Y006582D01*
X011072Y006523D02*
X011132Y006523D01*
X011132Y006465D02*
X011072Y006465D01*
X011072Y006289D02*
X011132Y006289D01*
X011132Y006231D02*
X011072Y006231D01*
X011072Y006172D02*
X011132Y006172D01*
X011132Y006114D02*
X011072Y006114D01*
X011072Y006055D02*
X011132Y006055D01*
X011132Y005997D02*
X011072Y005997D01*
X011284Y005997D02*
X012465Y005997D01*
X012465Y006055D02*
X011377Y006055D01*
X011435Y006114D02*
X012465Y006114D01*
X012465Y006172D02*
X011475Y006172D01*
X011504Y006231D02*
X012465Y006231D01*
X012465Y006289D02*
X011522Y006289D01*
X012211Y005587D02*
X005575Y005587D01*
X005623Y005646D02*
X012269Y005646D01*
X012328Y005704D02*
X005623Y005704D01*
X005517Y005529D02*
X012152Y005529D01*
X012094Y005470D02*
X004793Y005470D01*
X004793Y005412D02*
X012035Y005412D01*
X011977Y005353D02*
X004793Y005353D01*
X004793Y005295D02*
X011918Y005295D01*
X011860Y005236D02*
X004793Y005236D01*
X004793Y005178D02*
X011801Y005178D01*
X011743Y005119D02*
X004793Y005119D01*
X004793Y005061D02*
X011684Y005061D01*
X011626Y005002D02*
X004793Y005002D01*
X004793Y004944D02*
X011567Y004944D01*
X011509Y004885D02*
X004793Y004885D01*
X004793Y004827D02*
X011450Y004827D01*
X011392Y004768D02*
X004793Y004768D01*
X004793Y004710D02*
X011333Y004710D01*
X011275Y004651D02*
X004793Y004651D01*
X004793Y004593D02*
X011216Y004593D01*
X011158Y004534D02*
X005412Y004534D01*
X005471Y004476D02*
X011099Y004476D01*
X010295Y004417D02*
X005513Y004417D01*
X005513Y004359D02*
X010236Y004359D01*
X010178Y004300D02*
X008428Y004300D01*
X008530Y004242D02*
X010119Y004242D01*
X010061Y004183D02*
X008589Y004183D01*
X008647Y004125D02*
X010002Y004125D01*
X009704Y004066D02*
X009037Y004066D01*
X009161Y004008D02*
X009581Y004008D01*
X009522Y003949D02*
X009219Y003949D01*
X009278Y003891D02*
X009464Y003891D01*
X009434Y003832D02*
X009307Y003832D01*
X009331Y003774D02*
X009410Y003774D01*
X009386Y003715D02*
X009355Y003715D01*
X009361Y003657D02*
X009381Y003657D01*
X009381Y003598D02*
X009361Y003598D01*
X009361Y003540D02*
X009381Y003540D01*
X009381Y003481D02*
X009361Y003481D01*
X009361Y003423D02*
X009381Y003423D01*
X009381Y003364D02*
X009361Y003364D01*
X009361Y003306D02*
X009381Y003306D01*
X009381Y003247D02*
X009361Y003247D01*
X009361Y003189D02*
X009381Y003189D01*
X009381Y003130D02*
X009361Y003130D01*
X009361Y003072D02*
X009381Y003072D01*
X009381Y003013D02*
X009361Y003013D01*
X009361Y002955D02*
X009381Y002955D01*
X009385Y002896D02*
X009356Y002896D01*
X008385Y002896D02*
X003499Y002896D01*
X003447Y002955D02*
X008381Y002955D01*
X008381Y003013D02*
X003423Y003013D01*
X003418Y003072D02*
X008381Y003072D01*
X008381Y003130D02*
X003418Y003130D01*
X003418Y003189D02*
X008381Y003189D01*
X008381Y003247D02*
X003418Y003247D01*
X003418Y003306D02*
X008381Y003306D01*
X008381Y003364D02*
X003418Y003364D01*
X003418Y003423D02*
X008381Y003423D01*
X008381Y003481D02*
X003418Y003481D01*
X003418Y003540D02*
X004200Y003540D01*
X004141Y003598D02*
X003418Y003598D01*
X003418Y003657D02*
X004093Y003657D01*
X004093Y003715D02*
X003418Y003715D01*
X003418Y003774D02*
X004093Y003774D01*
X004093Y003832D02*
X003418Y003832D01*
X003418Y003891D02*
X004093Y003891D01*
X004093Y003949D02*
X003418Y003949D01*
X003418Y004008D02*
X004093Y004008D01*
X004093Y004066D02*
X003418Y004066D01*
X003418Y004125D02*
X004093Y004125D01*
X004093Y004183D02*
X003418Y004183D01*
X003418Y004242D02*
X004093Y004242D01*
X004093Y004300D02*
X003418Y004300D01*
X003418Y004359D02*
X004093Y004359D01*
X004093Y004417D02*
X003418Y004417D01*
X003418Y004476D02*
X004135Y004476D01*
X004193Y004534D02*
X003418Y004534D01*
X003418Y004593D02*
X004253Y004593D01*
X004253Y004651D02*
X003418Y004651D01*
X003418Y004710D02*
X003711Y004710D01*
X003653Y004768D02*
X003418Y004768D01*
X003418Y004827D02*
X003594Y004827D01*
X003549Y004885D02*
X003418Y004885D01*
X003418Y004944D02*
X003549Y004944D01*
X003549Y005002D02*
X003418Y005002D01*
X003418Y005061D02*
X003549Y005061D01*
X003549Y005119D02*
X003418Y005119D01*
X003418Y005178D02*
X003550Y005178D01*
X003608Y005236D02*
X003418Y005236D01*
X003418Y005295D02*
X003667Y005295D01*
X003725Y005353D02*
X003418Y005353D01*
X003418Y005412D02*
X004253Y005412D01*
X004253Y005470D02*
X003418Y005470D01*
X003418Y005529D02*
X004089Y005529D01*
X004030Y005587D02*
X003418Y005587D01*
X003418Y005646D02*
X003983Y005646D01*
X003983Y005704D02*
X003418Y005704D01*
X003418Y005763D02*
X003983Y005763D01*
X003983Y005821D02*
X003418Y005821D01*
X003418Y005880D02*
X003983Y005880D01*
X003983Y005938D02*
X003418Y005938D01*
X003418Y005997D02*
X003983Y005997D01*
X003983Y006055D02*
X003418Y006055D01*
X003418Y006114D02*
X003983Y006114D01*
X003983Y006172D02*
X003418Y006172D01*
X003418Y006231D02*
X003983Y006231D01*
X003983Y006289D02*
X003418Y006289D01*
X003418Y006348D02*
X003983Y006348D01*
X004006Y006406D02*
X003418Y006406D01*
X003418Y006465D02*
X004065Y006465D01*
X003418Y006523D02*
X006510Y006523D01*
X006452Y006465D02*
X005541Y006465D01*
X005599Y006406D02*
X006393Y006406D01*
X006335Y006348D02*
X005623Y006348D01*
X005623Y006289D02*
X006276Y006289D01*
X006569Y006582D02*
X003418Y006582D01*
X003418Y006640D02*
X006627Y006640D01*
X006686Y006699D02*
X003418Y006699D01*
X003418Y006757D02*
X006744Y006757D01*
X006489Y005763D02*
X012386Y005763D01*
X013617Y006465D02*
X015564Y006465D01*
X015505Y006523D02*
X013617Y006523D01*
X013617Y006582D02*
X015447Y006582D01*
X015395Y006640D02*
X013617Y006640D01*
X013617Y006699D02*
X015395Y006699D01*
X015395Y006757D02*
X013617Y006757D01*
X013617Y006816D02*
X015796Y006816D01*
X015796Y006874D02*
X015856Y006874D01*
X015856Y006816D02*
X018552Y006816D01*
X018552Y006842D02*
X018552Y006782D01*
X018151Y006782D01*
X018151Y006633D01*
X018404Y006381D01*
X018552Y006381D01*
X018552Y006782D01*
X018612Y006782D01*
X018612Y006381D01*
X018761Y006381D01*
X019014Y006633D01*
X019014Y006782D01*
X018612Y006782D01*
X018612Y006842D01*
X018552Y006842D01*
X018151Y006842D01*
X018151Y006990D01*
X018404Y007243D01*
X018552Y007243D01*
X018552Y006842D01*
X018552Y006874D02*
X018612Y006874D01*
X018612Y006842D02*
X018612Y007243D01*
X018761Y007243D01*
X019014Y006990D01*
X019014Y006842D01*
X018612Y006842D01*
X018612Y006816D02*
X021308Y006816D01*
X021308Y006842D02*
X020907Y006842D01*
X020907Y006990D01*
X021160Y007243D01*
X021308Y007243D01*
X021308Y006842D01*
X021308Y006874D02*
X021368Y006874D01*
X021368Y006842D02*
X021736Y006842D01*
X021736Y006782D01*
X021368Y006782D01*
X021368Y006842D01*
X021368Y006816D02*
X021736Y006816D01*
X021736Y007050D02*
X021710Y007050D01*
X021736Y007108D02*
X021652Y007108D01*
X021593Y007167D02*
X021736Y007167D01*
X021736Y007225D02*
X021535Y007225D01*
X021368Y007225D02*
X021308Y007225D01*
X021308Y007167D02*
X021368Y007167D01*
X021368Y007108D02*
X021308Y007108D01*
X021308Y007050D02*
X021368Y007050D01*
X021368Y006991D02*
X021308Y006991D01*
X021308Y006933D02*
X021368Y006933D01*
X021368Y006757D02*
X021308Y006757D01*
X021308Y006699D02*
X021368Y006699D01*
X021368Y006640D02*
X021308Y006640D01*
X021308Y006582D02*
X021368Y006582D01*
X021368Y006523D02*
X021308Y006523D01*
X021308Y006465D02*
X021368Y006465D01*
X021368Y006406D02*
X021308Y006406D01*
X021134Y006406D02*
X018787Y006406D01*
X018845Y006465D02*
X021076Y006465D01*
X021017Y006523D02*
X018904Y006523D01*
X018962Y006582D02*
X020959Y006582D01*
X020907Y006640D02*
X019014Y006640D01*
X019014Y006699D02*
X020907Y006699D01*
X020907Y006757D02*
X019014Y006757D01*
X019014Y006874D02*
X020907Y006874D01*
X020907Y006933D02*
X019014Y006933D01*
X019013Y006991D02*
X020908Y006991D01*
X020966Y007050D02*
X018954Y007050D01*
X018896Y007108D02*
X021025Y007108D01*
X021083Y007167D02*
X018837Y007167D01*
X018779Y007225D02*
X021142Y007225D01*
X021087Y007518D02*
X018833Y007518D01*
X018786Y007470D02*
X019074Y007758D01*
X019074Y008165D01*
X018786Y008453D01*
X018379Y008453D01*
X018091Y008165D01*
X018091Y007758D01*
X018379Y007470D01*
X018786Y007470D01*
X018892Y007576D02*
X021029Y007576D01*
X020970Y007635D02*
X018950Y007635D01*
X019009Y007693D02*
X020912Y007693D01*
X020853Y007752D02*
X019067Y007752D01*
X019074Y007810D02*
X020847Y007810D01*
X020847Y007869D02*
X019074Y007869D01*
X019074Y007927D02*
X020847Y007927D01*
X020847Y007986D02*
X019074Y007986D01*
X019074Y008044D02*
X020847Y008044D01*
X020847Y008103D02*
X019074Y008103D01*
X019074Y008161D02*
X020847Y008161D01*
X020902Y008220D02*
X019019Y008220D01*
X018960Y008278D02*
X020960Y008278D01*
X021019Y008337D02*
X018902Y008337D01*
X018843Y008395D02*
X021077Y008395D01*
X021135Y008470D02*
X021034Y008571D01*
X021294Y008454D02*
X013617Y008454D01*
X013617Y008512D02*
X015581Y008512D01*
X015623Y008453D02*
X015335Y008165D01*
X015335Y007758D01*
X015623Y007470D01*
X016030Y007470D01*
X016318Y007758D01*
X016318Y008165D01*
X016030Y008453D01*
X015623Y008453D01*
X015566Y008395D02*
X013617Y008395D01*
X013617Y008337D02*
X015507Y008337D01*
X015449Y008278D02*
X013617Y008278D01*
X013617Y008220D02*
X015390Y008220D01*
X015335Y008161D02*
X013617Y008161D01*
X013617Y008103D02*
X015335Y008103D01*
X015335Y008044D02*
X013617Y008044D01*
X013617Y007986D02*
X015335Y007986D01*
X015335Y007927D02*
X013617Y007927D01*
X013617Y007869D02*
X015335Y007869D01*
X015335Y007810D02*
X013617Y007810D01*
X013617Y007752D02*
X015341Y007752D01*
X015400Y007693D02*
X013617Y007693D01*
X013617Y007635D02*
X015459Y007635D01*
X015517Y007576D02*
X013617Y007576D01*
X013617Y007518D02*
X015576Y007518D01*
X015630Y007225D02*
X013617Y007225D01*
X013617Y007167D02*
X015572Y007167D01*
X015513Y007108D02*
X013617Y007108D01*
X013617Y007050D02*
X015455Y007050D01*
X015396Y006991D02*
X013617Y006991D01*
X013617Y006933D02*
X015395Y006933D01*
X015395Y006874D02*
X013617Y006874D01*
X013617Y007284D02*
X021736Y007284D01*
X021736Y007342D02*
X013617Y007342D01*
X013617Y007401D02*
X021736Y007401D01*
X021736Y007459D02*
X013617Y007459D01*
X013617Y008571D02*
X015522Y008571D01*
X015464Y008629D02*
X013617Y008629D01*
X013617Y008688D02*
X015405Y008688D01*
X015347Y008746D02*
X013617Y008746D01*
X013617Y008805D02*
X015335Y008805D01*
X015335Y008863D02*
X013617Y008863D01*
X013617Y008922D02*
X015335Y008922D01*
X015335Y008980D02*
X013617Y008980D01*
X013617Y009039D02*
X015335Y009039D01*
X015335Y009097D02*
X013617Y009097D01*
X013617Y009156D02*
X015335Y009156D01*
X015385Y009214D02*
X013617Y009214D01*
X013617Y009273D02*
X015443Y009273D01*
X015502Y009331D02*
X013617Y009331D01*
X013617Y009390D02*
X015560Y009390D01*
X015619Y009448D02*
X013617Y009448D01*
X013586Y010092D02*
X015395Y010092D01*
X015405Y010150D02*
X013558Y010150D01*
X013499Y010209D02*
X015464Y010209D01*
X015522Y010267D02*
X013441Y010267D01*
X013382Y010326D02*
X015581Y010326D01*
X015639Y010384D02*
X013324Y010384D01*
X012392Y010326D02*
X006772Y010326D01*
X006714Y010384D02*
X012334Y010384D01*
X012275Y010443D02*
X006655Y010443D01*
X006597Y010501D02*
X012217Y010501D01*
X012158Y010560D02*
X003418Y010560D01*
X003418Y010618D02*
X012100Y010618D01*
X012041Y010677D02*
X003418Y010677D01*
X003418Y010735D02*
X006034Y010735D01*
X005975Y010794D02*
X003418Y010794D01*
X003418Y010852D02*
X005917Y010852D01*
X005858Y010911D02*
X003418Y010911D01*
X003418Y010969D02*
X005800Y010969D01*
X005741Y011028D02*
X003418Y011028D01*
X003418Y011086D02*
X005695Y011086D01*
X005695Y011145D02*
X003418Y011145D01*
X003418Y011203D02*
X005695Y011203D01*
X005695Y011262D02*
X003418Y011262D01*
X003418Y011320D02*
X005695Y011320D01*
X005695Y011379D02*
X003418Y011379D01*
X003418Y011437D02*
X005695Y011437D01*
X005695Y011496D02*
X003418Y011496D01*
X003418Y011554D02*
X005695Y011554D01*
X005735Y011613D02*
X003418Y011613D01*
X003418Y011671D02*
X005793Y011671D01*
X005852Y011730D02*
X003418Y011730D01*
X003418Y011788D02*
X005910Y011788D01*
X005969Y011847D02*
X003418Y011847D01*
X003418Y011905D02*
X006027Y011905D01*
X006805Y011671D02*
X011716Y011671D01*
X011658Y011613D02*
X006863Y011613D01*
X006902Y011554D02*
X011599Y011554D01*
X011541Y011496D02*
X006902Y011496D01*
X006902Y011437D02*
X011521Y011437D01*
X011521Y011379D02*
X006902Y011379D01*
X006902Y011320D02*
X011521Y011320D01*
X011521Y011262D02*
X006902Y011262D01*
X006902Y011203D02*
X011521Y011203D01*
X011548Y011145D02*
X006902Y011145D01*
X006902Y011086D02*
X011606Y011086D01*
X011665Y011028D02*
X006856Y011028D01*
X006798Y010969D02*
X011723Y010969D01*
X011807Y010911D02*
X006739Y010911D01*
X006681Y010852D02*
X011866Y010852D01*
X011924Y010794D02*
X006622Y010794D01*
X006564Y010735D02*
X011983Y010735D01*
X012281Y010267D02*
X006831Y010267D01*
X006889Y010209D02*
X012222Y010209D01*
X012164Y010150D02*
X006902Y010150D01*
X006902Y010196D02*
X006549Y010549D01*
X006049Y010549D01*
X005695Y010196D01*
X005695Y009696D01*
X006049Y009342D01*
X006549Y009342D01*
X006902Y009696D01*
X006902Y010196D01*
X006902Y010092D02*
X012112Y010092D01*
X012112Y010033D02*
X006902Y010033D01*
X006902Y009975D02*
X012112Y009975D01*
X012112Y009916D02*
X006902Y009916D01*
X006902Y009858D02*
X012112Y009858D01*
X012112Y009799D02*
X006902Y009799D01*
X006902Y009741D02*
X012164Y009741D01*
X012223Y009682D02*
X011886Y009682D01*
X011945Y009624D02*
X012281Y009624D01*
X012422Y009565D02*
X012003Y009565D01*
X012061Y009507D02*
X012465Y009507D01*
X012465Y009448D02*
X012061Y009448D01*
X012061Y009390D02*
X012465Y009390D01*
X012465Y009331D02*
X012061Y009331D01*
X012061Y009273D02*
X012465Y009273D01*
X012465Y009214D02*
X012061Y009214D01*
X012014Y009156D02*
X012465Y009156D01*
X012465Y009097D02*
X011955Y009097D01*
X011897Y009039D02*
X012465Y009039D01*
X011499Y009682D02*
X006889Y009682D01*
X006830Y009624D02*
X009667Y009624D01*
X009552Y009565D02*
X006772Y009565D01*
X006713Y009507D02*
X009494Y009507D01*
X009435Y009448D02*
X006655Y009448D01*
X006596Y009390D02*
X009377Y009390D01*
X009318Y009331D02*
X003418Y009331D01*
X003418Y009273D02*
X009260Y009273D01*
X009201Y009214D02*
X003418Y009214D01*
X003418Y009156D02*
X009143Y009156D01*
X008795Y008044D02*
X009628Y008044D01*
X009650Y007986D02*
X008737Y007986D01*
X010527Y007927D02*
X010693Y007927D01*
X010634Y007986D02*
X010586Y007986D01*
X010608Y008044D02*
X010612Y008044D01*
X010608Y008103D02*
X010612Y008103D01*
X010608Y008161D02*
X010612Y008161D01*
X010608Y008220D02*
X010612Y008220D01*
X010608Y008278D02*
X010612Y008278D01*
X010608Y008337D02*
X010612Y008337D01*
X010608Y008395D02*
X010612Y008395D01*
X010608Y008454D02*
X010612Y008454D01*
X010608Y008512D02*
X010612Y008512D01*
X010608Y008571D02*
X010612Y008571D01*
X010608Y008629D02*
X010612Y008629D01*
X010608Y008688D02*
X010612Y008688D01*
X010608Y008746D02*
X010612Y008746D01*
X010651Y008805D02*
X010568Y008805D01*
X010510Y008863D02*
X010710Y008863D01*
X011881Y012081D02*
X003418Y012081D01*
X003418Y012139D02*
X011822Y012139D01*
X011764Y012198D02*
X003418Y012198D01*
X003418Y012256D02*
X011705Y012256D01*
X011647Y012315D02*
X003418Y012315D01*
X003418Y012373D02*
X011641Y012373D01*
X012056Y012373D02*
X012116Y012373D01*
X012116Y012315D02*
X012056Y012315D01*
X012056Y012256D02*
X012116Y012256D01*
X012116Y012198D02*
X012056Y012198D01*
X012056Y012139D02*
X012116Y012139D01*
X012116Y012081D02*
X012056Y012081D01*
X012056Y012549D02*
X012116Y012549D01*
X012116Y012607D02*
X012056Y012607D01*
X012056Y012666D02*
X012116Y012666D01*
X012116Y012724D02*
X012056Y012724D01*
X012056Y012783D02*
X012116Y012783D01*
X012116Y012841D02*
X012056Y012841D01*
X012056Y012900D02*
X012116Y012900D01*
X009666Y016468D02*
X021199Y016468D01*
X021141Y016410D02*
X009574Y016410D01*
X009724Y016527D02*
X021258Y016527D01*
X021316Y016585D02*
X009783Y016585D01*
X009841Y016644D02*
X021375Y016644D01*
X021433Y016702D02*
X009900Y016702D01*
X009958Y016761D02*
X021492Y016761D01*
X021550Y016819D02*
X010017Y016819D01*
X010075Y016878D02*
X021561Y016878D01*
X021561Y016936D02*
X014134Y016936D01*
X014192Y016995D02*
X021587Y016995D01*
X021646Y017053D02*
X014251Y017053D01*
X014309Y017112D02*
X021704Y017112D01*
X021776Y017184D02*
X022081Y017184D01*
X022249Y017016D01*
X022249Y021244D01*
X021759Y021735D01*
X021361Y021735D01*
X021361Y021307D01*
X021286Y021127D01*
X021148Y020989D01*
X020968Y020915D01*
X020773Y020915D01*
X020593Y020989D01*
X020455Y021127D01*
X020381Y021307D01*
X020381Y022102D01*
X020403Y022157D01*
X020338Y022157D01*
X020361Y022102D01*
X020361Y021307D01*
X020286Y021127D01*
X020148Y020989D01*
X019968Y020915D01*
X019773Y020915D01*
X019593Y020989D01*
X019455Y021127D01*
X019381Y021307D01*
X019381Y022102D01*
X019403Y022157D01*
X019338Y022157D01*
X019361Y022102D01*
X019361Y021307D01*
X019286Y021127D01*
X019148Y020989D01*
X018968Y020915D01*
X018773Y020915D01*
X018684Y020952D01*
X018416Y020683D01*
X018369Y020664D01*
X018387Y020646D01*
X018387Y020095D01*
X018349Y020058D01*
X019099Y020058D01*
X019198Y020156D01*
X019424Y020156D01*
X019424Y020646D01*
X019535Y020758D01*
X020047Y020758D01*
X020158Y020646D01*
X020158Y020095D01*
X020158Y020154D02*
X022249Y020154D01*
X022249Y020212D02*
X020158Y020212D01*
X020158Y020271D02*
X022249Y020271D01*
X022249Y020329D02*
X020158Y020329D01*
X020158Y020388D02*
X022249Y020388D01*
X022249Y020446D02*
X020158Y020446D01*
X020158Y020505D02*
X022249Y020505D01*
X022249Y020563D02*
X020158Y020563D01*
X020158Y020622D02*
X022249Y020622D01*
X022249Y020680D02*
X020124Y020680D01*
X020066Y020739D02*
X022249Y020739D01*
X022249Y020797D02*
X018530Y020797D01*
X018471Y020739D02*
X019516Y020739D01*
X019458Y020680D02*
X018409Y020680D01*
X018387Y020622D02*
X019424Y020622D01*
X019424Y020563D02*
X018387Y020563D01*
X018387Y020505D02*
X019424Y020505D01*
X019424Y020446D02*
X018387Y020446D01*
X018387Y020388D02*
X019424Y020388D01*
X019424Y020329D02*
X018387Y020329D01*
X018387Y020271D02*
X019424Y020271D01*
X019424Y020212D02*
X018387Y020212D01*
X018387Y020154D02*
X019195Y020154D01*
X019137Y020095D02*
X018386Y020095D01*
X017749Y019998D02*
X017652Y020095D01*
X017652Y020154D02*
X017351Y020154D01*
X017410Y020212D02*
X017652Y020212D01*
X017652Y020271D02*
X017468Y020271D01*
X017527Y020329D02*
X017652Y020329D01*
X017652Y020388D02*
X017585Y020388D01*
X017644Y020446D02*
X017652Y020446D01*
X017749Y019978D02*
X017176Y019978D01*
X017117Y019920D02*
X017749Y019920D01*
X017749Y019861D02*
X017059Y019861D01*
X017000Y019803D02*
X017749Y019803D01*
X017749Y019744D02*
X016942Y019744D01*
X016883Y019686D02*
X017770Y019686D01*
X017798Y019627D02*
X016825Y019627D01*
X016766Y019569D02*
X017784Y019569D01*
X017748Y019510D02*
X016708Y019510D01*
X016649Y019452D02*
X017723Y019452D01*
X017722Y019393D02*
X016591Y019393D01*
X016532Y019335D02*
X017722Y019335D01*
X017722Y019276D02*
X016474Y019276D01*
X016415Y019218D02*
X017722Y019218D01*
X017722Y019159D02*
X016357Y019159D01*
X016298Y019101D02*
X017722Y019101D01*
X017722Y019042D02*
X016240Y019042D01*
X016181Y018984D02*
X017722Y018984D01*
X017722Y018925D02*
X016123Y018925D01*
X016064Y018867D02*
X017722Y018867D01*
X017722Y018808D02*
X016006Y018808D01*
X015947Y018750D02*
X017722Y018750D01*
X017722Y018691D02*
X015889Y018691D01*
X015830Y018633D02*
X017722Y018633D01*
X017722Y018574D02*
X015772Y018574D01*
X015713Y018516D02*
X017722Y018516D01*
X017722Y018457D02*
X015655Y018457D01*
X015596Y018399D02*
X017722Y018399D01*
X017722Y018340D02*
X015538Y018340D01*
X015479Y018282D02*
X017722Y018282D01*
X017678Y018223D02*
X015421Y018223D01*
X015362Y018165D02*
X017624Y018165D01*
X017624Y018106D02*
X015304Y018106D01*
X015245Y018048D02*
X017624Y018048D01*
X017624Y017989D02*
X015187Y017989D01*
X015128Y017931D02*
X017624Y017931D01*
X017624Y017872D02*
X015070Y017872D01*
X015011Y017814D02*
X017674Y017814D01*
X017732Y017755D02*
X014953Y017755D01*
X014309Y018340D02*
X009543Y018340D01*
X009601Y018282D02*
X014251Y018282D01*
X014192Y018223D02*
X009650Y018223D01*
X009674Y018165D02*
X014134Y018165D01*
X014075Y018106D02*
X009699Y018106D01*
X009718Y018048D02*
X014017Y018048D01*
X013958Y017989D02*
X009718Y017989D01*
X009454Y018399D02*
X014368Y018399D01*
X014426Y018457D02*
X004348Y018457D01*
X004327Y018478D02*
X004233Y018478D01*
X004236Y018481D01*
X004327Y018572D01*
X004453Y018698D01*
X004456Y018701D01*
X004456Y018883D01*
X004329Y019010D01*
X004327Y019012D01*
X004180Y019012D01*
X004107Y019085D01*
X003924Y019085D01*
X003851Y019012D01*
X003704Y019012D01*
X003575Y018883D01*
X003575Y018701D01*
X003678Y018599D01*
X003575Y018496D01*
X003575Y018020D01*
X003604Y017991D01*
X003575Y017962D01*
X003575Y017838D01*
X003575Y017633D01*
X003604Y017604D01*
X003575Y017575D01*
X003575Y017100D01*
X003704Y016971D01*
X003887Y016971D01*
X003979Y017063D01*
X004071Y016971D01*
X004254Y016971D01*
X004456Y017173D01*
X004456Y017412D01*
X004456Y017502D01*
X004456Y017502D01*
X004390Y017568D01*
X004456Y017633D01*
X004456Y017870D01*
X004456Y017962D01*
X004456Y017962D01*
X004456Y017962D01*
X004382Y018036D01*
X004353Y018065D01*
X004456Y018167D01*
X004456Y018349D01*
X004327Y018478D01*
X004271Y018516D02*
X014485Y018516D01*
X014543Y018574D02*
X004329Y018574D01*
X004327Y018572D02*
X004327Y018572D01*
X004388Y018633D02*
X014602Y018633D01*
X014660Y018691D02*
X004446Y018691D01*
X004456Y018750D02*
X014719Y018750D01*
X014777Y018808D02*
X004456Y018808D01*
X004456Y018867D02*
X014836Y018867D01*
X014894Y018925D02*
X004414Y018925D01*
X004355Y018984D02*
X006741Y018984D01*
X006770Y018954D02*
X006642Y019083D01*
X006642Y019266D01*
X006770Y019394D01*
X006788Y019394D01*
X006788Y019706D01*
X006917Y019835D01*
X007099Y019835D01*
X007228Y019706D01*
X007375Y019559D01*
X007375Y019377D01*
X007319Y019321D01*
X007375Y019266D01*
X007375Y019083D01*
X007246Y018954D01*
X006770Y018954D01*
X006683Y019042D02*
X004150Y019042D01*
X004016Y018865D02*
X004016Y018572D01*
X004236Y018792D01*
X003795Y018792D01*
X003644Y018633D02*
X003418Y018633D01*
X003418Y018691D02*
X003585Y018691D01*
X003575Y018750D02*
X003418Y018750D01*
X003418Y018808D02*
X003575Y018808D01*
X003575Y018867D02*
X003418Y018867D01*
X003418Y018925D02*
X003618Y018925D01*
X003676Y018984D02*
X003418Y018984D01*
X003418Y019042D02*
X003881Y019042D01*
X003418Y019101D02*
X006642Y019101D01*
X006642Y019159D02*
X003418Y019159D01*
X003418Y019218D02*
X006642Y019218D01*
X006652Y019276D02*
X003418Y019276D01*
X003418Y019335D02*
X006711Y019335D01*
X006769Y019393D02*
X003418Y019393D01*
X003418Y019452D02*
X006788Y019452D01*
X006788Y019510D02*
X003418Y019510D01*
X003418Y019569D02*
X006788Y019569D01*
X006788Y019627D02*
X003418Y019627D01*
X003418Y019686D02*
X006788Y019686D01*
X006827Y019744D02*
X003418Y019744D01*
X003418Y019803D02*
X006885Y019803D01*
X007008Y019615D02*
X007008Y019174D01*
X006862Y019174D02*
X007155Y019174D01*
X007375Y019159D02*
X007552Y019159D01*
X007552Y019101D02*
X007375Y019101D01*
X007334Y019042D02*
X007593Y019042D01*
X007552Y019083D02*
X007681Y018954D01*
X007937Y018954D01*
X008038Y019055D01*
X008138Y018954D01*
X008320Y018954D01*
X008349Y018983D01*
X008378Y018954D01*
X008707Y018954D01*
X008781Y019028D01*
X008810Y019057D01*
X008912Y018954D01*
X009094Y018954D01*
X009096Y018956D01*
X009370Y019230D01*
X009370Y019412D01*
X009370Y019706D01*
X009241Y019835D01*
X009059Y019835D01*
X009003Y019779D01*
X008948Y019835D01*
X008765Y019835D01*
X008637Y019706D01*
X008637Y019688D01*
X008615Y019688D01*
X008525Y019688D01*
X008378Y019688D01*
X008349Y019659D01*
X008320Y019688D01*
X007918Y019688D01*
X007789Y019559D01*
X007789Y019468D01*
X007681Y019468D01*
X007552Y019339D01*
X007552Y019083D01*
X007552Y019218D02*
X007375Y019218D01*
X007364Y019276D02*
X007552Y019276D01*
X007552Y019335D02*
X007333Y019335D01*
X007375Y019393D02*
X007607Y019393D01*
X007665Y019452D02*
X007375Y019452D01*
X007375Y019510D02*
X007789Y019510D01*
X007799Y019569D02*
X007366Y019569D01*
X007307Y019627D02*
X007857Y019627D01*
X007916Y019686D02*
X007249Y019686D01*
X007190Y019744D02*
X008675Y019744D01*
X008733Y019803D02*
X007132Y019803D01*
X007008Y019615D02*
X007155Y019468D01*
X007276Y018984D02*
X007652Y018984D01*
X007772Y019174D02*
X007772Y019248D01*
X007846Y019248D01*
X007846Y019174D01*
X007772Y019174D01*
X007966Y018984D02*
X008109Y018984D01*
X008050Y019042D02*
X008025Y019042D01*
X008229Y019174D02*
X008229Y019468D01*
X008083Y019468D02*
X008229Y019321D01*
X008396Y019321D02*
X008690Y019321D01*
X008690Y019248D02*
X008690Y019395D01*
X008616Y019468D01*
X008470Y019468D01*
X008396Y019395D01*
X008396Y019321D01*
X008470Y019174D02*
X008616Y019174D01*
X008690Y019248D01*
X008857Y019321D02*
X009003Y019174D01*
X009150Y019321D01*
X009150Y019615D01*
X009370Y019627D02*
X015596Y019627D01*
X015538Y019569D02*
X009370Y019569D01*
X009370Y019510D02*
X015479Y019510D01*
X015421Y019452D02*
X009370Y019452D01*
X009370Y019393D02*
X015362Y019393D01*
X015304Y019335D02*
X009370Y019335D01*
X009370Y019276D02*
X015245Y019276D01*
X015187Y019218D02*
X009358Y019218D01*
X009299Y019159D02*
X015128Y019159D01*
X015070Y019101D02*
X009241Y019101D01*
X009182Y019042D02*
X015011Y019042D01*
X014953Y018984D02*
X009124Y018984D01*
X008883Y018984D02*
X008737Y018984D01*
X008795Y019042D02*
X008824Y019042D01*
X008857Y019321D02*
X008857Y019615D01*
X008980Y019803D02*
X009027Y019803D01*
X009273Y019803D02*
X011748Y019803D01*
X011748Y019861D02*
X003418Y019861D01*
X003418Y019920D02*
X012044Y019920D01*
X012044Y019908D02*
X011748Y019908D01*
X011748Y019744D01*
X009332Y019744D01*
X009370Y019686D02*
X011771Y019686D01*
X011774Y019681D02*
X011798Y019657D01*
X011827Y019639D01*
X011861Y019631D01*
X012044Y019631D01*
X012044Y019908D01*
X012044Y019968D01*
X011748Y019968D01*
X011748Y020132D01*
X011756Y020165D01*
X011774Y020195D01*
X011798Y020219D01*
X011827Y020236D01*
X011861Y020245D01*
X012044Y020245D01*
X012044Y019968D01*
X012104Y019968D01*
X012104Y020245D01*
X012288Y020245D01*
X012322Y020236D01*
X012351Y020219D01*
X012375Y020195D01*
X012392Y020165D01*
X012401Y020132D01*
X012401Y019968D01*
X012104Y019968D01*
X012104Y019908D01*
X012104Y019631D01*
X012288Y019631D01*
X012322Y019639D01*
X012351Y019657D01*
X012375Y019681D01*
X012392Y019710D01*
X012401Y019744D01*
X015713Y019744D01*
X015655Y019686D02*
X012378Y019686D01*
X012401Y019744D02*
X012401Y019908D01*
X012104Y019908D01*
X012044Y019908D01*
X012044Y019861D02*
X012104Y019861D01*
X012104Y019803D02*
X012044Y019803D01*
X012044Y019744D02*
X012104Y019744D01*
X012104Y019686D02*
X012044Y019686D01*
X012104Y019920D02*
X015889Y019920D01*
X015947Y019978D02*
X012401Y019978D01*
X012401Y020037D02*
X016006Y020037D01*
X016064Y020095D02*
X012986Y020095D01*
X012986Y020094D02*
X013003Y020124D01*
X013012Y020157D01*
X013012Y020341D01*
X012734Y020341D01*
X012734Y020044D01*
X012899Y020044D01*
X012932Y020053D01*
X012961Y020070D01*
X012986Y020094D01*
X013011Y020154D02*
X016123Y020154D01*
X016181Y020212D02*
X013012Y020212D01*
X013012Y020271D02*
X016240Y020271D01*
X016298Y020329D02*
X013012Y020329D01*
X013012Y020401D02*
X013012Y020585D01*
X013003Y020618D01*
X012986Y020648D01*
X012961Y020672D01*
X012932Y020689D01*
X012899Y020698D01*
X012734Y020698D01*
X012734Y020401D01*
X012674Y020401D01*
X012674Y020341D01*
X012397Y020341D01*
X012397Y020157D01*
X012406Y020124D01*
X012423Y020094D01*
X012447Y020070D01*
X012477Y020053D01*
X012510Y020044D01*
X012674Y020044D01*
X012674Y020341D01*
X012734Y020341D01*
X012734Y020401D01*
X013012Y020401D01*
X013012Y020446D02*
X016415Y020446D01*
X016357Y020388D02*
X012734Y020388D01*
X012734Y020446D02*
X012674Y020446D01*
X012674Y020401D02*
X012674Y020698D01*
X012510Y020698D01*
X012477Y020689D01*
X012447Y020672D01*
X012423Y020648D01*
X012406Y020618D01*
X012397Y020585D01*
X012397Y020401D01*
X012674Y020401D01*
X012674Y020388D02*
X006769Y020388D01*
X006827Y020446D02*
X012397Y020446D01*
X012397Y020505D02*
X006886Y020505D01*
X006944Y020563D02*
X012397Y020563D01*
X012408Y020622D02*
X007003Y020622D01*
X007061Y020680D02*
X012462Y020680D01*
X012674Y020680D02*
X012734Y020680D01*
X012734Y020622D02*
X012674Y020622D01*
X012674Y020563D02*
X012734Y020563D01*
X012734Y020505D02*
X012674Y020505D01*
X012674Y020329D02*
X012734Y020329D01*
X012734Y020271D02*
X012674Y020271D01*
X012674Y020212D02*
X012734Y020212D01*
X012734Y020154D02*
X012674Y020154D01*
X012674Y020095D02*
X012734Y020095D01*
X012423Y020095D02*
X012401Y020095D01*
X012396Y020154D02*
X012398Y020154D01*
X012397Y020212D02*
X012358Y020212D01*
X012397Y020271D02*
X004501Y020271D01*
X004452Y020212D02*
X011791Y020212D01*
X011753Y020154D02*
X004394Y020154D01*
X003637Y020154D02*
X003418Y020154D01*
X003418Y020212D02*
X003579Y020212D01*
X003530Y020271D02*
X003418Y020271D01*
X003418Y020329D02*
X003530Y020329D01*
X003530Y020388D02*
X003418Y020388D01*
X003418Y020446D02*
X003530Y020446D01*
X003530Y020505D02*
X003418Y020505D01*
X003418Y020563D02*
X003530Y020563D01*
X003530Y020622D02*
X003418Y020622D01*
X003418Y020680D02*
X003530Y020680D01*
X003530Y020739D02*
X003418Y020739D01*
X003418Y020797D02*
X003530Y020797D01*
X003530Y020856D02*
X003418Y020856D01*
X003418Y020914D02*
X003530Y020914D01*
X003566Y020973D02*
X003418Y020973D01*
X003418Y021031D02*
X003530Y021031D01*
X003530Y021090D02*
X003418Y021090D01*
X003418Y021148D02*
X003530Y021148D01*
X003530Y021207D02*
X003418Y021207D01*
X003418Y021265D02*
X003530Y021265D01*
X003530Y021324D02*
X003418Y021324D01*
X003418Y021382D02*
X003530Y021382D01*
X003530Y021441D02*
X003418Y021441D01*
X003418Y021499D02*
X003530Y021499D01*
X003530Y021558D02*
X003418Y021558D01*
X003418Y021616D02*
X003530Y021616D01*
X003530Y021675D02*
X003418Y021675D01*
X003418Y021733D02*
X003586Y021733D01*
X003418Y021792D02*
X004781Y021792D01*
X004781Y021850D02*
X003418Y021850D01*
X003418Y021909D02*
X004781Y021909D01*
X004781Y021967D02*
X003419Y021967D01*
X003435Y022026D02*
X004781Y022026D01*
X004781Y022084D02*
X003470Y022084D01*
X003557Y022143D02*
X004797Y022143D01*
X004781Y021733D02*
X004445Y021733D01*
X004501Y021675D02*
X004781Y021675D01*
X004781Y021616D02*
X004501Y021616D01*
X004501Y021558D02*
X004781Y021558D01*
X004781Y021499D02*
X004501Y021499D01*
X004501Y021441D02*
X004781Y021441D01*
X004781Y021382D02*
X004501Y021382D01*
X004501Y021324D02*
X004781Y021324D01*
X004798Y021265D02*
X004501Y021265D01*
X004501Y021207D02*
X004822Y021207D01*
X004846Y021148D02*
X004501Y021148D01*
X004501Y021090D02*
X004893Y021090D01*
X004951Y021031D02*
X004501Y021031D01*
X004465Y020973D02*
X005033Y020973D01*
X005508Y020973D02*
X006590Y020973D01*
X006648Y021031D02*
X006485Y021031D01*
X006496Y021037D02*
X006551Y021077D01*
X006599Y021125D01*
X006638Y021179D01*
X006669Y021240D01*
X006690Y021304D01*
X006701Y021371D01*
X006701Y021975D01*
X006301Y021975D01*
X006301Y020975D01*
X006304Y020975D01*
X006371Y020985D01*
X006436Y021006D01*
X006496Y021037D01*
X006564Y021090D02*
X006707Y021090D01*
X006765Y021148D02*
X006616Y021148D01*
X006652Y021207D02*
X006822Y021207D01*
X006798Y021265D02*
X006677Y021265D01*
X006693Y021324D02*
X006781Y021324D01*
X006781Y021382D02*
X006701Y021382D01*
X006701Y021441D02*
X006781Y021441D01*
X006781Y021499D02*
X006701Y021499D01*
X006701Y021558D02*
X006781Y021558D01*
X006781Y021616D02*
X006701Y021616D01*
X006701Y021675D02*
X006781Y021675D01*
X006781Y021733D02*
X006701Y021733D01*
X006701Y021792D02*
X006781Y021792D01*
X006781Y021850D02*
X006701Y021850D01*
X006701Y021909D02*
X006781Y021909D01*
X006781Y021967D02*
X006701Y021967D01*
X006781Y022026D02*
X006301Y022026D01*
X006301Y021967D02*
X006241Y021967D01*
X006241Y021975D02*
X006241Y020975D01*
X006237Y020975D01*
X006170Y020985D01*
X006105Y021006D01*
X006045Y021037D01*
X005990Y021077D01*
X005943Y021125D01*
X005903Y021179D01*
X005872Y021240D01*
X005851Y021304D01*
X005841Y021371D01*
X005841Y021975D01*
X006241Y021975D01*
X006241Y022026D02*
X005761Y022026D01*
X005761Y022084D02*
X005848Y022084D01*
X005863Y022143D02*
X005744Y022143D01*
X005761Y021967D02*
X005841Y021967D01*
X005841Y021909D02*
X005761Y021909D01*
X005761Y021850D02*
X005841Y021850D01*
X005841Y021792D02*
X005761Y021792D01*
X005761Y021733D02*
X005841Y021733D01*
X005841Y021675D02*
X005761Y021675D01*
X005761Y021616D02*
X005841Y021616D01*
X005841Y021558D02*
X005761Y021558D01*
X005761Y021499D02*
X005841Y021499D01*
X005841Y021441D02*
X005761Y021441D01*
X005761Y021382D02*
X005841Y021382D01*
X005848Y021324D02*
X005761Y021324D01*
X005743Y021265D02*
X005864Y021265D01*
X005889Y021207D02*
X005719Y021207D01*
X005695Y021148D02*
X005925Y021148D01*
X005977Y021090D02*
X005649Y021090D01*
X005590Y021031D02*
X006056Y021031D01*
X006241Y021031D02*
X006301Y021031D01*
X006301Y021090D02*
X006241Y021090D01*
X006241Y021148D02*
X006301Y021148D01*
X006301Y021207D02*
X006241Y021207D01*
X006241Y021265D02*
X006301Y021265D01*
X006301Y021324D02*
X006241Y021324D01*
X006241Y021382D02*
X006301Y021382D01*
X006301Y021441D02*
X006241Y021441D01*
X006241Y021499D02*
X006301Y021499D01*
X006301Y021558D02*
X006241Y021558D01*
X006241Y021616D02*
X006301Y021616D01*
X006301Y021675D02*
X006241Y021675D01*
X006241Y021733D02*
X006301Y021733D01*
X006301Y021792D02*
X006241Y021792D01*
X006241Y021850D02*
X006301Y021850D01*
X006301Y021909D02*
X006241Y021909D01*
X006693Y022084D02*
X006781Y022084D01*
X006797Y022143D02*
X006678Y022143D01*
X007649Y021090D02*
X007893Y021090D01*
X007846Y021148D02*
X007695Y021148D01*
X007719Y021207D02*
X007822Y021207D01*
X007798Y021265D02*
X007743Y021265D01*
X007761Y021324D02*
X007781Y021324D01*
X007781Y021382D02*
X007761Y021382D01*
X007761Y021441D02*
X007781Y021441D01*
X007781Y021499D02*
X007761Y021499D01*
X007761Y021558D02*
X007781Y021558D01*
X007781Y021616D02*
X007761Y021616D01*
X007761Y021675D02*
X007781Y021675D01*
X007781Y021733D02*
X007761Y021733D01*
X007761Y021792D02*
X007781Y021792D01*
X007781Y021850D02*
X007761Y021850D01*
X007761Y021909D02*
X007781Y021909D01*
X007781Y021967D02*
X007761Y021967D01*
X007761Y022026D02*
X007781Y022026D01*
X007781Y022084D02*
X007761Y022084D01*
X007744Y022143D02*
X007797Y022143D01*
X008744Y022143D02*
X008797Y022143D01*
X008781Y022084D02*
X008761Y022084D01*
X008761Y022026D02*
X008781Y022026D01*
X008781Y021967D02*
X008761Y021967D01*
X008761Y021909D02*
X008781Y021909D01*
X008781Y021850D02*
X008761Y021850D01*
X008761Y021792D02*
X008781Y021792D01*
X008781Y021733D02*
X008761Y021733D01*
X008761Y021675D02*
X008781Y021675D01*
X008781Y021616D02*
X008761Y021616D01*
X008761Y021558D02*
X008781Y021558D01*
X008781Y021499D02*
X008761Y021499D01*
X008761Y021441D02*
X008781Y021441D01*
X008781Y021382D02*
X008761Y021382D01*
X008761Y021324D02*
X008781Y021324D01*
X008798Y021265D02*
X008743Y021265D01*
X008719Y021207D02*
X008822Y021207D01*
X008846Y021148D02*
X008695Y021148D01*
X008649Y021090D02*
X008893Y021090D01*
X008951Y021031D02*
X008590Y021031D01*
X008508Y020973D02*
X009033Y020973D01*
X009508Y020973D02*
X010033Y020973D01*
X009951Y021031D02*
X009590Y021031D01*
X009649Y021090D02*
X009893Y021090D01*
X009846Y021148D02*
X009695Y021148D01*
X009719Y021207D02*
X009822Y021207D01*
X009798Y021265D02*
X009743Y021265D01*
X009761Y021324D02*
X009781Y021324D01*
X009781Y021382D02*
X009761Y021382D01*
X009761Y021441D02*
X009781Y021441D01*
X009781Y021499D02*
X009761Y021499D01*
X009761Y021558D02*
X009781Y021558D01*
X009781Y021616D02*
X009761Y021616D01*
X009761Y021675D02*
X009781Y021675D01*
X009781Y021733D02*
X009761Y021733D01*
X009761Y021792D02*
X009781Y021792D01*
X009781Y021850D02*
X009761Y021850D01*
X009761Y021909D02*
X009781Y021909D01*
X009781Y021967D02*
X009761Y021967D01*
X009761Y022026D02*
X009781Y022026D01*
X009781Y022084D02*
X009761Y022084D01*
X009744Y022143D02*
X009797Y022143D01*
X010744Y022143D02*
X010797Y022143D01*
X010781Y022084D02*
X010761Y022084D01*
X010761Y022026D02*
X010781Y022026D01*
X010781Y021967D02*
X010761Y021967D01*
X010761Y021909D02*
X010781Y021909D01*
X010781Y021850D02*
X010761Y021850D01*
X010761Y021792D02*
X010781Y021792D01*
X010781Y021733D02*
X010761Y021733D01*
X010761Y021675D02*
X010781Y021675D01*
X010781Y021616D02*
X010761Y021616D01*
X010761Y021558D02*
X010781Y021558D01*
X010781Y021499D02*
X010761Y021499D01*
X010761Y021441D02*
X010781Y021441D01*
X010781Y021382D02*
X010761Y021382D01*
X010761Y021324D02*
X010781Y021324D01*
X010798Y021265D02*
X010743Y021265D01*
X010719Y021207D02*
X010822Y021207D01*
X010846Y021148D02*
X010695Y021148D01*
X010649Y021090D02*
X010893Y021090D01*
X010951Y021031D02*
X010590Y021031D01*
X010508Y020973D02*
X011033Y020973D01*
X011508Y020973D02*
X012033Y020973D01*
X011951Y021031D02*
X011590Y021031D01*
X011649Y021090D02*
X011893Y021090D01*
X011846Y021148D02*
X011695Y021148D01*
X011719Y021207D02*
X011822Y021207D01*
X011798Y021265D02*
X011743Y021265D01*
X011761Y021324D02*
X011781Y021324D01*
X011781Y021382D02*
X011761Y021382D01*
X011761Y021441D02*
X011781Y021441D01*
X011781Y021499D02*
X011761Y021499D01*
X011761Y021558D02*
X011781Y021558D01*
X011781Y021616D02*
X011761Y021616D01*
X011761Y021675D02*
X011781Y021675D01*
X011781Y021733D02*
X011761Y021733D01*
X011761Y021792D02*
X011781Y021792D01*
X011781Y021850D02*
X011761Y021850D01*
X011761Y021909D02*
X011781Y021909D01*
X011781Y021967D02*
X011761Y021967D01*
X011761Y022026D02*
X011781Y022026D01*
X011781Y022084D02*
X011761Y022084D01*
X011744Y022143D02*
X011797Y022143D01*
X012744Y022143D02*
X013397Y022143D01*
X013381Y022084D02*
X012761Y022084D01*
X012761Y022026D02*
X013381Y022026D01*
X013381Y021967D02*
X012761Y021967D01*
X012761Y021909D02*
X013381Y021909D01*
X013381Y021850D02*
X012761Y021850D01*
X012761Y021792D02*
X013381Y021792D01*
X013381Y021733D02*
X012761Y021733D01*
X012761Y021675D02*
X013381Y021675D01*
X013381Y021616D02*
X012761Y021616D01*
X012761Y021558D02*
X013381Y021558D01*
X013381Y021499D02*
X012761Y021499D01*
X012761Y021441D02*
X013381Y021441D01*
X013381Y021382D02*
X012761Y021382D01*
X012761Y021324D02*
X013381Y021324D01*
X013398Y021265D02*
X012743Y021265D01*
X012719Y021207D02*
X013422Y021207D01*
X013446Y021148D02*
X012695Y021148D01*
X012649Y021090D02*
X013493Y021090D01*
X013551Y021031D02*
X012590Y021031D01*
X012508Y020973D02*
X013633Y020973D01*
X014108Y020973D02*
X014633Y020973D01*
X014551Y021031D02*
X014190Y021031D01*
X014249Y021090D02*
X014493Y021090D01*
X014446Y021148D02*
X014295Y021148D01*
X014319Y021207D02*
X014422Y021207D01*
X014398Y021265D02*
X014343Y021265D01*
X014361Y021324D02*
X014381Y021324D01*
X014381Y021382D02*
X014361Y021382D01*
X014361Y021441D02*
X014381Y021441D01*
X014381Y021499D02*
X014361Y021499D01*
X014361Y021558D02*
X014381Y021558D01*
X014381Y021616D02*
X014361Y021616D01*
X014361Y021675D02*
X014381Y021675D01*
X014381Y021733D02*
X014361Y021733D01*
X014361Y021792D02*
X014381Y021792D01*
X014381Y021850D02*
X014361Y021850D01*
X014361Y021909D02*
X014381Y021909D01*
X014381Y021967D02*
X014361Y021967D01*
X014361Y022026D02*
X014381Y022026D01*
X014381Y022084D02*
X014361Y022084D01*
X014344Y022143D02*
X014397Y022143D01*
X015319Y021207D02*
X015422Y021207D01*
X015398Y021265D02*
X015343Y021265D01*
X015361Y021324D02*
X015381Y021324D01*
X015381Y021382D02*
X015361Y021382D01*
X015361Y021441D02*
X015381Y021441D01*
X015381Y021499D02*
X015361Y021499D01*
X015361Y021558D02*
X015381Y021558D01*
X015381Y021616D02*
X015361Y021616D01*
X015361Y021675D02*
X015381Y021675D01*
X015381Y021733D02*
X015361Y021733D01*
X015361Y021792D02*
X015381Y021792D01*
X015381Y021850D02*
X015361Y021850D01*
X015361Y021909D02*
X015381Y021909D01*
X015381Y021967D02*
X015361Y021967D01*
X015361Y022026D02*
X015381Y022026D01*
X015381Y022084D02*
X015361Y022084D01*
X015344Y022143D02*
X015397Y022143D01*
X016344Y022143D02*
X016397Y022143D01*
X016381Y022084D02*
X016361Y022084D01*
X016361Y022026D02*
X016381Y022026D01*
X016381Y021967D02*
X016361Y021967D01*
X016361Y021909D02*
X016381Y021909D01*
X016381Y021850D02*
X016361Y021850D01*
X016361Y021792D02*
X016381Y021792D01*
X016381Y021733D02*
X016361Y021733D01*
X016361Y021675D02*
X016381Y021675D01*
X016381Y021616D02*
X016361Y021616D01*
X016361Y021558D02*
X016381Y021558D01*
X016381Y021499D02*
X016361Y021499D01*
X016361Y021441D02*
X016381Y021441D01*
X016381Y021382D02*
X016361Y021382D01*
X016361Y021324D02*
X016381Y021324D01*
X016398Y021265D02*
X016343Y021265D01*
X016319Y021207D02*
X016422Y021207D01*
X016446Y021148D02*
X016295Y021148D01*
X016249Y021090D02*
X016493Y021090D01*
X016551Y021031D02*
X016190Y021031D01*
X016108Y020973D02*
X016633Y020973D01*
X016766Y020797D02*
X007178Y020797D01*
X007120Y020739D02*
X016708Y020739D01*
X016649Y020680D02*
X012947Y020680D01*
X013000Y020622D02*
X016591Y020622D01*
X016532Y020563D02*
X013012Y020563D01*
X013012Y020505D02*
X016474Y020505D01*
X016825Y020856D02*
X007237Y020856D01*
X007295Y020914D02*
X016883Y020914D01*
X015830Y019861D02*
X012401Y019861D01*
X012401Y019803D02*
X015772Y019803D01*
X015633Y020973D02*
X015108Y020973D01*
X015190Y021031D02*
X015551Y021031D01*
X015493Y021090D02*
X015249Y021090D01*
X015295Y021148D02*
X015446Y021148D01*
X018588Y020856D02*
X022249Y020856D01*
X022249Y020914D02*
X018647Y020914D01*
X019108Y020973D02*
X019633Y020973D01*
X019551Y021031D02*
X019190Y021031D01*
X019249Y021090D02*
X019493Y021090D01*
X019446Y021148D02*
X019295Y021148D01*
X019319Y021207D02*
X019422Y021207D01*
X019398Y021265D02*
X019343Y021265D01*
X019361Y021324D02*
X019381Y021324D01*
X019381Y021382D02*
X019361Y021382D01*
X019361Y021441D02*
X019381Y021441D01*
X019381Y021499D02*
X019361Y021499D01*
X019361Y021558D02*
X019381Y021558D01*
X019381Y021616D02*
X019361Y021616D01*
X019361Y021675D02*
X019381Y021675D01*
X019381Y021733D02*
X019361Y021733D01*
X019361Y021792D02*
X019381Y021792D01*
X019381Y021850D02*
X019361Y021850D01*
X019361Y021909D02*
X019381Y021909D01*
X019381Y021967D02*
X019361Y021967D01*
X019361Y022026D02*
X019381Y022026D01*
X019381Y022084D02*
X019361Y022084D01*
X019344Y022143D02*
X019397Y022143D01*
X020344Y022143D02*
X020397Y022143D01*
X020381Y022084D02*
X020361Y022084D01*
X020361Y022026D02*
X020381Y022026D01*
X020381Y021967D02*
X020361Y021967D01*
X020361Y021909D02*
X020381Y021909D01*
X020381Y021850D02*
X020361Y021850D01*
X020361Y021792D02*
X020381Y021792D01*
X020381Y021733D02*
X020361Y021733D01*
X020361Y021675D02*
X020381Y021675D01*
X020381Y021616D02*
X020361Y021616D01*
X020361Y021558D02*
X020381Y021558D01*
X020381Y021499D02*
X020361Y021499D01*
X020361Y021441D02*
X020381Y021441D01*
X020381Y021382D02*
X020361Y021382D01*
X020361Y021324D02*
X020381Y021324D01*
X020398Y021265D02*
X020343Y021265D01*
X020319Y021207D02*
X020422Y021207D01*
X020446Y021148D02*
X020295Y021148D01*
X020249Y021090D02*
X020493Y021090D01*
X020551Y021031D02*
X020190Y021031D01*
X020108Y020973D02*
X020633Y020973D01*
X021108Y020973D02*
X022249Y020973D01*
X022249Y021031D02*
X021190Y021031D01*
X021249Y021090D02*
X022249Y021090D01*
X022249Y021148D02*
X021295Y021148D01*
X021319Y021207D02*
X022249Y021207D01*
X022228Y021265D02*
X021343Y021265D01*
X021361Y021324D02*
X022170Y021324D01*
X022111Y021382D02*
X021361Y021382D01*
X021361Y021441D02*
X022053Y021441D01*
X021994Y021499D02*
X021361Y021499D01*
X021361Y021558D02*
X021936Y021558D01*
X021877Y021616D02*
X021361Y021616D01*
X021361Y021675D02*
X021819Y021675D01*
X021760Y021733D02*
X021361Y021733D01*
X022095Y017170D02*
X022249Y017170D01*
X022249Y017112D02*
X022153Y017112D01*
X022212Y017053D02*
X022249Y017053D01*
X022698Y016644D02*
X022723Y016644D01*
X022723Y016585D02*
X022639Y016585D01*
X022581Y016527D02*
X022723Y016527D01*
X022723Y016468D02*
X022522Y016468D01*
X022464Y016410D02*
X022723Y016410D01*
X022723Y016351D02*
X022405Y016351D01*
X022347Y016293D02*
X022723Y016293D01*
X022723Y016234D02*
X022288Y016234D01*
X022230Y016176D02*
X022723Y016176D01*
X022723Y016117D02*
X022171Y016117D01*
X022113Y016059D02*
X022723Y016059D01*
X022723Y016000D02*
X022054Y016000D01*
X021996Y015942D02*
X022723Y015942D01*
X022723Y015883D02*
X021937Y015883D01*
X021879Y015825D02*
X022723Y015825D01*
X022723Y015766D02*
X021820Y015766D01*
X021762Y015708D02*
X022723Y015708D01*
X022723Y015649D02*
X021703Y015649D01*
X021645Y015591D02*
X022723Y015591D01*
X022723Y015532D02*
X021586Y015532D01*
X021528Y015474D02*
X022723Y015474D01*
X022723Y015415D02*
X021469Y015415D01*
X021411Y015357D02*
X022723Y015357D01*
X022723Y015298D02*
X021352Y015298D01*
X021294Y015240D02*
X022723Y015240D01*
X022723Y015181D02*
X021235Y015181D01*
X021150Y015123D02*
X022723Y015123D01*
X022723Y015064D02*
X020127Y015064D01*
X020069Y015006D02*
X022723Y015006D01*
X021082Y016351D02*
X008421Y016351D01*
X008479Y016293D02*
X021024Y016293D01*
X019513Y015006D02*
X019478Y015006D01*
X021835Y012724D02*
X022723Y012724D01*
X022723Y012666D02*
X021824Y012666D01*
X021806Y012607D02*
X022723Y012607D01*
X022723Y012549D02*
X021776Y012549D01*
X021732Y012490D02*
X022723Y012490D01*
X022723Y012432D02*
X021663Y012432D01*
X021551Y012198D02*
X022723Y012198D01*
X022723Y012256D02*
X020895Y012256D01*
X020895Y012198D02*
X021338Y012198D01*
X021197Y012139D02*
X020884Y012139D01*
X020860Y012081D02*
X021134Y012081D01*
X021692Y012139D02*
X022723Y012139D01*
X022723Y012081D02*
X021755Y012081D01*
X021813Y012022D02*
X022723Y012022D01*
X022723Y011964D02*
X021845Y011964D01*
X021869Y011905D02*
X022723Y011905D01*
X022723Y011847D02*
X021894Y011847D01*
X021895Y011788D02*
X022723Y011788D01*
X022723Y011730D02*
X021895Y011730D01*
X021895Y011671D02*
X022723Y011671D01*
X022723Y011613D02*
X021873Y011613D01*
X021849Y011554D02*
X022723Y011554D01*
X022723Y011496D02*
X021822Y011496D01*
X021763Y011437D02*
X022723Y011437D01*
X022723Y011379D02*
X021705Y011379D01*
X021572Y011320D02*
X022723Y011320D01*
X022723Y011262D02*
X021221Y011262D01*
X021221Y011203D02*
X022723Y011203D01*
X022723Y011145D02*
X021221Y011145D01*
X021213Y011086D02*
X022723Y011086D01*
X022723Y011028D02*
X021188Y011028D01*
X021164Y010969D02*
X022723Y010969D01*
X022723Y010911D02*
X021129Y010911D01*
X021071Y010852D02*
X022723Y010852D01*
X022723Y010794D02*
X021012Y010794D01*
X020873Y010735D02*
X022723Y010735D01*
X022723Y010677D02*
X017671Y010677D01*
X017671Y010735D02*
X020598Y010735D01*
X020459Y010794D02*
X017671Y010794D01*
X017671Y010852D02*
X020401Y010852D01*
X020342Y010911D02*
X017671Y010911D01*
X017671Y010969D02*
X020308Y010969D01*
X021034Y010267D02*
X018886Y010267D01*
X018828Y010326D02*
X021093Y010326D01*
X021151Y010384D02*
X018769Y010384D01*
X018761Y010393D02*
X018612Y010393D01*
X018612Y009991D01*
X019014Y009991D01*
X019014Y010140D01*
X018761Y010393D01*
X018612Y010384D02*
X018552Y010384D01*
X018552Y010393D02*
X018404Y010393D01*
X018151Y010140D01*
X018151Y009991D01*
X018552Y009991D01*
X018552Y009931D01*
X018612Y009931D01*
X018612Y009530D01*
X018761Y009530D01*
X019014Y009783D01*
X019014Y009931D01*
X018612Y009931D01*
X018612Y009991D01*
X018552Y009991D01*
X018552Y010393D01*
X018552Y010326D02*
X018612Y010326D01*
X018612Y010267D02*
X018552Y010267D01*
X018552Y010209D02*
X018612Y010209D01*
X018612Y010150D02*
X018552Y010150D01*
X018552Y010092D02*
X018612Y010092D01*
X018612Y010033D02*
X018552Y010033D01*
X018552Y009975D02*
X017671Y009975D01*
X017671Y010033D02*
X018151Y010033D01*
X018151Y010092D02*
X017671Y010092D01*
X017671Y010150D02*
X018161Y010150D01*
X018220Y010209D02*
X017671Y010209D01*
X017671Y010267D02*
X018278Y010267D01*
X018337Y010326D02*
X017671Y010326D01*
X017671Y010384D02*
X018395Y010384D01*
X018612Y009975D02*
X021308Y009975D01*
X021308Y009991D02*
X021308Y009931D01*
X021368Y009931D01*
X021368Y009991D01*
X021769Y009991D01*
X021769Y010140D01*
X021517Y010393D01*
X021368Y010393D01*
X021368Y009991D01*
X021308Y009991D01*
X020907Y009991D01*
X020907Y010140D01*
X021160Y010393D01*
X021308Y010393D01*
X021308Y009991D01*
X021308Y010033D02*
X021368Y010033D01*
X021368Y009975D02*
X022723Y009975D01*
X022723Y010033D02*
X021769Y010033D01*
X021769Y010092D02*
X022723Y010092D01*
X022723Y010150D02*
X021759Y010150D01*
X021701Y010209D02*
X022723Y010209D01*
X022723Y010267D02*
X021642Y010267D01*
X021584Y010326D02*
X022723Y010326D01*
X022723Y010384D02*
X021525Y010384D01*
X021368Y010384D02*
X021308Y010384D01*
X021308Y010326D02*
X021368Y010326D01*
X021368Y010267D02*
X021308Y010267D01*
X021308Y010209D02*
X021368Y010209D01*
X021368Y010150D02*
X021308Y010150D01*
X021308Y010092D02*
X021368Y010092D01*
X021308Y009931D02*
X020907Y009931D01*
X020907Y009783D01*
X021160Y009530D01*
X021308Y009530D01*
X021308Y009931D01*
X021308Y009916D02*
X021368Y009916D01*
X021368Y009858D02*
X021308Y009858D01*
X021308Y009799D02*
X021368Y009799D01*
X021368Y009741D02*
X021308Y009741D01*
X021308Y009682D02*
X021368Y009682D01*
X021368Y009624D02*
X021308Y009624D01*
X021308Y009565D02*
X021368Y009565D01*
X021125Y009565D02*
X018796Y009565D01*
X018854Y009624D02*
X021066Y009624D01*
X021008Y009682D02*
X018913Y009682D01*
X018971Y009741D02*
X020949Y009741D01*
X020907Y009799D02*
X019014Y009799D01*
X019014Y009858D02*
X020907Y009858D01*
X020907Y009916D02*
X019014Y009916D01*
X019014Y010033D02*
X020907Y010033D01*
X020907Y010092D02*
X019014Y010092D01*
X019003Y010150D02*
X020917Y010150D01*
X020976Y010209D02*
X018945Y010209D01*
X018612Y009916D02*
X018552Y009916D01*
X018552Y009931D02*
X018552Y009530D01*
X018404Y009530D01*
X018151Y009783D01*
X018151Y009931D01*
X018552Y009931D01*
X018552Y009858D02*
X018612Y009858D01*
X018612Y009799D02*
X018552Y009799D01*
X018552Y009741D02*
X018612Y009741D01*
X018612Y009682D02*
X018552Y009682D01*
X018552Y009624D02*
X018612Y009624D01*
X018612Y009565D02*
X018552Y009565D01*
X018369Y009565D02*
X017671Y009565D01*
X017671Y009624D02*
X018310Y009624D01*
X018252Y009682D02*
X017671Y009682D01*
X017671Y009741D02*
X018193Y009741D01*
X018151Y009799D02*
X017671Y009799D01*
X017671Y009858D02*
X018151Y009858D01*
X018151Y009916D02*
X017671Y009916D01*
X017671Y010443D02*
X022723Y010443D01*
X022723Y010501D02*
X017671Y010501D01*
X017671Y010560D02*
X022723Y010560D01*
X022723Y010618D02*
X017671Y010618D01*
X018790Y009448D02*
X021130Y009448D01*
X021072Y009390D02*
X018849Y009390D01*
X018322Y008395D02*
X016087Y008395D01*
X016146Y008337D02*
X018263Y008337D01*
X018205Y008278D02*
X016204Y008278D01*
X016263Y008220D02*
X018146Y008220D01*
X018091Y008161D02*
X016318Y008161D01*
X016318Y008103D02*
X018091Y008103D01*
X018091Y008044D02*
X016318Y008044D01*
X016318Y007986D02*
X018091Y007986D01*
X018091Y007927D02*
X016318Y007927D01*
X016318Y007869D02*
X018091Y007869D01*
X018091Y007810D02*
X016318Y007810D01*
X016311Y007752D02*
X018097Y007752D01*
X018156Y007693D02*
X016253Y007693D01*
X016194Y007635D02*
X018214Y007635D01*
X018273Y007576D02*
X016136Y007576D01*
X016077Y007518D02*
X018331Y007518D01*
X018386Y007225D02*
X016023Y007225D01*
X016081Y007167D02*
X018327Y007167D01*
X018269Y007108D02*
X016140Y007108D01*
X016198Y007050D02*
X018210Y007050D01*
X018152Y006991D02*
X016257Y006991D01*
X016258Y006933D02*
X018151Y006933D01*
X018151Y006874D02*
X016258Y006874D01*
X016258Y006757D02*
X018151Y006757D01*
X018151Y006699D02*
X016258Y006699D01*
X016258Y006640D02*
X018151Y006640D01*
X018203Y006582D02*
X016206Y006582D01*
X016148Y006523D02*
X018261Y006523D01*
X018320Y006465D02*
X016089Y006465D01*
X016031Y006406D02*
X018378Y006406D01*
X018365Y006289D02*
X016044Y006289D01*
X016102Y006231D02*
X018307Y006231D01*
X018552Y006406D02*
X018612Y006406D01*
X018612Y006465D02*
X018552Y006465D01*
X018552Y006523D02*
X018612Y006523D01*
X018612Y006582D02*
X018552Y006582D01*
X018552Y006640D02*
X018612Y006640D01*
X018612Y006699D02*
X018552Y006699D01*
X018552Y006757D02*
X018612Y006757D01*
X018612Y006933D02*
X018552Y006933D01*
X018552Y006991D02*
X018612Y006991D01*
X018612Y007050D02*
X018552Y007050D01*
X018552Y007108D02*
X018612Y007108D01*
X018612Y007167D02*
X018552Y007167D01*
X018552Y007225D02*
X018612Y007225D01*
X018800Y006289D02*
X021121Y006289D01*
X021063Y006231D02*
X018858Y006231D01*
X021589Y007518D02*
X021736Y007518D01*
X021736Y007576D02*
X021648Y007576D01*
X021706Y007635D02*
X021736Y007635D01*
X021610Y009624D02*
X022723Y009624D01*
X022723Y009682D02*
X021669Y009682D01*
X021727Y009741D02*
X022723Y009741D01*
X022723Y009799D02*
X021769Y009799D01*
X021769Y009858D02*
X022723Y009858D01*
X022723Y009916D02*
X021769Y009916D01*
X021318Y011320D02*
X021213Y011320D01*
X015856Y010384D02*
X015796Y010384D01*
X015796Y010326D02*
X015856Y010326D01*
X015856Y010267D02*
X015796Y010267D01*
X015796Y010209D02*
X015856Y010209D01*
X015856Y010150D02*
X015796Y010150D01*
X015796Y010092D02*
X015856Y010092D01*
X015856Y009916D02*
X015796Y009916D01*
X015796Y009858D02*
X015856Y009858D01*
X015856Y009799D02*
X015796Y009799D01*
X015796Y009741D02*
X015856Y009741D01*
X015856Y009682D02*
X015796Y009682D01*
X015796Y009624D02*
X015856Y009624D01*
X015856Y009565D02*
X015796Y009565D01*
X015796Y007225D02*
X015856Y007225D01*
X015856Y007167D02*
X015796Y007167D01*
X015796Y007108D02*
X015856Y007108D01*
X015856Y007050D02*
X015796Y007050D01*
X015796Y006991D02*
X015856Y006991D01*
X015856Y006933D02*
X015796Y006933D01*
X015796Y006757D02*
X015856Y006757D01*
X015856Y006699D02*
X015796Y006699D01*
X015796Y006640D02*
X015856Y006640D01*
X015856Y006582D02*
X015796Y006582D01*
X015796Y006523D02*
X015856Y006523D01*
X015856Y006465D02*
X015796Y006465D01*
X015796Y006406D02*
X015856Y006406D01*
X008381Y003598D02*
X005465Y003598D01*
X005513Y003657D02*
X008352Y003657D01*
X008293Y003715D02*
X005513Y003715D01*
X005406Y003540D02*
X008381Y003540D01*
X004837Y005529D02*
X004793Y005529D01*
X004253Y005353D02*
X004109Y005353D01*
X004167Y005295D02*
X004253Y005295D01*
X004253Y004710D02*
X004123Y004710D01*
X004793Y006465D02*
X004813Y006465D01*
X005755Y008688D02*
X003418Y008688D01*
X003418Y008746D02*
X005755Y008746D01*
X005767Y008805D02*
X003418Y008805D01*
X003418Y008863D02*
X005826Y008863D01*
X005884Y008922D02*
X003418Y008922D01*
X003418Y008980D02*
X005943Y008980D01*
X006001Y009039D02*
X003418Y009039D01*
X003418Y009097D02*
X006060Y009097D01*
X006002Y009390D02*
X003418Y009390D01*
X003418Y009448D02*
X005943Y009448D01*
X005885Y009507D02*
X003418Y009507D01*
X003418Y009565D02*
X005826Y009565D01*
X005768Y009624D02*
X003418Y009624D01*
X003418Y009682D02*
X005709Y009682D01*
X005695Y009741D02*
X003418Y009741D01*
X003418Y009799D02*
X005695Y009799D01*
X005695Y009858D02*
X003418Y009858D01*
X003418Y009916D02*
X005695Y009916D01*
X005695Y009975D02*
X003418Y009975D01*
X003418Y010033D02*
X005695Y010033D01*
X005695Y010092D02*
X003418Y010092D01*
X003418Y010150D02*
X005695Y010150D01*
X005709Y010209D02*
X003418Y010209D01*
X003418Y010267D02*
X005767Y010267D01*
X005826Y010326D02*
X003418Y010326D01*
X003418Y010384D02*
X005884Y010384D01*
X005943Y010443D02*
X003418Y010443D01*
X003418Y010501D02*
X006001Y010501D01*
X005936Y012900D02*
X003418Y012900D01*
X003418Y012958D02*
X003650Y012958D01*
X003591Y013017D02*
X003418Y013017D01*
X003418Y013075D02*
X003575Y013075D01*
X003575Y013134D02*
X003418Y013134D01*
X003418Y013192D02*
X003575Y013192D01*
X003611Y013251D02*
X003418Y013251D01*
X003418Y013309D02*
X003592Y013309D01*
X003575Y013368D02*
X003418Y013368D01*
X003418Y013426D02*
X003575Y013426D01*
X003575Y013485D02*
X003418Y013485D01*
X003418Y013543D02*
X003599Y013543D01*
X003575Y013602D02*
X003418Y013602D01*
X003418Y013660D02*
X003575Y013660D01*
X003575Y013719D02*
X003418Y013719D01*
X003418Y013777D02*
X003575Y013777D01*
X003575Y013836D02*
X003418Y013836D01*
X003418Y013894D02*
X003575Y013894D01*
X003575Y013953D02*
X003418Y013953D01*
X003418Y014011D02*
X003575Y014011D01*
X003575Y014070D02*
X003418Y014070D01*
X003418Y014128D02*
X003575Y014128D01*
X003626Y014187D02*
X003418Y014187D01*
X003418Y014245D02*
X003577Y014245D01*
X003575Y014304D02*
X003418Y014304D01*
X003418Y014362D02*
X003575Y014362D01*
X003575Y014421D02*
X003418Y014421D01*
X003418Y014479D02*
X003510Y014479D01*
X003452Y014538D02*
X003418Y014538D01*
X003418Y014596D02*
X003429Y014596D01*
X003429Y014655D02*
X003418Y014655D01*
X003418Y014713D02*
X003429Y014713D01*
X003429Y014772D02*
X003418Y014772D01*
X003429Y014816D02*
X003429Y014816D01*
X003429Y014816D01*
X003418Y014830D02*
X003443Y014830D01*
X003418Y014889D02*
X003501Y014889D01*
X003560Y014947D02*
X003418Y014947D01*
X003418Y015006D02*
X003575Y015006D01*
X003575Y015064D02*
X003418Y015064D01*
X003418Y015123D02*
X003575Y015123D01*
X003575Y015181D02*
X003418Y015181D01*
X003418Y015240D02*
X003575Y015240D01*
X003575Y015298D02*
X003418Y015298D01*
X003418Y015357D02*
X003575Y015357D01*
X003575Y015415D02*
X003418Y015415D01*
X003418Y015474D02*
X003575Y015474D01*
X003591Y015532D02*
X003418Y015532D01*
X003418Y015591D02*
X003649Y015591D01*
X003855Y015649D02*
X003418Y015649D01*
X003418Y015708D02*
X003869Y015708D01*
X003898Y015766D02*
X003418Y015766D01*
X003418Y015825D02*
X003957Y015825D01*
X004089Y015646D02*
X004089Y015573D01*
X003942Y015426D01*
X003795Y015426D02*
X004089Y015426D01*
X004089Y015259D02*
X003795Y015259D01*
X003795Y015039D01*
X003869Y014965D01*
X004089Y014965D01*
X004089Y014799D02*
X003722Y014799D01*
X003649Y014725D01*
X003649Y014652D01*
X003795Y014578D02*
X003869Y014505D01*
X004016Y014505D01*
X004089Y014578D01*
X004089Y014799D01*
X003795Y014799D02*
X003795Y014578D01*
X003795Y014338D02*
X004016Y014338D01*
X004089Y014265D01*
X004089Y014045D01*
X003795Y014045D01*
X003795Y013878D02*
X003795Y013658D01*
X003869Y013584D01*
X003942Y013658D01*
X003942Y013878D01*
X004016Y013878D02*
X003795Y013878D01*
X004016Y013878D02*
X004089Y013804D01*
X004089Y013658D01*
X004309Y013660D02*
X005715Y013660D01*
X005695Y013602D02*
X004363Y013602D01*
X004421Y013543D02*
X005695Y013543D01*
X005695Y013485D02*
X004456Y013485D01*
X004456Y013426D02*
X005695Y013426D01*
X005695Y013368D02*
X004456Y013368D01*
X004439Y013309D02*
X005695Y013309D01*
X005695Y013251D02*
X004420Y013251D01*
X004456Y013192D02*
X005695Y013192D01*
X005702Y013134D02*
X004456Y013134D01*
X004456Y013075D02*
X005761Y013075D01*
X005819Y013017D02*
X004440Y013017D01*
X004381Y012958D02*
X005878Y012958D01*
X005774Y013719D02*
X004309Y013719D01*
X004309Y013777D02*
X005832Y013777D01*
X005891Y013836D02*
X004309Y013836D01*
X004309Y013894D02*
X005949Y013894D01*
X006564Y015357D02*
X008652Y015357D01*
X008301Y015708D02*
X004309Y015708D01*
X004280Y015766D02*
X008242Y015766D01*
X008184Y015825D02*
X004221Y015825D01*
X004107Y016050D02*
X004236Y016179D01*
X004236Y016655D01*
X004107Y016783D01*
X003924Y016783D01*
X003796Y016655D01*
X003796Y016179D01*
X003924Y016050D01*
X004107Y016050D01*
X004116Y016059D02*
X007950Y016059D01*
X008008Y016000D02*
X003418Y016000D01*
X003418Y015942D02*
X008067Y015942D01*
X008125Y015883D02*
X003418Y015883D01*
X003418Y016059D02*
X003916Y016059D01*
X003857Y016117D02*
X003418Y016117D01*
X003418Y016176D02*
X003799Y016176D01*
X003796Y016234D02*
X003418Y016234D01*
X003418Y016293D02*
X003796Y016293D01*
X003796Y016351D02*
X003418Y016351D01*
X003418Y016410D02*
X003796Y016410D01*
X003796Y016468D02*
X003418Y016468D01*
X003418Y016527D02*
X003796Y016527D01*
X003796Y016585D02*
X003418Y016585D01*
X003418Y016644D02*
X003796Y016644D01*
X003843Y016702D02*
X003418Y016702D01*
X003418Y016761D02*
X003902Y016761D01*
X004129Y016761D02*
X007248Y016761D01*
X007306Y016702D02*
X004188Y016702D01*
X004236Y016644D02*
X007365Y016644D01*
X007423Y016585D02*
X004236Y016585D01*
X004236Y016527D02*
X007482Y016527D01*
X007540Y016468D02*
X004236Y016468D01*
X004236Y016410D02*
X007599Y016410D01*
X007657Y016351D02*
X004236Y016351D01*
X004236Y016293D02*
X007716Y016293D01*
X007774Y016234D02*
X004236Y016234D01*
X004233Y016176D02*
X007833Y016176D01*
X007891Y016117D02*
X004174Y016117D01*
X004016Y016270D02*
X004016Y016563D01*
X004047Y016995D02*
X003911Y016995D01*
X003969Y017053D02*
X003989Y017053D01*
X004162Y017191D02*
X004236Y017264D01*
X004236Y017411D01*
X004162Y017484D01*
X004089Y017484D01*
X003795Y017191D01*
X003795Y017484D01*
X003869Y017651D02*
X004162Y017945D01*
X003869Y017945D01*
X003795Y017871D01*
X003795Y017724D01*
X003869Y017651D01*
X004162Y017651D01*
X004236Y017724D01*
X004236Y017871D01*
X004162Y017945D01*
X004089Y018111D02*
X004236Y018258D01*
X003795Y018258D01*
X003795Y018111D02*
X003795Y018405D01*
X003575Y018399D02*
X003418Y018399D01*
X003418Y018457D02*
X003575Y018457D01*
X003595Y018516D02*
X003418Y018516D01*
X003418Y018574D02*
X003654Y018574D01*
X003575Y018340D02*
X003418Y018340D01*
X003418Y018282D02*
X003575Y018282D01*
X003575Y018223D02*
X003418Y018223D01*
X003418Y018165D02*
X003575Y018165D01*
X003575Y018106D02*
X003418Y018106D01*
X003418Y018048D02*
X003575Y018048D01*
X003602Y017989D02*
X003418Y017989D01*
X003418Y017931D02*
X003575Y017931D01*
X003575Y017962D02*
X003575Y017962D01*
X003575Y017962D01*
X003575Y017872D02*
X003418Y017872D01*
X003418Y017814D02*
X003575Y017814D01*
X003575Y017755D02*
X003418Y017755D01*
X003418Y017697D02*
X003575Y017697D01*
X003575Y017638D02*
X003418Y017638D01*
X003418Y017580D02*
X003580Y017580D01*
X003575Y017521D02*
X003418Y017521D01*
X003418Y017463D02*
X003575Y017463D01*
X003575Y017404D02*
X003418Y017404D01*
X003418Y017346D02*
X003575Y017346D01*
X003575Y017287D02*
X003418Y017287D01*
X003418Y017229D02*
X003575Y017229D01*
X003575Y017170D02*
X003418Y017170D01*
X003418Y017112D02*
X003575Y017112D01*
X003622Y017053D02*
X003418Y017053D01*
X003418Y016995D02*
X003680Y016995D01*
X003418Y016936D02*
X006169Y016936D01*
X006194Y016932D02*
X006198Y016932D01*
X006198Y017632D01*
X006258Y017632D01*
X006258Y016932D01*
X006262Y016932D01*
X006329Y016943D01*
X006393Y016964D01*
X006453Y016994D01*
X006508Y017034D01*
X006556Y017082D01*
X006596Y017137D01*
X006627Y017197D01*
X006647Y017262D01*
X006658Y017328D01*
X006658Y017632D01*
X006258Y017632D01*
X006258Y017692D01*
X006658Y017692D01*
X006658Y017996D01*
X006647Y018063D01*
X006627Y018127D01*
X006596Y018188D01*
X006556Y018242D01*
X006508Y018290D01*
X006453Y018330D01*
X006393Y018361D01*
X006329Y018382D01*
X006262Y018392D01*
X006258Y018392D01*
X006258Y017692D01*
X006198Y017692D01*
X006198Y017632D01*
X005798Y017632D01*
X005798Y017328D01*
X005809Y017262D01*
X005830Y017197D01*
X005860Y017137D01*
X005900Y017082D01*
X005948Y017034D01*
X006003Y016994D01*
X006063Y016964D01*
X006127Y016943D01*
X006194Y016932D01*
X006198Y016936D02*
X006258Y016936D01*
X006287Y016936D02*
X006976Y016936D01*
X006902Y016995D02*
X006454Y016995D01*
X006527Y017053D02*
X006844Y017053D01*
X006801Y017112D02*
X006578Y017112D01*
X006613Y017170D02*
X006777Y017170D01*
X006753Y017229D02*
X006637Y017229D01*
X006652Y017287D02*
X006738Y017287D01*
X006738Y017346D02*
X006658Y017346D01*
X006658Y017404D02*
X006738Y017404D01*
X006738Y017463D02*
X006658Y017463D01*
X006658Y017521D02*
X006738Y017521D01*
X006738Y017580D02*
X006658Y017580D01*
X006738Y017638D02*
X006258Y017638D01*
X006258Y017580D02*
X006198Y017580D01*
X006198Y017638D02*
X004456Y017638D01*
X004456Y017697D02*
X005798Y017697D01*
X005798Y017692D02*
X006198Y017692D01*
X006198Y018392D01*
X006194Y018392D01*
X006127Y018382D01*
X006063Y018361D01*
X006003Y018330D01*
X005948Y018290D01*
X005900Y018242D01*
X005860Y018188D01*
X005830Y018127D01*
X005809Y018063D01*
X005798Y017996D01*
X005798Y017692D01*
X005798Y017755D02*
X004456Y017755D01*
X004456Y017814D02*
X005798Y017814D01*
X005798Y017872D02*
X004456Y017872D01*
X004456Y017931D02*
X005798Y017931D01*
X005798Y017989D02*
X004429Y017989D01*
X004382Y018036D02*
X004382Y018036D01*
X004370Y018048D02*
X005806Y018048D01*
X005823Y018106D02*
X004395Y018106D01*
X004453Y018165D02*
X005849Y018165D01*
X005886Y018223D02*
X004456Y018223D01*
X004456Y018282D02*
X005939Y018282D01*
X006023Y018340D02*
X004456Y018340D01*
X004406Y018399D02*
X007002Y018399D01*
X006913Y018340D02*
X006433Y018340D01*
X006517Y018282D02*
X006855Y018282D01*
X006806Y018223D02*
X006570Y018223D01*
X006607Y018165D02*
X006782Y018165D01*
X006757Y018106D02*
X006633Y018106D01*
X006650Y018048D02*
X006738Y018048D01*
X006738Y017989D02*
X006658Y017989D01*
X006658Y017931D02*
X006738Y017931D01*
X006738Y017872D02*
X006658Y017872D01*
X006658Y017814D02*
X006738Y017814D01*
X006738Y017755D02*
X006658Y017755D01*
X006658Y017697D02*
X006738Y017697D01*
X006258Y017697D02*
X006198Y017697D01*
X006198Y017755D02*
X006258Y017755D01*
X006258Y017814D02*
X006198Y017814D01*
X006198Y017872D02*
X006258Y017872D01*
X006258Y017931D02*
X006198Y017931D01*
X006198Y017989D02*
X006258Y017989D01*
X006258Y018048D02*
X006198Y018048D01*
X006198Y018106D02*
X006258Y018106D01*
X006258Y018165D02*
X006198Y018165D01*
X006198Y018223D02*
X006258Y018223D01*
X006258Y018282D02*
X006198Y018282D01*
X006198Y018340D02*
X006258Y018340D01*
X006258Y017521D02*
X006198Y017521D01*
X006198Y017463D02*
X006258Y017463D01*
X006258Y017404D02*
X006198Y017404D01*
X006198Y017346D02*
X006258Y017346D01*
X006258Y017287D02*
X006198Y017287D01*
X006198Y017229D02*
X006258Y017229D01*
X006258Y017170D02*
X006198Y017170D01*
X006198Y017112D02*
X006258Y017112D01*
X006258Y017053D02*
X006198Y017053D01*
X006198Y016995D02*
X006258Y016995D01*
X006002Y016995D02*
X004278Y016995D01*
X004336Y017053D02*
X005929Y017053D01*
X005878Y017112D02*
X004395Y017112D01*
X004453Y017170D02*
X005843Y017170D01*
X005819Y017229D02*
X004456Y017229D01*
X004456Y017287D02*
X005805Y017287D01*
X005798Y017346D02*
X004456Y017346D01*
X004456Y017404D02*
X005798Y017404D01*
X005798Y017463D02*
X004456Y017463D01*
X004456Y017502D02*
X004456Y017502D01*
X004436Y017521D02*
X005798Y017521D01*
X005798Y017580D02*
X004402Y017580D01*
X004236Y018481D02*
X004236Y018481D01*
X003418Y019978D02*
X011748Y019978D01*
X011748Y020037D02*
X003418Y020037D01*
X003418Y020095D02*
X011748Y020095D01*
X012044Y020095D02*
X012104Y020095D01*
X012104Y020037D02*
X012044Y020037D01*
X012044Y019978D02*
X012104Y019978D01*
X012104Y020154D02*
X012044Y020154D01*
X012044Y020212D02*
X012104Y020212D01*
X012397Y020329D02*
X006658Y020329D01*
X006531Y020914D02*
X004501Y020914D01*
X007508Y020973D02*
X008033Y020973D01*
X007951Y021031D02*
X007590Y021031D01*
X008323Y019686D02*
X008376Y019686D01*
X008525Y019688D02*
X008525Y019688D01*
X008083Y019468D02*
X008009Y019468D01*
X008002Y018399D02*
X007454Y018399D01*
X007543Y018340D02*
X007913Y018340D01*
X007855Y018282D02*
X007601Y018282D01*
X007650Y018223D02*
X007806Y018223D01*
X007782Y018165D02*
X007674Y018165D01*
X007699Y018106D02*
X007757Y018106D01*
X007738Y018048D02*
X007718Y018048D01*
X007718Y017989D02*
X007738Y017989D01*
X007738Y017931D02*
X007718Y017931D01*
X007718Y017872D02*
X007738Y017872D01*
X007738Y017814D02*
X007718Y017814D01*
X007718Y017755D02*
X007738Y017755D01*
X007738Y017697D02*
X007718Y017697D01*
X007718Y017638D02*
X007738Y017638D01*
X007738Y017580D02*
X007718Y017580D01*
X007718Y017521D02*
X007738Y017521D01*
X007738Y017463D02*
X007718Y017463D01*
X007718Y017404D02*
X007738Y017404D01*
X007738Y017346D02*
X007718Y017346D01*
X007718Y017287D02*
X007738Y017287D01*
X007753Y017229D02*
X007703Y017229D01*
X007679Y017170D02*
X007777Y017170D01*
X007801Y017112D02*
X007660Y017112D01*
X007719Y017053D02*
X007844Y017053D01*
X007902Y016995D02*
X007777Y016995D01*
X007836Y016936D02*
X007976Y016936D01*
X007894Y016878D02*
X008117Y016878D01*
X008189Y016819D02*
X007953Y016819D01*
X008011Y016761D02*
X008248Y016761D01*
X008306Y016702D02*
X008070Y016702D01*
X008128Y016644D02*
X008365Y016644D01*
X008423Y016585D02*
X008187Y016585D01*
X008245Y016527D02*
X008482Y016527D01*
X008540Y016468D02*
X008304Y016468D01*
X008362Y016410D02*
X008632Y016410D01*
X008836Y016936D02*
X008976Y016936D01*
X008902Y016995D02*
X008777Y016995D01*
X008719Y017053D02*
X008844Y017053D01*
X008801Y017112D02*
X008660Y017112D01*
X008679Y017170D02*
X008777Y017170D01*
X008753Y017229D02*
X008703Y017229D01*
X008718Y017287D02*
X008738Y017287D01*
X008738Y017346D02*
X008718Y017346D01*
X008718Y017404D02*
X008738Y017404D01*
X008738Y017463D02*
X008718Y017463D01*
X008718Y017521D02*
X008738Y017521D01*
X008738Y017580D02*
X008718Y017580D01*
X008718Y017638D02*
X008738Y017638D01*
X008738Y017697D02*
X008718Y017697D01*
X008718Y017755D02*
X008738Y017755D01*
X008738Y017814D02*
X008718Y017814D01*
X008718Y017872D02*
X008738Y017872D01*
X008738Y017931D02*
X008718Y017931D01*
X008718Y017989D02*
X008738Y017989D01*
X008738Y018048D02*
X008718Y018048D01*
X008699Y018106D02*
X008757Y018106D01*
X008782Y018165D02*
X008674Y018165D01*
X008650Y018223D02*
X008806Y018223D01*
X008855Y018282D02*
X008601Y018282D01*
X008543Y018340D02*
X008913Y018340D01*
X009002Y018399D02*
X008454Y018399D01*
X007189Y016819D02*
X003418Y016819D01*
X003418Y016878D02*
X007117Y016878D01*
X004236Y013417D02*
X003942Y013124D01*
X004016Y013197D02*
X003795Y013417D01*
X003795Y013124D02*
X004236Y013124D01*
X011774Y019681D02*
X011756Y019710D01*
X011748Y019744D01*
D12*
X012704Y020371D03*
X012704Y015371D03*
X013295Y015371D03*
X018019Y020371D03*
X019791Y020371D03*
X019791Y015371D03*
X019200Y015371D03*
D13*
X012074Y015804D03*
X012074Y019938D03*
D14*
X012271Y021405D02*
X012271Y022005D01*
X011271Y022005D02*
X011271Y021405D01*
X010271Y021405D02*
X010271Y022005D01*
X009271Y022005D02*
X009271Y021405D01*
X008271Y021405D02*
X008271Y022005D01*
X007271Y022005D02*
X007271Y021405D01*
X006271Y021405D02*
X006271Y022005D01*
X005271Y022005D02*
X005271Y021405D01*
X006228Y017962D02*
X006228Y017362D01*
X007228Y017362D02*
X007228Y017962D01*
X008228Y017962D02*
X008228Y017362D01*
X009228Y017362D02*
X009228Y017962D01*
X013871Y021405D02*
X013871Y022005D01*
X014871Y022005D02*
X014871Y021405D01*
X015871Y021405D02*
X015871Y022005D01*
X016871Y022005D02*
X016871Y021405D01*
X017871Y021405D02*
X017871Y022005D01*
X018871Y022005D02*
X018871Y021405D01*
X019871Y021405D02*
X019871Y022005D01*
X020871Y022005D02*
X020871Y021405D01*
X017701Y013505D02*
X017101Y013505D01*
X017101Y012505D02*
X017701Y012505D01*
X017701Y011505D02*
X017101Y011505D01*
X016871Y003605D02*
X016871Y003005D01*
X017871Y003005D02*
X017871Y003605D01*
X018871Y003605D02*
X018871Y003005D01*
X019871Y003005D02*
X019871Y003605D01*
X020871Y003605D02*
X020871Y003005D01*
X015871Y003005D02*
X015871Y003605D01*
X013871Y003605D02*
X013871Y003005D01*
X012871Y003005D02*
X012871Y003605D01*
X011871Y003605D02*
X011871Y003005D01*
X010871Y003005D02*
X010871Y003605D01*
X009871Y003605D02*
X009871Y003005D01*
X008871Y003005D02*
X008871Y003605D01*
D15*
X020445Y012255D03*
X020445Y013255D03*
X021445Y012755D03*
X021445Y011755D03*
D16*
X014055Y012505D03*
X012086Y012505D03*
D17*
X011102Y008387D03*
X010118Y008387D03*
D18*
X010118Y007387D03*
X011102Y007387D03*
X011102Y006387D03*
X010118Y006387D03*
D19*
X005177Y006009D03*
X004429Y006009D03*
X018602Y011914D03*
X019350Y011914D03*
X019350Y013095D03*
X018602Y013095D03*
D20*
X005083Y004040D03*
X004523Y004040D03*
D21*
X006299Y008568D03*
X006299Y009946D03*
X006299Y011324D03*
X006299Y013391D03*
X006299Y014769D03*
D22*
X004015Y020595D03*
X004015Y021343D03*
D23*
X015826Y009961D03*
X015826Y008961D03*
X015826Y007961D03*
X015826Y006812D03*
X015826Y005812D03*
X015826Y004812D03*
X018582Y004812D03*
X018582Y005812D03*
X018582Y006812D03*
X018582Y007961D03*
X018582Y008961D03*
X018582Y009961D03*
X021338Y009961D03*
X021338Y008961D03*
X021338Y007961D03*
X021338Y006812D03*
X021338Y005812D03*
X021338Y004812D03*
D24*
X008366Y014867D03*
X007539Y014867D03*
D25*
X008346Y014867D03*
X009272Y014473D03*
X011889Y011324D03*
X012028Y010339D03*
X012480Y009946D03*
X011693Y009355D03*
X013012Y011127D03*
X013760Y014670D03*
X014547Y015261D03*
X015039Y015851D03*
X014941Y016442D03*
X017992Y018017D03*
X017401Y019788D03*
X019350Y019788D03*
X021871Y021166D03*
X021929Y016816D03*
X013071Y021954D03*
X004015Y021363D03*
X003622Y021954D03*
X009035Y007977D03*
X009413Y004237D03*
X007952Y003056D03*
X005063Y005024D03*
X003917Y005024D03*
X014891Y003056D03*
X022519Y003056D03*
D26*
X021338Y005812D02*
X022126Y006501D01*
X022126Y008174D01*
X021338Y008961D01*
X018582Y008961D01*
X017401Y008961D01*
X015826Y008961D01*
X015826Y005812D02*
X018582Y005812D01*
X021338Y005812D01*
D27*
X021338Y008961D02*
X020157Y008961D01*
X020157Y011324D02*
X018602Y011324D01*
X018602Y011914D01*
X018602Y012505D01*
X017401Y012505D01*
X017135Y012505D01*
X016478Y013162D01*
X016478Y013912D01*
X016228Y014162D01*
X010228Y014162D01*
X007228Y017162D01*
X007228Y017662D01*
X008228Y017662D02*
X008228Y017162D01*
X008728Y016662D01*
X009478Y016662D01*
X009978Y017162D01*
X013978Y017162D01*
X017728Y020912D01*
X018263Y020912D01*
X018871Y021520D01*
X018871Y022005D01*
X017871Y022005D02*
X017871Y021520D01*
X014013Y017662D01*
X009228Y017662D01*
X008366Y014867D02*
X008346Y014867D01*
X007539Y014867D02*
X007539Y014631D01*
X006299Y013391D01*
X009724Y009355D02*
X011693Y009355D01*
X009724Y009355D02*
X006378Y006009D01*
X005177Y006009D01*
X004523Y005915D02*
X004523Y005024D01*
X003917Y005024D01*
X004523Y005024D02*
X004523Y004040D01*
X005083Y004040D02*
X008350Y004040D01*
X008871Y003520D01*
X008871Y003005D01*
X004523Y005915D02*
X004429Y006009D01*
X015039Y015851D02*
X015055Y015851D01*
X017992Y018017D02*
X017992Y019394D01*
X019567Y019394D01*
X019791Y019619D01*
X019791Y020371D01*
X019350Y019788D02*
X018019Y019788D01*
X018019Y020371D01*
X020871Y022005D02*
X021871Y022005D01*
X022519Y021356D01*
X022519Y016847D01*
X021043Y015371D01*
X019791Y015371D01*
X019200Y015371D02*
X019200Y015879D01*
X020992Y015879D01*
X021929Y016816D01*
X020445Y013255D02*
X020285Y013095D01*
X019350Y013095D01*
X018602Y013095D02*
X018602Y012505D01*
X019350Y011914D02*
X020104Y011914D01*
X020445Y012255D01*
X020588Y011755D02*
X021445Y011755D01*
X020588Y011755D02*
X020157Y011324D01*
X017401Y011505D02*
X017401Y008961D01*
X006594Y020595D02*
X007271Y021272D01*
X007271Y022005D01*
X006594Y020595D02*
X004015Y020595D01*
X004015Y021343D02*
X004015Y021363D01*
D28*
X011889Y011324D02*
X013267Y009946D01*
X013267Y005615D01*
X013871Y005012D01*
X013871Y003005D01*
D29*
X011224Y004162D02*
X012775Y005713D01*
X012775Y009650D01*
X012480Y009946D01*
X017401Y013505D02*
X015055Y015851D01*
X015039Y015851D02*
X013295Y015851D01*
X013295Y015371D01*
X011224Y004162D02*
X010478Y004162D01*
X009871Y003555D01*
X009871Y003005D01*
M02*
