G75*
%MOIN*%
%OFA0B0*%
%FSLAX24Y24*%
%IPPOS*%
%LPD*%
%AMOC8*
5,1,8,0,0,1.08239X$1,22.5*
%
%ADD10C,0.0000*%
D10*
X003228Y003056D02*
X003228Y021954D01*
X003230Y021993D01*
X003236Y022031D01*
X003245Y022068D01*
X003258Y022105D01*
X003275Y022140D01*
X003294Y022173D01*
X003317Y022204D01*
X003343Y022233D01*
X003372Y022259D01*
X003403Y022282D01*
X003436Y022301D01*
X003471Y022318D01*
X003508Y022331D01*
X003545Y022340D01*
X003583Y022346D01*
X003622Y022348D01*
X003622Y022347D02*
X022519Y022347D01*
X022519Y022348D02*
X022558Y022346D01*
X022596Y022340D01*
X022633Y022331D01*
X022670Y022318D01*
X022705Y022301D01*
X022738Y022282D01*
X022769Y022259D01*
X022798Y022233D01*
X022824Y022204D01*
X022847Y022173D01*
X022866Y022140D01*
X022883Y022105D01*
X022896Y022068D01*
X022905Y022031D01*
X022911Y021993D01*
X022913Y021954D01*
X022913Y003056D01*
X022911Y003017D01*
X022905Y002979D01*
X022896Y002942D01*
X022883Y002905D01*
X022866Y002870D01*
X022847Y002837D01*
X022824Y002806D01*
X022798Y002777D01*
X022769Y002751D01*
X022738Y002728D01*
X022705Y002709D01*
X022670Y002692D01*
X022633Y002679D01*
X022596Y002670D01*
X022558Y002664D01*
X022519Y002662D01*
X003622Y002662D01*
X003583Y002664D01*
X003545Y002670D01*
X003508Y002679D01*
X003471Y002692D01*
X003436Y002709D01*
X003403Y002728D01*
X003372Y002751D01*
X003343Y002777D01*
X003317Y002806D01*
X003294Y002837D01*
X003275Y002870D01*
X003258Y002905D01*
X003245Y002942D01*
X003236Y002979D01*
X003230Y003017D01*
X003228Y003056D01*
X020441Y011204D02*
X020443Y011238D01*
X020449Y011272D01*
X020459Y011305D01*
X020472Y011336D01*
X020490Y011366D01*
X020510Y011394D01*
X020534Y011419D01*
X020560Y011441D01*
X020588Y011459D01*
X020619Y011475D01*
X020651Y011487D01*
X020685Y011495D01*
X020719Y011499D01*
X020753Y011499D01*
X020787Y011495D01*
X020821Y011487D01*
X020853Y011475D01*
X020883Y011459D01*
X020912Y011441D01*
X020938Y011419D01*
X020962Y011394D01*
X020982Y011366D01*
X021000Y011336D01*
X021013Y011305D01*
X021023Y011272D01*
X021029Y011238D01*
X021031Y011204D01*
X021029Y011170D01*
X021023Y011136D01*
X021013Y011103D01*
X021000Y011072D01*
X020982Y011042D01*
X020962Y011014D01*
X020938Y010989D01*
X020912Y010967D01*
X020884Y010949D01*
X020853Y010933D01*
X020821Y010921D01*
X020787Y010913D01*
X020753Y010909D01*
X020719Y010909D01*
X020685Y010913D01*
X020651Y010921D01*
X020619Y010933D01*
X020588Y010949D01*
X020560Y010967D01*
X020534Y010989D01*
X020510Y011014D01*
X020490Y011042D01*
X020472Y011072D01*
X020459Y011103D01*
X020449Y011136D01*
X020443Y011170D01*
X020441Y011204D01*
M02*
