%
M48
M72
T01C0.0236
T02C0.0315
T03C0.0320
T04C0.0400
T05C0.0402
T06C0.0551
T07C0.0591
%
T01
X3917Y5024
X5063Y5024
X7952Y3056
X9413Y4237
X9035Y7977
X11693Y9355
X12480Y9946
X12028Y10339
X11889Y11324
X13012Y11127
X13760Y14670
X14547Y15261
X15039Y15851
X14941Y16442
X17992Y18017
X17401Y19788
X19350Y19788
X21871Y21166
X21929Y16816
X13071Y21954
X8346Y14867
X9272Y14473
X4015Y21363
X3622Y21954
X14891Y3056
X22519Y3056
T02
X14055Y12505
X12086Y12505
T03
X20445Y12255
X20445Y13255
X21445Y12755
X21445Y11755
T04
X17401Y11505
X17401Y12505
X17401Y13505
X11102Y8387
X10118Y8387
X10118Y7387
X11102Y7387
X11102Y6387
X10118Y6387
X9871Y3005
X10871Y3005
X11871Y3005
X12871Y3005
X13871Y3005
X15871Y3005
X16871Y3005
X17871Y3005
X18871Y3005
X19871Y3005
X20871Y3005
X8871Y3005
X9228Y17662
X8228Y17662
X7228Y17662
X6228Y17662
X6271Y22005
X5271Y22005
X7271Y22005
X8271Y22005
X9271Y22005
X10271Y22005
X11271Y22005
X12271Y22005
X13871Y22005
X14871Y22005
X15871Y22005
X16871Y22005
X17871Y22005
X18871Y22005
X19871Y22005
X20871Y22005
T05
X21338Y9961
X21338Y8961
X21338Y7961
X21338Y6812
X21338Y5812
X21338Y4812
X18582Y4812
X18582Y5812
X18582Y6812
X18582Y7961
X18582Y8961
X18582Y9961
X15826Y9961
X15826Y8961
X15826Y7961
X15826Y6812
X15826Y5812
X15826Y4812
T06
X6299Y8568
X6299Y9946
X6299Y11324
X6299Y13391
X6299Y14769
T07
X20736Y11204
M30
