G75*
%MOIN*%
%OFA0B0*%
%FSLAX24Y24*%
%IPPOS*%
%LPD*%
%AMOC8*
5,1,8,0,0,1.08239X$1,22.5*
%
%ADD10C,0.0000*%
%ADD11C,0.0640*%
%ADD12R,0.0631X0.0552*%
%ADD13R,0.0512X0.0512*%
%ADD14C,0.0560*%
%ADD15C,0.0631*%
%ADD16OC8,0.0670*%
%ADD17R,0.0552X0.0631*%
%ADD18R,0.0640X0.0640*%
%ADD19C,0.0640*%
%ADD20R,0.0591X0.0867*%
%ADD21OC8,0.0867*%
%ADD22OC8,0.0642*%
%ADD23R,0.0591X0.0434*%
D10*
X003228Y003056D02*
X003228Y021954D01*
X003230Y021993D01*
X003236Y022031D01*
X003245Y022068D01*
X003258Y022105D01*
X003275Y022140D01*
X003294Y022173D01*
X003317Y022204D01*
X003343Y022233D01*
X003372Y022259D01*
X003403Y022282D01*
X003436Y022301D01*
X003471Y022318D01*
X003508Y022331D01*
X003545Y022340D01*
X003583Y022346D01*
X003622Y022348D01*
X003622Y022347D02*
X022519Y022347D01*
X022519Y022348D02*
X022558Y022346D01*
X022596Y022340D01*
X022633Y022331D01*
X022670Y022318D01*
X022705Y022301D01*
X022738Y022282D01*
X022769Y022259D01*
X022798Y022233D01*
X022824Y022204D01*
X022847Y022173D01*
X022866Y022140D01*
X022883Y022105D01*
X022896Y022068D01*
X022905Y022031D01*
X022911Y021993D01*
X022913Y021954D01*
X022913Y003056D01*
X022911Y003017D01*
X022905Y002979D01*
X022896Y002942D01*
X022883Y002905D01*
X022866Y002870D01*
X022847Y002837D01*
X022824Y002806D01*
X022798Y002777D01*
X022769Y002751D01*
X022738Y002728D01*
X022705Y002709D01*
X022670Y002692D01*
X022633Y002679D01*
X022596Y002670D01*
X022558Y002664D01*
X022519Y002662D01*
X003622Y002662D01*
X003583Y002664D01*
X003545Y002670D01*
X003508Y002679D01*
X003471Y002692D01*
X003436Y002709D01*
X003403Y002728D01*
X003372Y002751D01*
X003343Y002777D01*
X003317Y002806D01*
X003294Y002837D01*
X003275Y002870D01*
X003258Y002905D01*
X003245Y002942D01*
X003236Y002979D01*
X003230Y003017D01*
X003228Y003056D01*
X020441Y011204D02*
X020443Y011238D01*
X020449Y011272D01*
X020459Y011305D01*
X020472Y011336D01*
X020490Y011366D01*
X020510Y011394D01*
X020534Y011419D01*
X020560Y011441D01*
X020588Y011459D01*
X020619Y011475D01*
X020651Y011487D01*
X020685Y011495D01*
X020719Y011499D01*
X020753Y011499D01*
X020787Y011495D01*
X020821Y011487D01*
X020853Y011475D01*
X020883Y011459D01*
X020912Y011441D01*
X020938Y011419D01*
X020962Y011394D01*
X020982Y011366D01*
X021000Y011336D01*
X021013Y011305D01*
X021023Y011272D01*
X021029Y011238D01*
X021031Y011204D01*
X021029Y011170D01*
X021023Y011136D01*
X021013Y011103D01*
X021000Y011072D01*
X020982Y011042D01*
X020962Y011014D01*
X020938Y010989D01*
X020912Y010967D01*
X020884Y010949D01*
X020853Y010933D01*
X020821Y010921D01*
X020787Y010913D01*
X020753Y010909D01*
X020719Y010909D01*
X020685Y010913D01*
X020651Y010921D01*
X020619Y010933D01*
X020588Y010949D01*
X020560Y010967D01*
X020534Y010989D01*
X020510Y011014D01*
X020490Y011042D01*
X020472Y011072D01*
X020459Y011103D01*
X020449Y011136D01*
X020443Y011170D01*
X020441Y011204D01*
D11*
X017701Y011505D02*
X017101Y011505D01*
X017101Y012505D02*
X017701Y012505D01*
X017701Y013505D02*
X017101Y013505D01*
X016871Y021405D02*
X016871Y022005D01*
X017871Y022005D02*
X017871Y021405D01*
X018871Y021405D02*
X018871Y022005D01*
X019871Y022005D02*
X019871Y021405D01*
X020871Y021405D02*
X020871Y022005D01*
X015871Y022005D02*
X015871Y021405D01*
X014871Y021405D02*
X014871Y022005D01*
X013871Y022005D02*
X013871Y021405D01*
X012271Y021405D02*
X012271Y022005D01*
X011271Y022005D02*
X011271Y021405D01*
X010271Y021405D02*
X010271Y022005D01*
X009271Y022005D02*
X009271Y021405D01*
X008271Y021405D02*
X008271Y022005D01*
X007271Y022005D02*
X007271Y021405D01*
X006271Y021405D02*
X006271Y022005D01*
X005271Y022005D02*
X005271Y021405D01*
X006228Y017962D02*
X006228Y017362D01*
X007228Y017362D02*
X007228Y017962D01*
X008228Y017962D02*
X008228Y017362D01*
X009228Y017362D02*
X009228Y017962D01*
X008871Y003605D02*
X008871Y003005D01*
X009871Y003005D02*
X009871Y003605D01*
X010871Y003605D02*
X010871Y003005D01*
X011871Y003005D02*
X011871Y003605D01*
X012871Y003605D02*
X012871Y003005D01*
X013871Y003005D02*
X013871Y003605D01*
X015871Y003605D02*
X015871Y003005D01*
X016871Y003005D02*
X016871Y003605D01*
X017871Y003605D02*
X017871Y003005D01*
X018871Y003005D02*
X018871Y003605D01*
X019871Y003605D02*
X019871Y003005D01*
X020871Y003005D02*
X020871Y003605D01*
D12*
X021929Y016068D03*
X021929Y016816D03*
X021929Y018036D03*
X021929Y018784D03*
X019960Y018784D03*
X019960Y018036D03*
X017992Y018036D03*
X017992Y018784D03*
X017992Y016816D03*
X017992Y016068D03*
D13*
X019960Y016028D03*
X019960Y016855D03*
X004015Y020556D03*
X004015Y021383D03*
D14*
X020445Y013255D03*
X020445Y012255D03*
X021445Y012755D03*
X021445Y011755D03*
D15*
X020736Y011204D03*
D16*
X014055Y012505D03*
X012086Y012505D03*
D17*
X012697Y015654D03*
X013445Y015654D03*
X008326Y014867D03*
X007578Y014867D03*
D18*
X010118Y008387D03*
X011102Y008387D03*
D19*
X011102Y007387D03*
X010118Y007387D03*
X010118Y006387D03*
X011102Y006387D03*
D20*
X005689Y006816D03*
X003917Y006816D03*
X003917Y003233D03*
X005689Y003233D03*
D21*
X006299Y008568D03*
X006299Y009946D03*
X006299Y011324D03*
X006299Y013391D03*
X006299Y014769D03*
D22*
X015826Y009961D03*
X015826Y008961D03*
X015826Y007961D03*
X015826Y006812D03*
X015826Y005812D03*
X015826Y004812D03*
X018582Y004812D03*
X018582Y005812D03*
X018582Y006812D03*
X018582Y007961D03*
X018582Y008961D03*
X018582Y009961D03*
X021338Y009961D03*
X021338Y008961D03*
X021338Y007961D03*
X021338Y006812D03*
X021338Y005812D03*
X021338Y004812D03*
D23*
X008385Y013312D03*
X008385Y014060D03*
X007519Y013686D03*
M02*
